<?xml version="1.0" standalone="no"?>
<!DOCTYPE svg PUBLIC "-//W3C//DTD SVG 1.1//EN" "http://www.w3.org/Graphics/SVG/1.1/DTD/svg11.dtd" >
<svg xmlns="http://www.w3.org/2000/svg">
<metadata></metadata>
<defs>
<font id="queuebold" horiz-adv-x="1092" >
<font-face units-per-em="2048" ascent="1700" descent="-348" />
<missing-glyph horiz-adv-x="500" />
<glyph unicode=" "  horiz-adv-x="500" />
<glyph unicode="&#x09;" horiz-adv-x="500" />
<glyph unicode="&#xa0;" horiz-adv-x="500" />
<glyph unicode="!" horiz-adv-x="656" d="M125 187.5q0 90.5 57 147t146 56.5q90 0 147.5 -56.5t57.5 -147t-57.5 -147.5t-147.5 -57q-89 0 -146 57t-57 147.5zM165 836v495h328v-495l-70 -366h-188z" />
<glyph unicode="&#x22;" horiz-adv-x="921" d="M131 1431h282l-36 -576h-212zM510 1431h282l-35 -576h-213z" />
<glyph unicode="#" horiz-adv-x="1253" d="M36 334l34 174h230l60 315h-229l34 174h229l65 334h169l-65 -334h254l65 334h170l-65 -334h228l-33 -174h-228l-60 -315h226l-32 -174h-228l-66 -334h-170l66 334h-254l-66 -334h-169l65 334h-230zM469 508h254l60 315h-254z" />
<glyph unicode="$" horiz-adv-x="1137" d="M91 920v28q0 143 92.5 244t269.5 137v201h239v-183q152 -8 311 -88v-232q-222 84 -357 84q-136 0 -201.5 -36t-65.5 -93v-13q0 -43 42 -72t147 -57l175 -46q171 -44 243.5 -135.5t72.5 -241.5v-34q0 -146 -99 -249t-268 -136v-197h-239v185q-200 15 -354 101v235 q255 -98 413 -98q124 0 188 36t64 96v16q0 47 -38.5 77t-141.5 57l-175 46q-162 42 -240 130.5t-78 237.5z" />
<glyph unicode="%" horiz-adv-x="1562" d="M91 965v62q0 149 86 235.5t246 86.5q159 0 244.5 -87t85.5 -235v-62q0 -149 -85.5 -236t-244.5 -87q-161 0 -246.5 87t-85.5 236zM256 0l889 1331h163l-889 -1331h-163zM322 912q0 -137 101 -137q102 0 102 137v167q0 136 -102 136q-101 0 -101 -136v-167zM811 304v62 q0 149 85.5 236.5t246.5 87.5q159 0 245 -87.5t86 -236.5v-62q0 -148 -86 -234.5t-245 -86.5q-161 0 -246.5 86t-85.5 235zM1041 252q0 -137 102 -137q101 0 101 137v167q0 137 -101 137q-102 0 -102 -137v-167z" />
<glyph unicode="&#x26;" horiz-adv-x="1511" d="M85 368v26q0 126 75 211t244 144q-114 146 -114 256v28q0 64 26 120.5t75 100.5t126 69.5t173 25.5q100 0 178 -22t128.5 -62t76.5 -96.5t26 -125.5v-16q0 -199 -271 -312l-47 -18l250 -278q60 82 80 177l36 163h256l-34 -171q-41 -198 -179 -346l216 -242h-301l-104 97 q-192 -114 -405 -114q-244 0 -377.5 101t-133.5 284zM415 398q0 -92 64 -142.5t186 -50.5q89 0 181 49l-313 352q-66 -30 -92 -71t-26 -104v-33zM566 1013q0 -81 90 -181l41 14q67 25 99 69.5t32 97.5v28q0 56 -33.5 89.5t-95.5 33.5t-97.5 -35.5t-35.5 -93.5v-22z" />
<glyph unicode="'" horiz-adv-x="542" d="M131 1431h282l-36 -576h-212z" />
<glyph unicode="(" horiz-adv-x="849" d="M131 590v52q0 220 92.5 447.5t241.5 386.5h282q-130 -147 -205 -373.5t-75 -450.5v-72q0 -224 75 -450.5t205 -373.5h-282q-98 104 -173 241t-118 292t-43 301z" />
<glyph unicode=")" horiz-adv-x="849" d="M101 -244q130 147 205 373.5t75 450.5v72q0 224 -75 450.5t-205 373.5h282q149 -159 242.5 -386.5t93.5 -447.5v-52q0 -220 -93.5 -447.5t-242.5 -386.5h-282z" />
<glyph unicode="*" horiz-adv-x="885" d="M59 1052l80 243l231 -131l-54 267h254l-54 -267l231 131l79 -243l-274 -29l215 -195l-204 -151l-120 263l-119 -263l-205 151l215 195z" />
<glyph unicode="+" horiz-adv-x="1118" d="M97 563v206h352v361h220v-361h350v-206h-350v-360h-220v360h-352z" />
<glyph unicode="," horiz-adv-x="559" d="M85 177q0 86 55 140.5t140.5 54.5t139.5 -54.5t54 -140.5q0 -47 -18 -96t-65 -125l-150 -246h-148l131 280q-41 10 -72.5 36.5t-49 65t-17.5 85.5z" />
<glyph unicode="-" horiz-adv-x="891" d="M80 606v247h735v-247h-735z" />
<glyph unicode="." horiz-adv-x="559" d="M85 176.5q0 86.5 55 141t140.5 54.5t139.5 -54.5t54 -141t-54 -140t-139.5 -53.5t-140.5 53.5t-55 140z" />
<glyph unicode="/" horiz-adv-x="940" d="M-19 -199l677 1630h267l-677 -1630h-267z" />
<glyph unicode="0" horiz-adv-x="1257" d="M103 546v239q0 268 139.5 416t385.5 148q163 0 281 -65.5t180.5 -193t62.5 -305.5v-239q0 -268 -138.5 -415.5t-385.5 -147.5t-386 147.5t-139 415.5zM447 477q0 -141 44.5 -204.5t136.5 -63.5t137.5 63.5t45.5 204.5v378q0 140 -45.5 203.5t-137.5 63.5t-136.5 -63.5 t-44.5 -203.5v-378z" />
<glyph unicode="1" horiz-adv-x="1010" d="M81 0v220h270v832h-2q-56 -41 -91 -65l-177 -119v268l302 195h296v-1111h253v-220h-851z" />
<glyph unicode="2" horiz-adv-x="1038" d="M59 0v222l434 479q65 72 91 127t26 108v19q0 77 -50 120t-147 43q-132 0 -337 -93v226q75 34 142 55t135.5 32t139.5 11q221 0 338 -98.5t117 -270.5v-46q0 -102 -59.5 -199t-213.5 -246l-182 -180q-31 -29 -110 -85v-4h565v-220h-889z" />
<glyph unicode="3" horiz-adv-x="1084" d="M76 78v224q191 -90 335 -90q116 0 177.5 47.5t61.5 138.5v27q0 78 -42 122.5t-125 44.5q-49 0 -108 -14l-51 -12l-83 143l331 332q47 47 80 68v2h-576v220h885v-239l-341 -321q32 8 66 8q133 0 220 -91t87 -235v-72q0 -183 -142 -290.5t-384 -107.5q-106 0 -199.5 23 t-191.5 72z" />
<glyph unicode="4" horiz-adv-x="1185" d="M48 266v204l612 861h320v-834h127v-231h-127v-266h-330v266h-602zM307 497h343v479h-2q-19 -36 -40 -66l-246 -344q-28 -37 -55 -67v-2z" />
<glyph unicode="5" horiz-adv-x="1118" d="M95 80v224q198 -92 358 -92q239 0 239 219v39q0 96 -39.5 145.5t-112.5 49.5q-71 0 -167 -79l-61 -52l-209 6l22 791h846v-220h-584l-10 -326l34 21q73 49 134 70.5t134 21.5q164 0 259 -109t95 -296v-57q0 -145 -65.5 -247t-186.5 -154t-288 -52q-205 0 -398 97z" />
<glyph unicode="6" horiz-adv-x="1219" d="M103 542v227q0 291 141.5 435.5t430.5 144.5q178 0 368 -90v-224q-95 46 -186.5 69.5t-162.5 23.5q-132 0 -189.5 -64t-57.5 -209v-82l34 23q35 25 66.5 42t64.5 29t67 17.5t72 5.5q182 0 281.5 -106.5t99.5 -302.5v-54q0 -95 -34.5 -176.5t-98 -141t-158.5 -93 t-210 -33.5q-257 0 -392.5 141t-135.5 418zM447 469q0 -266 175 -266q80 0 125 52t45 150v84q0 91 -36.5 131t-116.5 40q-60 0 -146 -54l-46 -28v-109z" />
<glyph unicode="7" horiz-adv-x="1082" d="M70 1111v220h937v-230l-413 -1101h-355l440 1111h-609z" />
<glyph unicode="8" horiz-adv-x="1215" d="M74 358v15q0 202 204 281l67 25v5l-49 21q-195 85 -195 269v21q0 76 31.5 139.5t93 112t159.5 75.5t223.5 27t223.5 -26.5t159 -74t92.5 -109.5t31.5 -136v-12q0 -86 -51.5 -154.5t-147.5 -103.5l-56 -20v-4l52 -17q231 -81 231 -311v-17q0 -85 -31 -153t-94.5 -120 t-167.5 -80t-242 -28t-242 28t-167 79.5t-94 118.5t-31 149zM415 366q0 -82 49 -132t144.5 -50t144.5 50.5t49 131.5v25q0 62 -38.5 104.5t-128.5 72.5l-77 26l-50 -31q-48 -32 -70.5 -68t-22.5 -90v-39zM436 982q0 -119 136 -167l70 -26l33 22q36 23 58.5 45.5t35 52.5 t12.5 67v19q0 68 -44.5 110t-128.5 42t-128 -42t-44 -110v-13z" />
<glyph unicode="9" horiz-adv-x="1219" d="M87 868v44q0 95 35.5 175.5t99.5 138.5t158 90.5t208 32.5q259 0 393.5 -141.5t134.5 -418.5v-226q0 -291 -144.5 -435.5t-438.5 -144.5q-83 0 -195.5 24t-206.5 69v224q92 -47 198.5 -72t182.5 -25q138 0 199.5 64.5t61.5 209.5v95l-32 -22q-128 -91 -271 -91 q-121 0 -207 47.5t-131 139.5t-45 222zM429 862q0 -92 36.5 -132t114.5 -40q59 0 149 55l44 26v91q0 266 -174 266q-80 0 -125 -52t-45 -151v-63z" />
<glyph unicode=":" horiz-adv-x="614" d="M113 176.5q0 86.5 54.5 141t140 54.5t140 -54.5t54.5 -141t-54.5 -140t-140 -53.5t-140 53.5t-54.5 140zM113 798.5q0 86.5 54.5 140.5t139.5 54q43 0 79 -14t61.5 -39.5t40 -62t14.5 -79.5q0 -86 -54.5 -140t-140 -54t-140 54t-54.5 140.5z" />
<glyph unicode=";" horiz-adv-x="614" d="M113 177q0 86 54.5 140.5t140 54.5t140 -54.5t54.5 -140.5q0 -47 -18 -96t-65 -125l-151 -246h-147l131 280q-62 15 -100.5 66t-38.5 121zM113 798.5q0 86.5 54.5 140.5t139.5 54q43 0 79 -14t61.5 -39.5t40 -62t14.5 -79.5q0 -86 -54.5 -140t-140 -54t-140 54 t-54.5 140.5z" />
<glyph unicode="&#x3c;" horiz-adv-x="1118" d="M74 556v219l947 419v-256l-562 -231q-65 -25 -139 -40v-4q74 -14 139 -39l562 -230v-257z" />
<glyph unicode="=" horiz-adv-x="1118" d="M119 368v202h878v-202h-878zM119 762v203h878v-203h-878z" />
<glyph unicode="&#x3e;" horiz-adv-x="1118" d="M95 137v257l563 230q64 25 138 39v4q-74 15 -138 40l-563 231v256l948 -419v-219z" />
<glyph unicode="?" horiz-adv-x="1155" d="M108 1035v224q224 90 448 90q237 0 361 -99.5t124 -271.5v-40q0 -149 -112 -234t-323 -94l-10 -140h-224l-16 321h114q110 0 172.5 40.5t62.5 114.5v25q0 68 -58 107.5t-170 39.5q-157 0 -369 -83zM280 187.5q0 90.5 57.5 147t147.5 56.5q89 0 146 -56.5t57 -147 t-57 -147.5t-146 -57q-90 0 -147.5 57t-57.5 147.5z" />
<glyph unicode="@" horiz-adv-x="1755" d="M78 417l49 233q35 164 108.5 289.5t187 213t270.5 133t354 45.5q161 0 283.5 -28t200.5 -80.5t122 -128.5t49.5 -172t-17.5 -211l-87 -409q-36 -164 -126 -241.5t-238 -77.5q-106 0 -178 43.5t-101 126.5l-57 -50q-80 -67 -138 -93.5t-116 -26.5q-74 0 -125.5 48 t-70.5 142t9 232l28 133q27 127 66 209.5t104 138.5t158.5 79.5t229.5 23.5q60 0 140 -15.5t156 -41.5l-133 -618q-41 -187 60 -187q49 0 92 46.5t62 133.5l104 485q39 190 -79 291t-408 101q-312 0 -494.5 -133t-233.5 -372l-65 -309q-59 -277 56 -426t405 -149 q74 0 159.5 9.5t238.5 34.5l-30 -151q-67 -11 -116 -18t-93.5 -11.5t-83 -6t-83.5 -1.5q-252 0 -408.5 92t-209 263t-1.5 411zM719 375q-36 -176 48 -176q26 0 59 18t86 61l34 28l105 496q-59 13 -96 13q-77 0 -123.5 -51.5t-71.5 -175.5z" />
<glyph unicode="A" horiz-adv-x="1296" d="M36 0l423 1331h379l426 -1331h-348l-95 320h-406l-93 -320h-286zM481 536h276l-101 340q-23 78 -36 181h-2q-18 -113 -38 -181z" />
<glyph unicode="B" horiz-adv-x="1294" d="M137 0v1331h610q213 0 318 -83t105 -237v-31q0 -78 -62.5 -155.5t-165.5 -119.5q129 -27 199.5 -109t70.5 -205v-57q0 -153 -124 -243.5t-339 -90.5h-612zM469 212h210q87 0 136 42.5t49 118.5v54q0 77 -49 120t-136 43h-210v-378zM469 796h200q56 0 94 15.5t58.5 48 t20.5 80.5v38q0 140 -173 140h-200v-322z" />
<glyph unicode="C" horiz-adv-x="1175" d="M106 578v175q0 285 150.5 440.5t422.5 155.5q190 0 390 -90v-236q-234 84 -352 84q-134 0 -198 -68.5t-64 -217.5v-311q0 -149 64 -217.5t198 -68.5q121 0 352 85v-237q-198 -89 -390 -89q-272 0 -422.5 155t-150.5 440z" />
<glyph unicode="D" horiz-adv-x="1352" d="M137 0v1331h459q318 0 484.5 -147.5t166.5 -430.5v-175q0 -284 -166.5 -431t-484.5 -147h-459zM470 231h174q129 0 190.5 68t61.5 222v290q0 154 -61.5 222t-190.5 68h-174v-870z" />
<glyph unicode="E" horiz-adv-x="1175" d="M137 0v1331h912v-237h-579v-303h508v-233h-508v-321h579v-237h-912z" />
<glyph unicode="F" horiz-adv-x="1126" d="M137 0v1331h884v-235h-552v-345h507v-235h-507v-516h-332z" />
<glyph unicode="G" horiz-adv-x="1302" d="M106 578v175q0 293 160 444.5t477 151.5q178 0 391 -90v-236q-129 47 -211.5 65.5t-167.5 18.5q-158 0 -229 -68t-71 -218v-309q0 -85 16.5 -144.5t50 -94t79.5 -49.5t110 -15q94 0 189 24v298h-244v214h528v-684q-89 -34 -228.5 -56t-265.5 -22q-301 0 -442.5 145 t-141.5 450z" />
<glyph unicode="H" horiz-adv-x="1350" d="M137 0v1331h332v-522h413v522h331v-1331h-331v542h-413v-542h-332z" />
<glyph unicode="I" horiz-adv-x="957" d="M103 0v203h211v925h-211v203h752v-203h-209v-925h209v-203h-752z" />
<glyph unicode="J" horiz-adv-x="1060" d="M80 87v239q189 -97 339 -97q108 0 164 53t56 167v647h-349v235h658v-838q0 -510 -497 -510q-199 0 -371 104z" />
<glyph unicode="K" horiz-adv-x="1325" d="M137 0v1331h332v-605h1q15 30 42 72l376 533h327l-377 -535l430 -796h-376l-276 544l-147 -195v-349h-332z" />
<glyph unicode="L" horiz-adv-x="1149" d="M137 0v1331h333v-1096h571v-235h-904z" />
<glyph unicode="M" horiz-adv-x="1632" d="M110 0l77 1331h365l205 -476q39 -97 60 -176h6q22 86 59 176l204 476h366l78 -1331h-324l-30 999h-4q-28 -120 -52 -182l-184 -485h-233l-184 485q-26 69 -52 182h-4l-30 -999h-323z" />
<glyph unicode="N" horiz-adv-x="1332" d="M137 0v1331h310l397 -703q38 -65 78 -156h1v859h273v-1331h-298l-409 692q-46 77 -80 154h-2v-846h-270z" />
<glyph unicode="O" horiz-adv-x="1359" d="M106 578v175q0 284 151.5 440t421.5 156q271 0 423.5 -156t152.5 -440v-175q0 -284 -152 -439.5t-424 -155.5q-270 0 -421.5 155.5t-151.5 439.5zM455 510q0 -146 61.5 -219t162.5 -73q102 0 163.5 72.5t61.5 219.5v311q0 147 -61.5 219.5t-163.5 72.5q-101 0 -162.5 -73 t-61.5 -219v-311z" />
<glyph unicode="P" horiz-adv-x="1245" d="M137 0v1331h530q259 0 387 -99t128 -290v-44q0 -191 -128 -291.5t-387 -100.5h-198v-506h-332zM469 713h185q91 0 139.5 45t48.5 136v46q0 178 -188 178h-185v-405z" />
<glyph unicode="Q" horiz-adv-x="1359" d="M106 578v175q0 284 151.5 440t421.5 156q271 0 423.5 -156t152.5 -440v-175q0 -176 -59 -303.5t-171 -200.5l217 -288h-348l-113 202q-48 -5 -102 -5q-270 0 -421.5 155.5t-151.5 439.5zM455 510q0 -146 61.5 -219t162.5 -73q102 0 163.5 72.5t61.5 219.5v311 q0 147 -61.5 219.5t-163.5 72.5q-101 0 -162.5 -73t-61.5 -219v-311z" />
<glyph unicode="R" horiz-adv-x="1322" d="M137 0v1331h557q260 0 384 -90t124 -265v-47q0 -98 -70.5 -172t-197.5 -111q44 -34 83.5 -99t83.5 -172l152 -375h-347l-142 394q-22 64 -41.5 100t-45.5 60h-208v-554h-332zM469 760h193q87 0 135.5 41t48.5 117v45q0 76 -48.5 115.5t-135.5 39.5h-193v-358z" />
<glyph unicode="S" horiz-adv-x="1157" d="M93 910v53q0 82 33.5 152t98 122.5t167.5 82t234 29.5q68 0 138 -10.5t136 -31t121 -48.5v-236q-213 84 -365 84q-95 0 -157 -16.5t-88 -42.5t-26 -62v-12q0 -45 37.5 -74.5t138.5 -53.5l182 -44q179 -43 257.5 -135t78.5 -238v-61q0 -117 -66 -205t-182 -134t-265 -46 q-138 0 -261 27t-206 77v237q248 -98 426 -98q128 0 193 33t65 90v21q0 30 -16 53.5t-53.5 43t-99.5 34.5l-181 43q-173 42 -256.5 130.5t-83.5 235.5z" />
<glyph unicode="T" horiz-adv-x="1225" d="M78 1096v235h1070v-235h-369v-1096h-332v1096h-369z" />
<glyph unicode="U" horiz-adv-x="1266" d="M115 497v834h332v-878q0 -229 199 -229q200 0 200 229v878h308v-834q0 -256 -135 -385t-386 -129q-250 0 -384 128.5t-134 385.5z" />
<glyph unicode="V" horiz-adv-x="1183" d="M34 1331h349l201 -819q23 -104 38 -194h2q19 119 36 194l204 819h286l-371 -1331h-374z" />
<glyph unicode="W" horiz-adv-x="1779" d="M57 1331h316l135 -773q13 -78 19 -196h4q8 116 25 196l170 773h328l170 -773q16 -80 25 -196h4q6 118 19 196l134 773h319l-261 -1331h-374l-178 900q-15 75 -20 131h-4q-7 -73 -18 -131l-180 -900h-374z" />
<glyph unicode="X" horiz-adv-x="1326" d="M59 0l400 686l-374 645h372l193 -340q25 -46 42 -97h3q17 51 42 97l181 340h316l-356 -639l390 -692h-376l-202 383q-32 66 -42 102h-4q-13 -41 -46 -102l-211 -383h-328z" />
<glyph unicode="Y" horiz-adv-x="1283" d="M53 1331h360l211 -489q25 -61 45 -127h2q15 46 48 127l215 489h296l-421 -914v-417h-335v417z" />
<glyph unicode="Z" horiz-adv-x="1167" d="M106 0v244l525 772q25 38 63 78v2h-579v235h942v-245l-515 -768q-27 -42 -61 -81v-2h580v-235h-955z" />
<glyph unicode="[" horiz-adv-x="849" d="M159 -244v1720h562v-221h-238v-1279h238v-220h-562z" />
<glyph unicode="\" horiz-adv-x="940" d="M16 1431h268l677 -1630h-267z" />
<glyph unicode="]" horiz-adv-x="849" d="M127 -24h241v1279h-241v221h563v-1720h-563v220z" />
<glyph unicode="^" horiz-adv-x="1088" d="M72 582l324 849h269l324 -849h-268l-158 477q-28 80 -38 153h-4q-12 -83 -36 -153l-161 -477h-252z" />
<glyph unicode="_" horiz-adv-x="1038" d="M-17 -137h1074v-167h-1074v167z" />
<glyph unicode="`" horiz-adv-x="1169" d="M268 1468h242l165 -306h-184z" />
<glyph unicode="a" horiz-adv-x="1107" d="M78 300v38q0 149 118.5 237.5t357.5 95.5l123 4v32q0 87 -42.5 122t-137.5 35q-148 0 -340 -85v218q208 84 389 84q231 0 338 -91.5t107 -284.5v-362q0 -211 40 -343h-288q-24 74 -30 119l-89 -53q-134 -80 -254 -80q-123 0 -207.5 86.5t-84.5 227.5zM372 320 q0 -55 28.5 -87t76.5 -32q32 0 62 9.5t77 31.5l61 31v222l-103 -4q-202 -6 -202 -144v-27z" />
<glyph unicode="b" horiz-adv-x="1195" d="M127 38v1452h316v-527l50 30q148 88 256 88q160 0 253.5 -115.5t93.5 -334.5v-166q0 -482 -569 -482q-92 0 -203.5 15t-196.5 40zM443 210q67 -15 131 -15q107 0 153 51t46 181v225q0 108 -33.5 152t-109.5 44q-52 0 -139 -54l-48 -27v-557z" />
<glyph unicode="c" horiz-adv-x="1034" d="M95 467v129q0 226 136 355.5t379 129.5q46 0 100 -10t109.5 -29.5t102.5 -44.5v-214q-161 79 -278 79q-80 0 -128.5 -22t-72.5 -70t-24 -128v-221q0 -118 53 -169t172 -51q117 0 278 79v-214q-70 -39 -155.5 -61t-156.5 -22q-243 0 -379 129t-136 355z" />
<glyph unicode="d" horiz-adv-x="1191" d="M95 431v167q0 121 35 214t98.5 151.5t150 88t191.5 29.5q90 0 179 -38v447h314v-1147q0 -211 40 -343h-288q-21 60 -32 131l-86 -59q-130 -89 -256 -89q-62 0 -115.5 17.5t-96 54t-72.5 89.5t-46 126t-16 161zM419 411q0 -109 33.5 -153t108.5 -44q50 0 140 54l48 28v555 q-59 17 -133 17q-106 0 -151.5 -52t-45.5 -181v-224z" />
<glyph unicode="e" horiz-adv-x="1118" d="M95 443v153q0 223 130 354t347 131q216 0 334.5 -114.5t118.5 -331.5v-188h-606v-42q0 -108 50.5 -156t160.5 -48q152 0 367 79v-214q-192 -83 -403 -83q-244 0 -371.5 118.5t-127.5 341.5zM419 626h316v34q0 76 -18.5 123t-52.5 67t-86 20q-159 0 -159 -228v-16z" />
<glyph unicode="f" horiz-adv-x="887" d="M51 855v208h163v107q0 167 94 252t294 85q113 0 234 -33v-200q-90 21 -165 21q-74 0 -108 -28.5t-34 -100.5v-103h307v-208h-307v-855h-315v855h-163z" />
<glyph unicode="g" horiz-adv-x="1191" d="M95 489v107q0 485 568 485q93 0 204 -16t196 -44v-957q0 -133 -55.5 -226t-171.5 -143.5t-286 -50.5q-193 0 -368 60v216q193 -67 358 -67q115 0 162 39.5t47 135.5v149l-50 -34q-134 -95 -258 -95q-62 0 -115.5 17.5t-96 53t-72.5 88t-46 124t-16 158.5zM419 474 q0 -107 34 -150.5t110 -43.5q27 0 57 13t81 43l48 28v484q-69 20 -133 20q-106 0 -151.5 -52t-45.5 -183v-159z" />
<glyph unicode="h" horiz-adv-x="1183" d="M127 0v1490h316v-527l46 28q82 50 141.5 70t122.5 20q77 0 136.5 -23.5t98.5 -67t59 -104.5t20 -137v-749h-314v697q0 80 -30 115.5t-93 35.5q-30 0 -61.5 -13t-81.5 -43l-44 -25v-767h-316z" />
<glyph unicode="i" horiz-adv-x="658" d="M53 855v208h453v-1063h-315v855h-138zM159 1315.5q0 75.5 49.5 121t138.5 45.5q45 0 81 -12t59.5 -34t36 -53t12.5 -68q0 -75 -49.5 -121t-139 -46t-139 46t-49.5 121.5z" />
<glyph unicode="j" horiz-adv-x="658" d="M-66 -121q67 -16 123 -16q134 0 134 135v857h-138v208h453v-1069q0 -83 -23.5 -147.5t-70.5 -110t-118 -69t-163 -23.5q-85 0 -197 24v211zM159 1315.5q0 75.5 49.5 121t138.5 45.5q45 0 81 -12t59.5 -34t36 -53t12.5 -68q0 -75 -49.5 -121t-139 -46t-139 46t-49.5 121.5 z" />
<glyph unicode="k" horiz-adv-x="1175" d="M127 0v1490h316v-866h2q25 43 74 104l287 335h293l-328 -386l363 -677h-349l-227 447l-115 -131v-316h-316z" />
<glyph unicode="l" horiz-adv-x="621" d="M17 1281v209h452v-1490h-316v1281h-136z" />
<glyph unicode="m" horiz-adv-x="1763" d="M87 1063h290q20 -65 30 -121l82 49q83 50 141.5 70t116.5 20q183 0 258 -141l85 51q83 50 142 70t117 20q144 0 221 -88t77 -242v-751h-316v697q0 80 -27.5 115.5t-84.5 35.5q-41 0 -131 -56l-43 -28v-13v-751h-316v697q0 80 -27.5 115.5t-83.5 35.5q-42 0 -131 -56 l-44 -28v-764h-316v717q0 214 -40 346z" />
<glyph unicode="n" horiz-adv-x="1185" d="M87 1063h290q20 -65 30 -121l82 49q82 50 141.5 70t122.5 20q77 0 136.5 -23.5t98.5 -67t59 -104.5t20 -137v-749h-314v697q0 80 -30 115.5t-93 35.5q-30 0 -61.5 -13t-81.5 -43l-44 -25v-767h-316v717q0 214 -40 346z" />
<glyph unicode="o" horiz-adv-x="1169" d="M95 467v129q0 224 132 354.5t359 130.5q225 0 357 -130.5t132 -354.5v-129q0 -149 -59.5 -258.5t-170 -167.5t-259.5 -58q-227 0 -359 129.5t-132 354.5zM419 421q0 -61 11 -105t33 -70.5t52 -38.5t71 -12q82 0 124.5 53t42.5 173v221q0 120 -42.5 173t-125 53 t-124.5 -53t-42 -173v-221z" />
<glyph unicode="p" horiz-adv-x="1195" d="M87 1063h290q19 -58 30 -121l84 51q148 88 258 88q160 0 253.5 -115.5t93.5 -334.5v-166q0 -97 -23 -176.5t-64 -136t-100 -95t-130 -56.5t-153 -18q-96 0 -183 39v-360h-316v1055q0 214 -40 346zM443 216q69 -21 135 -21q104 0 149.5 51t45.5 181v225q0 108 -33.5 152 t-109.5 44q-52 0 -139 -54l-48 -27v-551z" />
<glyph unicode="q" horiz-adv-x="1195" d="M99 431v165q0 485 570 485q92 0 202.5 -17.5t197.5 -47.5v-1354h-316v446l-52 -34q-136 -91 -254 -91q-162 0 -255 114.5t-93 333.5zM423 411q0 -109 33.5 -153t109.5 -44q57 0 139 52l48 30v550q-66 22 -131 22q-106 0 -152.5 -52.5t-46.5 -182.5v-222z" />
<glyph unicode="r" horiz-adv-x="879" d="M87 1063h290q20 -63 30 -123l94 63q101 68 191 68q49 0 112 -19v-239q-57 6 -125 6q-46 0 -83.5 -12.5t-93.5 -42.5l-59 -31v-733h-316v717q0 214 -40 346z" />
<glyph unicode="s" horiz-adv-x="1010" d="M72 723v32q0 148 116.5 237t336.5 89q199 0 365 -82v-214q-108 45 -187.5 64t-160.5 19q-65 0 -105 -11t-55.5 -28.5t-15.5 -43.5v-4q0 -34 25 -54.5t90 -32.5l182 -36q152 -29 218.5 -104.5t66.5 -204.5v-37q0 -153 -128 -241t-350 -88q-213 0 -390 83v214 q203 -79 387 -79q177 0 177 87v8q0 33 -24.5 55t-85.5 34l-178 36q-149 29 -216.5 102.5t-67.5 199.5z" />
<glyph unicode="t" horiz-adv-x="931" d="M51 855v208h163v268h315v-268h324v-208h-324v-517q0 -25 4 -43.5t12.5 -31.5t22.5 -21t32 -12t42 -4q79 0 211 54v-216q-69 -34 -155 -56t-154 -22q-174 0 -252 77t-78 249v543h-163z" />
<glyph unicode="u" horiz-adv-x="1185" d="M117 314v749h316v-697q0 -54 13.5 -87.5t40 -49t67.5 -15.5q57 0 143 54l46 28v767h314v-720q0 -215 39 -343h-287q-20 66 -30 121l-76 -45q-83 -51 -145.5 -72t-126.5 -21q-153 0 -233.5 88t-80.5 243z" />
<glyph unicode="v" horiz-adv-x="1094" d="M46 1063h329l154 -559q29 -114 39 -188h6q11 74 40 188l150 559h285l-330 -1063h-346z" />
<glyph unicode="w" horiz-adv-x="1584" d="M53 1063h294l122 -576q21 -116 26 -173h2q7 93 28 173l148 576h239l149 -576q20 -75 27 -173h2q5 57 26 173l122 576h294l-256 -1063h-324l-131 558q-16 67 -27 171h-3q-11 -104 -27 -171l-131 -558h-324z" />
<glyph unicode="x" horiz-adv-x="1160" d="M53 0l336 533l-313 530h345l147 -252q19 -33 38 -85h2q20 52 38 85l145 252h292l-300 -513l324 -550h-350l-161 284q-27 52 -35 82h-5q-15 -43 -37 -82l-170 -284h-296z" />
<glyph unicode="y" horiz-adv-x="1094" d="M46 1063h329l158 -544q24 -89 43 -185h2q20 113 40 185l146 544h285l-332 -1077q-29 -96 -68 -162.5t-91 -106t-113 -56.5t-139 -17q-93 0 -215 28v211q92 -20 165 -20q28 0 47.5 3t35 10t27 18.5t21.5 29.5l34 54z" />
<glyph unicode="z" horiz-adv-x="1018" d="M95 0v212l407 557q37 50 68 84v2h-460v208h808v-212l-404 -557q-38 -55 -67 -84v-1h475v-209h-827z" />
<glyph unicode="{" horiz-adv-x="808" d="M83 523v244h146q29 0 42 9t13 30v9q0 36 -28 79l-46 71q-79 126 -79 201v18q0 138 100.5 215t289.5 77h160v-221h-105q-61 0 -89 -21t-28 -64v-14q0 -55 34 -115l40 -70q53 -95 53 -167v-4q0 -33 -17.5 -63.5t-52.5 -54t-83 -34.5v-4q48 -12 83 -36.5t52.5 -55 t17.5 -63.5v-4q0 -64 -50 -169l-51 -113q-26 -58 -26 -112v-15q0 -54 27 -77t90 -23h105v-220h-160q-192 0 -291 77.5t-99 214.5v18q0 79 62 200l67 134q24 47 24 74v9q0 21 -13 30.5t-42 9.5h-146z" />
<glyph unicode="|" horiz-adv-x="895" d="M320 -199v1630h254v-1630h-254z" />
<glyph unicode="}" horiz-adv-x="808" d="M127 -24h106q62 0 89 23t27 77v15q0 56 -25 112l-51 113q-49 103 -49 169v4q0 51 40.5 94t110.5 61v4q-70 16 -110.5 58.5t-40.5 93.5v4q0 71 54 167l38 70q33 59 33 115v14q0 44 -27.5 64.5t-88.5 20.5h-106v221h161q191 0 291 -77t100 -215v-18q0 -78 -80 -201l-45 -71 q-29 -45 -29 -79v-9q0 -21 13.5 -30t43.5 -9h144v-244h-144q-30 0 -43.5 -9.5t-13.5 -30.5v-9q0 -29 23 -74l70 -134q61 -116 61 -200v-18q0 -90 -42.5 -154.5t-131 -101t-217.5 -36.5h-161v220z" />
<glyph unicode="~" horiz-adv-x="1002" d="M72 1077v229l21 23q108 119 223 119q39 0 75.5 -10.5t87.5 -38.5l87 -48q45 -25 74.5 -35t60.5 -10q47 0 92.5 23.5t104.5 82.5l34 34v-229l-20 -23q-103 -121 -222 -121q-39 0 -75 11.5t-88 39.5l-90 48q-44 24 -74 34.5t-59 10.5q-48 0 -93.5 -23.5t-104.5 -82.5z" />
<glyph unicode="&#xa1;" horiz-adv-x="656" d="M125 989q0 91 57 148t146 57q59 0 105.5 -25.5t73 -72.5t26.5 -107q0 -89 -57.5 -145.5t-147.5 -56.5q-89 0 -146 56.5t-57 145.5zM165 -155v495l70 367h188l70 -367v-495h-328z" />
<glyph unicode="&#xa2;" horiz-adv-x="1034" d="M95 467v129q0 183 90.5 304t255.5 161v200h238v-186q127 -16 243 -78v-214q-161 79 -278 79q-80 0 -128.5 -22t-72.5 -70t-24 -128v-221q0 -118 53 -169t172 -51q117 0 278 79v-214q-106 -59 -243 -80v-185h-238v201q-165 40 -255.5 161t-90.5 304z" />
<glyph unicode="&#xa3;" horiz-adv-x="1069" d="M83 0v222l231 284h-223v175h218l-33 28q-97 81 -139 150.5t-42 145.5v11q0 71 30 131.5t87 105.5t146.5 70.5t202.5 25.5q108 0 210 -23.5t216 -74.5v-226q-204 93 -348 93q-101 0 -152 -42.5t-51 -116.5v-7q0 -31 11 -61.5t34.5 -64.5t62.5 -77l60 -68h202v-175h-184 l-250 -288h627v-218h-916z" />
<glyph unicode="&#xa5;" horiz-adv-x="1272" d="M55 1331h358l207 -489q26 -63 43 -125h4q18 62 44 125l212 489h294l-301 -660h191v-155h-938v155h189zM169 239v152h938v-152h-305v-239h-330v239h-303z" />
<glyph unicode="&#xa6;" horiz-adv-x="895" d="M320 -199v676h254v-676h-254zM320 755v676h254v-676h-254z" />
<glyph unicode="&#xa7;" horiz-adv-x="1162" d="M106 -19q254 -94 408 -94q124 0 187 43.5t63 126.5v96l-658 215v220l951 -308v-225q0 -123 -64.5 -216t-183.5 -144t-275 -51q-79 0 -158 13t-146.5 35.5t-123.5 53.5v235zM106 729v209q0 92 37.5 169t106 130t166 82.5t214.5 29.5q119 0 230 -27t197 -75v-234 q-254 94 -409 94q-124 0 -186 -44t-62 -127v-79l657 -218v-218z" />
<glyph unicode="&#xa8;" horiz-adv-x="1169" d="M276 1315q0 60 38.5 97.5t98.5 37.5q58 0 96.5 -38t38.5 -97t-38.5 -97t-96.5 -38q-39 0 -70.5 17t-49 48t-17.5 70zM622 1315q0 59 39 97t97.5 38t97 -37.5t38.5 -97t-38.5 -97.5t-97 -38t-97.5 38t-39 97z" />
<glyph unicode="&#xa9;" horiz-adv-x="1558" d="M151 594v143q0 140 38.5 252t114.5 192.5t196.5 124t278.5 43.5q159 0 279.5 -43.5t197 -124t114.5 -192.5t38 -252v-143q0 -141 -38 -252t-114.5 -192t-197 -124t-279.5 -43q-158 0 -278.5 43t-196.5 124t-114.5 192t-38.5 252zM288 570q0 -221 123.5 -344t367 -123 t367.5 123t124 344v190q0 222 -124 345t-367.5 123t-367 -123t-123.5 -345v-190zM453 631v68q0 169 91.5 263.5t251.5 94.5q109 0 233 -54v-159q-130 52 -210 52q-51 0 -83 -16.5t-48.5 -53t-16.5 -95.5v-132q0 -58 16.5 -94.5t48.5 -52.5t83 -16q82 0 210 51v-159 q-122 -53 -233 -53q-160 0 -251.5 94t-91.5 262z" />
<glyph unicode="&#xaa;" horiz-adv-x="872" d="M74 773v29q0 107 92.5 171.5t270.5 71.5l88 4v22q0 63 -29.5 88t-104.5 25q-122 0 -260 -62v159q72 32 157 47.5t155 15.5q169 0 247.5 -65.5t78.5 -207.5v-267q0 -159 29 -250h-226q-13 38 -22 88l-65 -40q-93 -58 -183 -58q-103 0 -165.5 62t-62.5 167zM302 789 q0 -40 21.5 -63t55.5 -23q49 0 100 30l46 22v159l-76 -2q-147 -3 -147 -103v-20z" />
<glyph unicode="&#xab;" horiz-adv-x="1133" d="M64 665l308 408h236l-261 -408l261 -407h-236zM499 665l305 408h239l-260 -408l260 -407h-239z" />
<glyph unicode="&#xad;" horiz-adv-x="891" d="M80 606v247h735v-247h-735z" />
<glyph unicode="&#xae;" horiz-adv-x="1084" d="M108 932v93q0 200 109 312.5t325 112.5q218 0 327 -112.5t109 -312.5v-93q0 -98 -26.5 -175.5t-79.5 -134t-136.5 -86.5t-193.5 -30q-216 0 -325 113.5t-109 312.5zM207 916q0 -154 83.5 -238t251.5 -84q113 0 188.5 39t111.5 110t36 173v125q0 155 -83.5 238.5 t-252 83.5t-252 -83.5t-83.5 -238.5v-125zM343 717v523h207q63 0 109 -17.5t71 -51.5t25 -81v-7q0 -42 -25.5 -73.5t-73.5 -48.5q17 -11 31.5 -35t33.5 -71l54 -138h-155l-50 145q-14 46 -28 63h-51v-208h-148zM491 1013h47q28 0 44 15.5t16 44.5v17q0 19 -7.5 32t-21 19.5 t-31.5 6.5h-47v-135z" />
<glyph unicode="&#xaf;" horiz-adv-x="1169" d="M278 1226v179h614v-179h-614z" />
<glyph unicode="&#xb0;" horiz-adv-x="806" d="M108 1134v20q0 128 83.5 212t212 84t212 -84t83.5 -212v-20q0 -127 -83.5 -211.5t-212 -84.5t-212 84.5t-83.5 211.5zM220 1139q0 -87 50 -140t133.5 -53t133 53t49.5 140v11q0 57 -22 100.5t-64 67.5t-96 24q-84 0 -134 -53t-50 -139v-11z" />
<glyph unicode="&#xb1;" horiz-adv-x="1118" d="M97 743v205h352v303h220v-303h350v-205h-350v-304h-220v304h-352zM115 108v204h888v-204h-888z" />
<glyph unicode="&#xb4;" horiz-adv-x="1169" d="M495 1162l165 306h242l-221 -306h-186z" />
<glyph unicode="&#xb6;" horiz-adv-x="1393" d="M81 789v64q0 229 128.5 353.5t368.5 124.5h666v-1669h-231v1451h-145v-1451h-231v647h-59q-240 0 -368.5 124.5t-128.5 355.5z" />
<glyph unicode="&#xb7;" horiz-adv-x="614" d="M113 798.5q0 86.5 54.5 140.5t139.5 54q43 0 79 -14t61.5 -39.5t40 -62t14.5 -79.5q0 -86 -54.5 -140t-140 -54t-140 54t-54.5 140.5z" />
<glyph unicode="&#xb8;" horiz-adv-x="1169" d="M431 -189q51 -12 92 -12q55 0 55 42v4q0 28 -20 62l-57 93h143l79 -80q64 -64 64 -129v-7q0 -60 -53.5 -93.5t-149.5 -33.5q-90 0 -153 15v139z" />
<glyph unicode="&#xba;" horiz-adv-x="921" d="M89 898v93q0 165 98.5 259t273.5 94t273 -94t98 -259v-93q0 -109 -43.5 -188.5t-127.5 -122.5t-200 -43t-200 43t-128 122.5t-44 188.5zM340 864q0 -87 30 -127t91 -40t91 40t30 127v161q0 88 -30 126.5t-91.5 38.5t-91 -38.5t-29.5 -126.5v-161z" />
<glyph unicode="&#xbb;" horiz-adv-x="1126" d="M83 258l260 407l-260 408h239l306 -408l-306 -407h-239zM519 258l260 407l-260 408h238l306 -408l-306 -407h-238z" />
<glyph unicode="&#xbf;" horiz-adv-x="1155" d="M115 203v39q0 149 112 234.5t323 93.5l11 139h224l15 -320h-114q-110 0 -172.5 -40.5t-62.5 -115.5v-24q0 -34 14.5 -60.5t42 -46t71.5 -30.5t100 -11q155 0 370 85v-226q-228 -91 -450 -91q-237 0 -360.5 100t-123.5 274zM469 993q0 44 15 82.5t41.5 65t64.5 42t81 15.5 q90 0 147.5 -57.5t57.5 -147.5t-57.5 -147t-147.5 -57q-88 0 -145 57t-57 147z" />
<glyph unicode="&#xc0;" horiz-adv-x="1296" d="M36 0l423 1331h379l426 -1331h-348l-95 320h-406l-93 -320h-286zM358 1716h241l154 -285h-185zM481 536h276l-101 340q-23 78 -36 181h-2q-18 -113 -38 -181z" />
<glyph unicode="&#xc1;" horiz-adv-x="1296" d="M36 0l423 1331h379l426 -1331h-348l-95 320h-406l-93 -320h-286zM481 536h276l-101 340q-23 78 -36 181h-2q-18 -113 -38 -181zM544 1431l153 285h243l-211 -285h-185z" />
<glyph unicode="&#xc2;" horiz-adv-x="1296" d="M36 0l423 1331h379l426 -1331h-348l-95 320h-406l-93 -320h-286zM298 1431l256 285h189l256 -285h-184l-165 142h-4l-163 -142h-185zM481 536h276l-101 340q-23 78 -36 181h-2q-18 -113 -38 -181z" />
<glyph unicode="&#xc3;" horiz-adv-x="1296" d="M36 0l423 1331h379l426 -1331h-348l-95 320h-406l-93 -320h-286zM334 1446v165l11 14q35 40 79 62.5t82 22.5q58 0 129 -40l59 -31q64 -36 104 -36q36 0 71 19t79 63l15 15v-164l-11 -14q-35 -40 -79 -62.5t-82 -22.5q-62 0 -131 39l-56 31q-60 36 -105 36 q-36 0 -71 -18.5t-79 -62.5zM481 536h276l-101 340q-23 78 -36 181h-2q-18 -113 -38 -181z" />
<glyph unicode="&#xc4;" horiz-adv-x="1296" d="M36 0l423 1331h379l426 -1331h-348l-95 320h-406l-93 -320h-286zM340 1575q0 39 17 70t48 48t69 17q59 0 98.5 -38t39.5 -97t-39.5 -97t-98.5 -38q-58 0 -96 38t-38 97zM481 536h276l-101 340q-23 78 -36 181h-2q-18 -113 -38 -181zM686 1575q0 59 39 97t98 38 q58 0 96 -37.5t38 -97t-38 -97.5t-96 -38q-59 0 -98 38t-39 97z" />
<glyph unicode="&#xc5;" horiz-adv-x="1296" d="M36 0l423 1331h379l426 -1331h-348l-95 320h-406l-93 -320h-286zM459 1603v12q0 81 53.5 136t135.5 55q83 0 136.5 -54.5t53.5 -136.5v-12q0 -81 -53.5 -136t-136.5 -55q-82 0 -135.5 55t-53.5 136zM481 536h276l-101 340q-23 78 -36 181h-2q-18 -113 -38 -181zM548 1605 q0 -50 26 -78.5t74 -28.5q49 0 75 28.5t26 78.5v8q0 51 -26.5 80.5t-74.5 29.5q-47 0 -73.5 -30t-26.5 -80v-8z" />
<glyph unicode="&#xc6;" horiz-adv-x="1898" d="M36 0l667 1331h1063v-237h-578v-303h509v-233h-509v-321h578v-237h-909v320h-370l-159 -320h-292zM594 536h263v573h-2q-30 -104 -82 -209z" />
<glyph unicode="&#xc7;" horiz-adv-x="1175" d="M106 578v175q0 285 150.5 440.5t422.5 155.5q190 0 390 -90v-236q-234 84 -352 84q-134 0 -198 -68.5t-64 -217.5v-311q0 -149 64 -217.5t198 -68.5q121 0 352 85v-237q-180 -80 -336 -88l63 -64q64 -64 64 -129v-7q0 -60 -53 -93.5t-149 -33.5q-90 0 -154 15v139 q51 -12 92 -12q56 0 56 42v4q0 28 -21 62l-49 81q-228 27 -352 180t-124 410z" />
<glyph unicode="&#xc8;" horiz-adv-x="1175" d="M137 0v1331h912v-237h-579v-303h508v-233h-508v-321h579v-237h-912zM300 1716h242l153 -285h-185z" />
<glyph unicode="&#xc9;" horiz-adv-x="1175" d="M137 0v1331h912v-237h-579v-303h508v-233h-508v-321h579v-237h-912zM489 1431l153 285h242l-211 -285h-184z" />
<glyph unicode="&#xca;" horiz-adv-x="1175" d="M137 0v1331h912v-237h-579v-303h508v-233h-508v-321h579v-237h-912zM241 1431l256 285h189l256 -285h-185l-165 142h-4l-163 -142h-184z" />
<glyph unicode="&#xcb;" horiz-adv-x="1175" d="M137 0v1331h912v-237h-579v-303h508v-233h-508v-321h579v-237h-912zM282 1575.5q0 59.5 38.5 97t96.5 37.5q59 0 98 -38t39 -97t-39 -97t-98 -38q-58 0 -96.5 38t-38.5 97.5zM628 1575q0 39 17.5 70t49 48t69.5 17q59 0 97.5 -38t38.5 -97t-38.5 -97t-97 -38t-97.5 38 t-39 97z" />
<glyph unicode="&#xcc;" horiz-adv-x="957" d="M103 0v203h211v925h-211v203h752v-203h-209v-925h209v-203h-752zM187 1716h242l153 -285h-184z" />
<glyph unicode="&#xcd;" horiz-adv-x="957" d="M103 0v203h211v925h-211v203h752v-203h-209v-925h209v-203h-752zM375 1431l154 285h242l-210 -285h-186z" />
<glyph unicode="&#xce;" horiz-adv-x="957" d="M103 0v203h211v925h-211v203h752v-203h-209v-925h209v-203h-752zM127 1431l256 285h189l256 -285h-184l-165 142h-5l-162 -142h-185z" />
<glyph unicode="&#xcf;" horiz-adv-x="957" d="M103 0v203h211v925h-211v203h752v-203h-209v-925h209v-203h-752zM169 1575q0 60 38 97.5t97 37.5q58 0 97.5 -38t39.5 -97t-39.5 -97t-97.5 -38q-39 0 -69.5 17t-48 48t-17.5 70zM514 1575q0 59 39.5 97t98.5 38q58 0 96.5 -37.5t38.5 -97t-38.5 -97.5t-96.5 -38 q-59 0 -98.5 38t-39.5 97z" />
<glyph unicode="&#xd0;" horiz-adv-x="1352" d="M42 592v165h95v574h459q318 0 484.5 -147.5t166.5 -430.5v-175q0 -284 -166.5 -431t-484.5 -147h-459v592h-95zM470 231h174q129 0 190.5 68t61.5 222v290q0 154 -61.5 222t-190.5 68h-174v-344h231v-165h-231v-361z" />
<glyph unicode="&#xd1;" horiz-adv-x="1332" d="M137 0v1331h310l397 -703q38 -65 78 -156h1v859h273v-1331h-298l-409 692q-46 77 -80 154h-2v-846h-270zM351 1446v165l13 14q34 40 78 62.5t83 22.5q57 0 129 -40l57 -31q65 -36 106 -36q36 0 70 19t78 63l17 15v-164l-13 -14q-35 -40 -78.5 -62.5t-81.5 -22.5 q-63 0 -132 39l-55 31q-60 36 -106 36q-36 0 -70 -18.5t-78 -62.5z" />
<glyph unicode="&#xd2;" horiz-adv-x="1359" d="M106 578v175q0 284 151.5 440t421.5 156q271 0 423.5 -156t152.5 -440v-175q0 -284 -152 -439.5t-424 -155.5q-270 0 -421.5 155.5t-151.5 439.5zM389 1716h242l154 -285h-186zM455 510q0 -146 61.5 -219t162.5 -73q102 0 163.5 72.5t61.5 219.5v311q0 147 -61.5 219.5 t-163.5 72.5q-101 0 -162.5 -73t-61.5 -219v-311z" />
<glyph unicode="&#xd3;" horiz-adv-x="1359" d="M106 578v175q0 284 151.5 440t421.5 156q271 0 423.5 -156t152.5 -440v-175q0 -284 -152 -439.5t-424 -155.5q-270 0 -421.5 155.5t-151.5 439.5zM455 510q0 -146 61.5 -219t162.5 -73q102 0 163.5 72.5t61.5 219.5v311q0 147 -61.5 219.5t-163.5 72.5q-101 0 -162.5 -73 t-61.5 -219v-311zM576 1431l153 285h242l-211 -285h-184z" />
<glyph unicode="&#xd4;" horiz-adv-x="1359" d="M106 578v175q0 284 151.5 440t421.5 156q271 0 423.5 -156t152.5 -440v-175q0 -284 -152 -439.5t-424 -155.5q-270 0 -421.5 155.5t-151.5 439.5zM330 1431l256 285h189l256 -285h-185l-165 142h-4l-163 -142h-184zM455 510q0 -146 61.5 -219t162.5 -73q102 0 163.5 72.5 t61.5 219.5v311q0 147 -61.5 219.5t-163.5 72.5q-101 0 -162.5 -73t-61.5 -219v-311z" />
<glyph unicode="&#xd5;" horiz-adv-x="1359" d="M106 578v175q0 284 151.5 440t421.5 156q271 0 423.5 -156t152.5 -440v-175q0 -284 -152 -439.5t-424 -155.5q-270 0 -421.5 155.5t-151.5 439.5zM366 1446v165l11 14q35 40 79 62.5t82 22.5q58 0 129 -40l59 -31q64 -36 104 -36q24 0 47 8.5t48 26t55 47.5l15 15v-164 l-11 -14q-35 -40 -79 -62.5t-82 -22.5q-62 0 -131 39l-57 31q-59 36 -104 36q-36 0 -71 -18.5t-79 -62.5zM455 510q0 -146 61.5 -219t162.5 -73q102 0 163.5 72.5t61.5 219.5v311q0 147 -61.5 219.5t-163.5 72.5q-101 0 -162.5 -73t-61.5 -219v-311z" />
<glyph unicode="&#xd6;" horiz-adv-x="1359" d="M106 578v175q0 284 151.5 440t421.5 156q271 0 423.5 -156t152.5 -440v-175q0 -284 -152 -439.5t-424 -155.5q-270 0 -421.5 155.5t-151.5 439.5zM372 1575q0 39 17 70t48 48t69 17q59 0 98.5 -38t39.5 -97t-39.5 -97t-98.5 -38q-58 0 -96 38t-38 97zM455 510 q0 -146 61.5 -219t162.5 -73q102 0 163.5 72.5t61.5 219.5v311q0 147 -61.5 219.5t-163.5 72.5q-101 0 -162.5 -73t-61.5 -219v-311zM717 1575q0 39 18 70t49.5 48t70.5 17q58 0 96 -37.5t38 -97t-38 -97.5t-96 -38q-59 0 -98.5 38t-39.5 97z" />
<glyph unicode="&#xd7;" horiz-adv-x="1118" d="M113 368l300 299l-300 300l145 148l300 -300l300 300l147 -148l-300 -300l300 -299l-147 -146l-300 301l-300 -301z" />
<glyph unicode="&#xd8;" horiz-adv-x="1359" d="M97 0l132 171q-123 153 -123 407v175q0 284 151.5 440t421.5 156q225 0 368 -107l68 89h149l-132 -171q123 -153 123 -407v-175q0 -284 -152 -439.5t-424 -155.5q-226 0 -365 106l-68 -89h-149zM455 510q0 -28 2 -41l409 536q-58 108 -187 108q-101 0 -162.5 -73 t-61.5 -219v-311zM495 324q58 -106 184 -106q102 0 163.5 72.5t61.5 219.5v311q0 26 -2 37z" />
<glyph unicode="&#xd9;" horiz-adv-x="1266" d="M115 497v834h332v-878q0 -229 199 -229q200 0 200 229v878h308v-834q0 -256 -135 -385t-386 -129q-250 0 -384 128.5t-134 385.5zM341 1716h243l153 -285h-185z" />
<glyph unicode="&#xda;" horiz-adv-x="1266" d="M115 497v834h332v-878q0 -229 199 -229q200 0 200 229v878h308v-834q0 -256 -135 -385t-386 -129q-250 0 -384 128.5t-134 385.5zM531 1431l153 285h241l-210 -285h-184z" />
<glyph unicode="&#xdb;" horiz-adv-x="1266" d="M115 497v834h332v-878q0 -229 199 -229q200 0 200 229v878h308v-834q0 -256 -135 -385t-386 -129q-250 0 -384 128.5t-134 385.5zM282 1431l256 285h190l256 -285h-186l-165 142h-3l-163 -142h-185z" />
<glyph unicode="&#xdc;" horiz-adv-x="1266" d="M115 497v834h332v-878q0 -229 199 -229q200 0 200 229v878h308v-834q0 -256 -135 -385t-386 -129q-250 0 -384 128.5t-134 385.5zM324 1575.5q0 59.5 38 97t97 37.5t98 -38t39 -97t-39 -97t-98 -38t-97 38t-38 97.5zM669 1575q0 39 18 70t49.5 48t69.5 17q59 0 97.5 -38 t38.5 -97t-38.5 -97t-97.5 -38t-98 38t-39 97z" />
<glyph unicode="&#xdd;" horiz-adv-x="1283" d="M53 1331h360l211 -489q25 -61 45 -127h2q15 46 48 127l215 489h296l-421 -914v-417h-335v417zM536 1431l154 285h242l-211 -285h-185z" />
<glyph unicode="&#xde;" horiz-adv-x="1245" d="M137 0v1331h332v-230h198q259 0 387 -99.5t128 -292.5v-36q0 -391 -515 -391h-198v-282h-332zM469 489h185q91 0 139.5 44.5t48.5 133.5v46q0 61 -22.5 101.5t-64 60t-101.5 19.5h-185v-405z" />
<glyph unicode="&#xdf;" horiz-adv-x="1356" d="M127 0v1061q0 98 35.5 179t104 141t175 93t242.5 33q78 0 145.5 -8.5t119.5 -24t93.5 -38t70 -50t47.5 -60t27.5 -68t8.5 -74.5v-12q0 -71 -37 -129.5t-126 -113.5l-141 -85q-34 -19 -34 -40v-2q0 -22 42 -47l179 -109q214 -130 214 -316v-21q0 -95 -46.5 -169 t-136.5 -115.5t-212 -41.5q-163 0 -306 68v217q172 -67 284 -67q56 0 84.5 23t28.5 64v12q0 73 -103 137l-149 94q-85 53 -120 104t-35 118v7q0 128 129 207l125 78q74 47 74 115v6q0 129 -213 129q-135 0 -202.5 -69.5t-67.5 -202.5v-1023h-300z" />
<glyph unicode="&#xe0;" horiz-adv-x="1107" d="M78 300v38q0 149 118.5 237.5t357.5 95.5l123 4v32q0 87 -42.5 122t-137.5 35q-148 0 -340 -85v218q208 84 389 84q231 0 338 -91.5t107 -284.5v-362q0 -211 40 -343h-288q-24 74 -30 119l-89 -53q-134 -80 -254 -80q-123 0 -207.5 86.5t-84.5 227.5zM258 1468h243 l164 -306h-184zM372 320q0 -55 28.5 -87t76.5 -32q32 0 62 9.5t77 31.5l61 31v222l-103 -4q-202 -6 -202 -144v-27z" />
<glyph unicode="&#xe1;" horiz-adv-x="1107" d="M78 300v38q0 149 118.5 237.5t357.5 95.5l123 4v32q0 87 -42.5 122t-137.5 35q-148 0 -340 -85v218q208 84 389 84q231 0 338 -91.5t107 -284.5v-362q0 -211 40 -343h-288q-24 74 -30 119l-89 -53q-134 -80 -254 -80q-123 0 -207.5 86.5t-84.5 227.5zM372 320 q0 -55 28.5 -87t76.5 -32q32 0 62 9.5t77 31.5l61 31v222l-103 -4q-202 -6 -202 -144v-27zM449 1162l165 306h243l-222 -306h-186z" />
<glyph unicode="&#xe2;" horiz-adv-x="1107" d="M78 300v38q0 149 118.5 237.5t357.5 95.5l123 4v32q0 87 -42.5 122t-137.5 35q-148 0 -340 -85v218q208 84 389 84q231 0 338 -91.5t107 -284.5v-362q0 -211 40 -343h-288q-24 74 -30 119l-89 -53q-134 -80 -254 -80q-123 0 -207.5 86.5t-84.5 227.5zM207 1162l252 306 h199l250 -306h-185l-165 165h-2l-162 -165h-187zM372 320q0 -55 28.5 -87t76.5 -32q32 0 62 9.5t77 31.5l61 31v222l-103 -4q-202 -6 -202 -144v-27z" />
<glyph unicode="&#xe3;" horiz-adv-x="1107" d="M78 300v38q0 149 118.5 237.5t357.5 95.5l123 4v32q0 87 -42.5 122t-137.5 35q-148 0 -340 -85v218q208 84 389 84q231 0 338 -91.5t107 -284.5v-362q0 -211 40 -343h-288q-24 74 -30 119l-89 -53q-134 -80 -254 -80q-123 0 -207.5 86.5t-84.5 227.5zM244 1186v167l12 12 q87 87 159 87q67 0 131 -40l56 -34q60 -36 105 -36q19 0 36 5t35 15t37 25.5t42 38.5l15 16v-166l-12 -12q-88 -88 -159 -88q-64 0 -131 39l-58 34q-60 36 -103 36q-39 0 -75 -18.5t-76 -64.5zM372 320q0 -55 28.5 -87t76.5 -32q32 0 62 9.5t77 31.5l61 31v222l-103 -4 q-202 -6 -202 -144v-27z" />
<glyph unicode="&#xe4;" horiz-adv-x="1107" d="M78 300v38q0 149 118.5 237.5t357.5 95.5l123 4v32q0 87 -42.5 122t-137.5 35q-148 0 -340 -85v218q208 84 389 84q231 0 338 -91.5t107 -284.5v-362q0 -211 40 -343h-288q-24 74 -30 119l-89 -53q-134 -80 -254 -80q-123 0 -207.5 86.5t-84.5 227.5zM248 1315 q0 60 38.5 97.5t98.5 37.5q58 0 97 -38t39 -97q0 -39 -18 -70t-49 -48t-69 -17q-39 0 -70.5 17t-49 48t-17.5 70zM372 320q0 -55 28.5 -87t76.5 -32q32 0 62 9.5t77 31.5l61 31v222l-103 -4q-202 -6 -202 -144v-27zM594 1315q0 59 39.5 97t97.5 38q39 0 69.5 -17t48 -48 t17.5 -70q0 -59 -38 -97t-97 -38q-58 0 -97.5 38t-39.5 97z" />
<glyph unicode="&#xe5;" horiz-adv-x="1107" d="M78 300v38q0 149 118.5 237.5t357.5 95.5l123 4v32q0 87 -42.5 122t-137.5 35q-148 0 -340 -85v218q208 84 389 84q231 0 338 -91.5t107 -284.5v-362q0 -211 40 -343h-288q-24 74 -30 119l-89 -53q-134 -80 -254 -80q-123 0 -207.5 86.5t-84.5 227.5zM358 1344v13 q0 86 56 143.5t144 57.5q86 0 142.5 -57.5t56.5 -143.5v-13q0 -85 -56.5 -142t-142.5 -57q-88 0 -144 57t-56 142zM372 320q0 -55 28.5 -87t76.5 -32q32 0 62 9.5t77 31.5l61 31v222l-103 -4q-202 -6 -202 -144v-27zM447 1347q0 -53 29.5 -86t81.5 -33q25 0 46 9t35 24.5 t21 37.5t7 48v8q0 53 -29 85t-80.5 32t-81 -32t-29.5 -85v-8z" />
<glyph unicode="&#xe6;" horiz-adv-x="1689" d="M78 300v38q0 148 117.5 233t358.5 92l123 4v40q0 87 -42.5 122t-137.5 35q-148 0 -340 -85v218q208 84 389 84q124 0 199.5 -38.5t111.5 -120.5q107 159 319 159q194 0 309 -115.5t115 -330.5v-188h-609v-42q0 -108 50.5 -156t162.5 -48q153 0 367 79v-214 q-194 -83 -405 -83q-116 0 -212 41t-162 115l-45 -33q-154 -120 -345 -120q-150 0 -237 84.5t-87 229.5zM372 320q0 -55 28.5 -87t76.5 -32q60 0 139 41l89 42q-28 80 -28 159v42l-103 -4q-107 -4 -154.5 -38.5t-47.5 -95.5v-27zM991 626h317v34q0 112 -39 161t-117 49 q-161 0 -161 -228v-16z" />
<glyph unicode="&#xe7;" horiz-adv-x="1034" d="M95 467v129q0 226 136 355.5t379 129.5q46 0 100 -10t109.5 -29.5t102.5 -44.5v-214q-161 79 -278 79q-80 0 -128.5 -22t-72.5 -70t-24 -128v-221q0 -118 53 -169t172 -51q117 0 278 79v-214q-63 -35 -139 -57t-144 -26l62 -63q63 -63 63 -129v-7q0 -30 -13.5 -53.5 t-39 -40t-63 -25t-85.5 -8.5q-90 0 -154 15v139q51 -12 92 -12q55 0 55 42v4q0 30 -20 62l-53 85q-185 33 -286.5 157t-101.5 318z" />
<glyph unicode="&#xe8;" horiz-adv-x="1118" d="M95 443v153q0 223 130 354t347 131q216 0 334.5 -114.5t118.5 -331.5v-188h-606v-42q0 -108 50.5 -156t160.5 -48q152 0 367 79v-214q-192 -83 -403 -83q-244 0 -371.5 118.5t-127.5 341.5zM260 1468h242l165 -306h-184zM419 626h316v34q0 76 -18.5 123t-52.5 67t-86 20 q-159 0 -159 -228v-16z" />
<glyph unicode="&#xe9;" horiz-adv-x="1118" d="M95 443v153q0 223 130 354t347 131q216 0 334.5 -114.5t118.5 -331.5v-188h-606v-42q0 -108 50.5 -156t160.5 -48q152 0 367 79v-214q-192 -83 -403 -83q-244 0 -371.5 118.5t-127.5 341.5zM419 626h316v34q0 76 -18.5 123t-52.5 67t-86 20q-159 0 -159 -228v-16z M453 1162l165 306h242l-221 -306h-186z" />
<glyph unicode="&#xea;" horiz-adv-x="1118" d="M95 443v153q0 223 130 354t347 131q216 0 334.5 -114.5t118.5 -331.5v-188h-606v-42q0 -108 50.5 -156t160.5 -48q152 0 367 79v-214q-192 -83 -403 -83q-244 0 -371.5 118.5t-127.5 341.5zM209 1162l252 306h199l250 -306h-184l-165 165h-3l-162 -165h-187zM419 626h316 v34q0 76 -18.5 123t-52.5 67t-86 20q-159 0 -159 -228v-16z" />
<glyph unicode="&#xeb;" horiz-adv-x="1118" d="M95 443v153q0 223 130 354t347 131q216 0 334.5 -114.5t118.5 -331.5v-188h-606v-42q0 -108 50.5 -156t160.5 -48q152 0 367 79v-214q-192 -83 -403 -83q-244 0 -371.5 118.5t-127.5 341.5zM250 1315q0 60 38.5 97.5t98.5 37.5q58 0 97 -38t39 -97q0 -39 -18 -70t-49 -48 t-69 -17q-39 0 -70.5 17t-49 48t-17.5 70zM419 626h316v34q0 76 -18.5 123t-52.5 67t-86 20q-159 0 -159 -228v-16zM596 1315q0 59 39 97t98 38q39 0 69.5 -17t48 -48t17.5 -70q0 -59 -38 -97t-97 -38t-98 38t-39 97z" />
<glyph unicode="&#xec;" horiz-adv-x="658" d="M49 1468h243l165 -306h-184zM53 855v208h453v-1063h-315v855h-138z" />
<glyph unicode="&#xed;" horiz-adv-x="658" d="M53 855v208h453v-1063h-315v855h-138zM242 1162l165 306h243l-221 -306h-187z" />
<glyph unicode="&#xee;" horiz-adv-x="658" d="M-2 1162l252 306h199l250 -306h-185l-165 165h-2l-163 -165h-186zM53 855v208h453v-1063h-315v855h-138z" />
<glyph unicode="&#xef;" horiz-adv-x="658" d="M40 1315.5q0 59.5 38.5 97t98.5 37.5q57 0 96 -38t39 -97q0 -39 -18 -70t-49 -48t-68 -17q-60 0 -98.5 38t-38.5 97.5zM53 855v208h453v-1063h-315v855h-138zM385 1315q0 59 39.5 97t98.5 38q58 0 96.5 -37.5t38.5 -97t-38.5 -97.5t-96.5 -38q-59 0 -98.5 38t-39.5 97z " />
<glyph unicode="&#xf0;" horiz-adv-x="1169" d="M95 467v129q0 228 103 356.5t269 128.5q109 0 217 -68q-40 96 -112 189l-299 -70v147l199 48l-129 163h345l76 -95l229 53v-147l-127 -29l34 -40q175 -215 175 -546v-219q0 -149 -59.5 -258.5t-170 -167.5t-259.5 -58q-227 0 -359 129.5t-132 354.5zM419 421 q0 -81 19.5 -131.5t56 -72.5t91.5 -22q82 0 124.5 53t42.5 173v248q0 91 -14 163q-70 36 -141 36q-100 0 -139.5 -51t-39.5 -184v-212z" />
<glyph unicode="&#xf1;" horiz-adv-x="1185" d="M87 1063h290q20 -65 30 -121l82 49q82 50 141.5 70t122.5 20q77 0 136.5 -23.5t98.5 -67t59 -104.5t20 -137v-749h-314v697q0 80 -30 115.5t-93 35.5q-30 0 -61.5 -13t-81.5 -43l-44 -25v-767h-316v717q0 214 -40 346zM290 1186v167l12 12q87 87 159 87q66 0 131 -40 l56 -34q60 -36 105 -36q36 0 70 19.5t79 64.5l16 16v-166l-12 -12q-88 -88 -159 -88q-65 0 -131 39l-58 34q-60 36 -103 36q-26 0 -49 -7t-49 -26t-53 -50z" />
<glyph unicode="&#xf2;" horiz-adv-x="1169" d="M95 467v129q0 224 132 354.5t359 130.5q225 0 357 -130.5t132 -354.5v-129q0 -149 -59.5 -258.5t-170 -167.5t-259.5 -58q-227 0 -359 129.5t-132 354.5zM284 1468h243l165 -306h-186zM419 421q0 -61 11 -105t33 -70.5t52 -38.5t71 -12q82 0 124.5 53t42.5 173v221 q0 120 -42.5 173t-125 53t-124.5 -53t-42 -173v-221z" />
<glyph unicode="&#xf3;" horiz-adv-x="1169" d="M95 467v129q0 224 132 354.5t359 130.5q225 0 357 -130.5t132 -354.5v-129q0 -149 -59.5 -258.5t-170 -167.5t-259.5 -58q-227 0 -359 129.5t-132 354.5zM419 421q0 -61 11 -105t33 -70.5t52 -38.5t71 -12q82 0 124.5 53t42.5 173v221q0 120 -42.5 173t-125 53 t-124.5 -53t-42 -173v-221zM479 1162l165 306h242l-221 -306h-186z" />
<glyph unicode="&#xf4;" horiz-adv-x="1169" d="M95 467v129q0 224 132 354.5t359 130.5q225 0 357 -130.5t132 -354.5v-129q0 -149 -59.5 -258.5t-170 -167.5t-259.5 -58q-227 0 -359 129.5t-132 354.5zM235 1162l252 306h199l250 -306h-185l-165 165h-2l-163 -165h-186zM419 421q0 -61 11 -105t33 -70.5t52 -38.5 t71 -12q82 0 124.5 53t42.5 173v221q0 120 -42.5 173t-125 53t-124.5 -53t-42 -173v-221z" />
<glyph unicode="&#xf5;" horiz-adv-x="1169" d="M95 467v129q0 224 132 354.5t359 130.5q225 0 357 -130.5t132 -354.5v-129q0 -149 -59.5 -258.5t-170 -167.5t-259.5 -58q-227 0 -359 129.5t-132 354.5zM273 1186v167l11 12q88 87 159 87q67 0 131 -40l56 -34q59 -36 105 -36q37 0 70 19.5t79 64.5l16 16v-166l-12 -12 q-89 -88 -159 -88q-65 0 -131 39l-58 34q-60 36 -103 36q-15 0 -29 -2.5t-29 -8.5t-30 -15.5t-30.5 -23.5t-32.5 -33zM419 421q0 -61 11 -105t33 -70.5t52 -38.5t71 -12q82 0 124.5 53t42.5 173v221q0 120 -42.5 173t-125 53t-124.5 -53t-42 -173v-221z" />
<glyph unicode="&#xf6;" horiz-adv-x="1169" d="M95 467v129q0 224 132 354.5t359 130.5q225 0 357 -130.5t132 -354.5v-129q0 -149 -59.5 -258.5t-170 -167.5t-259.5 -58q-227 0 -359 129.5t-132 354.5zM276 1315q0 60 38.5 97.5t98.5 37.5q58 0 96.5 -38t38.5 -97t-38.5 -97t-96.5 -38q-39 0 -70.5 17t-49 48t-17.5 70 zM419 421q0 -61 11 -105t33 -70.5t52 -38.5t71 -12q82 0 124.5 53t42.5 173v221q0 120 -42.5 173t-125 53t-124.5 -53t-42 -173v-221zM622 1315q0 59 39 97t97.5 38t97 -37.5t38.5 -97t-38.5 -97.5t-97 -38t-97.5 38t-39 97z" />
<glyph unicode="&#xf7;" horiz-adv-x="1118" d="M97 563v206h922v-206h-922zM389 286q0 49 21.5 88t61 61t89.5 22q74 0 122 -48.5t48 -122.5t-48 -122.5t-122 -48.5q-76 0 -124 48.5t-48 122.5zM389 1045q0 74 48 122t124 48q74 0 122 -48t48 -122q0 -73 -48 -122t-122 -49q-75 0 -123.5 48.5t-48.5 122.5z" />
<glyph unicode="&#xf8;" horiz-adv-x="1169" d="M81 0l118 143q-104 128 -104 324v129q0 224 132 354.5t359 130.5q189 0 314 -94l63 76h127l-119 -143q104 -125 104 -324v-129q0 -149 -59.5 -258.5t-170 -167.5t-259.5 -58q-187 0 -315 93l-64 -76h-126zM419 407l310 374q-37 87 -143 87q-83 0 -125 -53t-42 -173v-221 v-14zM441 282q41 -87 145 -87q82 0 124.5 53t42.5 173v221v14z" />
<glyph unicode="&#xf9;" horiz-adv-x="1185" d="M117 314v749h316v-697q0 -54 13.5 -87.5t40 -49t67.5 -15.5q57 0 143 54l46 28v767h314v-720q0 -215 39 -343h-287q-20 66 -30 121l-76 -45q-83 -51 -145.5 -72t-126.5 -21q-153 0 -233.5 88t-80.5 243zM286 1468h243l165 -306h-186z" />
<glyph unicode="&#xfa;" horiz-adv-x="1185" d="M117 314v749h316v-697q0 -54 13.5 -87.5t40 -49t67.5 -15.5q57 0 143 54l46 28v767h314v-720q0 -215 39 -343h-287q-20 66 -30 121l-76 -45q-83 -51 -145.5 -72t-126.5 -21q-153 0 -233.5 88t-80.5 243zM479 1162l165 306h242l-221 -306h-186z" />
<glyph unicode="&#xfb;" horiz-adv-x="1185" d="M117 314v749h316v-697q0 -54 13.5 -87.5t40 -49t67.5 -15.5q57 0 143 54l46 28v767h314v-720q0 -215 39 -343h-287q-20 66 -30 121l-76 -45q-83 -51 -145.5 -72t-126.5 -21q-153 0 -233.5 88t-80.5 243zM237 1162l252 306h199l250 -306h-185l-165 165h-2l-163 -165h-186z " />
<glyph unicode="&#xfc;" horiz-adv-x="1185" d="M117 314v749h316v-697q0 -54 13.5 -87.5t40 -49t67.5 -15.5q57 0 143 54l46 28v767h314v-720q0 -215 39 -343h-287q-20 66 -30 121l-76 -45q-83 -51 -145.5 -72t-126.5 -21q-153 0 -233.5 88t-80.5 243zM278 1315.5q0 59.5 38.5 97t98.5 37.5q58 0 96.5 -38t38.5 -97 t-38.5 -97t-96.5 -38q-60 0 -98.5 38t-38.5 97.5zM624 1315q0 39 18 70t49 48t69 17q59 0 97.5 -37.5t38.5 -97t-38.5 -97.5t-97 -38t-97.5 38t-39 97z" />
<glyph unicode="&#xfd;" horiz-adv-x="1094" d="M46 1063h329l158 -544q24 -89 43 -185h2q20 113 40 185l146 544h285l-332 -1077q-29 -96 -68 -162.5t-91 -106t-113 -56.5t-139 -17q-93 0 -215 28v211q92 -20 165 -20q28 0 47.5 3t35 10t27 18.5t21.5 29.5l34 54zM439 1162l165 306h242l-220 -306h-187z" />
<glyph unicode="&#xfe;" horiz-adv-x="1195" d="M127 -338v1828h316v-525l48 28q148 88 258 88q160 0 253.5 -115.5t93.5 -334.5v-166q0 -97 -23 -176.5t-64 -136t-100 -95t-130 -56.5t-153 -18q-96 0 -183 39v-360h-316zM443 216q69 -21 135 -21q104 0 149.5 51t45.5 181v225q0 108 -33.5 152t-109.5 44q-52 0 -139 -54 l-48 -27v-551z" />
<glyph unicode="&#xff;" horiz-adv-x="1094" d="M46 1063h329l158 -544q24 -89 43 -185h2q20 113 40 185l146 544h285l-332 -1077q-29 -96 -68 -162.5t-91 -106t-113 -56.5t-139 -17q-93 0 -215 28v211q92 -20 165 -20q28 0 47.5 3t35 10t27 18.5t21.5 29.5l34 54zM237 1315.5q0 59.5 38.5 97t97.5 37.5q58 0 96.5 -38 t38.5 -97t-38.5 -97t-96.5 -38q-59 0 -97.5 38t-38.5 97.5zM582 1315q0 59 39 97t97.5 38t97.5 -37.5t39 -97t-39 -97.5t-97.5 -38t-97.5 38t-39 97z" />
<glyph unicode="&#x100;" horiz-adv-x="1296" d="M36 0l423 1331h379l426 -1331h-348l-95 320h-406l-93 -320h-286zM341 1484v181h614v-181h-614zM481 536h276l-101 340q-23 78 -36 181h-2q-18 -113 -38 -181z" />
<glyph unicode="&#x101;" horiz-adv-x="1107" d="M78 300v38q0 149 118.5 237.5t357.5 95.5l123 4v32q0 87 -42.5 122t-137.5 35q-148 0 -340 -85v218q208 84 389 84q231 0 338 -91.5t107 -284.5v-362q0 -211 40 -343h-288q-24 74 -30 119l-89 -53q-134 -80 -254 -80q-123 0 -207.5 86.5t-84.5 227.5zM250 1226v179h614 v-179h-614zM372 320q0 -55 28.5 -87t76.5 -32q32 0 62 9.5t77 31.5l61 31v222l-103 -4q-202 -6 -202 -144v-27z" />
<glyph unicode="&#x102;" horiz-adv-x="1296" d="M36 0l423 1331h379l426 -1331h-348l-95 320h-406l-93 -320h-286zM330 1714h165l7 -25q28 -98 146 -98q121 0 146 98l8 25h165l-8 -46q-10 -58 -37 -102.5t-67.5 -72t-92 -41t-114.5 -13.5q-127 0 -208.5 57t-101.5 172zM481 536h276l-101 340q-23 78 -36 181h-2 q-18 -113 -38 -181z" />
<glyph unicode="&#x103;" horiz-adv-x="1107" d="M78 300v38q0 149 118.5 237.5t357.5 95.5l123 4v32q0 87 -42.5 122t-137.5 35q-148 0 -340 -85v218q208 84 389 84q231 0 338 -91.5t107 -284.5v-362q0 -211 40 -343h-288q-24 74 -30 119l-89 -53q-134 -80 -254 -80q-123 0 -207.5 86.5t-84.5 227.5zM241 1462h163l7 -25 q13 -57 50.5 -86.5t96.5 -29.5q118 0 147 116l6 25h165l-8 -46q-20 -123 -102 -185.5t-208 -62.5q-127 0 -209 62.5t-103 185.5zM372 320q0 -55 28.5 -87t76.5 -32q32 0 62 9.5t77 31.5l61 31v222l-103 -4q-202 -6 -202 -144v-27z" />
<glyph unicode="&#x104;" horiz-adv-x="1296" d="M36 0l423 1331h379l426 -1331l-90 -93q-35 -37 -35 -66v-4q0 -20 11 -29t36 -9q33 0 78 12v-139q-74 -15 -140 -15q-97 0 -146 32.5t-49 94.5v7q0 63 72 124l104 85h-189l-95 320h-406l-93 -320h-286zM481 536h276l-101 340q-23 78 -36 181h-2q-18 -113 -38 -181z" />
<glyph unicode="&#x105;" horiz-adv-x="1107" d="M78 300v38q0 149 118.5 237.5t357.5 95.5l123 4v32q0 87 -42.5 122t-137.5 35q-148 0 -340 -85v218q208 84 389 84q231 0 338 -91.5t107 -284.5v-362q0 -211 40 -343l-87 -93q-36 -38 -36 -66v-4q0 -20 11 -29t36 -9q33 0 78 12v-139q-74 -15 -139 -15q-48 0 -85 8 t-61 24.5t-36.5 40t-12.5 54.5v7q0 63 72 124l103 85h-131q-24 74 -30 119l-89 -53q-134 -80 -254 -80q-123 0 -207.5 86.5t-84.5 227.5zM372 320q0 -55 28.5 -87t76.5 -32q32 0 62 9.5t77 31.5l61 31v222l-103 -4q-202 -6 -202 -144v-27z" />
<glyph unicode="&#x106;" horiz-adv-x="1175" d="M106 578v175q0 285 150.5 440.5t422.5 155.5q190 0 390 -90v-236q-234 84 -352 84q-134 0 -198 -68.5t-64 -217.5v-311q0 -149 64 -217.5t198 -68.5q121 0 352 85v-237q-198 -89 -390 -89q-272 0 -422.5 155t-150.5 440zM556 1431l153 285h243l-211 -285h-185z" />
<glyph unicode="&#x107;" horiz-adv-x="1034" d="M95 467v129q0 226 136 355.5t379 129.5q46 0 100 -10t109.5 -29.5t102.5 -44.5v-214q-161 79 -278 79q-80 0 -128.5 -22t-72.5 -70t-24 -128v-221q0 -118 53 -169t172 -51q117 0 278 79v-214q-70 -39 -155.5 -61t-156.5 -22q-243 0 -379 129t-136 355zM455 1162l165 306 h242l-220 -306h-187z" />
<glyph unicode="&#x10a;" horiz-adv-x="1175" d="M106 578v175q0 285 150.5 440.5t422.5 155.5q190 0 390 -90v-236q-234 84 -352 84q-134 0 -198 -68.5t-64 -217.5v-311q0 -149 64 -217.5t198 -68.5q121 0 352 85v-237q-198 -89 -390 -89q-272 0 -422.5 155t-150.5 440zM499 1583q0 70 46 115.5t115 45.5t115 -45.5 t46 -115.5q0 -71 -45.5 -116t-115.5 -45q-69 0 -115 45t-46 116z" />
<glyph unicode="&#x10b;" horiz-adv-x="1034" d="M95 467v129q0 226 136 355.5t379 129.5q46 0 100 -10t109.5 -29.5t102.5 -44.5v-214q-161 79 -278 79q-80 0 -128.5 -22t-72.5 -70t-24 -128v-221q0 -118 53 -169t172 -51q117 0 278 79v-214q-70 -39 -155.5 -61t-156.5 -22q-243 0 -379 129t-136 355zM404 1315.5 q0 69.5 46 115t114.5 45.5t115 -45.5t46.5 -115t-46.5 -115.5t-115 -46t-114.5 46t-46 115.5z" />
<glyph unicode="&#x10c;" horiz-adv-x="1175" d="M106 578v175q0 285 150.5 440.5t422.5 155.5q190 0 390 -90v-236q-234 84 -352 84q-134 0 -198 -68.5t-64 -217.5v-311q0 -149 64 -217.5t198 -68.5q121 0 352 85v-237q-198 -89 -390 -89q-272 0 -422.5 155t-150.5 440zM309 1716h186l163 -143h4l164 143h185l-256 -285 h-189z" />
<glyph unicode="&#x10d;" horiz-adv-x="1034" d="M95 467v129q0 226 136 355.5t379 129.5q46 0 100 -10t109.5 -29.5t102.5 -44.5v-214q-161 79 -278 79q-80 0 -128.5 -22t-72.5 -70t-24 -128v-221q0 -118 53 -169t172 -51q117 0 278 79v-214q-70 -39 -155.5 -61t-156.5 -22q-243 0 -379 129t-136 355zM212 1468h188 l163 -165h2l164 165h185l-251 -306h-198z" />
<glyph unicode="&#x10e;" horiz-adv-x="1352" d="M137 0v1331h459q318 0 484.5 -147.5t166.5 -430.5v-175q0 -284 -166.5 -431t-484.5 -147h-459zM271 1716h184l163 -143h4l165 143h184l-256 -285h-188zM470 231h174q129 0 190.5 68t61.5 222v290q0 154 -61.5 222t-190.5 68h-174v-870z" />
<glyph unicode="&#x10f;" horiz-adv-x="1191" d="M95 431v167q0 121 35 214t98.5 151.5t150 88t191.5 29.5q90 0 179 -38v447h314v-1147q0 -211 40 -343h-288q-21 60 -32 131l-86 -59q-130 -89 -256 -89q-62 0 -115.5 17.5t-96 54t-72.5 89.5t-46 126t-16 161zM419 411q0 -109 33.5 -153t108.5 -44q50 0 140 54l48 28v555 q-59 17 -133 17q-106 0 -151.5 -52t-45.5 -181v-224zM1152 1361q0 57 36.5 93t92.5 36q39 0 68 -16.5t44 -45.5t15 -67q0 -32 -11.5 -65.5t-41.5 -83.5l-98 -158h-97l85 180q-27 8 -48 25.5t-33 43.5t-12 58z" />
<glyph unicode="&#x110;" horiz-adv-x="1352" d="M42 592v165h95v574h459q318 0 484.5 -147.5t166.5 -430.5v-175q0 -284 -166.5 -431t-484.5 -147h-459v592h-95zM470 231h174q129 0 190.5 68t61.5 222v290q0 154 -61.5 222t-190.5 68h-174v-344h231v-165h-231v-361z" />
<glyph unicode="&#x111;" horiz-adv-x="1191" d="M95 431v167q0 121 35 214t98.5 151.5t150 88t191.5 29.5q90 0 179 -38v137h-266v139h266v171h314v-171h143v-139h-143v-837q0 -211 40 -343h-288q-21 60 -32 131l-86 -59q-130 -89 -256 -89q-62 0 -115.5 17.5t-96 54t-72.5 89.5t-46 126t-16 161zM419 411 q0 -109 33.5 -153t108.5 -44q50 0 140 54l48 28v555q-59 17 -133 17q-106 0 -151.5 -52t-45.5 -181v-224z" />
<glyph unicode="&#x112;" horiz-adv-x="1175" d="M137 0v1331h912v-237h-579v-303h508v-233h-508v-321h579v-237h-912zM284 1484v181h614v-181h-614z" />
<glyph unicode="&#x113;" horiz-adv-x="1118" d="M95 443v153q0 223 130 354t347 131q216 0 334.5 -114.5t118.5 -331.5v-188h-606v-42q0 -108 50.5 -156t160.5 -48q152 0 367 79v-214q-192 -83 -403 -83q-244 0 -371.5 118.5t-127.5 341.5zM252 1226v179h614v-179h-614zM419 626h316v34q0 76 -18.5 123t-52.5 67t-86 20 q-159 0 -159 -228v-16z" />
<glyph unicode="&#x114;" horiz-adv-x="1175" d="M137 0v1331h912v-237h-579v-303h508v-233h-508v-321h579v-237h-912zM273 1714h164l8 -25q28 -98 145 -98q122 0 147 98l8 25h165l-8 -46q-20 -115 -102 -172t-210 -57q-127 0 -208 57t-102 172z" />
<glyph unicode="&#x115;" horiz-adv-x="1118" d="M95 443v153q0 223 130 354t347 131q216 0 334.5 -114.5t118.5 -331.5v-188h-606v-42q0 -108 50.5 -156t160.5 -48q152 0 367 79v-214q-192 -83 -403 -83q-244 0 -371.5 118.5t-127.5 341.5zM242 1462h163l8 -25q13 -57 51 -86.5t97 -29.5q117 0 146 116l6 25h165l-8 -46 q-20 -123 -101.5 -185.5t-207.5 -62.5q-128 0 -210 62.5t-103 185.5zM419 626h316v34q0 76 -18.5 123t-52.5 67t-86 20q-159 0 -159 -228v-16z" />
<glyph unicode="&#x116;" horiz-adv-x="1175" d="M137 0v1331h912v-237h-579v-303h508v-233h-508v-321h579v-237h-912zM429 1583q0 70 46 115.5t115 45.5q70 0 115.5 -45.5t45.5 -115.5q0 -71 -45.5 -116t-115.5 -45q-46 0 -82.5 20t-57.5 57t-21 84z" />
<glyph unicode="&#x117;" horiz-adv-x="1118" d="M95 443v153q0 223 130 354t347 131q216 0 334.5 -114.5t118.5 -331.5v-188h-606v-42q0 -108 50.5 -156t160.5 -48q152 0 367 79v-214q-192 -83 -403 -83q-244 0 -371.5 118.5t-127.5 341.5zM400 1315.5q0 69.5 46 115t114.5 45.5t114.5 -45.5t46 -115t-46 -115.5 t-114.5 -46t-114.5 46t-46 115.5zM419 626h316v34q0 76 -18.5 123t-52.5 67t-86 20q-159 0 -159 -228v-16z" />
<glyph unicode="&#x118;" horiz-adv-x="1175" d="M137 0v1331h912v-237h-579v-303h508v-233h-508v-321h579v-237l-90 -93q-36 -38 -36 -66v-4q0 -20 11.5 -29t36.5 -9q32 0 78 12v-139q-74 -15 -139 -15q-97 0 -146 32.5t-49 94.5v7q0 63 72 124l103 85h-753z" />
<glyph unicode="&#x119;" horiz-adv-x="1118" d="M95 443v153q0 223 130 354t347 131q216 0 334.5 -114.5t118.5 -331.5v-188h-606v-42q0 -108 50.5 -156t160.5 -48q152 0 367 79v-214q-142 -64 -307 -80l-78 -79q-36 -38 -36 -66v-4q0 -20 11 -29t37 -9q32 0 77 12v-139q-73 -15 -138 -15q-98 0 -146.5 32.5t-48.5 94.5 v7q0 63 71 124l86 69q-210 19 -320 136t-110 323zM419 626h316v34q0 76 -18.5 123t-52.5 67t-86 20q-159 0 -159 -228v-16z" />
<glyph unicode="&#x11a;" horiz-adv-x="1175" d="M137 0v1331h912v-237h-579v-303h508v-233h-508v-321h579v-237h-912zM241 1716h184l163 -143h4l165 143h185l-256 -285h-189z" />
<glyph unicode="&#x11b;" horiz-adv-x="1118" d="M95 443v153q0 223 130 354t347 131q216 0 334.5 -114.5t118.5 -331.5v-188h-606v-42q0 -108 50.5 -156t160.5 -48q152 0 367 79v-214q-192 -83 -403 -83q-244 0 -371.5 118.5t-127.5 341.5zM209 1468h187l162 -165h3l165 165h184l-250 -306h-199zM419 626h316v34 q0 76 -18.5 123t-52.5 67t-86 20q-159 0 -159 -228v-16z" />
<glyph unicode="&#x11e;" horiz-adv-x="1302" d="M106 578v175q0 293 160 444.5t477 151.5q178 0 391 -90v-236q-129 47 -211.5 65.5t-167.5 18.5q-158 0 -229 -68t-71 -218v-309q0 -85 16.5 -144.5t50 -94t79.5 -49.5t110 -15q94 0 189 24v298h-244v214h528v-684q-89 -34 -228.5 -56t-265.5 -22q-301 0 -442.5 145 t-141.5 450zM370 1714h164l8 -25q28 -98 146 -98q121 0 146 98l8 25h165l-8 -46q-20 -115 -101.5 -172t-209.5 -57q-83 0 -147 23.5t-107 76t-57 129.5z" />
<glyph unicode="&#x11f;" horiz-adv-x="1191" d="M95 489v107q0 485 568 485q93 0 204 -16t196 -44v-957q0 -133 -55.5 -226t-171.5 -143.5t-286 -50.5q-193 0 -368 60v216q193 -67 358 -67q115 0 162 39.5t47 135.5v149l-50 -34q-134 -95 -258 -95q-62 0 -115.5 17.5t-96 53t-72.5 88t-46 124t-16 158.5zM300 1462h163 l7 -25q13 -57 51 -86.5t97 -29.5q117 0 146 116l7 25h165l-9 -46q-13 -83 -56 -139t-106.5 -82.5t-146.5 -26.5q-127 0 -209.5 62.5t-102.5 185.5zM419 474q0 -107 34 -150.5t110 -43.5q27 0 57 13t81 43l48 28v484q-69 20 -133 20q-106 0 -151.5 -52t-45.5 -183v-159z" />
<glyph unicode="&#x120;" horiz-adv-x="1302" d="M106 578v175q0 293 160 444.5t477 151.5q178 0 391 -90v-236q-129 47 -211.5 65.5t-167.5 18.5q-158 0 -229 -68t-71 -218v-309q0 -85 16.5 -144.5t50 -94t79.5 -49.5t110 -15q94 0 189 24v298h-244v214h528v-684q-89 -34 -228.5 -56t-265.5 -22q-301 0 -442.5 145 t-141.5 450zM527 1583q0 46 21 83t58 57.5t82 20.5q46 0 82.5 -20.5t57 -57.5t20.5 -83q0 -71 -45 -116t-115 -45q-69 0 -115 45t-46 116z" />
<glyph unicode="&#x121;" horiz-adv-x="1191" d="M95 489v107q0 485 568 485q93 0 204 -16t196 -44v-957q0 -133 -55.5 -226t-171.5 -143.5t-286 -50.5q-193 0 -368 60v216q193 -67 358 -67q115 0 162 39.5t47 135.5v149l-50 -34q-134 -95 -258 -95q-62 0 -115.5 17.5t-96 53t-72.5 88t-46 124t-16 158.5zM419 474 q0 -107 34 -150.5t110 -43.5q27 0 57 13t81 43l48 28v484q-69 20 -133 20q-106 0 -151.5 -52t-45.5 -183v-159zM457 1315q0 70 46 115.5t115 45.5t115 -45.5t46 -115t-46 -115.5t-115 -46q-45 0 -82 21t-58 58t-21 82z" />
<glyph unicode="&#x122;" horiz-adv-x="1302" d="M106 578v175q0 293 160 444.5t477 151.5q178 0 391 -90v-236q-129 47 -211.5 65.5t-167.5 18.5q-158 0 -229 -68t-71 -218v-309q0 -85 16.5 -144.5t50 -94t79.5 -49.5t110 -15q94 0 189 24v298h-244v214h528v-684q-89 -34 -228.5 -56t-265.5 -22q-301 0 -442.5 145 t-141.5 450zM558 -191q0 57 36.5 93.5t93.5 36.5t92 -36.5t35 -93.5q0 -21 -5 -41.5t-16.5 -45.5t-33.5 -62l-97 -157h-97l86 181q-28 7 -49 24t-33 43t-12 58z" />
<glyph unicode="&#x123;" horiz-adv-x="1191" d="M95 489v107q0 485 568 485q93 0 204 -16t196 -44v-957q0 -133 -55.5 -226t-171.5 -143.5t-286 -50.5q-193 0 -368 60v216q193 -67 358 -67q115 0 162 39.5t47 135.5v149l-50 -34q-134 -95 -258 -95q-62 0 -115.5 17.5t-96 53t-72.5 88t-46 124t-16 158.5zM419 474 q0 -107 34 -150.5t110 -43.5q27 0 57 13t81 43l48 28v484q-69 20 -133 20q-106 0 -151.5 -52t-45.5 -183v-159zM491 1255q0 32 11.5 64.5t43.5 85.5l93 149h96l-81 -174q43 -10 68 -43.5t25 -81.5q0 -57 -35.5 -93t-93.5 -36t-92.5 36t-34.5 93z" />
<glyph unicode="&#x126;" horiz-adv-x="1350" d="M34 1005v165h103v161h332v-161h413v161h331v-161h104v-165h-104v-1005h-331v542h-413v-542h-332v1005h-103zM469 809h413v196h-413v-196z" />
<glyph unicode="&#x127;" horiz-adv-x="1183" d="M-16 1180v139h143v171h316v-171h266v-139h-266v-217l46 28q82 50 141.5 70t122.5 20q77 0 136.5 -23.5t98.5 -67t59 -104.5t20 -137v-749h-314v697q0 80 -30 115.5t-93 35.5q-30 0 -61.5 -13t-81.5 -43l-44 -25v-767h-316v1180h-143z" />
<glyph unicode="&#x128;" horiz-adv-x="957" d="M103 0v203h211v925h-211v203h752v-203h-209v-925h209v-203h-752zM163 1446v165l12 14q34 40 78 62.5t83 22.5q57 0 129 -40l58 -31q64 -36 105 -36q36 0 70.5 19t78.5 63l15 15v-164l-11 -14q-35 -40 -79 -62.5t-82 -22.5q-62 0 -131 39l-56 31q-60 36 -105 36 q-36 0 -71 -18.5t-79 -62.5z" />
<glyph unicode="&#x129;" horiz-adv-x="658" d="M36 1186v167l12 12q87 87 159 87q66 0 131 -40l56 -34q60 -36 105 -36q36 0 70 19.5t79 64.5l15 16v-166l-11 -12q-88 -88 -159 -88q-65 0 -131 39l-58 34q-60 36 -103 36q-40 0 -76 -18.5t-76 -64.5zM53 855v208h453v-1063h-315v855h-138z" />
<glyph unicode="&#x12a;" horiz-adv-x="957" d="M103 0v203h211v925h-211v203h752v-203h-209v-925h209v-203h-752zM171 1484v181h614v-181h-614z" />
<glyph unicode="&#x12b;" horiz-adv-x="658" d="M42 1226v179h614v-179h-614zM53 855v208h453v-1063h-315v855h-138z" />
<glyph unicode="&#x12c;" horiz-adv-x="957" d="M103 0v203h211v925h-211v203h752v-203h-209v-925h209v-203h-752zM159 1714h165l8 -25q28 -98 145 -98q122 0 147 98l7 25h165l-7 -46q-21 -115 -102.5 -172t-209.5 -57q-127 0 -208.5 57t-101.5 172z" />
<glyph unicode="&#x12d;" horiz-adv-x="658" d="M32 1462h163l8 -25q13 -57 50.5 -86.5t95.5 -29.5q118 0 148 116l5 25h165l-7 -46q-21 -123 -103 -185.5t-208 -62.5q-127 0 -209 62.5t-102 185.5zM53 855v208h453v-1063h-315v855h-138z" />
<glyph unicode="&#x12e;" horiz-adv-x="957" d="M103 0v203h211v925h-211v203h752v-203h-209v-925h209v-203l-91 -93q-35 -37 -35 -66v-4q0 -20 11.5 -29t36.5 -9q32 0 78 12v-139q-74 -15 -140 -15q-194 0 -194 127v7q0 64 71 124l103 85h-592z" />
<glyph unicode="&#x12f;" horiz-adv-x="658" d="M53 855v208h453v-1063l-89 -93q-36 -38 -36 -66v-4q0 -20 11 -29t37 -9q32 0 77 12v-139q-73 -15 -138 -15q-97 0 -146 32.5t-49 94.5v7q0 63 71 124l103 85h-156v855h-138zM159 1315.5q0 75.5 49.5 121t138.5 45.5q45 0 81 -12t59.5 -34t36 -53t12.5 -68 q0 -75 -49.5 -121t-139 -46t-139 46t-49.5 121.5z" />
<glyph unicode="&#x130;" horiz-adv-x="957" d="M103 0v203h211v925h-211v203h752v-203h-209v-925h209v-203h-752zM316 1583q0 70 46.5 115.5t114.5 45.5q70 0 115 -45.5t45 -115.5q0 -47 -20.5 -83.5t-57 -57t-82.5 -20.5q-69 0 -115 45t-46 116z" />
<glyph unicode="&#x131;" horiz-adv-x="658" d="M53 855v208h453v-1063h-315v855h-138z" />
<glyph unicode="&#x132;" horiz-adv-x="2017" d="M103 0v203h211v925h-211v203h752v-203h-209v-925h209v-203h-752zM1037 87v239q190 -97 339 -97q222 0 222 220v647h-351v235h658v-838q0 -510 -497 -510q-199 0 -371 104z" />
<glyph unicode="&#x133;" horiz-adv-x="1318" d="M53 855v208h453v-1063h-315v855h-138zM159 1315.5q0 75.5 49.5 121t138.5 45.5q45 0 81 -12t59.5 -34t36 -53t12.5 -68q0 -75 -49.5 -121t-139 -46t-139 46t-49.5 121.5zM594 -121q66 -16 123 -16q134 0 134 135v857h-138v208h453v-1069q0 -110 -42 -188t-126.5 -120 t-206.5 -42q-85 0 -197 24v211zM819 1315.5q0 75.5 49.5 121t138.5 45.5q36 0 66 -7.5t52.5 -22.5t38.5 -35.5t24 -46t8 -55.5q0 -75 -50 -121t-139 -46t-138.5 46t-49.5 121.5z" />
<glyph unicode="&#x136;" horiz-adv-x="1325" d="M137 0v1331h332v-605h1q15 30 42 72l376 533h327l-377 -535l430 -796h-376l-276 544l-147 -195v-349h-332zM533 -191q0 57 36 93.5t93 36.5t92 -36.5t35 -93.5q0 -32 -11.5 -63.5t-42.5 -85.5l-98 -157h-97l86 181q-42 10 -67.5 43.5t-25.5 81.5z" />
<glyph unicode="&#x137;" horiz-adv-x="1175" d="M127 0v1490h316v-866h2q25 43 74 104l287 335h293l-328 -386l363 -677h-349l-227 447l-115 -131v-316h-316zM463 -191q0 57 36 93.5t93 36.5t92 -36.5t35 -93.5q0 -32 -11.5 -63.5t-42.5 -85.5l-97 -157h-98l86 181q-42 10 -67.5 43.5t-25.5 81.5z" />
<glyph unicode="&#x139;" horiz-adv-x="1149" d="M137 0v1331h333v-1096h571v-235h-904zM205 1431l153 285h241l-210 -285h-184z" />
<glyph unicode="&#x13a;" horiz-adv-x="621" d="M17 1281v209h452v-1490h-316v1281h-136zM207 1605l165 304h242l-220 -304h-187z" />
<glyph unicode="&#x13b;" horiz-adv-x="1149" d="M137 0v1331h333v-1096h571v-235h-904zM461 -191q0 57 36 93.5t93 36.5t92 -36.5t35 -93.5q0 -22 -5 -42t-16.5 -45t-32.5 -62l-97 -157h-97l85 181q-42 10 -67.5 43.5t-25.5 81.5z" />
<glyph unicode="&#x13c;" horiz-adv-x="621" d="M17 1281v209h452v-1490h-316v1281h-136zM184 -191q0 57 37 93.5t93 36.5q58 0 92.5 -36.5t34.5 -93.5q0 -21 -5 -41.5t-16.5 -45.5t-32.5 -62l-97 -157h-97l85 181q-42 10 -68 44t-26 81z" />
<glyph unicode="&#x13d;" horiz-adv-x="1149" d="M137 0v1331h333v-1096h571v-235h-904zM654 1219q0 57 36 93.5t93 36.5q28 0 52 -9.5t40.5 -26.5t25.5 -41.5t9 -52.5q0 -21 -4.5 -41t-16.5 -45.5t-32 -61.5l-98 -157h-97l85 180q-28 7 -49 24t-32.5 43.5t-11.5 57.5z" />
<glyph unicode="&#x13e;" horiz-adv-x="621" d="M17 1281v209h452v-1490h-316v1281h-136zM558 1361q0 37 16.5 66.5t46 46t67.5 16.5q57 0 92 -36t35 -93q0 -32 -12 -65t-43 -84l-97 -158h-97l86 180q-42 12 -68 46t-26 81z" />
<glyph unicode="&#x13f;" horiz-adv-x="1149" d="M137 0v1331h333v-1096h571v-235h-904zM673 760q0 70 46 116t115 46q70 0 115.5 -46t45.5 -116t-45.5 -115.5t-115.5 -45.5q-45 0 -81.5 20.5t-58 57.5t-21.5 83z" />
<glyph unicode="&#x140;" horiz-adv-x="899" d="M17 1281v209h452v-1490h-316v1281h-136zM558 744.5q0 69.5 46 115.5t114.5 46t115 -46t46.5 -115q0 -34 -12.5 -64t-34 -51.5t-51 -33.5t-63.5 -12q-69 0 -115 45.5t-46 115z" />
<glyph unicode="&#x141;" horiz-adv-x="1149" d="M42 477v169l95 44v641h333v-491l267 121v-170l-267 -120v-436h571v-235h-904v521z" />
<glyph unicode="&#x142;" horiz-adv-x="621" d="M17 563v154l136 62v502h-136v209h452v-568l135 62v-156l-135 -61v-767h-316v624z" />
<glyph unicode="&#x143;" horiz-adv-x="1332" d="M137 0v1331h310l397 -703q38 -65 78 -156h1v859h273v-1331h-298l-409 692q-46 77 -80 154h-2v-846h-270zM563 1431l152 285h242l-210 -285h-184z" />
<glyph unicode="&#x144;" horiz-adv-x="1185" d="M87 1063h290q20 -65 30 -121l82 49q82 50 141.5 70t122.5 20q77 0 136.5 -23.5t98.5 -67t59 -104.5t20 -137v-749h-314v697q0 80 -30 115.5t-93 35.5q-30 0 -61.5 -13t-81.5 -43l-44 -25v-767h-316v717q0 214 -40 346zM497 1162l165 306h242l-220 -306h-187z" />
<glyph unicode="&#x145;" horiz-adv-x="1332" d="M137 0v1331h310l397 -703q38 -65 78 -156h1v859h273v-1331h-298l-409 692q-46 77 -80 154h-2v-846h-270zM538 -191q0 57 36.5 93.5t92.5 36.5q58 0 92.5 -36.5t34.5 -93.5q0 -32 -11 -63.5t-42 -85.5l-97 -157h-98l85 181q-42 10 -67.5 43.5t-25.5 81.5z" />
<glyph unicode="&#x146;" horiz-adv-x="1185" d="M87 1063h290q20 -65 30 -121l82 49q82 50 141.5 70t122.5 20q77 0 136.5 -23.5t98.5 -67t59 -104.5t20 -137v-749h-314v697q0 80 -30 115.5t-93 35.5q-30 0 -61.5 -13t-81.5 -43l-44 -25v-767h-316v717q0 214 -40 346zM474 -191q0 57 37 93.5t93 36.5q58 0 92.5 -36.5 t34.5 -93.5q0 -31 -11.5 -63t-42.5 -86l-97 -157h-97l85 181q-42 10 -68 44t-26 81z" />
<glyph unicode="&#x147;" horiz-adv-x="1332" d="M137 0v1331h310l397 -703q38 -65 78 -156h1v859h273v-1331h-298l-409 692q-46 77 -80 154h-2v-846h-270zM316 1716h185l162 -143h4l165 143h186l-258 -285h-188z" />
<glyph unicode="&#x148;" horiz-adv-x="1185" d="M87 1063h290q20 -65 30 -121l82 49q82 50 141.5 70t122.5 20q77 0 136.5 -23.5t98.5 -67t59 -104.5t20 -137v-749h-314v697q0 80 -30 115.5t-93 35.5q-30 0 -61.5 -13t-81.5 -43l-44 -25v-767h-316v717q0 214 -40 346zM252 1468h187l163 -165h2l165 165h185l-251 -306 h-199z" />
<glyph unicode="&#x14a;" horiz-adv-x="1332" d="M137 0v1331h310l397 -703q38 -65 78 -156h1v859h273v-1345q0 -164 -92 -253t-272 -89q-76 0 -188 24v209q67 -16 115 -16q63 0 92 26.5t29 95.5v47l-391 662q-39 61 -80 154h-2v-846h-270z" />
<glyph unicode="&#x14b;" horiz-adv-x="1185" d="M87 1063h290q20 -65 30 -121l82 49q82 50 141.5 70t122.5 20q77 0 136.5 -23.5t98.5 -67t59 -104.5t20 -137v-763q0 -161 -86 -251.5t-238 -90.5q-90 0 -175 22v207q43 -10 84 -10q101 0 101 120v714q0 80 -30 115.5t-93 35.5q-30 0 -61.5 -13t-81.5 -43l-44 -25v-767 h-316v717q0 214 -40 346z" />
<glyph unicode="&#x14c;" horiz-adv-x="1359" d="M106 578v175q0 284 151.5 440t421.5 156q271 0 423.5 -156t152.5 -440v-175q0 -284 -152 -439.5t-424 -155.5q-270 0 -421.5 155.5t-151.5 439.5zM373 1484v181h614v-181h-614zM455 510q0 -146 61.5 -219t162.5 -73q102 0 163.5 72.5t61.5 219.5v311q0 147 -61.5 219.5 t-163.5 72.5q-101 0 -162.5 -73t-61.5 -219v-311z" />
<glyph unicode="&#x14d;" horiz-adv-x="1169" d="M95 467v129q0 224 132 354.5t359 130.5q225 0 357 -130.5t132 -354.5v-129q0 -149 -59.5 -258.5t-170 -167.5t-259.5 -58q-227 0 -359 129.5t-132 354.5zM278 1226v179h614v-179h-614zM419 421q0 -61 11 -105t33 -70.5t52 -38.5t71 -12q82 0 124.5 53t42.5 173v221 q0 120 -42.5 173t-125 53t-124.5 -53t-42 -173v-221z" />
<glyph unicode="&#x14e;" horiz-adv-x="1359" d="M106 578v175q0 284 151.5 440t421.5 156q271 0 423.5 -156t152.5 -440v-175q0 -284 -152 -439.5t-424 -155.5q-270 0 -421.5 155.5t-151.5 439.5zM362 1714h165l7 -25q28 -98 145 -98q122 0 147 98l8 25h165l-8 -46q-20 -115 -102 -172t-210 -57q-83 0 -146.5 23.5 t-106.5 76t-56 129.5zM455 510q0 -146 61.5 -219t162.5 -73q102 0 163.5 72.5t61.5 219.5v311q0 147 -61.5 219.5t-163.5 72.5q-101 0 -162.5 -73t-61.5 -219v-311z" />
<glyph unicode="&#x14f;" horiz-adv-x="1169" d="M95 467v129q0 224 132 354.5t359 130.5q225 0 357 -130.5t132 -354.5v-129q0 -149 -59.5 -258.5t-170 -167.5t-259.5 -58q-227 0 -359 129.5t-132 354.5zM268 1462h163l8 -25q6 -23 15 -41.5t22 -32.5t29.5 -23t37 -14t43.5 -5q118 0 147 116l6 25h165l-8 -46 q-10 -62 -37 -109.5t-67.5 -78t-92 -45.5t-113.5 -15q-127 0 -209 62.5t-102 185.5zM419 421q0 -61 11 -105t33 -70.5t52 -38.5t71 -12q82 0 124.5 53t42.5 173v221q0 120 -42.5 173t-125 53t-124.5 -53t-42 -173v-221z" />
<glyph unicode="&#x150;" horiz-adv-x="1359" d="M106 578v175q0 284 151.5 440t421.5 156q271 0 423.5 -156t152.5 -440v-175q0 -284 -152 -439.5t-424 -155.5q-270 0 -421.5 155.5t-151.5 439.5zM437 1431l153 285h212l-178 -285h-187zM455 510q0 -146 61.5 -219t162.5 -73q102 0 163.5 72.5t61.5 219.5v311 q0 147 -61.5 219.5t-163.5 72.5q-101 0 -162.5 -73t-61.5 -219v-311zM713 1431l183 285h213l-211 -285h-185z" />
<glyph unicode="&#x151;" horiz-adv-x="1169" d="M95 467v129q0 224 132 354.5t359 130.5q225 0 357 -130.5t132 -354.5v-129q0 -149 -59.5 -258.5t-170 -167.5t-259.5 -58q-227 0 -359 129.5t-132 354.5zM340 1162l162 306h213l-190 -306h-185zM419 421q0 -61 11 -105t33 -70.5t52 -38.5t71 -12q82 0 124.5 53t42.5 173 v221q0 120 -42.5 173t-125 53t-124.5 -53t-42 -173v-221zM614 1162l195 306h212l-223 -306h-184z" />
<glyph unicode="&#x152;" horiz-adv-x="1920" d="M106 578v175q0 284 165.5 431t483.5 147h1037v-237h-579v-303h510v-233h-510v-321h579v-237h-1037q-318 0 -483.5 147t-165.5 431zM455 521q0 -154 62.5 -222t191.5 -68h173v870h-173q-129 0 -191.5 -68.5t-62.5 -221.5v-290z" />
<glyph unicode="&#x153;" horiz-adv-x="1773" d="M95 467v129q0 110 34 201.5t94 153.5t145 96t186 34q118 0 209.5 -43t150.5 -124q57 81 145.5 124t201.5 43q194 0 308 -115.5t114 -330.5v-188h-608v-42q0 -72 23 -117.5t69.5 -66t119.5 -20.5q153 0 368 79v-214q-192 -83 -406 -83q-228 0 -341 158 q-59 -77 -149 -117.5t-205 -40.5q-101 0 -186 33.5t-145 95.5t-94 153t-34 202zM419 421q0 -61 11 -105t33 -70.5t52 -38.5t71 -12q82 0 124.5 53t42.5 173v221q0 120 -42.5 173t-125 53t-124.5 -53t-42 -173v-221zM1075 626h316v34q0 112 -39 161t-116 49q-161 0 -161 -228 v-16z" />
<glyph unicode="&#x154;" horiz-adv-x="1322" d="M137 0v1331h557q260 0 384 -90t124 -265v-47q0 -98 -70.5 -172t-197.5 -111q44 -34 83.5 -99t83.5 -172l152 -375h-347l-142 394q-22 64 -41.5 100t-45.5 60h-208v-554h-332zM469 760h193q87 0 135.5 41t48.5 117v45q0 76 -48.5 115.5t-135.5 39.5h-193v-358zM546 1431 l153 285h243l-211 -285h-185z" />
<glyph unicode="&#x155;" horiz-adv-x="879" d="M87 1063h290q20 -63 30 -123l94 63q101 68 191 68q49 0 112 -19v-239q-57 6 -125 6q-46 0 -83.5 -12.5t-93.5 -42.5l-59 -31v-733h-316v717q0 214 -40 346zM358 1162l165 306h241l-220 -306h-186z" />
<glyph unicode="&#x156;" horiz-adv-x="1312" d="M137 0v1331h557q260 0 384 -90t124 -265v-47q0 -98 -70.5 -172t-197.5 -111q44 -34 83.5 -99t83.5 -172l152 -375h-347l-142 394q-22 64 -41.5 100t-45.5 60h-208v-554h-332zM469 760h193q87 0 135.5 41t48.5 117v45q0 76 -48.5 115.5t-135.5 39.5h-193v-358zM523 -191 q0 57 36 93.5t93 36.5q38 0 67 -17t44.5 -46t15.5 -67q0 -32 -11.5 -63.5t-41.5 -85.5l-98 -157h-97l85 181q-42 10 -67.5 43.5t-25.5 81.5z" />
<glyph unicode="&#x157;" horiz-adv-x="879" d="M87 1063h290q20 -63 30 -123l94 63q101 68 191 68q49 0 112 -19v-239q-57 6 -125 6q-46 0 -83.5 -12.5t-93.5 -42.5l-59 -31v-733h-316v717q0 214 -40 346zM161 -191q0 57 36 93.5t93 36.5q58 0 92.5 -36.5t34.5 -93.5q0 -22 -4.5 -42t-16 -45t-32.5 -62l-98 -157h-97 l85 181q-42 10 -67.5 43.5t-25.5 81.5z" />
<glyph unicode="&#x158;" horiz-adv-x="1322" d="M137 0v1331h557q260 0 384 -90t124 -265v-47q0 -98 -70.5 -172t-197.5 -111q44 -34 83.5 -99t83.5 -172l152 -375h-347l-142 394q-22 64 -41.5 100t-45.5 60h-208v-554h-332zM300 1716h185l163 -143h4l165 143h184l-256 -285h-189zM469 760h193q87 0 135.5 41t48.5 117 v45q0 76 -48.5 115.5t-135.5 39.5h-193v-358z" />
<glyph unicode="&#x159;" horiz-adv-x="879" d="M87 1063h290q20 -63 30 -123l94 63q101 68 191 68q49 0 112 -19v-239q-57 6 -125 6q-46 0 -83.5 -12.5t-93.5 -42.5l-59 -31v-733h-316v717q0 214 -40 346zM115 1468h187l163 -165h2l164 165h186l-251 -306h-198z" />
<glyph unicode="&#x15a;" horiz-adv-x="1157" d="M93 910v53q0 82 33.5 152t98 122.5t167.5 82t234 29.5q68 0 138 -10.5t136 -31t121 -48.5v-236q-213 84 -365 84q-95 0 -157 -16.5t-88 -42.5t-26 -62v-12q0 -45 37.5 -74.5t138.5 -53.5l182 -44q179 -43 257.5 -135t78.5 -238v-61q0 -117 -66 -205t-182 -134t-265 -46 q-138 0 -261 27t-206 77v237q248 -98 426 -98q128 0 193 33t65 90v21q0 30 -16 53.5t-53.5 43t-99.5 34.5l-181 43q-173 42 -256.5 130.5t-83.5 235.5zM481 1431l152 285h243l-211 -285h-184z" />
<glyph unicode="&#x15b;" horiz-adv-x="1010" d="M72 723v32q0 148 116.5 237t336.5 89q199 0 365 -82v-214q-108 45 -187.5 64t-160.5 19q-65 0 -105 -11t-55.5 -28.5t-15.5 -43.5v-4q0 -34 25 -54.5t90 -32.5l182 -36q152 -29 218.5 -104.5t66.5 -204.5v-37q0 -153 -128 -241t-350 -88q-213 0 -390 83v214 q203 -79 387 -79q177 0 177 87v8q0 33 -24.5 55t-85.5 34l-178 36q-149 29 -216.5 102.5t-67.5 199.5zM402 1162l164 306h243l-221 -306h-186z" />
<glyph unicode="&#x15e;" horiz-adv-x="1157" d="M93 910v53q0 82 33.5 152t98 122.5t167.5 82t234 29.5q68 0 138 -10.5t136 -31t121 -48.5v-236q-213 84 -365 84q-95 0 -157 -16.5t-88 -42.5t-26 -62v-12q0 -45 37.5 -74.5t138.5 -53.5l182 -44q179 -43 257.5 -135t78.5 -238v-61q0 -158 -116 -259t-307 -123l65 -66 q64 -64 64 -129v-7q0 -60 -53.5 -93.5t-149.5 -33.5q-90 0 -153 15v139q51 -12 92 -12q55 0 55 42v4q0 28 -20 62l-48 77q-120 5 -227.5 32t-181.5 71v237q248 -98 426 -98q128 0 193 33t65 90v21q0 30 -16 53.5t-53.5 43t-99.5 34.5l-181 43q-173 42 -256.5 130.5 t-83.5 235.5z" />
<glyph unicode="&#x15f;" horiz-adv-x="1010" d="M72 723v32q0 148 116.5 237t336.5 89q199 0 365 -82v-214q-108 45 -187.5 64t-160.5 19q-65 0 -105 -11t-55.5 -28.5t-15.5 -43.5v-4q0 -34 25 -54.5t90 -32.5l182 -36q152 -29 218.5 -104.5t66.5 -204.5v-37q0 -133 -97.5 -217.5t-272.5 -106.5l68 -68q63 -63 63 -129 v-7q0 -60 -53 -93.5t-150 -33.5q-89 0 -152 15v139q51 -12 91 -12q56 0 56 42v4q0 30 -20 62l-48 76q-199 9 -353 83v214q203 -79 387 -79q177 0 177 87v8q0 33 -24.5 55t-85.5 34l-178 36q-149 29 -216.5 102.5t-67.5 199.5z" />
<glyph unicode="&#x160;" horiz-adv-x="1157" d="M93 910v53q0 82 33.5 152t98 122.5t167.5 82t234 29.5q68 0 138 -10.5t136 -31t121 -48.5v-236q-213 84 -365 84q-95 0 -157 -16.5t-88 -42.5t-26 -62v-12q0 -45 37.5 -74.5t138.5 -53.5l182 -44q179 -43 257.5 -135t78.5 -238v-61q0 -117 -66 -205t-182 -134t-265 -46 q-138 0 -261 27t-206 77v237q248 -98 426 -98q128 0 193 33t65 90v21q0 30 -16 53.5t-53.5 43t-99.5 34.5l-181 43q-173 42 -256.5 130.5t-83.5 235.5zM235 1716h184l163 -143h4l165 143h185l-257 -285h-188z" />
<glyph unicode="&#x161;" horiz-adv-x="1010" d="M72 723v32q0 148 116.5 237t336.5 89q199 0 365 -82v-214q-108 45 -187.5 64t-160.5 19q-65 0 -105 -11t-55.5 -28.5t-15.5 -43.5v-4q0 -34 25 -54.5t90 -32.5l182 -36q152 -29 218.5 -104.5t66.5 -204.5v-37q0 -153 -128 -241t-350 -88q-213 0 -390 83v214 q203 -79 387 -79q177 0 177 87v8q0 33 -24.5 55t-85.5 34l-178 36q-149 29 -216.5 102.5t-67.5 199.5zM157 1468h186l163 -165h2l165 165h185l-250 -306h-199z" />
<glyph unicode="&#x164;" horiz-adv-x="1225" d="M78 1096v235h1070v-235h-369v-1096h-332v1096h-369zM262 1716h185l163 -143h4l165 143h184l-256 -285h-188z" />
<glyph unicode="&#x165;" horiz-adv-x="931" d="M51 855v208h163v268h315v-268h324v-208h-324v-517q0 -25 4 -43.5t12.5 -31.5t22.5 -21t32 -12t42 -4q79 0 211 54v-216q-69 -34 -155 -56t-154 -22q-174 0 -252 77t-78 249v543h-163zM620 1478q0 57 36 93t93 36t92 -35.5t35 -93.5q0 -21 -4.5 -41.5t-16.5 -46.5t-32 -61 l-97 -157h-98l85 179q-42 12 -67.5 46t-25.5 81z" />
<glyph unicode="&#x166;" horiz-adv-x="1225" d="M78 1096v235h1070v-235h-369v-325h262v-165h-262v-606h-332v606h-265v165h265v325h-369z" />
<glyph unicode="&#x167;" horiz-adv-x="931" d="M51 548v140h163v167h-163v208h163v268h315v-268h324v-208h-324v-167h324v-140h-324v-210q0 -25 4 -43.5t12.5 -31.5t22.5 -21t32 -12t42 -4q79 0 211 54v-216q-69 -34 -155 -56t-154 -22q-174 0 -252 77t-78 249v236h-163z" />
<glyph unicode="&#x168;" horiz-adv-x="1266" d="M115 497v834h332v-878q0 -229 199 -229q200 0 200 229v878h308v-834q0 -256 -135 -385t-386 -129q-250 0 -384 128.5t-134 385.5zM318 1446v165l12 14q34 40 78 62.5t83 22.5q57 0 129 -40l57 -31q65 -36 106 -36q36 0 70.5 19t78.5 63l16 15v-164l-12 -14 q-35 -40 -79 -62.5t-82 -22.5q-62 0 -131 39l-56 31q-60 36 -105 36q-36 0 -70.5 -18.5t-78.5 -62.5z" />
<glyph unicode="&#x169;" horiz-adv-x="1185" d="M117 314v749h316v-697q0 -54 13.5 -87.5t40 -49t67.5 -15.5q57 0 143 54l46 28v767h314v-720q0 -215 39 -343h-287q-20 66 -30 121l-76 -45q-83 -51 -145.5 -72t-126.5 -21q-153 0 -233.5 88t-80.5 243zM275 1186v167l11 12q87 87 159 87q67 0 131 -40l55 -34 q60 -36 106 -36q37 0 70 19.5t79 64.5l16 16v-166l-12 -12q-88 -88 -159 -88q-65 0 -132 39l-57 34q-60 36 -103 36q-39 0 -75 -18.5t-76 -64.5z" />
<glyph unicode="&#x16a;" horiz-adv-x="1266" d="M115 497v834h332v-878q0 -229 199 -229q200 0 200 229v878h308v-834q0 -256 -135 -385t-386 -129q-250 0 -384 128.5t-134 385.5zM326 1484v181h614v-181h-614z" />
<glyph unicode="&#x16b;" horiz-adv-x="1185" d="M117 314v749h316v-697q0 -54 13.5 -87.5t40 -49t67.5 -15.5q57 0 143 54l46 28v767h314v-720q0 -215 39 -343h-287q-20 66 -30 121l-76 -45q-83 -51 -145.5 -72t-126.5 -21q-153 0 -233.5 88t-80.5 243zM280 1226v179h614v-179h-614z" />
<glyph unicode="&#x16c;" horiz-adv-x="1266" d="M115 497v834h332v-878q0 -229 199 -229q200 0 200 229v878h308v-834q0 -256 -135 -385t-386 -129q-250 0 -384 128.5t-134 385.5zM314 1714h165l8 -25q28 -98 144 -98q123 0 148 98l8 25h165l-8 -46q-21 -115 -102.5 -172t-210.5 -57q-126 0 -207 57t-102 172z" />
<glyph unicode="&#x16d;" horiz-adv-x="1185" d="M117 314v749h316v-697q0 -54 13.5 -87.5t40 -49t67.5 -15.5q57 0 143 54l46 28v767h314v-720q0 -215 39 -343h-287q-20 66 -30 121l-76 -45q-83 -51 -145.5 -72t-126.5 -21q-153 0 -233.5 88t-80.5 243zM271 1462h162l8 -25q13 -57 50.5 -86.5t96.5 -29.5q118 0 147 116 l6 25h165l-8 -46q-14 -82 -57 -138.5t-106.5 -83t-146.5 -26.5q-127 0 -209 62.5t-103 185.5z" />
<glyph unicode="&#x16e;" horiz-adv-x="1266" d="M115 497v834h332v-878q0 -229 199 -229q200 0 200 229v878h308v-834q0 -256 -135 -385t-386 -129q-250 0 -384 128.5t-134 385.5zM443 1603v12q0 81 53.5 136t134.5 55q83 0 137.5 -55t54.5 -136v-12q0 -53 -24.5 -96.5t-68.5 -69t-99 -25.5q-81 0 -134.5 55t-53.5 136z M533 1605q0 -50 25.5 -78.5t72.5 -28.5q49 0 75.5 28.5t26.5 78.5v8q0 51 -26.5 80.5t-75.5 29.5q-47 0 -72.5 -30t-25.5 -80v-8z" />
<glyph unicode="&#x16f;" horiz-adv-x="1185" d="M117 314v749h316v-697q0 -54 13.5 -87.5t40 -49t67.5 -15.5q57 0 143 54l46 28v767h314v-720q0 -215 39 -343h-287q-20 66 -30 121l-76 -45q-83 -51 -145.5 -72t-126.5 -21q-153 0 -233.5 88t-80.5 243zM387 1344v13q0 86 56.5 143.5t144.5 57.5q86 0 142.5 -57.5 t56.5 -143.5v-13q0 -85 -56.5 -142t-142.5 -57q-88 0 -144.5 57t-56.5 142zM477 1347q0 -53 29.5 -86t81 -33t80.5 33t29 86v8q0 53 -29 85t-80.5 32t-81 -32t-29.5 -85v-8z" />
<glyph unicode="&#x170;" horiz-adv-x="1266" d="M115 497v834h332v-878q0 -229 199 -229q200 0 200 229v878h308v-834q0 -256 -135 -385t-386 -129q-250 0 -384 128.5t-134 385.5zM389 1431l153 285h213l-179 -285h-187zM665 1431l183 285h213l-210 -285h-186z" />
<glyph unicode="&#x171;" horiz-adv-x="1185" d="M117 314v749h316v-697q0 -54 13.5 -87.5t40 -49t67.5 -15.5q57 0 143 54l46 28v767h314v-720q0 -215 39 -343h-287q-20 66 -30 121l-76 -45q-83 -51 -145.5 -72t-126.5 -21q-153 0 -233.5 88t-80.5 243zM340 1162l162 306h213l-190 -306h-185zM614 1162l195 306h212 l-223 -306h-184z" />
<glyph unicode="&#x172;" horiz-adv-x="1266" d="M115 497v834h332v-878q0 -229 199 -229q200 0 200 229v878h308v-834q0 -229 -108 -356.5t-311 -152.5l-77 -81q-36 -38 -36 -66v-4q0 -20 11 -29t36 -9q33 0 78 12v-139q-74 -15 -139 -15q-97 0 -146 32.5t-49 94.5v7q0 63 72 124l85 69q-145 12 -245.5 71t-155 170.5 t-54.5 271.5z" />
<glyph unicode="&#x173;" horiz-adv-x="1185" d="M117 314v749h316v-697q0 -54 13.5 -87.5t40 -49t67.5 -15.5q57 0 143 54l46 28v767h314v-720q0 -215 39 -343l-87 -93q-35 -37 -35 -66v-4q0 -20 11 -29t36 -9q33 0 78 12v-139q-74 -15 -140 -15q-97 0 -146 32.5t-49 94.5v7q0 63 72 124l104 85h-131q-20 66 -30 121 l-76 -45q-83 -51 -145.5 -72t-126.5 -21q-153 0 -233.5 88t-80.5 243z" />
<glyph unicode="&#x174;" horiz-adv-x="1779" d="M57 1331h316l135 -773q13 -78 19 -196h4q8 116 25 196l170 773h328l170 -773q16 -80 25 -196h4q6 118 19 196l134 773h319l-261 -1331h-374l-178 900q-15 75 -20 131h-4q-7 -73 -18 -131l-180 -900h-374zM540 1431l256 285h190l256 -285h-185l-165 142h-4l-162 -142h-186 z" />
<glyph unicode="&#x175;" horiz-adv-x="1584" d="M53 1063h294l122 -576q21 -116 26 -173h2q7 93 28 173l148 576h239l149 -576q20 -75 27 -173h2q5 57 26 173l122 576h294l-256 -1063h-324l-131 558q-16 67 -27 171h-3q-11 -104 -27 -171l-131 -558h-324zM441 1162l253 306h198l251 -306h-186l-165 165h-1l-163 -165 h-187z" />
<glyph unicode="&#x176;" horiz-adv-x="1283" d="M53 1331h360l211 -489q25 -61 45 -127h2q15 46 48 127l215 489h296l-421 -914v-417h-335v417zM290 1431l256 285h189l256 -285h-185l-164 142h-5l-163 -142h-184z" />
<glyph unicode="&#x177;" horiz-adv-x="1094" d="M46 1063h329l158 -544q24 -89 43 -185h2q20 113 40 185l146 544h285l-332 -1077q-29 -96 -68 -162.5t-91 -106t-113 -56.5t-139 -17q-93 0 -215 28v211q92 -20 165 -20q28 0 47.5 3t35 10t27 18.5t21.5 29.5l34 54zM195 1162l252 306h199l250 -306h-185l-165 165h-2 l-163 -165h-186z" />
<glyph unicode="&#x178;" horiz-adv-x="1283" d="M53 1331h360l211 -489q25 -61 45 -127h2q15 46 48 127l215 489h296l-421 -914v-417h-335v417zM332 1575q0 60 38 97.5t97 37.5q58 0 97.5 -38t39.5 -97t-39.5 -97t-97.5 -38q-39 0 -69.5 17t-48 48t-17.5 70zM677 1575q0 59 39.5 97t98.5 38q58 0 96.5 -37.5t38.5 -97 t-38.5 -97.5t-96.5 -38q-59 0 -98.5 38t-39.5 97z" />
<glyph unicode="&#x179;" horiz-adv-x="1167" d="M106 0v244l525 772q25 38 63 78v2h-579v235h942v-245l-515 -768q-27 -42 -61 -81v-2h580v-235h-955zM481 1431l152 285h243l-211 -285h-184z" />
<glyph unicode="&#x17a;" horiz-adv-x="1018" d="M95 0v212l407 557q37 50 68 84v2h-460v208h808v-212l-404 -557q-38 -55 -67 -84v-1h475v-209h-827zM402 1162l164 306h243l-221 -306h-186z" />
<glyph unicode="&#x17b;" horiz-adv-x="1167" d="M106 0v244l525 772q25 38 63 78v2h-579v235h942v-245l-515 -768q-27 -42 -61 -81v-2h580v-235h-955zM423 1583q0 46 21 83t58 57.5t82 20.5q70 0 115.5 -45.5t45.5 -115.5q0 -71 -45.5 -116t-115.5 -45q-69 0 -115 45t-46 116z" />
<glyph unicode="&#x17c;" horiz-adv-x="1018" d="M95 0v212l407 557q37 50 68 84v2h-460v208h808v-212l-404 -557q-38 -55 -67 -84v-1h475v-209h-827zM349 1315q0 46 21 83t58 57.5t82 20.5q69 0 115 -45.5t46 -115t-46 -115.5t-115 -46q-27 0 -51.5 8t-44.5 22.5t-34.5 34t-22.5 44.5t-8 52z" />
<glyph unicode="&#x17d;" horiz-adv-x="1167" d="M106 0v244l525 772q25 38 63 78v2h-579v235h942v-245l-515 -768q-27 -42 -61 -81v-2h580v-235h-955zM235 1716h184l163 -143h4l165 143h185l-257 -285h-188z" />
<glyph unicode="&#x17e;" horiz-adv-x="1018" d="M95 0v212l407 557q37 50 68 84v2h-460v208h808v-212l-404 -557q-38 -55 -67 -84v-1h475v-209h-827zM159 1468h186l163 -165h2l165 165h185l-250 -306h-199z" />
<glyph unicode="&#x192;" horiz-adv-x="1162" d="M40 12l41 200q52 -19 112 -19q86 0 103 85l87 419h-161l44 209h161l22 101q36 174 145.5 258t307.5 84q110 0 220 -32l-41 -201q-77 23 -152 23t-111 -26.5t-49 -89.5l-26 -117h294l-44 -209h-294l-83 -393q-19 -92 -49.5 -153.5t-77.5 -99t-107 -53t-145 -15.5 q-98 0 -197 29z" />
<glyph unicode="&#x1fc;" horiz-adv-x="1898" d="M36 0l667 1331h1063v-237h-578v-303h509v-233h-509v-321h578v-237h-909v320h-370l-159 -320h-292zM594 536h263v573h-2q-30 -104 -82 -209zM927 1431l154 285h242l-210 -285h-186z" />
<glyph unicode="&#x1fd;" horiz-adv-x="1689" d="M78 300v38q0 148 117.5 233t358.5 92l123 4v40q0 87 -42.5 122t-137.5 35q-148 0 -340 -85v218q208 84 389 84q124 0 199.5 -38.5t111.5 -120.5q107 159 319 159q194 0 309 -115.5t115 -330.5v-188h-609v-42q0 -108 50.5 -156t162.5 -48q153 0 367 79v-214 q-194 -83 -405 -83q-116 0 -212 41t-162 115l-45 -33q-154 -120 -345 -120q-150 0 -237 84.5t-87 229.5zM372 320q0 -55 28.5 -87t76.5 -32q60 0 139 41l89 42q-28 80 -28 159v42l-103 -4q-107 -4 -154.5 -38.5t-47.5 -95.5v-27zM728 1162l164 306h242l-220 -306h-186z M991 626h317v34q0 112 -39 161t-117 49q-161 0 -161 -228v-16z" />
<glyph unicode="&#x218;" horiz-adv-x="1157" d="M93 910v53q0 82 33.5 152t98 122.5t167.5 82t234 29.5q68 0 138 -10.5t136 -31t121 -48.5v-236q-213 84 -365 84q-95 0 -157 -16.5t-88 -42.5t-26 -62v-12q0 -45 37.5 -74.5t138.5 -53.5l182 -44q179 -43 257.5 -135t78.5 -238v-61q0 -117 -66 -205t-182 -134t-265 -46 q-138 0 -261 27t-206 77v237q248 -98 426 -98q128 0 193 33t65 90v21q0 30 -16 53.5t-53.5 43t-99.5 34.5l-181 43q-173 42 -256.5 130.5t-83.5 235.5zM457 -191q0 57 36 93.5t93 36.5t92 -36.5t35 -93.5q0 -32 -11.5 -63.5t-41.5 -85.5l-97 -157h-98l85 181 q-42 10 -67.5 43.5t-25.5 81.5z" />
<glyph unicode="&#x219;" horiz-adv-x="1010" d="M72 723v32q0 148 116.5 237t336.5 89q199 0 365 -82v-214q-108 45 -187.5 64t-160.5 19q-65 0 -105 -11t-55.5 -28.5t-15.5 -43.5v-4q0 -34 25 -54.5t90 -32.5l182 -36q152 -29 218.5 -104.5t66.5 -204.5v-37q0 -153 -128 -241t-350 -88q-213 0 -390 83v214 q203 -79 387 -79q177 0 177 87v8q0 33 -24.5 55t-85.5 34l-178 36q-149 29 -216.5 102.5t-67.5 199.5zM379 -191q0 57 36.5 93.5t92.5 36.5q58 0 92.5 -36.5t34.5 -93.5q0 -32 -11 -63.5t-42 -85.5l-97 -157h-98l85 181q-42 10 -67.5 43.5t-25.5 81.5z" />
<glyph unicode="&#x21a;" horiz-adv-x="1225" d="M78 1096v235h1070v-235h-369v-1096h-332v1096h-369zM485 -191q0 57 36 93.5t93 36.5q58 0 92.5 -36.5t34.5 -93.5q0 -22 -4.5 -42t-16 -45t-32.5 -62l-98 -157h-97l85 181q-42 10 -67.5 43.5t-25.5 81.5z" />
<glyph unicode="&#x21b;" horiz-adv-x="931" d="M51 855v208h163v268h315v-268h324v-208h-324v-517q0 -25 4 -43.5t12.5 -31.5t22.5 -21t32 -12t42 -4q79 0 211 54v-216q-69 -34 -155 -56t-154 -22q-174 0 -252 77t-78 249v543h-163zM387 -191q0 57 36 93.5t93 36.5q58 0 93 -36.5t35 -93.5q0 -31 -11.5 -63t-42.5 -86 l-97 -157h-97l85 181q-42 10 -68 44t-26 81z" />
<glyph unicode="&#x237;" horiz-adv-x="658" d="M-66 -121q67 -16 123 -16q134 0 134 135v857h-138v208h453v-1069q0 -83 -23.5 -147.5t-70.5 -110t-118 -69t-163 -23.5q-85 0 -197 24v211z" />
<glyph unicode="&#x2c6;" horiz-adv-x="1169" d="M235 1162l252 306h199l250 -306h-185l-165 165h-2l-163 -165h-186z" />
<glyph unicode="&#x2c7;" horiz-adv-x="1169" d="M235 1468h186l163 -165h2l165 165h185l-250 -306h-199z" />
<glyph unicode="&#x2d8;" horiz-adv-x="1169" d="M268 1462h163l8 -25q6 -23 15 -41.5t22 -32.5t29.5 -23t37 -14t43.5 -5q118 0 147 116l6 25h165l-8 -46q-10 -62 -37 -109.5t-67.5 -78t-92 -45.5t-113.5 -15q-127 0 -209 62.5t-102 185.5z" />
<glyph unicode="&#x2d9;" horiz-adv-x="1169" d="M425 1315q0 70 46 115.5t115 45.5t115 -45.5t46 -115t-46 -115.5t-115 -46q-45 0 -82 21t-58 58t-21 82z" />
<glyph unicode="&#x2da;" horiz-adv-x="1169" d="M385 1344v13q0 86 57 143.5t144 57.5q86 0 142.5 -57.5t56.5 -143.5v-13q0 -85 -56.5 -142t-142.5 -57q-88 0 -144.5 57t-56.5 142zM474 1347q0 -26 8 -48t22 -37.5t35 -24.5t47 -9t46.5 9t34.5 24.5t21 37.5t7 48v8q0 53 -29 85t-80 32q-34 0 -59.5 -14.5t-39 -41 t-13.5 -61.5v-8z" />
<glyph unicode="&#x2db;" horiz-adv-x="1169" d="M343 -209q0 63 72 124l112 91l150 -6l-89 -93q-36 -38 -36 -66v-4q0 -20 11 -29t36 -9q33 0 78 12v-139q-74 -15 -139 -15q-97 0 -146 32.5t-49 94.5v7z" />
<glyph unicode="&#x2dc;" horiz-adv-x="1169" d="M273 1186v167l11 12q88 87 159 87q67 0 131 -40l56 -34q59 -36 105 -36q37 0 70 19.5t79 64.5l16 16v-166l-12 -12q-89 -88 -159 -88q-65 0 -131 39l-58 34q-60 36 -103 36q-15 0 -29 -2.5t-29 -8.5t-30 -15.5t-30.5 -23.5t-32.5 -33z" />
<glyph unicode="&#x2dd;" horiz-adv-x="1169" d="M351 1162l163 306h214l-192 -306h-185zM626 1162l195 306h212l-222 -306h-185z" />
<glyph unicode="&#x1e80;" horiz-adv-x="1779" d="M57 1331h316l135 -773q13 -78 19 -196h4q8 116 25 196l170 773h328l170 -773q16 -80 25 -196h4q6 118 19 196l134 773h319l-261 -1331h-374l-178 900q-15 75 -20 131h-4q-7 -73 -18 -131l-180 -900h-374zM598 1716h242l153 -285h-184z" />
<glyph unicode="&#x1e81;" horiz-adv-x="1584" d="M53 1063h294l122 -576q21 -116 26 -173h2q7 93 28 173l148 576h239l149 -576q20 -75 27 -173h2q5 57 26 173l122 576h294l-256 -1063h-324l-131 558q-16 67 -27 171h-3q-11 -104 -27 -171l-131 -558h-324zM493 1468h242l165 -306h-185z" />
<glyph unicode="&#x1e82;" horiz-adv-x="1779" d="M57 1331h316l135 -773q13 -78 19 -196h4q8 116 25 196l170 773h328l170 -773q16 -80 25 -196h4q6 118 19 196l134 773h319l-261 -1331h-374l-178 900q-15 75 -20 131h-4q-7 -73 -18 -131l-180 -900h-374zM787 1431l153 285h242l-211 -285h-184z" />
<glyph unicode="&#x1e83;" horiz-adv-x="1584" d="M53 1063h294l122 -576q21 -116 26 -173h2q7 93 28 173l148 576h239l149 -576q20 -75 27 -173h2q5 57 26 173l122 576h294l-256 -1063h-324l-131 558q-16 67 -27 171h-3q-11 -104 -27 -171l-131 -558h-324zM686 1162l165 306h241l-220 -306h-186z" />
<glyph unicode="&#x1e84;" horiz-adv-x="1779" d="M57 1331h316l135 -773q13 -78 19 -196h4q8 116 25 196l170 773h328l170 -773q16 -80 25 -196h4q6 118 19 196l134 773h319l-261 -1331h-374l-178 900q-15 75 -20 131h-4q-7 -73 -18 -131l-180 -900h-374zM582 1575q0 60 38 97.5t97 37.5t98.5 -38t39.5 -97t-39.5 -97 t-98.5 -38q-39 0 -69.5 17t-48 48t-17.5 70zM927 1575q0 59 39.5 97t98.5 38t97 -37.5t38 -97t-38 -97.5t-97 -38t-98.5 38t-39.5 97z" />
<glyph unicode="&#x1e85;" horiz-adv-x="1584" d="M53 1063h294l122 -576q21 -116 26 -173h2q7 93 28 173l148 576h239l149 -576q20 -75 27 -173h2q5 57 26 173l122 576h294l-256 -1063h-324l-131 558q-16 67 -27 171h-3q-11 -104 -27 -171l-131 -558h-324zM483 1315.5q0 59.5 38.5 97t98.5 37.5q57 0 96 -38t39 -97 t-39 -97t-96 -38q-60 0 -98.5 38t-38.5 97.5zM828 1315q0 39 18 70t49.5 48t69.5 17q59 0 97.5 -37.5t38.5 -97t-38.5 -97.5t-97.5 -38t-98 38t-39 97z" />
<glyph unicode="&#x1ebc;" horiz-adv-x="1175" d="M137 0v1331h912v-237h-579v-303h508v-233h-508v-321h579v-237h-912zM276 1446v165l12 14q35 40 79 62.5t82 22.5q58 0 129 -40l57 -31q65 -36 106 -36q36 0 70.5 19t78.5 63l16 15v-164l-12 -14q-23 -27 -51.5 -46.5t-56.5 -29t-53 -9.5q-61 0 -131 39l-56 31 q-60 36 -105 36q-36 0 -70.5 -18.5t-78.5 -62.5z" />
<glyph unicode="&#x1ebd;" horiz-adv-x="1118" d="M95 443v153q0 223 130 354t347 131q216 0 334.5 -114.5t118.5 -331.5v-188h-606v-42q0 -108 50.5 -156t160.5 -48q152 0 367 79v-214q-192 -83 -403 -83q-244 0 -371.5 118.5t-127.5 341.5zM246 1186v167l12 12q87 87 159 87q67 0 131 -40l56 -34q60 -36 105 -36 q19 0 36 5t35 15t37 25.5t41 38.5l16 16v-166l-12 -12q-88 -88 -159 -88q-64 0 -131 39l-58 34q-60 36 -103 36q-26 0 -49 -7t-49 -26t-53 -50zM419 626h316v34q0 76 -18.5 123t-52.5 67t-86 20q-159 0 -159 -228v-16z" />
<glyph unicode="&#x1ef2;" horiz-adv-x="1283" d="M53 1331h360l211 -489q25 -61 45 -127h2q15 46 48 127l215 489h296l-421 -914v-417h-335v417zM349 1716h243l153 -285h-184z" />
<glyph unicode="&#x1ef3;" horiz-adv-x="1094" d="M46 1063h329l158 -544q24 -89 43 -185h2q20 113 40 185l146 544h285l-332 -1077q-29 -96 -68 -162.5t-91 -106t-113 -56.5t-139 -17q-93 0 -215 28v211q92 -20 165 -20q28 0 47.5 3t35 10t27 18.5t21.5 29.5l34 54zM244 1468h243l165 -306h-185z" />
<glyph unicode="&#x1ef8;" horiz-adv-x="1283" d="M53 1331h360l211 -489q25 -61 45 -127h2q15 46 48 127l215 489h296l-421 -914v-417h-335v417zM326 1446v165l12 14q34 40 78 62.5t83 22.5q57 0 129 -40l58 -31q64 -36 105 -36q36 0 70.5 19t78.5 63l15 15v-164l-11 -14q-18 -20 -38.5 -36.5t-41.5 -27t-42 -16t-39 -5.5 q-62 0 -131 39l-56 31q-60 36 -105 36q-36 0 -71 -18.5t-79 -62.5z" />
<glyph unicode="&#x1ef9;" horiz-adv-x="1094" d="M46 1063h329l158 -544q24 -89 43 -185h2q20 113 40 185l146 544h285l-332 -1077q-29 -96 -68 -162.5t-91 -106t-113 -56.5t-139 -17q-93 0 -215 28v211q92 -20 165 -20q28 0 47.5 3t35 10t27 18.5t21.5 29.5l34 54zM233 1186v167l11 12q88 87 160 87q66 0 130 -40l56 -34 q60 -36 105 -36q37 0 70.5 19.5t78.5 64.5l16 16v-166l-12 -12q-88 -88 -158 -88q-66 0 -132 39l-57 34q-60 36 -103 36q-40 0 -76 -18.5t-76 -64.5z" />
<glyph unicode="&#x2000;" horiz-adv-x="954" />
<glyph unicode="&#x2001;" horiz-adv-x="1909" />
<glyph unicode="&#x2002;" horiz-adv-x="954" />
<glyph unicode="&#x2003;" horiz-adv-x="1909" />
<glyph unicode="&#x2004;" horiz-adv-x="636" />
<glyph unicode="&#x2005;" horiz-adv-x="477" />
<glyph unicode="&#x2006;" horiz-adv-x="318" />
<glyph unicode="&#x2007;" horiz-adv-x="318" />
<glyph unicode="&#x2008;" horiz-adv-x="238" />
<glyph unicode="&#x2009;" horiz-adv-x="224" />
<glyph unicode="&#x200a;" horiz-adv-x="106" />
<glyph unicode="&#x2010;" horiz-adv-x="891" d="M80 606v247h735v-247h-735z" />
<glyph unicode="&#x2011;" horiz-adv-x="891" d="M80 606v247h735v-247h-735z" />
<glyph unicode="&#x2012;" horiz-adv-x="891" d="M80 606v247h735v-247h-735z" />
<glyph unicode="&#x2013;" horiz-adv-x="1165" d="M80 606v247h1006v-247h-1006z" />
<glyph unicode="&#x2014;" horiz-adv-x="1558" d="M80 606v247h1400v-247h-1400z" />
<glyph unicode="&#x2018;" horiz-adv-x="531" d="M80 1005q0 92 79 212l145 214h141l-125 -245q60 -16 95.5 -65t35.5 -116q0 -82 -51.5 -134t-133.5 -52t-134 52t-52 134z" />
<glyph unicode="&#x2019;" horiz-adv-x="531" d="M80 1261q0 83 51.5 135t134.5 52q82 0 133.5 -52.5t51.5 -134.5q0 -96 -78 -210l-144 -215h-142l125 247q-60 14 -96 62.5t-36 115.5z" />
<glyph unicode="&#x201a;" horiz-adv-x="531" d="M80 169q0 55 23.5 98t66 67t96.5 24q82 0 133.5 -53.5t51.5 -135.5q0 -94 -78 -211l-144 -212h-142l125 244q-61 15 -96.5 63.5t-35.5 115.5z" />
<glyph unicode="&#x201c;" horiz-adv-x="967" d="M80 1005q0 92 79 212l145 214h141l-125 -245q60 -16 95.5 -65t35.5 -116q0 -82 -51.5 -134t-133.5 -52t-134 52t-52 134zM516 1005q0 96 80 212l145 214h139l-125 -245q61 -16 97 -65t36 -116q0 -82 -52 -134t-135 -52q-53 0 -95 23.5t-66 66t-24 96.5z" />
<glyph unicode="&#x201d;" horiz-adv-x="967" d="M80 1261q0 83 51.5 135t134.5 52q82 0 133.5 -52.5t51.5 -134.5q0 -96 -78 -210l-144 -215h-142l125 247q-60 14 -96 62.5t-36 115.5zM516 1261q0 83 52 135t133 52q82 0 134.5 -52.5t52.5 -134.5q0 -98 -79 -210l-146 -215h-140l125 245q-59 17 -95.5 65.5t-36.5 114.5z " />
<glyph unicode="&#x201e;" horiz-adv-x="967" d="M80 169q0 55 23.5 98t66 67t96.5 24q82 0 133.5 -53.5t51.5 -135.5q0 -94 -78 -211l-144 -212h-142l125 244q-61 15 -96.5 63.5t-35.5 115.5zM516 169q0 55 24 98t66 67t95 24q82 0 134.5 -53.5t52.5 -135.5q0 -96 -79 -211l-146 -212h-140l125 242q-59 17 -95.5 66 t-36.5 115z" />
<glyph unicode="&#x2020;" horiz-adv-x="748" d="M57 1092v237l195 -34v195h245v-195l193 34v-237l-193 34v-375l-70 -344h-105l-70 344v375z" />
<glyph unicode="&#x2021;" horiz-adv-x="748" d="M57 568v236l195 -33v20l48 159l-48 157v19l-195 -34v237l195 -34v195h245v-195l193 34v-237l-193 34v-19l-48 -157l48 -159v-20l193 33v-236l-193 34v-195h-245v195z" />
<glyph unicode="&#x2022;" horiz-adv-x="948" d="M127 735q0 153 97.5 249.5t249.5 96.5q100 0 179 -43.5t123.5 -122.5t44.5 -180q0 -154 -97.5 -251t-249.5 -97q-75 0 -139.5 25.5t-110 71t-71.5 110.5t-26 141z" />
<glyph unicode="&#x2026;" horiz-adv-x="1618" d="M85 176.5q0 86.5 55 141t140.5 54.5t139.5 -54.5t54 -141t-54 -140t-139.5 -53.5t-140.5 53.5t-55 140zM614 176.5q0 86.5 55 141t140 54.5q87 0 141.5 -54.5t54.5 -141t-54.5 -140t-141.5 -53.5q-86 0 -140.5 53.5t-54.5 140zM1145 177q0 56 24.5 101t68.5 69.5 t100.5 24.5t101 -24.5t69.5 -69.5t25 -101q0 -87 -55 -140.5t-140.5 -53.5t-139.5 53.5t-54 140.5z" />
<glyph unicode="&#x202f;" horiz-adv-x="381" />
<glyph unicode="&#x2030;" horiz-adv-x="2292" d="M91 965v62q0 149 86 235.5t246 86.5q159 0 244.5 -87t85.5 -235v-62q0 -149 -85.5 -236t-244.5 -87q-161 0 -246.5 87t-85.5 236zM256 0l889 1331h163l-889 -1331h-163zM322 912q0 -137 101 -137q102 0 102 137v167q0 136 -102 136q-101 0 -101 -136v-167zM811 304v62 q0 149 85.5 236.5t246.5 87.5q159 0 245 -87.5t86 -236.5v-62q0 -148 -86 -234.5t-245 -86.5q-161 0 -246.5 86t-85.5 235zM1041 252q0 -137 102 -137q101 0 101 137v167q0 137 -101 137q-102 0 -102 -137v-167zM1539 304v62q0 149 86 236.5t246 87.5q159 0 245.5 -87.5 t86.5 -236.5v-62q0 -148 -86.5 -234.5t-245.5 -86.5q-160 0 -246 86t-86 235zM1770 252q0 -137 101 -137q102 0 102 137v167q0 137 -102 137q-101 0 -101 -137v-167z" />
<glyph unicode="&#x2039;" horiz-adv-x="690" d="M64 665l308 408h236l-261 -408l261 -407h-236z" />
<glyph unicode="&#x203a;" horiz-adv-x="690" d="M83 258l260 407l-260 408h239l306 -408l-306 -407h-239z" />
<glyph unicode="&#x2044;" horiz-adv-x="182" d="M-433 0l888 1331h163l-889 -1331h-162z" />
<glyph unicode="&#x205f;" horiz-adv-x="477" />
<glyph unicode="&#x20a9;" horiz-adv-x="1592" d="M48 644v154h1497v-154h-171l-91 -644h-339l-98 644h-99l-97 -644h-341l-89 644h-172zM48 923v154h113l-38 254h300l24 -254h181l37 254h264l38 -254h181l22 254h302l-37 -254h110v-154h-1497zM477 644l18 -174q11 -108 15 -186h2q10 93 26 186l32 174h-93zM1023 644 l34 -174q16 -88 24 -186h3q6 96 15 186l17 174h-93z" />
<glyph unicode="&#x20ac;" horiz-adv-x="1149" d="M48 449v153h807v-153h-353q3 -84 30 -137t73.5 -76.5t115.5 -23.5q129 0 320 94v-236q-194 -89 -347 -89q-236 0 -370 118t-159 350h-117zM48 729v153h117q25 232 159 349.5t370 117.5q151 0 347 -90v-234q-191 93 -320 93q-105 0 -159.5 -56t-59.5 -180h353v-153h-807z " />
<glyph unicode="&#x2120;" horiz-adv-x="1431" d="M93 1222v25q0 87 68.5 140t200.5 53q109 0 199 -45v-125q-105 41 -199 41q-108 0 -108 -43v-9q0 -17 19.5 -30t71.5 -29l70 -22q93 -30 133 -75.5t40 -116.5v-31q0 -87 -71.5 -139t-184.5 -52q-70 0 -134 14t-103 39v127q119 -50 221 -50q107 0 107 46v10q0 13 -7 23.5 t-27 21.5t-53 21l-70 19q-89 26 -131 70.5t-42 116.5zM648 775l33 656h189l85 -227q19 -51 29 -93h3q10 42 29 93l83 227h190l32 -656h-157l-12 484h-4q-7 -54 -24 -107l-73 -223h-131l-74 223q-16 48 -23 107h-4l-13 -484h-158z" />
<glyph unicode="&#x2122;" horiz-adv-x="1380" d="M78 1293v138h478v-138h-160v-518h-161v518h-157zM604 775l33 656h189l86 -227q18 -51 28 -93h4q9 40 25 93l85 227h191l32 -656h-157l-11 484h-4q-7 -54 -24 -107l-74 -223h-131l-74 223q-15 48 -23 107h-6l-13 -484h-156z" />
<glyph unicode="&#x2190;" horiz-adv-x="1429" d="M49 669l766 582v-440h565v-282h-565v-440z" />
<glyph unicode="&#x2191;" horiz-adv-x="1429" d="M133 566l582 765l582 -765h-440v-566h-283v566h-441z" />
<glyph unicode="&#x2192;" horiz-adv-x="1429" d="M49 529v282h567v440l764 -582l-764 -580v440h-567z" />
<glyph unicode="&#x2193;" horiz-adv-x="1429" d="M133 764h441v567h283v-567h440l-582 -764z" />
<glyph unicode="&#x2196;" horiz-adv-x="1429" d="M195 1172l952 -131l-311 -312l400 -399l-199 -199l-400 400l-311 -313z" />
<glyph unicode="&#x2197;" horiz-adv-x="1429" d="M195 330l399 399l-310 312l952 131l-131 -954l-313 313l-398 -400z" />
<glyph unicode="&#x2198;" horiz-adv-x="1429" d="M195 974l199 198l400 -399l311 310l131 -952l-952 131l312 312z" />
<glyph unicode="&#x2199;" horiz-adv-x="1429" d="M195 131l131 952l311 -310l400 399l199 -198l-400 -400l311 -312z" />
<glyph unicode="&#x2212;" horiz-adv-x="1118" d="M119 563v206h878v-206h-878z" />
<glyph unicode="&#x2248;" horiz-adv-x="1118" d="M119 326v201l27 17q119 84 218 84q86 0 163 -38l106 -52q27 -12 49 -19t40.5 -9t46.5 -2q108 0 202 80l26 22v-201l-23 -18q-111 -84 -219 -84q-84 0 -163 38l-107 53q-16 7 -30 12.5t-26 8.5t-26 5t-26 2.5t-30 0.5q-100 0 -200 -80zM119 721v201l27 18q119 83 218 83 q86 0 163 -37l106 -52q38 -18 66.5 -24t69.5 -6q108 0 202 80l26 21v-201l-23 -17q-111 -84 -219 -84q-84 0 -163 38l-107 51q-13 7 -25 12t-23 8t-21 5t-21.5 3.5t-22 2t-25.5 0.5q-100 0 -200 -80z" />
<glyph unicode="&#x2260;" horiz-adv-x="1118" d="M119 368v202h344l77 192h-421v203h501l127 316h117l-125 -316h258v-203h-339l-78 -192h417v-202h-496l-128 -319h-119l127 319h-262z" />
<glyph unicode="&#x2264;" horiz-adv-x="1118" d="M74 51v205h947v-205h-947zM74 711v205l947 350v-257l-544 -163q-65 -20 -130 -29v-6q60 -8 130 -30l544 -161v-256z" />
<glyph unicode="&#x2265;" horiz-adv-x="1118" d="M95 364v256l544 161q71 22 130 30v6q-65 9 -130 29l-544 163v257l948 -350v-205zM97 51v205h946v-205h-946z" />
<glyph unicode="&#x24c5;" horiz-adv-x="1568" d="M151 594v143q0 140 38.5 252t114.5 192.5t196.5 124t278.5 43.5q159 0 279.5 -43.5t197 -124t114.5 -192.5t38 -252v-143q0 -141 -38 -252t-114.5 -192t-197 -124t-279.5 -43q-158 0 -278.5 43t-196.5 124t-114.5 192t-38.5 252zM288 570q0 -221 123.5 -344t367 -123 t367.5 123t124 344v190q0 222 -124 345t-367.5 123t-367 -123t-123.5 -345v-190zM502 290v751h296q153 0 229 -62.5t76 -182.5v-19q0 -120 -76 -182t-229 -62h-87v-243h-209zM711 669h78q34 0 56.5 11t33.5 34.5t11 60.5v19q0 55 -25 80.5t-76 25.5h-78v-231z" />
<glyph unicode="&#x25fc;" horiz-adv-x="1062" d="M0 0v1063h1063v-1063h-1063z" />
<glyph unicode="&#xfb01;" horiz-adv-x="1547" d="M51 855v208h163v107q0 167 94 252t294 85q113 0 234 -33v-200q-90 21 -165 21q-74 0 -108 -28.5t-34 -100.5v-103h307v-208h-307v-855h-315v855h-163zM942 855v208h453v-1063h-316v855h-137zM1047 1315.5q0 75.5 49.5 121t139 45.5t139 -45.5t49.5 -121t-49.5 -121.5 t-139 -46t-139 46t-49.5 121.5z" />
<glyph unicode="&#xfb02;" horiz-adv-x="1509" d="M51 855v208h163v107q0 167 94 252t294 85q113 0 234 -33v-200q-90 21 -165 21q-74 0 -108 -28.5t-34 -100.5v-103h307v-208h-307v-855h-315v855h-163zM906 1281v209h451v-1490h-316v1281h-135z" />
<glyph horiz-adv-x="1169" d="M457 -191q0 57 36 93.5t93 36.5t92 -36.5t35 -93.5q0 -32 -11.5 -63.5t-41.5 -85.5l-97 -157h-98l85 181q-42 10 -67.5 43.5t-25.5 81.5z" />
<glyph horiz-adv-x="1169" d="M459 1255q0 32 11.5 64.5t43.5 85.5l94 149h95l-81 -174q28 -6 49 -23.5t32.5 -43.5t11.5 -58q0 -57 -35.5 -93t-93.5 -36q-38 0 -67 16.5t-44.5 46t-15.5 66.5z" />
<glyph horiz-adv-x="764" d="M113 639v53q0 201 87.5 410.5t226.5 373.5h240q-78 -99 -136.5 -228t-90 -270t-31.5 -277v-71q0 -206 70 -415.5t188 -360.5h-240q-139 164 -226.5 374t-87.5 411z" />
<glyph horiz-adv-x="764" d="M99 -146q119 151 189 361t70 415v71q0 102 -18 208.5t-51.5 206.5t-82 193t-107.5 167h241q139 -164 226.5 -374t87.5 -410v-53q0 -201 -87.5 -410.5t-226.5 -374.5h-241z" />
<glyph horiz-adv-x="764" d="M149 -146v1622h484v-221h-202v-1179h202v-222h-484z" />
<glyph horiz-adv-x="764" d="M133 76h203v1179h-203v221h485v-1622h-485v222z" />
<glyph horiz-adv-x="764" d="M93 561v231h142q57 0 57 40v6q0 35 -28 76l-50 68q-41 58 -59 102.5t-18 87.5v12q0 142 82.5 217t267.5 75h127v-206h-72q-61 0 -89 -21t-28 -65v-16q0 -63 32 -116l45 -72q50 -79 50 -144v-4q0 -51 -41 -94t-111 -59v-4q70 -16 111 -59.5t41 -94.5v-5q0 -64 -48 -146 l-53 -94q-26 -45 -26 -99v-14q0 -55 27 -78.5t90 -23.5h72v-207h-127q-96 0 -165 21t-109 60.5t-58 91.5t-18 120v14q0 86 64 179l65 96q26 40 26 78v9q0 38 -57 38h-142z" />
<glyph horiz-adv-x="764" d="M153 61h71q42 0 67.5 10t37.5 32.5t12 59.5v14q0 56 -25 99l-54 94q-48 82 -48 146v5q0 33 18 64t53 55t83 35v4q-71 16 -112.5 59t-41.5 94v4q0 65 50 144l45 72q32 53 32 116v16q0 44 -27.5 65t-89.5 21h-71v206h127q185 0 267.5 -75t82.5 -217v-12q0 -43 -18.5 -87.5 t-59.5 -102.5l-48 -68q-30 -47 -30 -76v-6q0 -40 59 -40h140v-231h-140q-59 0 -59 -38v-9q0 -38 27 -78l65 -96q64 -92 64 -179v-14q0 -68 -18.5 -120t-58 -91.5t-108.5 -60.5t-165 -21h-127v207z" />
<glyph horiz-adv-x="1169" d="M457 1378q0 57 36 93t93 36q58 0 92.5 -35.5t34.5 -93.5q0 -32 -11.5 -64.5t-41.5 -83.5l-97 -157h-98l85 178q-42 12 -67.5 46t-25.5 81z" />
<glyph horiz-adv-x="1169" d="M495 1605l165 304h242l-221 -304h-186z" />
<glyph horiz-adv-x="843" d="M91 306v62q0 148 86 235t246 87q159 0 244.5 -87t85.5 -235v-62q0 -150 -85.5 -236.5t-244.5 -86.5q-161 0 -246.5 86.5t-85.5 236.5zM322 252q0 -137 101 -137q102 0 102 137v167q0 137 -102 137q-101 0 -101 -137v-167z" />
<glyph horiz-adv-x="645" d="M70 0v131h148v377h-2q-12 -12 -34 -25l-112 -68v155l167 101h202v-540h141v-131h-510z" />
<glyph horiz-adv-x="658" d="M46 0v129l238 218q25 23 39.5 43t21 38.5t6.5 40.5v5q0 39 -24.5 60.5t-74.5 21.5q-90 0 -197 -50v133q121 51 261 51q127 0 195.5 -52.5t68.5 -142.5v-18q0 -70 -34 -121.5t-119 -111.5l-109 -77q-38 -26 -62 -36v-2h324v-129h-534z" />
<glyph horiz-adv-x="682" d="M61 30v131q34 -15 70.5 -26t67 -16.5t53.5 -5.5q123 0 123 84v10q0 37 -22.5 58t-64.5 21q-23 0 -68 -11l-29 -9l-42 79l183 159q31 25 51 36v2h-322v129h527v-129l-197 -161q23 8 50 8q34 0 64 -13t52 -35.5t34.5 -55t12.5 -69.5v-25q0 -96 -79.5 -153t-220.5 -57 q-60 0 -126 12.5t-117 36.5z" />
<glyph horiz-adv-x="736" d="M34 131v113l345 427h217v-413h75v-127h-75v-131h-223v131h-339zM191 258h182v227h-1q-14 -26 -31 -46l-115 -141q-16 -23 -35 -38v-2z" />
<glyph horiz-adv-x="705" d="M83 30v133q102 -50 195 -50q126 0 126 99v19q0 95 -84 95q-51 0 -94 -38l-27 -24l-112 7l10 400h505v-129h-354l-6 -144l10 6q79 51 167 51q94 0 153 -57.5t59 -156.5v-27q0 -110 -83.5 -171.5t-225.5 -61.5q-128 0 -239 49z" />
<glyph horiz-adv-x="809" d="M91 273v114q0 148 93.5 225.5t262.5 77.5q123 0 241 -44v-136q-55 23 -122.5 37t-106.5 14q-72 0 -104.5 -32.5t-32.5 -103.5v-42l21 17q76 53 150 53q119 0 181.5 -53.5t62.5 -158.5v-25q0 -70 -40.5 -123.5t-112.5 -82.5t-165 -29q-100 0 -174 34t-114 100t-40 158z M322 235q0 -67 23.5 -96t69.5 -29q20 0 36 5.5t28.5 17t19.5 30t7 42.5v30q0 45 -19.5 65t-61.5 20q-29 0 -78 -28l-25 -16v-41z" />
<glyph horiz-adv-x="679" d="M57 540v131h561v-125l-218 -546h-237l228 540h-334z" />
<glyph horiz-adv-x="786" d="M59 180v9q0 51 30.5 90t90.5 57l42 11v2l-38 17q-108 45 -108 133v7q0 83 78.5 133.5t239.5 50.5q160 0 238.5 -50.5t78.5 -133.5v-7q0 -91 -103 -127l-45 -16v-5l47 -13q56 -17 86 -57t30 -94v-7q0 -91 -84.5 -145t-247.5 -54q-164 0 -249.5 54t-85.5 145zM288 180 q0 -40 27 -63.5t79 -23.5q51 0 77 23.5t26 63.5v21q0 66 -72 87l-40 12l-40 -20q-57 -28 -57 -79v-21zM300 483q0 -49 54 -68l42 -13l40 11q24 7 37.5 26t13.5 42v25q0 32 -23.5 52t-69.5 20t-70 -20t-24 -52v-23z" />
<glyph horiz-adv-x="809" d="M74 441v16q0 105 87 169t228 64q154 0 242 -76.5t88 -215.5v-116q0 -149 -95 -225t-270 -76q-132 0 -251 45v133q28 -11 62 -21t66.5 -16t61 -9t48.5 -3q78 0 113 31.5t35 102.5v50l-22 -14q-45 -29 -79.5 -42.5t-71.5 -13.5q-118 0 -180 54.5t-62 162.5zM302 445 q0 -45 20 -65t63 -20q30 0 80 29l24 15v33q0 67 -24 95.5t-71 28.5q-41 0 -66.5 -23.5t-25.5 -68.5v-24z" />
<glyph horiz-adv-x="843" d="M91 965v62q0 149 86 235.5t246 86.5q159 0 244.5 -87t85.5 -235v-62q0 -149 -85.5 -236t-244.5 -87q-161 0 -246.5 87t-85.5 236zM322 912q0 -137 101 -137q102 0 102 137v167q0 136 -102 136q-101 0 -101 -136v-167z" />
<glyph horiz-adv-x="645" d="M70 660v131h148v377h-2q-12 -12 -34 -25l-112 -68v155l167 101h202v-540h141v-131h-510z" />
<glyph horiz-adv-x="658" d="M46 660v129l238 218q37 34 52 61.5t15 59.5v6q0 38 -24.5 59.5t-74.5 21.5q-90 0 -197 -49v133q121 50 261 50q127 0 195.5 -52t68.5 -143v-18q0 -70 -34 -121t-119 -111l-109 -78q-38 -25 -62 -35v-2h324v-129h-534z" />
<glyph horiz-adv-x="682" d="M61 690v131q50 -23 102.5 -35.5t88.5 -12.5q123 0 123 84v9q0 38 -22.5 59t-64.5 21q-23 0 -68 -12l-29 -9l-42 80l183 159q31 24 51 36v2h-322v129h527v-129l-197 -161q23 8 50 8q69 0 116 -49t47 -124v-25q0 -97 -79.5 -154.5t-220.5 -57.5q-59 0 -125 13t-118 38z" />
<glyph horiz-adv-x="736" d="M34 791v113l345 427h217v-413h75v-127h-75v-131h-223v131h-339zM191 918h182v227h-1q-14 -27 -31 -46l-115 -142q-16 -23 -35 -37v-2z" />
<glyph horiz-adv-x="705" d="M83 690v133q102 -50 195 -50q126 0 126 99v18q0 96 -84 96q-51 0 -94 -38l-27 -25l-112 6l10 402h505v-129h-354l-6 -145l10 6q79 52 167 52q94 0 153 -58t59 -157v-26q0 -111 -83.5 -173t-225.5 -62q-126 0 -239 51z" />
<glyph horiz-adv-x="809" d="M91 932v115q0 148 93.5 225t262.5 77q123 0 241 -43v-136q-54 22 -121.5 35.5t-107.5 13.5q-72 0 -104.5 -32t-32.5 -103v-41l21 16q76 54 150 54q79 0 133 -23.5t82.5 -71t28.5 -118.5v-24q0 -106 -88.5 -171.5t-229.5 -65.5q-152 0 -240 78t-88 215zM322 894 q0 -66 23.5 -95.5t69.5 -29.5q20 0 36 6t28.5 17t19.5 29.5t7 42.5v30q0 46 -19.5 66t-61.5 20q-29 0 -78 -28l-25 -16v-42z" />
<glyph horiz-adv-x="679" d="M57 1200v131h561v-125l-218 -546h-237l228 540h-334z" />
<glyph horiz-adv-x="786" d="M59 840v8q0 50 30.5 90t90.5 57l42 12v2l-38 16q-108 45 -108 133v8q0 82 78.5 132.5t239.5 50.5q160 0 238.5 -50.5t78.5 -132.5v-8q0 -90 -103 -127l-45 -15v-5l47 -14q56 -16 86 -56.5t30 -94.5v-6q0 -91 -84.5 -146t-247.5 -55q-164 0 -249.5 55t-85.5 146zM288 840 q0 -19 6.5 -35t19.5 -28t33 -18t47 -6q34 0 57.5 11t34.5 30.5t11 45.5v20q0 67 -72 88l-40 11l-40 -19q-57 -28 -57 -80v-20zM300 1143q0 -50 54 -68l42 -14l40 12q24 7 37.5 25.5t13.5 42.5v25q0 32 -23.5 52t-69.5 20q-31 0 -52.5 -10t-31.5 -26t-10 -36v-23z" />
<glyph horiz-adv-x="809" d="M74 1101v15q0 106 87 169.5t228 63.5q154 0 242 -76.5t88 -215.5v-115q0 -149 -95 -226t-270 -77q-129 0 -251 47v133q54 -23 124 -36.5t114 -13.5q52 0 84.5 14t48 43.5t15.5 77.5v50l-22 -14q-45 -29 -79.5 -42.5t-71.5 -13.5q-118 0 -180 54.5t-62 162.5zM302 1105 q0 -46 20 -66t63 -20q30 0 80 30l24 14v33q0 66 -24 94.5t-71 28.5q-27 0 -47 -9t-32.5 -30t-12.5 -52v-23z" />
<glyph horiz-adv-x="843" d="M91 187v61q0 149 86 235.5t246 86.5q106 0 181 -40.5t112 -112t37 -169.5v-61q0 -149 -85.5 -236.5t-244.5 -87.5q-160 0 -246 87.5t-86 236.5zM322 133q0 -137 101 -137q102 0 102 137v167q0 137 -102 137q-101 0 -101 -137v-167z" />
<glyph horiz-adv-x="645" d="M70 12h148v377h-2q-12 -12 -34 -25l-112 -68v155l167 101h202v-540h141v-131h-510v131z" />
<glyph horiz-adv-x="658" d="M46 10l238 219q37 34 52 61.5t15 58.5v7q0 38 -24.5 59.5t-74.5 21.5q-88 0 -197 -50v134q119 49 261 49q127 0 195.5 -52t68.5 -143v-17q0 -70 -34 -121.5t-119 -111.5l-109 -77q-38 -26 -62 -36v-2h324v-129h-534v129z" />
<glyph horiz-adv-x="682" d="M61 42q50 -23 102.5 -35.5t88.5 -12.5q123 0 123 84v9q0 38 -22.5 59t-64.5 21q-23 0 -68 -12l-29 -8l-42 79l183 159q31 24 51 36v2h-322v129h527v-129l-197 -161q26 9 50 9q69 0 116 -49.5t47 -124.5v-25q0 -97 -79.5 -154t-220.5 -57q-60 0 -126 13t-117 37v131z" />
<glyph horiz-adv-x="736" d="M34 12v113l345 427h217v-413h75v-127h-75v-131h-223v131h-339zM191 139h182v227h-1q-14 -26 -31 -46l-115 -142q-16 -23 -35 -37v-2z" />
<glyph horiz-adv-x="705" d="M83 44q102 -50 195 -50q126 0 126 99v19q0 95 -84 95q-51 0 -94 -38l-27 -23l-112 5l10 401h505v-129h-354l-6 -145l10 6q79 52 167 52q94 0 153 -57.5t59 -157.5v-26q0 -111 -83.5 -172.5t-225.5 -61.5q-128 0 -239 50v133z" />
<glyph horiz-adv-x="809" d="M91 153v115q0 148 93.5 225t262.5 77q123 0 241 -43v-136q-55 22 -122.5 36t-106.5 14q-72 0 -104.5 -32t-32.5 -103v-42l21 16q76 54 150 54q79 0 133 -23.5t82.5 -71t28.5 -118.5v-24q0 -106 -88.5 -171t-229.5 -65q-152 0 -240 77.5t-88 214.5zM322 115 q0 -66 23.5 -95.5t69.5 -29.5q41 0 66 24t25 71v30q0 46 -19.5 66t-61.5 20q-29 0 -78 -28l-25 -16v-42z" />
<glyph horiz-adv-x="679" d="M57 421v131h561v-125l-218 -546h-237l228 540h-334z" />
<glyph horiz-adv-x="786" d="M59 61v9q0 50 30.5 89.5t90.5 56.5l42 13v2l-38 15q-108 45 -108 133v8q0 82 78.5 132.5t239.5 50.5q160 0 238.5 -50.5t78.5 -132.5v-8q0 -90 -103 -127l-45 -15v-4l47 -15q56 -16 86 -56.5t30 -93.5v-7q0 -91 -84.5 -145.5t-247.5 -54.5q-164 0 -249.5 54.5 t-85.5 145.5zM288 61q0 -40 27 -63.5t79 -23.5q51 0 77 23.5t26 63.5v20q0 67 -72 88l-40 11l-40 -19q-57 -28 -57 -80v-20zM300 364q0 -50 54 -68l42 -14l40 12q24 7 37.5 25.5t13.5 42.5v25q0 32 -23.5 52t-69.5 20t-70 -20t-24 -52v-23z" />
<glyph horiz-adv-x="809" d="M74 322v16q0 105 87 168.5t228 63.5q154 0 242 -76.5t88 -215.5v-115q0 -149 -95 -225.5t-270 -76.5q-132 0 -251 46v133q54 -23 124 -36.5t114 -13.5q52 0 84.5 14t48 43.5t15.5 77.5v50l-22 -14q-86 -55 -151 -55q-118 0 -180 54t-62 162zM302 326q0 -45 20 -65t63 -20 q28 0 80 30l24 13v34q0 66 -24 94.5t-71 28.5q-41 0 -66.5 -23t-25.5 -69v-23z" />
<glyph horiz-adv-x="843" d="M91 1084v63q0 148 86 234.5t246 86.5q159 0 244.5 -86.5t85.5 -234.5v-63q0 -98 -37 -170t-112 -113t-181 -41q-160 0 -246 87.5t-86 236.5zM322 1031q0 -137 101 -137q102 0 102 137v167q0 137 -102 137q-101 0 -101 -137v-167z" />
<glyph horiz-adv-x="645" d="M70 779v131h148v377h-2q-14 -14 -34 -26l-112 -67v155l167 101h202v-540h141v-131h-510z" />
<glyph horiz-adv-x="658" d="M46 779v129l238 218q37 34 52 62t15 59v6q0 39 -24.5 60.5t-74.5 21.5q-90 0 -197 -50v133q119 50 261 50q84 0 144 -24t90 -67.5t30 -102.5v-19q0 -69 -34 -120.5t-119 -111.5l-109 -77q-38 -26 -62 -36v-2h324v-129h-534z" />
<glyph horiz-adv-x="682" d="M61 809v131q34 -15 70.5 -26t67 -16.5t53.5 -5.5q123 0 123 84v10q0 37 -22.5 58t-64.5 21q-19 0 -68 -13l-29 -7l-42 79l183 159q31 24 51 36v2h-322v129h527v-129l-197 -161q23 8 50 8q69 0 116 -49t47 -124v-26q0 -64 -35 -111t-103 -73t-162 -26q-59 0 -125 13 t-118 37z" />
<glyph horiz-adv-x="736" d="M34 910v113l345 427h217v-413h75v-127h-75v-131h-223v131h-339zM191 1037h182v227h-1q-15 -29 -31 -47l-115 -140q-16 -23 -35 -38v-2z" />
<glyph horiz-adv-x="705" d="M83 809v133q102 -50 195 -50q126 0 126 99v18q0 48 -22 72t-62 24q-51 0 -94 -38l-27 -24l-112 6l10 401h505v-129h-354l-6 -145l10 6q79 52 167 52q94 0 153 -57.5t59 -157.5v-26q0 -110 -83.5 -172t-225.5 -62q-126 0 -239 50z" />
<glyph horiz-adv-x="809" d="M91 1051v115q0 148 93.5 225t262.5 77q123 0 241 -44v-135q-54 22 -121.5 36t-107.5 14q-72 0 -104.5 -32t-32.5 -103v-42l21 16q77 54 150 54q79 0 133 -23.5t82.5 -71t28.5 -118.5v-24q0 -70 -40.5 -124t-112.5 -83t-165 -29q-152 0 -240 77t-88 215zM322 1013 q0 -67 23.5 -96t69.5 -29q41 0 66 24t25 72v29q0 45 -19.5 65.5t-61.5 20.5q-29 0 -78 -28l-25 -17v-41z" />
<glyph horiz-adv-x="679" d="M57 1319v131h561v-125l-218 -546h-237l228 540h-334z" />
<glyph horiz-adv-x="786" d="M59 959v8q0 51 30.5 90.5t90.5 57.5l42 11v2l-38 17q-108 45 -108 132v8q0 83 78 133t240 50q66 0 119 -9.5t89.5 -25.5t61 -39t36 -50t11.5 -59v-8q0 -90 -103 -127l-45 -16v-4l47 -14q56 -16 86 -56.5t30 -94.5v-6q0 -91 -84.5 -145.5t-247.5 -54.5q-164 0 -249.5 54.5 t-85.5 145.5zM288 959q0 -40 27 -63.5t79 -23.5q51 0 77 23.5t26 63.5v21q0 66 -72 87l-40 12l-40 -20q-57 -28 -57 -79v-21zM300 1261q0 -48 54 -67l42 -14l40 12q24 7 37.5 25.5t13.5 41.5v26q0 32 -23.5 52t-69.5 20t-70 -20t-24 -52v-24z" />
<glyph horiz-adv-x="809" d="M74 1219v17q0 105 87 168.5t228 63.5q101 0 175 -34t114.5 -100t40.5 -158v-115q0 -149 -95 -225.5t-270 -76.5q-132 0 -251 45v134q55 -23 125 -36.5t113 -13.5q78 0 113 32t35 103v50l-22 -14q-45 -29 -79.5 -42.5t-71.5 -13.5q-118 0 -180 54t-62 162zM302 1224 q0 -30 9 -49t27 -27.5t47 -8.5q30 0 80 29l24 14v33q0 67 -24 95.5t-71 28.5q-27 0 -47 -9.5t-32.5 -30.5t-12.5 -52v-23z" />
<glyph horiz-adv-x="658" d="M53 855v208h453v-1063h-315v855h-138zM159 1337q0 56 23.5 99.5t66.5 67.5t98 24t98.5 -24t67 -67.5t23.5 -99.5q0 -84 -52.5 -136.5t-136 -52.5t-136 52.5t-52.5 136.5z" />
<glyph horiz-adv-x="658" d="M-66 -121q67 -16 123 -16q134 0 134 135v857h-138v208h453v-1069q0 -83 -23.5 -147.5t-70.5 -110t-118 -69t-163 -23.5q-85 0 -197 24v211zM159 1337q0 56 23.5 99.5t66.5 67.5t98 24t98.5 -24t67 -67.5t23.5 -99.5q0 -84 -52.5 -136.5t-136 -52.5t-136 52.5t-52.5 136.5 z" />
<glyph horiz-adv-x="875" d="M34 556l264 775h282l262 -775h-236l-52 172h-266l-53 -172h-201zM336 876h172l-55 178q-25 85 -30 116h-2q-5 -31 -30 -116z" />
<glyph horiz-adv-x="927" d="M91 898v93q0 109 44 188.5t127.5 122t200 42.5t200.5 -42.5t127.5 -122t43.5 -188.5v-93q0 -109 -43.5 -188.5t-127.5 -122.5t-200 -43t-200 43t-128 122.5t-44 188.5zM341 864q0 -87 30.5 -127t91.5 -40t91 40t30 127v161q0 88 -30 126.5t-91.5 38.5t-91.5 -38.5 t-30 -126.5v-161z" />
<glyph horiz-adv-x="849" d="M131 639v53q0 136 43 279.5t117.5 271.5t173.5 233h282q-131 -148 -205.5 -358t-74.5 -417v-71q0 -208 74.5 -417.5t205.5 -358.5h-282q-151 161 -242.5 371t-91.5 414z" />
<glyph horiz-adv-x="849" d="M101 -146q131 149 205.5 358.5t74.5 417.5v71q0 207 -74.5 417t-205.5 358h282q151 -161 243.5 -371t92.5 -413v-53q0 -203 -92.5 -413t-243.5 -372h-282z" />
<glyph horiz-adv-x="849" d="M159 -146v1622h562v-221h-238v-1179h238v-222h-562z" />
<glyph horiz-adv-x="849" d="M127 76h241v1179h-241v221h563v-1622h-563v222z" />
<glyph horiz-adv-x="808" d="M83 554v246h146q55 0 55 38v8q0 38 -28 76l-49 67q-41 57 -58.5 99t-17.5 84v12q0 138 100.5 215t289.5 77h160v-221h-105q-61 0 -89 -21t-28 -64v-10q0 -55 32 -108l45 -72q50 -79 50 -144v-4q0 -51 -41 -94t-112 -59v-4q71 -16 112 -59.5t41 -94.5v-5q0 -64 -48 -146 l-53 -94q-26 -45 -26 -94v-7q0 -36 12 -58t37.5 -31.5t67.5 -9.5h105v-222h-160q-192 0 -291 78.5t-99 214.5v14q0 80 62 171l67 97q24 37 24 79v6q0 40 -55 40h-146z" />
<glyph horiz-adv-x="808" d="M127 76h106q63 0 89.5 22.5t26.5 76.5v7q0 54 -23 94l-53 94q-49 84 -49 146v5q0 51 40.5 94.5t110.5 59.5v4q-70 16 -110.5 59t-40.5 94v4q0 59 51 144l43 72q31 52 31 108v10q0 44 -27.5 64.5t-88.5 20.5h-106v221h161q191 0 291 -77t100 -215v-12q0 -42 -17.5 -84 t-59.5 -99l-50 -67q-27 -37 -27 -76v-8q0 -38 57 -38h144v-246h-144q-57 0 -57 -40v-6q0 -40 25 -79l66 -97q63 -96 63 -171v-14q0 -136 -99.5 -214.5t-291.5 -78.5h-161v222z" />
<glyph horiz-adv-x="903" d="M-4 -99l643 1530h271l-646 -1530h-268z" />
<glyph horiz-adv-x="903" d="M-4 1431h268l646 -1530h-271z" />
<glyph horiz-adv-x="921" d="M320 -99v1530h254v-1530h-254z" />
<glyph horiz-adv-x="921" d="M320 -99v626h254v-626h-254zM320 804v627h254v-627h-254z" />
<glyph horiz-adv-x="1755" d="M78 417l53 252q34 163 107.5 288.5t187 213t271 133t354.5 45.5q161 0 283.5 -27.5t200 -80.5t122 -128.5t49.5 -171t-17 -210.5l-91 -429q-36 -164 -126 -241.5t-238 -77.5q-106 0 -178 43.5t-101 126.5l-57 -50q-79 -68 -137 -94t-117 -26q-75 0 -127 48t-71 142 t11 232l34 153q22 101 50.5 171.5t71 126.5t102.5 88t141 48.5t191 16.5q119 0 295 -57l-136 -638q-41 -187 60 -187q49 0 92 46.5t62 133.5l108 504q41 190 -78.5 291.5t-408.5 101.5q-127 0 -234 -23.5t-189 -66.5t-144 -105.5t-101 -139.5t-59 -170l-70 -329 q-24 -114 -20.5 -201t36.5 -169h-177q-57 168 -5 417zM719 375q-36 -176 48 -176q26 0 59 18t86 61l34 28l108 517q-42 9 -95 9q-78 0 -124.5 -51.5t-70.5 -172.5z" />
<glyph horiz-adv-x="656" d="M125 1145q0 90 57 147t146 57q90 0 147.5 -57t57.5 -147t-57.5 -146.5t-147.5 -56.5q-58 0 -104.5 25.5t-72.5 72t-26 105.5zM165 0v495l70 365h188l70 -365v-495h-328z" />
<glyph horiz-adv-x="1155" d="M115 354v40q0 148 112 233t323 94l11 139h224l15 -320h-114q-110 0 -172.5 -40.5t-62.5 -114.5v-25q0 -44 24.5 -77t76.5 -52t127 -19q157 0 370 84v-224q-223 -89 -450 -89q-237 0 -360.5 99t-123.5 272zM469 1145q0 90 57 147t145 57q90 0 147.5 -57t57.5 -147 t-57.5 -146.5t-147.5 -56.5q-58 0 -104 25.5t-72 72t-26 105.5z" />
<glyph horiz-adv-x="1359" d="M590 1431l153 285h243l-211 -285h-185z" />
<glyph horiz-adv-x="1359" d="M375 1716h243l153 -285h-185z" />
<glyph horiz-adv-x="1359" d="M445 1431l153 285h213l-180 -285h-186zM721 1431l183 285h212l-210 -285h-185z" />
<glyph horiz-adv-x="1359" d="M330 1431l256 285h189l256 -285h-185l-165 142h-4l-163 -142h-184z" />
<glyph horiz-adv-x="1359" d="M330 1716h184l163 -143h4l165 143h185l-256 -285h-189z" />
<glyph horiz-adv-x="1359" d="M362 1714h165l7 -25q28 -98 145 -98q122 0 147 98l8 25h165l-8 -46q-20 -115 -102 -172t-210 -57q-83 0 -146.5 23.5t-106.5 76t-56 129.5z" />
<glyph horiz-adv-x="1359" d="M366 1446v165l11 14q35 40 79 62.5t82 22.5q58 0 129 -40l59 -31q64 -36 104 -36q24 0 47 8.5t48 26t55 47.5l15 15v-164l-11 -14q-35 -40 -79 -62.5t-82 -22.5q-62 0 -131 39l-57 31q-59 36 -104 36q-36 0 -71 -18.5t-79 -62.5z" />
<glyph horiz-adv-x="1359" d="M373 1484v181h614v-181h-614z" />
<glyph horiz-adv-x="1359" d="M372 1575q0 39 17 70t48 48t69 17q59 0 98.5 -38t39.5 -97t-39.5 -97t-98.5 -38q-58 0 -96 38t-38 97zM717 1575q0 39 18 70t49.5 48t70.5 17q58 0 96 -37.5t38 -97t-38 -97.5t-96 -38q-59 0 -98.5 38t-39.5 97z" />
<glyph horiz-adv-x="1359" d="M519 1583q0 46 21 83t57.5 57.5t81.5 20.5q70 0 115.5 -45.5t45.5 -115.5q0 -71 -45.5 -116t-115.5 -45q-69 0 -114.5 45t-45.5 116z" />
<glyph horiz-adv-x="1359" d="M491 1603v12q0 81 53 136t135 55q83 0 137 -55t54 -136v-12q0 -53 -24 -96.5t-68 -69t-99 -25.5q-82 0 -135 55t-53 136zM580 1605q0 -50 26 -78.5t73 -28.5q24 0 43.5 7.5t32 21.5t19.5 34t7 44v8q0 51 -26.5 80.5t-75.5 29.5q-24 0 -42.5 -8t-31 -22.5t-19 -34.5 t-6.5 -45v-8z" />
<glyph horiz-adv-x="546" />
<glyph d="M81 521v292q0 255 120.5 395.5t345 140.5t344.5 -140.5t120 -395.5v-292q0 -257 -120 -397.5t-345 -140.5t-345 140.5t-120 397.5zM383 437q0 -126 40 -183t123 -57t123 57t40 183v457q0 127 -39.5 183.5t-123 56.5t-123.5 -56.5t-40 -183.5v-457z" />
<glyph d="M113 0v209h298v872h-2q-55 -48 -89 -68l-207 -131v252l312 197h274v-1122h281v-209h-867z" />
<glyph d="M112 0v222l424 473q66 73 92 127.5t26 106.5v38q0 78 -48 121.5t-145 43.5q-66 0 -144 -22t-190 -71v212q75 34 142 55t134 32t137 11q106 0 185.5 -26t128.5 -75t73.5 -116t24.5 -152v-40q0 -78 -21 -140.5t-73.5 -135t-150.5 -169.5l-199 -197q-48 -49 -103 -88v-1h547 v-209h-840z" />
<glyph d="M101 78v212q92 -44 180 -67.5t155 -23.5q113 0 174 47.5t61 136.5v42q0 78 -42 122.5t-125 44.5q-46 0 -104 -14l-53 -12l-87 151l334 337q38 42 77 66v2h-570v209h841v-239l-330 -321q32 8 63 8q136 0 217.5 -90t81.5 -236v-72q0 -184 -130.5 -291t-358.5 -107 q-193 0 -384 95z" />
<glyph d="M44 266v191l572 874h278v-848h117v-217h-117v-266h-288v266h-562zM288 483h318v493h-2q-16 -33 -39 -72l-224 -348q-13 -21 -53 -71v-2z" />
<glyph d="M106 80v210q205 -91 353 -91q117 0 176.5 54.5t59.5 163.5v53q0 96 -38 145.5t-109 49.5q-66 0 -165 -79l-63 -52l-207 6l22 791h801v-209h-551l-10 -351l46 31q69 49 125.5 69.5t120.5 20.5q99 0 173 -49t114.5 -141t40.5 -217v-49q0 -216 -135.5 -334.5t-366.5 -118.5 q-198 0 -387 97z" />
<glyph d="M101 529v254q0 288 123 427t386 139q137 0 319 -90v-212q-175 94 -299 94q-122 0 -174 -60.5t-52 -198.5v-113l33 22q75 49 130 71t123 22q168 0 242.5 -99t74.5 -296v-80q0 -198 -112 -312t-327 -114q-241 0 -354 134t-113 412zM404 441q0 -134 35 -192t117 -58 q76 0 113.5 46t37.5 140v118q0 94 -27.5 133t-99.5 39q-29 0 -57.5 -11t-73.5 -40l-45 -30v-145z" />
<glyph d="M106 1122v209h876v-216l-400 -1115h-316l429 1122h-589z" />
<glyph d="M74 349v19q0 65 20.5 119.5t66 98t112.5 68.5l67 25v5l-50 21q-94 42 -140.5 112.5t-46.5 162.5v23q0 74 26 136t78.5 109.5t139 74t199.5 26.5q114 0 201 -26t139.5 -72.5t78.5 -107t26 -132.5v-14q0 -90 -43.5 -160.5t-134.5 -103.5l-56 -20v-4l52 -17 q212 -73 212 -319v-17q0 -84 -26.5 -150.5t-81.5 -117.5t-148 -78t-219 -27q-125 0 -218 27t-147.5 77.5t-80.5 115.5t-26 146zM373 351q0 -39 10 -71.5t30.5 -57t54 -38t78.5 -13.5q87 0 130 49t43 131v40q0 42 -13.5 73t-46 57t-87.5 47l-68 26l-43 -31q-44 -33 -66 -69 t-22 -89v-54zM396 982q0 -64 26 -104.5t88 -62.5l70 -26l34 22q49 30 66 67.5t17 97.5v33q0 68 -38.5 109.5t-112.5 41.5q-38 0 -67 -11t-47 -31.5t-27 -48t-9 -60.5v-27z" />
<glyph d="M83 858v65q0 195 117.5 310.5t322.5 115.5q236 0 351 -134.5t115 -412.5v-252q0 -289 -123.5 -428t-376.5 -139q-79 0 -177 22.5t-197 66.5v212q46 -24 93.5 -42t89.5 -29t78.5 -16.5t64.5 -5.5q130 0 188.5 64.5t58.5 207.5v119l-34 -21q-141 -94 -252 -94 q-157 0 -238 99.5t-81 291.5zM383 855q0 -62 13 -99.5t39 -54.5t67 -17q54 0 140 53l46 27v126q0 133 -36.5 192t-117.5 59q-151 0 -151 -187v-99z" />
<glyph horiz-adv-x="764" d="M113 590v52q0 139 39.5 293.5t107 294t151.5 246.5h243q-107 -150 -176 -382t-69 -442v-72q0 -210 69 -442t176 -382h-243q-129 164 -213.5 394.5t-84.5 439.5z" />
<glyph horiz-adv-x="764" d="M113 -244q107 150 176 382t69 442v72q0 210 -69 442t-176 382h243q130 -164 214 -394.5t84 -439.5v-52q0 -209 -84 -439.5t-214 -394.5h-243z" />
<glyph horiz-adv-x="764" d="M149 -244v1720h484v-206h-202v-1308h202v-206h-484z" />
<glyph horiz-adv-x="764" d="M133 -38h203v1308h-203v206h485v-1720h-485v206z" />
<glyph horiz-adv-x="764" d="M93 529v231h142q57 0 57 40v6q0 32 -30 82l-46 71q-79 128 -79 199v26q0 142 82.5 217t267.5 75h127v-206h-70q-119 0 -119 -86v-28q0 -55 34 -115l40 -70q53 -95 53 -167v-4q0 -51 -41 -93.5t-111 -58.5v-4q70 -18 111 -61t41 -94v-4q0 -64 -50 -169l-51 -113 q-26 -58 -26 -112v-27q0 -54 28.5 -78t90.5 -24h70v-206h-127q-96 0 -165 20t-109 59.5t-58 91.5t-18 121v26q0 81 62 199l69 132q24 48 24 78v6q0 40 -57 40h-142z" />
<glyph horiz-adv-x="764" d="M153 -38h69q62 0 90.5 24t28.5 78v27q0 56 -25 112l-52 113q-50 105 -50 169v4q0 51 41.5 94t112.5 61v4q-48 11 -83 34.5t-53 54t-18 63.5v4q0 72 54 167l39 70q34 60 34 115v28q0 86 -119 86h-69v206h127q185 0 267.5 -75t82.5 -217v-26q0 -71 -80 -199l-46 -71 q-30 -50 -30 -82v-6q0 -40 59 -40h140v-231h-140q-59 0 -59 -40v-6q0 -27 27 -78l67 -132q62 -123 62 -199v-26q0 -69 -18.5 -121t-58 -91.5t-108.5 -59.5t-165 -20h-127v206z" />
<glyph d="M49 334l34 174h171l60 315h-168l32 174h169l66 334h169l-66 -334h185l66 334h169l-66 -334h171l-34 -174h-171l-59 -315h169l-34 -174h-169l-66 -334h-169l66 334h-185l-65 -334h-169l65 334h-171zM423 508h185l59 315h-184z" />
<glyph horiz-adv-x="1268" d="M70 969v68q0 147 67.5 229.5t204 82.5t204.5 -82.5t68 -229.5v-68q0 -147 -68 -230t-204.5 -83t-204 83t-67.5 230zM155 0l825 1331h135l-825 -1331h-135zM258 916q0 -133 83.5 -133t83.5 133v174q0 134 -83.5 134t-83.5 -134v-174zM656 294v68q0 146 68.5 229.5 t202.5 83.5q92 0 154 -39.5t90.5 -108.5t28.5 -165v-68q0 -147 -68 -229t-205 -82q-134 0 -202.5 82.5t-68.5 228.5zM844 241q0 -133 83 -133q86 0 86 133v174q0 133 -86 133q-83 0 -83 -133v-174z" />
<glyph horiz-adv-x="1882" d="M70 969v68q0 147 67.5 229.5t204 82.5t204.5 -82.5t68 -229.5v-68q0 -147 -68 -230t-204.5 -83t-204 83t-67.5 230zM155 0l825 1331h135l-825 -1331h-135zM258 916q0 -133 83.5 -133t83.5 133v174q0 134 -83.5 134t-83.5 -134v-174zM656 294v68q0 146 68.5 229.5 t202.5 83.5q92 0 154 -39.5t90.5 -108.5t28.5 -165v-68q0 -147 -68 -229t-205 -82q-134 0 -202.5 82.5t-68.5 228.5zM844 241q0 -133 83 -133q86 0 86 133v174q0 133 -86 133q-83 0 -83 -133v-174zM1270 294v68q0 96 29 165.5t90.5 108.5t151.5 39q137 0 205 -83t68 -230 v-68q0 -147 -68 -229t-205 -82q-134 0 -202.5 82.5t-68.5 228.5zM1458 241q0 -133 83 -133q86 0 86 133v174q0 133 -86 133q-83 0 -83 -133v-174z" />
<glyph horiz-adv-x="546" d="M78 176.5q0 86.5 54.5 141t140 54.5t140 -54.5t54.5 -141t-54.5 -140t-140 -53.5t-140 53.5t-54.5 140z" />
<glyph horiz-adv-x="546" d="M78 177q0 86 54.5 140.5t140 54.5t140 -54.5t54.5 -140.5q0 -47 -18.5 -96t-65.5 -125l-150 -246h-148l133 278q-63 17 -101.5 67.5t-38.5 121.5z" />
<glyph horiz-adv-x="546" d="M78 176.5q0 86.5 54.5 141t140 54.5t140 -54.5t54.5 -141t-54.5 -140t-140 -53.5t-140 53.5t-54.5 140zM78 798q0 87 54.5 141t140 54t140 -54t54.5 -140.5t-54.5 -140.5t-139.5 -54q-57 0 -101 24.5t-69 68.5t-25 101z" />
<glyph horiz-adv-x="546" d="M78 177q0 86 54.5 140.5t140 54.5t140 -54.5t54.5 -140.5q0 -47 -18.5 -96t-65.5 -125l-150 -246h-148l133 278q-63 17 -101.5 67.5t-38.5 121.5zM78 798q0 87 54.5 141t140 54t140 -54t54.5 -140.5t-54.5 -140.5t-139.5 -54q-57 0 -101 24.5t-69 68.5t-25 101z" />
<glyph d="M108 563v206h329v361h219v-361h328v-206h-328v-360h-219v360h-329z" />
<glyph d="M129 563v206h832v-206h-832z" />
<glyph d="M108 743v205h329v303h219v-303h328v-205h-328v-304h-219v304h-329zM125 108v204h842v-204h-842z" />
<glyph d="M108 563v206h876v-206h-876zM375 286q0 74 48.5 122.5t122.5 48.5t122.5 -48.5t48.5 -122.5t-48.5 -122.5t-122.5 -48.5t-122.5 48.5t-48.5 122.5zM375 1045q0 74 48.5 122t122.5 48t122.5 -48t48.5 -122q0 -73 -48.5 -122t-122.5 -49t-122.5 49t-48.5 122z" />
<glyph d="M115 368l289 299l-289 300l145 148l286 -298l284 298l146 -148l-288 -300l288 -299l-146 -146l-284 297l-286 -297z" />
<glyph d="M129 368v202h832v-202h-832zM129 762v203h832v-203h-832z" />
<glyph d="M83 556v219l903 419v-256l-517 -223q-66 -28 -139 -48v-4q57 -13 139 -47l517 -222v-257z" />
<glyph d="M106 137v257l516 222q78 33 138 47v4q-79 23 -138 48l-516 223v256l901 -419v-219z" />
<glyph d="M83 51v205h903v-205h-903zM83 711v205l903 350v-257l-499 -158q-60 -18 -129 -34v-6q64 -13 129 -32l499 -159v-256z" />
<glyph d="M106 51v205h901v-205h-901zM106 364v256l498 159q65 19 129 32v6q-68 16 -129 34l-498 158v257l901 -350v-205z" />
<glyph d="M129 326v201l26 17q120 84 218 84q83 0 148 -38l91 -52q33 -19 56.5 -24.5t64.5 -5.5q98 0 201 80l27 22v-201l-23 -18q-111 -84 -221 -84q-78 0 -145 38l-93 53q-32 18 -55 23.5t-64 5.5q-103 0 -203 -80zM129 721v201l26 18q120 83 218 83q83 0 148 -37l91 -52 q33 -19 56.5 -24.5t64.5 -5.5q98 0 201 80l27 21v-201l-23 -17q-111 -84 -221 -84q-78 0 -145 38l-93 51q-33 20 -56 25.5t-63 5.5q-103 0 -203 -80z" />
<glyph d="M129 368v202h320l78 192h-398v203h479l125 316h118l-125 -316h235v-203h-317l-78 -192h395v-202h-474l-127 -319h-118l128 319h-241z" />
<glyph d="M115 920v28q0 150 82 252.5t240 134.5v195h225v-188q120 -16 258 -83v-218q-191 83 -338 83q-220 0 -220 -127v-11q0 -31 12 -52.5t46.5 -42.5t95.5 -40l183 -59q107 -33 170.5 -83.5t91.5 -121t28 -170.5v-34q0 -151 -86 -253.5t-241 -135.5v-193h-225v187 q-153 21 -300 99v220q225 -97 367 -97q119 0 175 35.5t56 97.5v17q0 34 -10.5 57t-41 44t-85.5 38l-191 55q-158 45 -225 131.5t-67 234.5z" />
<glyph d="M135 467v129q0 183 84.5 304t241.5 161v200h225v-184q128 -16 250 -80v-203q-159 82 -278 82t-173 -51.5t-54 -168.5v-249q0 -79 24 -127.5t73.5 -70.5t129.5 -22q120 0 278 79v-200q-115 -63 -250 -80v-185h-225v201q-104 27 -177 89.5t-111 158t-38 217.5z" />
<glyph d="M117 0v209l230 297h-222v175h205l-30 28q-95 89 -133 151.5t-38 140.5v12q0 152 108 244t313 92q73 0 143 -11t138.5 -32t144.5 -55v-212q-76 33 -137 53.5t-112 30t-97 9.5q-103 0 -153 -42t-50 -116v-19q0 -44 26.5 -92t84.5 -114l60 -68h228v-175h-193l-261 -301h614 v-205h-869z" />
<glyph d="M36 1331h315l174 -489q22 -63 38 -125h3q19 66 40 125l177 489h274l-268 -660h172v-155h-830v155h173zM131 239v152h830v-152h-269v-239h-288v239h-273z" />
<glyph d="M32 644v154h1029v-154h-90l-51 -644h-289l-66 644h-36l-68 -644h-288l-52 644h-89zM32 923v154h53l-24 254h231l15 -254h122l26 254h182l26 -254h122l15 254h231l-24 -254h54v-154h-1029zM320 644l18 -174q6 -60 13 -204h5q6 81 19 204l16 174h-71zM701 644l16 -174 q17 -160 20 -204h4q7 144 14 204l18 174h-72z" />
<glyph d="M46 449v153h756v-153h-345q1 -90 24 -147.5t67 -85t112 -27.5q136 0 329 93v-212q-196 -89 -358 -89q-219 0 -335 117t-137 351h-113zM46 729v153h113q21 234 137 350.5t335 116.5q159 0 358 -90v-212q-186 94 -329 94q-102 0 -152.5 -64t-50.5 -195h345v-153h-756z" />
<glyph d="M38 12l40 187q62 -21 102 -21q82 0 98 88l94 445h-162l40 195h161l22 101q25 124 70 197t124.5 109t204.5 36q110 0 220 -32l-36 -187q-80 22 -154 22q-69 0 -101.5 -24.5t-45.5 -90.5l-27 -131h294l-42 -195h-294l-85 -407q-16 -77 -37 -131.5t-47.5 -91.5t-64 -58.5 t-81.5 -30.5t-105 -9q-92 0 -188 29z" />
<glyph d="M117 -34q252 -93 376 -93q109 0 169.5 44.5t60.5 126.5v121l-606 205v206l859 -284v-244q0 -123 -56 -213.5t-164.5 -140.5t-256.5 -50q-95 0 -195.5 27.5t-186.5 74.5v220zM117 717v229q0 185 126.5 294t350.5 109q95 0 195.5 -27t186.5 -75v-220q-251 93 -377 93 q-109 0 -169 -44t-60 -126v-108l606 -203v-206z" />
</font>
</defs>
</svg>
