<?xml version="1.0" standalone="no"?>
<!DOCTYPE svg PUBLIC "-//W3C//DTD SVG 1.1//EN" "http://www.w3.org/Graphics/SVG/1.1/DTD/svg11.dtd" >
<svg xmlns="http://www.w3.org/2000/svg">
<metadata></metadata>
<defs>
<font id="queuebook" horiz-adv-x="1137" >
<font-face units-per-em="2048" ascent="1700" descent="-348" />
<missing-glyph horiz-adv-x="549" />
<glyph unicode=" "  horiz-adv-x="549" />
<glyph unicode="&#x09;" horiz-adv-x="549" />
<glyph unicode="&#xa0;" horiz-adv-x="549" />
<glyph unicode="!" horiz-adv-x="626" d="M174 126q0 63 38.5 102t99.5 39q63 0 102 -39t39 -102q0 -62 -39 -100t-102 -38q-61 0 -99.5 38t-38.5 100zM231 811v575h164v-575l-29 -401h-105z" />
<glyph unicode="&#x22;" horiz-adv-x="770" d="M148 1490h164l-20 -519h-122zM460 1490h162l-20 -519h-122z" />
<glyph unicode="#" horiz-adv-x="1283" d="M52 385l21 107h258l79 402h-262l22 107h260l75 385h107l-75 -385h330l74 385h107l-73 -385h256l-21 -107h-257l-78 -402h258l-20 -107h-259l-74 -385h-107l73 385h-328l-75 -385h-108l75 385h-258zM438 492h330l78 402h-329z" />
<glyph unicode="$" horiz-adv-x="1125" d="M118 1011v27q0 138 100 235.5t276 122.5v197h128v-190q162 -6 344 -96v-132q-194 87 -344 93v-496l90 -32q158 -51 228.5 -134.5t70.5 -214.5v-46q0 -140 -107.5 -237.5t-281.5 -117.5v-197h-128v191q-196 13 -372 109v134q208 -97 372 -107v523l-78 28q-156 52 -227 131 t-71 209zM265 1028q0 -73 50.5 -121.5t176.5 -91.5h2v444q-110 -18 -169.5 -73t-59.5 -132v-26zM622 126q114 19 176.5 74t62.5 135v34q0 82 -49.5 133.5t-176.5 93.5l-13 4v-474z" />
<glyph unicode="%" horiz-adv-x="1500" d="M116 1003v77q0 153 81.5 238t218.5 85t218.5 -85t81.5 -238v-77q0 -153 -81.5 -237.5t-218.5 -84.5t-218.5 84.5t-81.5 237.5zM240 989q0 -112 47 -163.5t129 -51.5t129 51.5t47 163.5v105q0 111 -47 163t-129 52t-129 -52t-47 -163v-105zM263 0l870 1386h106l-870 -1386 h-106zM786 306v77q0 153 81.5 237.5t218.5 84.5t218.5 -84.5t81.5 -237.5v-77q0 -153 -81.5 -237.5t-218.5 -84.5t-218.5 84.5t-81.5 237.5zM910 292q0 -112 47 -163.5t129 -51.5t128.5 51.5t46.5 163.5v105q0 111 -46.5 163t-128.5 52t-129 -52t-47 -163v-105z" />
<glyph unicode="&#x26;" horiz-adv-x="1459" d="M112 358v39q0 118 72 204.5t238 158.5l31 14q-128 164 -128 298v35q0 128 89 212t241.5 84t240 -76t87.5 -206v-18q0 -104 -65 -192t-204 -145l-54 -24l370 -403q70 99 97 230l36 169h134l-36 -181q-34 -180 -142 -315l221 -242h-163l-149 152q-93 -79 -207.5 -123.5 t-228.5 -44.5q-227 0 -353.5 99t-126.5 275zM275 371q0 -122 90 -190.5t253 -68.5q85 0 170 33.5t155 94.5l-412 447l-39 -18q-126 -57 -171.5 -117t-45.5 -151v-30zM468 1078q0 -116 113 -253l62 27q199 84 199 246v19q0 83 -48.5 127.5t-133.5 44.5q-90 0 -141 -49.5 t-51 -132.5v-29z" />
<glyph unicode="'" horiz-adv-x="460" d="M148 1490h164l-20 -519h-122z" />
<glyph unicode="(" horiz-adv-x="821" d="M162 614v55q0 235 90.5 458t241.5 381h166q-158 -164 -244.5 -383.5t-86.5 -445.5v-75q0 -226 86.5 -445.5t244.5 -383.5h-166q-151 158 -241.5 381t-90.5 458z" />
<glyph unicode=")" horiz-adv-x="821" d="M160 -225q157 164 243.5 383.5t86.5 445.5v75q0 226 -86.5 445.5t-243.5 383.5h165q151 -158 242 -381t91 -458v-55q0 -235 -91 -458t-242 -381h-165z" />
<glyph unicode="*" horiz-adv-x="864" d="M81 1179l41 128l269 -113l-25 296h133l-25 -296l268 113l42 -128l-283 -66l194 -225l-107 -81l-156 259l-155 -259l-107 81l194 225z" />
<glyph unicode="+" horiz-adv-x="1107" d="M89 637v113h408v425h117v-425h404v-113h-404v-424h-117v424h-408z" />
<glyph unicode="," horiz-adv-x="510" d="M114 -279l128 267q-55 4 -89.5 41.5t-34.5 94.5q0 60 38.5 98.5t98.5 38.5t99 -38t39 -99q0 -38 -13 -75.5t-51 -104.5l-126 -223h-89z" />
<glyph unicode="-" horiz-adv-x="872" d="M91 662v137h693v-137h-693z" />
<glyph unicode="." horiz-adv-x="510" d="M118 124q0 60 38.5 98.5t98.5 38.5t99 -38t39 -99t-38.5 -98.5t-99.5 -37.5q-60 0 -98.5 37.5t-38.5 98.5z" />
<glyph unicode="/" horiz-adv-x="805" d="M-12 -207l665 1697h139l-666 -1697h-138z" />
<glyph unicode="0" horiz-adv-x="1232" d="M136 557v272q0 278 126.5 426t354 148t353.5 -148t126 -426v-272q0 -278 -126 -425.5t-353.5 -147.5t-354 147.5t-126.5 425.5zM304 529q0 -415 312 -415q313 0 313 415v327q0 417 -313 417q-312 0 -312 -417v-327z" />
<glyph unicode="1" horiz-adv-x="930" d="M99 0v126h296v1103h-2q-55 -43 -71 -52l-223 -151v153l319 207h141v-1260h280v-126h-740z" />
<glyph unicode="2" horiz-adv-x="1017" d="M58 0v122l511 553q95 104 132 182t37 150v33q0 106 -75.5 168t-209.5 62q-82 0 -172.5 -29t-203.5 -93v131q110 64 206.5 94t200.5 30q192 0 307 -96.5t115 -256.5v-45q0 -94 -53 -192t-187 -242l-354 -374q-48 -49 -74 -69v-2h668v-126h-848z" />
<glyph unicode="3" horiz-adv-x="1060" d="M77 89v130q201 -103 373 -103q150 0 238 74.5t88 206.5v43q0 121 -68.5 186t-194.5 65q-66 0 -132 -16l-61 -15l-49 84l422 458q31 36 59 55v2h-675v127h850v-122l-455 -478q68 19 120 19q163 0 258 -96.5t95 -258.5v-59q0 -185 -129 -296t-342 -111q-106 0 -201.5 26 t-195.5 79z" />
<glyph unicode="4" horiz-adv-x="1157" d="M54 322v116l688 948h152v-933h174v-131h-174v-322h-164v322h-676zM207 453h523v722h-2q-13 -24 -45 -70l-422 -584q-13 -18 -54 -65v-3z" />
<glyph unicode="5" horiz-adv-x="1121" d="M124 93v130q97 -52 195.5 -79.5t177.5 -27.5q164 0 253 81.5t89 240.5v65q0 135 -69 212t-182 77q-134 0 -284 -141l-66 -61l-108 6l24 790h785v-127h-651l-13 -507l27 26q84 74 163.5 109t169.5 35q165 0 268.5 -112.5t103.5 -298.5v-71q0 -218 -133 -337t-361 -119 q-197 0 -389 109z" />
<glyph unicode="6" horiz-adv-x="1194" d="M136 542v257q0 304 130 454t389 150q170 0 344 -96v-130q-176 98 -337 98q-183 0 -270.5 -106t-87.5 -340v-130l50 43q94 86 175 123t172 37q180 0 283.5 -108.5t103.5 -305.5v-64q0 -196 -128 -318t-336 -122q-232 0 -360 144.5t-128 413.5zM304 513q0 -200 82.5 -300.5 t233.5 -100.5q139 0 219.5 79.5t80.5 224.5v76q0 138 -68.5 208t-193.5 70q-63 0 -124 -29t-143 -98l-87 -74v-56z" />
<glyph unicode="7" horiz-adv-x="1021" d="M62 1259v127h881v-118l-497 -1268h-177l505 1259h-712z" />
<glyph unicode="8" horiz-adv-x="1178" d="M91 356v23q0 103 66 185t188 125l89 31v4l-70 24q-114 41 -174 114.5t-60 175.5v24q0 71 30 133t87 108.5t145 73t198 26.5q109 0 197 -26.5t144.5 -73t86.5 -107.5t30 -132v-18q0 -99 -61 -172t-174 -112l-73 -26v-4l81 -27q129 -42 197 -127.5t68 -196.5v-21 q0 -83 -31.5 -151t-92 -118.5t-156 -78.5t-217 -28t-217 28t-156.5 78t-93 117.5t-32 148.5zM261 362q0 -118 86 -188.5t242.5 -70.5t242.5 70.5t86 188.5v21q0 81 -52.5 139t-166.5 98l-134 46l-115 -48q-96 -40 -142.5 -96t-46.5 -133v-27zM296 1044q0 -78 46.5 -131 t143.5 -86l122 -41l97 41q91 38 134.5 89t43.5 126v17q0 102 -79 163t-214 61q-137 0 -215.5 -61t-78.5 -163v-15z" />
<glyph unicode="9" horiz-adv-x="1194" d="M107 910v54q0 195 128.5 317t337.5 122q232 0 360.5 -144.5t128.5 -414.5v-256q0 -305 -133 -454.5t-402 -149.5q-86 0 -190 27.5t-195 77.5v130q93 -53 194 -80t183 -27q192 0 282.5 105t90.5 340v142l-48 -44q-177 -156 -347 -156q-182 0 -286 107.5t-104 303.5z M275 908q0 -139 69 -208t196 -69q123 0 273 131l79 67v44q0 200 -83 301t-232 101q-139 0 -220.5 -79.5t-81.5 -224.5v-63z" />
<glyph unicode=":" horiz-adv-x="557" d="M142 124q0 60 38.5 98.5t98 38.5t98.5 -38.5t39 -98.5q0 -61 -38.5 -98.5t-98.5 -37.5t-98.5 37.5t-38.5 98.5zM142 767.5q0 60.5 38.5 98.5t98 38t98.5 -38t39 -98.5t-39 -98.5t-98.5 -38t-98 38t-38.5 98.5z" />
<glyph unicode=";" horiz-adv-x="557" d="M138 -279l129 267q-55 4 -90 41.5t-35 94.5q0 60 38.5 98.5t98 38.5t98.5 -38.5t39 -98.5q0 -37 -13 -74.5t-52 -105.5l-124 -223h-89zM142 767.5q0 60.5 38.5 98.5t98 38t98.5 -38t39 -98.5t-39 -98.5t-98.5 -38t-98 38t-38.5 98.5z" />
<glyph unicode="&#x3c;" horiz-adv-x="1107" d="M87 637v113l910 444v-135l-675 -325q-61 -27 -99 -39v-2q36 -9 99 -38l675 -326v-137z" />
<glyph unicode="=" horiz-adv-x="1107" d="M112 456v111h883v-111h-883zM112 823v112h883v-112h-883z" />
<glyph unicode="&#x3e;" horiz-adv-x="1107" d="M112 192v137l674 326q62 28 100 38v2q-42 13 -100 39l-674 325v135l910 -444v-113z" />
<glyph unicode="?" horiz-adv-x="1176" d="M136 1177v130q110 48 212.5 72t216.5 24q220 0 344.5 -99.5t124.5 -263.5v-45q0 -162 -123 -258t-346 -96h-11l-6 -231h-122l-6 342h111q160 0 248 64.5t88 182.5v39q0 109 -86.5 170.5t-247.5 61.5q-93 0 -187.5 -22.5t-209.5 -70.5zM347 126q0 64 39 102.5t102 38.5 q61 0 101 -39t40 -102q0 -61 -40 -99.5t-101 -38.5q-63 0 -102 38t-39 100z" />
<glyph unicode="@" horiz-adv-x="1683" d="M97 333l81 381q64 299 275.5 462.5t551.5 163.5q357 0 503 -158t83 -450l-95 -442q-32 -148 -120 -227t-205 -79q-88 0 -144.5 50.5t-60.5 143.5l-35 -36q-88 -88 -152.5 -123t-133.5 -35q-117 0 -169.5 107t-11.5 300l30 149q53 252 165.5 358.5t325.5 106.5 q46 0 119 -16.5t149 -45.5l-142 -670q-21 -97 1 -142.5t76 -45.5q62 0 116.5 55t75.5 152l103 484q47 223 -73 343t-415 120q-280 0 -462.5 -134t-234.5 -373l-91 -422q-59 -270 51.5 -413t376.5 -143q69 0 141.5 9.5t200.5 35.5l-22 -105q-116 -26 -182 -33.5t-146 -7.5 q-319 0 -458.5 178.5t-71.5 501.5zM610 381q-56 -267 89 -267q44 0 94 29.5t131 111.5l47 45l119 565q-90 29 -147 29q-78 0 -132 -31t-95 -106t-69 -203z" />
<glyph unicode="A" horiz-adv-x="1255" d="M58 0l475 1386h187l478 -1386h-172l-147 428h-525l-145 -428h-151zM395 552h442l-196 577q-14 44 -23 97h-4q-10 -60 -22 -97z" />
<glyph unicode="B" horiz-adv-x="1275" d="M180 0v1386h519q193 0 301.5 -81t108.5 -231v-63q0 -95 -67 -169t-177 -106q134 -24 214.5 -105.5t80.5 -208.5v-87q0 -148 -122 -241.5t-322 -93.5h-536zM343 126h338q141 0 225.5 61t84.5 169v76q0 108 -85 172.5t-225 64.5h-338v-543zM343 792h317q139 0 213 54.5 t74 160.5v43q0 106 -73.5 157.5t-213.5 51.5h-317v-467z" />
<glyph unicode="C" horiz-adv-x="1190" d="M140 581v224q0 288 142 443t403 155q170 0 363 -96v-134q-198 93 -349 93q-387 0 -387 -437v-272q0 -437 387 -437q151 0 349 93v-134q-191 -95 -363 -95q-261 0 -403 154.5t-142 442.5z" />
<glyph unicode="D" horiz-adv-x="1329" d="M180 0v1386h434q281 0 428.5 -147.5t147.5 -433.5v-224q0 -286 -147.5 -433.5t-428.5 -147.5h-434zM345 132h288q192 0 288.5 104t96.5 325v264q0 221 -96.5 324.5t-288.5 103.5h-288v-1121z" />
<glyph unicode="E" horiz-adv-x="1186" d="M180 0v1386h840v-133h-675v-481h621v-131h-621v-509h675v-132h-840z" />
<glyph unicode="F" horiz-adv-x="1121" d="M180 0v1386h801v-131h-638v-517h600v-132h-600v-606h-163z" />
<glyph unicode="G" horiz-adv-x="1296" d="M140 581v224q0 291 147 444.5t431 153.5q92 0 179.5 -23t192.5 -71v-134q-117 51 -198.5 71t-169.5 20q-205 0 -307.5 -107.5t-102.5 -329.5v-272q0 -230 97 -336.5t290 -106.5q75 0 155.5 15.5t138.5 40.5v420h-338v130h482v-645q-89 -40 -213 -65.5t-235 -25.5 q-549 0 -549 597z" />
<glyph unicode="H" horiz-adv-x="1336" d="M180 0v1386h163v-604h650v604h163v-1386h-163v637h-650v-637h-163z" />
<glyph unicode="I" horiz-adv-x="898" d="M126 0v118h243v1150h-243v118h648v-118h-243v-1150h243v-118h-648z" />
<glyph unicode="J" horiz-adv-x="1052" d="M91 93v136q196 -109 357 -109q294 0 294 316v819h-415v131h569v-930q0 -235 -111 -353.5t-323 -118.5q-194 0 -371 109z" />
<glyph unicode="K" horiz-adv-x="1265" d="M180 0v1386h163v-757h2q14 22 32 46l576 711h172l-463 -579l515 -807h-190l-435 689l-209 -257v-432h-163z" />
<glyph unicode="L" horiz-adv-x="1151" d="M180 0v1386h165v-1256h664v-130h-829z" />
<glyph unicode="M" horiz-adv-x="1612" d="M156 0l84 1386h186l340 -677q28 -63 41 -105h2q13 42 41 105l340 677h184l86 -1386h-161l-64 1210h-2q-13 -51 -39 -109l-325 -679h-123l-324 679q-26 58 -39 109h-2l-65 -1210h-160z" />
<glyph unicode="N" horiz-adv-x="1327" d="M180 0v1386h165l600 -1043q37 -64 56 -105h2v1148h147v-1386h-163l-604 1038q-44 80 -56 106h-2v-1144h-145z" />
<glyph unicode="O" horiz-adv-x="1340" d="M140 581v224q0 287 139.5 442.5t391 155.5t390.5 -155.5t139 -442.5v-224q0 -287 -139 -442t-390.5 -155t-391 155t-139.5 442zM312 557q0 -218 95.5 -328.5t263 -110.5t262.5 110.5t95 328.5v272q0 218 -95 328.5t-262.5 110.5t-263 -110.5t-95.5 -328.5v-272z" />
<glyph unicode="P" horiz-adv-x="1222" d="M180 0v1386h478q224 0 341.5 -93t117.5 -271v-81q0 -180 -118 -274t-341 -94h-315v-573h-163zM343 699h308q298 0 298 244v73q0 243 -298 243h-308v-560z" />
<glyph unicode="Q" horiz-adv-x="1340" d="M140 581v224q0 287 139.5 442.5t391 155.5t390.5 -155.5t139 -442.5v-224q0 -177 -54 -305t-157 -201l163 -276h-153l-128 215q-90 -30 -200 -30q-252 0 -391.5 155t-139.5 442zM312 557q0 -218 95.5 -328.5t263.5 -110.5q72 0 128 20l-215 365h152l176 -298 q116 113 116 352v272q0 218 -95 328.5t-262.5 110.5t-263 -110.5t-95.5 -328.5v-272z" />
<glyph unicode="R" horiz-adv-x="1289" d="M180 0v1386h503q212 0 327 -90t115 -252v-61q0 -120 -77 -203t-217 -114q68 -50 148 -220l209 -446h-177l-196 438q-35 77 -70 124t-79 71h-323v-633h-163zM343 758h328q133 0 206.5 57t73.5 166v55q0 109 -73.5 166t-206.5 57h-328v-501z" />
<glyph unicode="S" horiz-adv-x="1159" d="M122 93v134q226 -107 426 -107q163 0 255.5 57.5t92.5 153.5v40q0 82 -52.5 136t-181.5 91l-218 64q-167 47 -242.5 129t-75.5 216v35q0 75 32.5 140.5t92 114.5t151 77.5t202.5 28.5q197 0 391 -96v-134q-112 50 -201.5 71.5t-177.5 21.5q-163 0 -252 -59t-89 -155v-22 q0 -79 50.5 -128.5t183.5 -88.5l217 -65q168 -46 244 -134t76 -217v-62q0 -103 -62 -183t-171.5 -124t-247.5 -44q-118 0 -236 28t-207 81z" />
<glyph unicode="T" horiz-adv-x="1216" d="M91 1255v131h1034v-131h-434v-1255h-166v1255h-434z" />
<glyph unicode="U" horiz-adv-x="1275" d="M158 476v910h164v-928q0 -172 80.5 -255t240.5 -83q162 0 242.5 83t80.5 255v928h155v-910q0 -244 -124.5 -368t-357 -124t-357 124t-124.5 368z" />
<glyph unicode="V" horiz-adv-x="1176" d="M54 1386h173l344 -1098q20 -64 27 -112h4q8 59 25 112l346 1098h150l-442 -1386h-184z" />
<glyph unicode="W" horiz-adv-x="1739" d="M89 1386h159l218 -1055q10 -56 16 -134h4q7 62 25 134l273 1055h171l274 -1055q17 -65 24 -134h4q5 69 18 134l217 1055h158l-289 -1386h-194l-277 1111q-11 39 -19 91h-2q-10 -61 -19 -91l-277 -1111h-194z" />
<glyph unicode="X" horiz-adv-x="1296" d="M103 0l445 714l-422 672h186l317 -500q17 -26 31 -59h2q3 9 8 18t12.5 21.5t12.5 21.5l310 498h164l-417 -670l442 -716h-189l-332 542q-23 38 -32 60h-2q-4 -12 -17.5 -33.5t-17.5 -28.5l-333 -540h-168z" />
<glyph unicode="Y" horiz-adv-x="1279" d="M95 1386h178l339 -681q29 -66 37 -91h2q8 25 38 91l341 681h156l-462 -922v-464h-165v460z" />
<glyph unicode="Z" horiz-adv-x="1166" d="M134 0v124l671 1074q11 18 39 55v2h-700v131h886v-125l-666 -1066q-1 -1 -17 -26.5t-25 -36.5v-2h708v-130h-896z" />
<glyph unicode="[" horiz-adv-x="821" d="M199 -225v1733h461v-126h-300v-1481h300v-126h-461z" />
<glyph unicode="\" horiz-adv-x="805" d="M14 1490h140l665 -1697h-138z" />
<glyph unicode="]" horiz-adv-x="821" d="M162 -99h298v1481h-298v126h458v-1733h-458v126z" />
<glyph unicode="^" horiz-adv-x="1133" d="M101 637l349 853h142l351 -853h-142l-249 618q-23 73 -33 106h-2q-2 -8 -33 -106l-249 -618h-134z" />
<glyph unicode="_" horiz-adv-x="1006" d="M-12 -184h1032v-104h-1032v104z" />
<glyph unicode="`" horiz-adv-x="1143" d="M308 1479h132l191 -308h-116z" />
<glyph unicode="a" horiz-adv-x="1079" d="M105 279v33q0 69 28.5 126t87 102.5t157 73t228.5 31.5l160 6v93q0 114 -58.5 160.5t-180.5 46.5q-157 0 -337 -95v131q92 48 185 71.5t171 23.5q376 0 376 -340v-413q0 -185 42 -329h-147q-24 85 -35 164l-75 -54q-89 -65 -163 -94.5t-157 -29.5q-121 0 -201.5 81 t-80.5 212zM257 292q0 -84 44 -131t121 -47q63 0 122.5 23.5t134.5 73.5l87 58v268l-154 -6q-355 -11 -355 -217v-22z" />
<glyph unicode="b" horiz-adv-x="1164" d="M170 39v1512h157v-661l50 41q92 79 164 115t154 36q156 0 246.5 -115t90.5 -338v-173q0 -472 -503 -472q-181 0 -359 55zM327 142q106 -30 227 -30q164 0 240.5 77t76.5 257v185q0 169 -54 241.5t-168 72.5q-104 0 -246 -120l-76 -63v-620z" />
<glyph unicode="c" horiz-adv-x="1027" d="M130 464v138q0 224 122 352t336 128q75 0 159.5 -24t156.5 -67v-130q-158 90 -302 90q-310 0 -310 -337v-164q0 -172 78.5 -254t231.5 -82q144 0 302 91v-130q-72 -44 -156.5 -67.5t-159.5 -23.5q-214 0 -336 128t-122 352z" />
<glyph unicode="d" horiz-adv-x="1161" d="M130 436v174q0 236 120.5 354t339.5 118q120 0 245 -66v535h158v-1222q0 -185 41 -329h-146q-25 90 -38 190l-66 -58q-90 -78 -162.5 -113t-155.5 -35q-156 0 -246 114.5t-90 337.5zM292 434q0 -168 53.5 -241t165.5 -73q57 0 116 30t133 90l75 64v594q-111 55 -227 55 q-165 0 -240.5 -77t-75.5 -258v-184z" />
<glyph unicode="e" horiz-adv-x="1085" d="M130 453v149q0 222 117.5 351t313.5 129q189 0 297 -108.5t108 -324.5v-146h-674v-59q0 -330 289 -330q159 0 362 91v-130q-189 -91 -376 -91q-207 0 -322 123t-115 346zM292 622h529v29q0 85 -17.5 144t-52 93.5t-80.5 49.5t-108 15q-125 0 -198 -83t-73 -248z" />
<glyph unicode="f" horiz-adv-x="862" d="M75 941v125h188v171q0 168 78 247t245 79q94 0 202 -39v-124q-97 37 -176 37q-105 0 -148.5 -42.5t-43.5 -159.5v-169h368v-125h-368v-941h-157v941h-188z" />
<glyph unicode="g" horiz-adv-x="1161" d="M130 478v124q0 241 127.5 360.5t373.5 119.5q182 0 362 -66v-987q0 -197 -110 -297.5t-324 -100.5q-166 0 -348 59v128q185 -62 341 -62q146 0 214.5 60.5t68.5 199.5v219l-45 -40q-97 -87 -169.5 -120.5t-154.5 -33.5q-156 0 -246 111t-90 326zM292 478 q0 -159 55 -229.5t168 -70.5q55 0 110.5 27.5t134.5 92.5l75 64v550q-60 23 -110.5 32t-116.5 9q-164 0 -240 -79.5t-76 -263.5v-132z" />
<glyph unicode="h" horiz-adv-x="1151" d="M170 0v1551h157v-661l35 28q104 89 177 126.5t154 37.5q143 0 223.5 -88.5t80.5 -233.5v-760h-158v732q0 213 -188 213q-55 0 -115.5 -31t-142.5 -99l-66 -53v-762h-157z" />
<glyph unicode="i" horiz-adv-x="632" d="M62 941v125h354v-1066h-159v941h-195zM211 1354q0 56 34 90.5t90 34.5q55 0 90 -34.5t35 -90.5q0 -54 -35 -88.5t-90 -34.5t-89.5 34.5t-34.5 88.5z" />
<glyph unicode="j" horiz-adv-x="632" d="M-91 -211q93 -27 160 -27q92 0 140 51t48 167v961h-195v125h354v-1089q0 -167 -83.5 -256.5t-235.5 -89.5q-67 0 -188 30v128zM211 1354q0 56 34 90.5t90 34.5q55 0 90 -34.5t35 -90.5q0 -54 -35 -88.5t-90 -34.5t-89.5 34.5t-34.5 88.5z" />
<glyph unicode="k" horiz-adv-x="1109" d="M170 0v1551h157v-1018h2q11 21 52 67l430 466h162l-363 -402l424 -664h-184l-349 552l-174 -183v-369h-157z" />
<glyph unicode="l" horiz-adv-x="590" d="M20 1427v124h353v-1551h-158v1427h-195z" />
<glyph unicode="m" horiz-adv-x="1782" d="M128 1066h147q25 -95 37 -191l59 49q100 87 169 122.5t143 35.5q106 0 178 -55.5t101 -151.5l56 49q100 87 169 122.5t143 35.5q137 0 215.5 -89t78.5 -233v-760h-160v732q0 213 -183 213q-49 0 -104 -30t-137 -98l-63 -53v-4v-760h-160v732q0 213 -184 213 q-48 0 -103 -30t-137 -98l-66 -55v-762h-157v736q0 174 -42 330z" />
<glyph unicode="n" horiz-adv-x="1155" d="M128 1066h147q25 -90 37 -191l50 43q104 89 177 126.5t154 37.5q143 0 223.5 -88.5t80.5 -233.5v-760h-158v732q0 213 -188 213q-55 0 -115.5 -31t-142.5 -99l-66 -53v-762h-157v736q0 174 -42 330z" />
<glyph unicode="o" horiz-adv-x="1143" d="M130 464v138q0 223 119.5 351.5t323.5 128.5t323.5 -128.5t119.5 -351.5v-138q0 -223 -119.5 -351.5t-323.5 -128.5t-323.5 128.5t-119.5 351.5zM292 450q0 -171 73.5 -254.5t207 -83.5t207.5 83.5t74 254.5v164q0 171 -74 255t-207.5 84t-207 -83.5t-73.5 -255.5v-164z " />
<glyph unicode="p" horiz-adv-x="1164" d="M128 1066h147q25 -90 37 -191l65 56q92 79 164 115t154 36q156 0 246.5 -115t90.5 -338v-173q0 -119 -31.5 -209.5t-90.5 -148t-140 -86t-182 -28.5q-130 0 -261 63v-398h-157v1087q0 174 -42 330zM327 172q119 -60 242 -60q154 0 228 77t74 257v185q0 169 -54 241.5 t-168 72.5q-104 0 -246 -120l-76 -63v-590z" />
<glyph unicode="q" horiz-adv-x="1164" d="M132 436v166q0 241 127.5 360.5t373.5 119.5q182 0 362 -66v-1367h-158v529l-51 -46q-90 -78 -162.5 -113t-155.5 -35q-156 0 -246 114.5t-90 337.5zM294 434q0 -168 53.5 -241t165.5 -73q57 0 116 30t133 90l75 64v608q-60 23 -110.5 32t-116.5 9q-164 0 -240 -79.5 t-76 -263.5v-176z" />
<glyph unicode="r" horiz-adv-x="862" d="M128 1066h147q25 -94 37 -193l63 64q68 72 127.5 106.5t124.5 34.5q60 0 125 -26v-138q-67 21 -130 21q-56 0 -106 -28t-115 -90l-74 -71v-746h-157v736q0 174 -42 330z" />
<glyph unicode="s" horiz-adv-x="973" d="M97 75v130q195 -91 375 -91q122 0 190 43t68 118v21q0 55 -37.5 92t-123.5 58l-218 55q-124 29 -186 94t-62 160v29q0 61 27 114.5t77 94.5t127 65t171 24q163 0 334 -85v-128q-101 46 -176.5 65t-151.5 19q-124 0 -190 -43.5t-66 -115.5v-10q0 -55 35.5 -89t123.5 -56 l219 -53q126 -28 188 -95.5t62 -168.5v-38q0 -132 -112 -216t-297 -84q-197 0 -377 91z" />
<glyph unicode="t" horiz-adv-x="949" d="M75 941v125h188v320h157v-320h411v-125h-411v-657q0 -87 39.5 -121.5t132.5 -34.5q109 0 239 64v-130q-64 -33 -140 -52.5t-143 -19.5q-147 0 -216 67.5t-69 215.5v668h-188z" />
<glyph unicode="u" horiz-adv-x="1155" d="M160 306v760h156v-733q0 -213 189 -213q56 0 116.5 31.5t142.5 98.5l65 54v762h158v-737q0 -173 41 -329h-147q-24 84 -37 190l-50 -44q-104 -88 -177 -125t-153 -37q-144 0 -224 88.5t-80 233.5z" />
<glyph unicode="v" horiz-adv-x="1056" d="M79 1066h165l259 -766q19 -64 32 -130h2q11 57 34 130l258 766h150l-367 -1066h-170z" />
<glyph unicode="w" horiz-adv-x="1569" d="M95 1066h153l198 -780q16 -70 22 -108h2q8 60 22 106l224 782h138l224 -782q4 -14 23 -106h2q2 28 20 108l197 780h155l-279 -1066h-172l-215 774q-15 63 -23 109h-2q-10 -60 -22 -109l-216 -774h-171z" />
<glyph unicode="x" horiz-adv-x="1114" d="M89 0l373 546l-355 520h179l251 -363q21 -30 30 -50h2q8 20 29 48l252 365h155l-347 -514l368 -552h-178l-267 397q-28 45 -31 51h-2q-8 -16 -31 -49l-271 -399h-157z" />
<glyph unicode="y" horiz-adv-x="1056" d="M79 1066h165l263 -780q20 -60 33 -120h2q11 57 31 122l256 778h150l-385 -1147q-51 -155 -132 -219t-199 -64q-81 0 -166 25v128q86 -24 145 -24q69 0 110.5 28.5t79.5 113.5l34 70z" />
<glyph unicode="z" horiz-adv-x="1004" d="M124 0v112l525 765q24 35 48 62v2h-561v125h743v-113l-525 -765q-7 -9 -46 -62v-2h573v-124h-757z" />
<glyph unicode="{" horiz-adv-x="803" d="M93 604v134h182q45 0 65 14.5t20 48.5v6q0 48 -42 126l-51 99q-70 134 -70 211v8q0 127 80.5 192t239.5 65h126v-126h-106q-94 0 -135.5 -31t-41.5 -106v-6q0 -57 47 -157l49 -99q55 -113 55 -178v-4q0 -45 -27.5 -80t-80.5 -48v-2q53 -14 80.5 -48.5t27.5 -80.5v-5 q0 -55 -47 -166l-73 -172q-31 -71 -31 -152v-6q0 -77 41 -108.5t136 -31.5h106v-126h-126q-160 0 -240 64.5t-80 189.5v10q0 94 49 205l79 178q35 78 35 113v7q0 34 -20 48t-65 14h-182z" />
<glyph unicode="|" horiz-adv-x="787" d="M327 -207v1697h135v-1697h-135z" />
<glyph unicode="}" horiz-adv-x="803" d="M162 -99h105q95 0 136 31.5t41 108.5v6q0 83 -30 152l-73 172q-47 111 -47 166v5q0 46 27.5 81t79.5 48v2q-52 13 -79.5 48t-27.5 80v4q0 65 55 178l48 99q47 100 47 157v6q0 75 -41.5 106t-135.5 31h-105v126h126q159 0 239.5 -65t80.5 -192v-8q0 -75 -71 -211l-51 -99 q-42 -78 -42 -126v-6q0 -34 20 -48.5t65 -14.5h183v-134h-183q-45 0 -65 -14t-20 -48v-7q0 -33 36 -113l79 -178q49 -111 49 -205v-10q0 -125 -80 -189.5t-240 -64.5h-126v126z" />
<glyph unicode="~" horiz-adv-x="983" d="M81 1220v132l18 26q98 128 221 128q41 0 76.5 -13t77.5 -43l83 -60q35 -27 60.5 -37.5t53.5 -10.5q48 0 96 29t108 98l31 35v-132l-18 -26q-98 -128 -222 -128q-41 0 -75.5 13t-77.5 44l-83 59q-35 27 -60.5 37.5t-53.5 10.5q-48 0 -96 -29t-108 -98z" />
<glyph unicode="&#xa1;" horiz-adv-x="626" d="M174 1063q0 62 38.5 101.5t99.5 39.5q62 0 101.5 -39t39.5 -101.5t-39.5 -102t-101.5 -39.5q-61 0 -99.5 39.5t-38.5 101.5zM231 -197v576l30 403h105l29 -403v-576h-164z" />
<glyph unicode="&#xa2;" horiz-adv-x="1027" d="M130 464v138q0 198 97 322.5t270 151.5v197h127v-193q68 -5 142 -28t138 -61v-130q-149 84 -280 90v-837q131 6 280 91v-130q-64 -38 -138 -61.5t-142 -27.5v-193h-127v197q-173 27 -270 151.5t-97 322.5zM292 450q0 -272 205 -324v813q-205 -51 -205 -325v-164z" />
<glyph unicode="&#xa3;" horiz-adv-x="1050" d="M85 0v116l322 455h-293v110h279l-29 22q-120 95 -178 180.5t-58 168.5v14q0 149 115 243t316 94q203 0 418 -124v-131q-217 122 -387 122q-141 0 -217.5 -60.5t-76.5 -165.5v-12q0 -62 48 -128t155 -164l66 -59h231v-110h-225l-331 -453h741v-118h-896z" />
<glyph unicode="&#xa5;" horiz-adv-x="1251" d="M97 1386h176l325 -681q22 -45 35 -85h2q19 54 34 85l328 681h157l-382 -788h280v-101h-851v101h279zM201 252v99h851v-99h-343v-252h-163v252h-345z" />
<glyph unicode="&#xa6;" horiz-adv-x="787" d="M327 -207v704h135v-704h-135zM327 786v704h135v-704h-135z" />
<glyph unicode="&#xa7;" horiz-adv-x="1109" d="M124 -134q210 -97 387 -97q155 0 240.5 66t85.5 188v174l-713 253v129l863 -304v-250q0 -176 -129.5 -285t-338.5 -109q-196 0 -395 100v135zM124 778v231q0 176 129.5 285t338.5 109q196 0 395 -100v-134q-210 97 -387 97q-155 0 -241 -66.5t-86 -188.5v-155l714 -254 v-126z" />
<glyph unicode="&#xa8;" horiz-adv-x="1143" d="M304 1326q0 48 31 77.5t79 29.5q47 0 77 -30t30 -77q0 -48 -30.5 -79t-76.5 -31q-48 0 -79 31t-31 79zM622 1326q0 47 31.5 77t78.5 30t77 -30t30 -77q0 -48 -30 -79t-77 -31q-46 0 -78 31.5t-32 78.5z" />
<glyph unicode="&#xa9;" horiz-adv-x="1598" d="M156 620v146q0 145 39.5 261.5t118 200.5t201.5 129.5t284 45.5t284 -45.5t201 -129.5t117.5 -200.5t39.5 -261.5v-146q0 -146 -39.5 -262t-117.5 -200t-201 -129t-284 -45t-284 45t-201.5 129t-118 200t-39.5 262zM252 612q0 -253 138.5 -395t408.5 -142q136 0 240 37.5 t171 107.5t100.5 169t33.5 223v162q0 124 -33.5 222.5t-100.5 169t-171 108t-240 37.5q-270 0 -408.5 -142t-138.5 -395v-162zM482 645v95q0 170 90.5 264t246.5 94q104 0 221 -56v-107q-120 58 -213 58q-108 0 -161.5 -58.5t-53.5 -184.5v-115q0 -125 53.5 -183.5 t161.5 -58.5q93 0 213 57v-107q-117 -55 -221 -55q-156 0 -246.5 94t-90.5 263z" />
<glyph unicode="&#xaa;" horiz-adv-x="884" d="M105 792v27q0 108 96 177.5t287 75.5l120 4v65q0 84 -43 120t-137 36q-121 0 -258 -73v104q67 36 141 54t137 18q139 0 214.5 -62.5t75.5 -191.5v-315q0 -135 32 -247h-125q-16 61 -25 123l-55 -41q-63 -48 -119 -70.5t-119 -22.5q-96 0 -159 60t-63 159zM229 805 q0 -64 34 -96t95 -32q48 0 89.5 15t94.5 54l66 50v187l-116 -4q-143 -6 -203 -47t-60 -111v-16z" />
<glyph unicode="&#xab;" horiz-adv-x="938" d="M77 693l289 403h135l-272 -403l272 -403h-135zM414 693l289 403h134l-270 -403l270 -403h-134z" />
<glyph unicode="&#xad;" horiz-adv-x="872" d="M91 662v137h693v-137h-693z" />
<glyph unicode="&#xae;" horiz-adv-x="1129" d="M132 999v79q0 206 108.5 319t324 113t324 -113t108.5 -319v-79q0 -206 -108.5 -319t-324 -113t-324 113t-108.5 319zM207 993q0 -172 89 -265t268.5 -93t268.5 93t89 265v91q0 172 -89 264.5t-268.5 92.5t-268.5 -92.5t-89 -264.5v-91zM383 778v521h207q82 0 127 -36.5 t45 -102.5v-16q0 -47 -29 -78.5t-80 -43.5q21 -14 54 -81l77 -163h-101l-71 161q-17 42 -39 64h-99v-225h-91zM474 1070h112q35 0 56.5 18.5t21.5 52.5v19q0 34 -22 53.5t-56 19.5h-112v-163z" />
<glyph unicode="&#xaf;" horiz-adv-x="1143" d="M290 1270v110h564v-110h-564z" />
<glyph unicode="&#xb0;" horiz-adv-x="777" d="M105 1208v18q0 124 79.5 204t204.5 80t204.5 -80t79.5 -204v-18q0 -123 -79.5 -202t-204.5 -79t-204.5 79t-79.5 202zM186 1210q0 -93 55.5 -151t147 -58t147.5 58t56 151v14q0 94 -56 152.5t-147 58.5t-147 -58.5t-56 -152.5v-14z" />
<glyph unicode="&#xb1;" horiz-adv-x="1107" d="M89 823v114h408v376h117v-376h404v-114h-404v-375h-117v375h-408zM97 164v111h914v-111h-914z" />
<glyph unicode="&#xb4;" horiz-adv-x="1143" d="M513 1171l190 308h132l-204 -308h-118z" />
<glyph unicode="&#xb6;" horiz-adv-x="1362" d="M112 846v64q0 225 126.5 350.5t365.5 125.5h575v-1737h-133v1619h-188v-1619h-132v720h-122q-239 0 -365.5 125.5t-126.5 351.5z" />
<glyph unicode="&#xb7;" horiz-adv-x="557" d="M142 767.5q0 60.5 38.5 98.5t98 38t98.5 -38t39 -98.5t-39 -98.5t-98.5 -38t-98 38t-38.5 98.5z" />
<glyph unicode="&#xb8;" horiz-adv-x="1143" d="M458 -229q57 -13 101 -13q72 0 72 52v4q0 31 -39 83l-83 103h103l73 -81q33 -38 47 -67t14 -59v-8q0 -56 -43 -89t-117 -33q-67 0 -128 17v91z" />
<glyph unicode="&#xba;" horiz-adv-x="934" d="M128 935v103q0 168 91 265t249 97t248.5 -97t90.5 -265v-103q0 -168 -90.5 -265t-248.5 -97t-249 97t-91 265zM261 924q0 -127 51.5 -188t155 -61t155.5 61t52 188v124q0 128 -52 189.5t-155.5 61.5t-155 -61.5t-51.5 -189.5v-124z" />
<glyph unicode="&#xbb;" horiz-adv-x="934" d="M97 290l272 403l-272 403h134l290 -403l-290 -403h-134zM434 290l271 403l-271 403h135l289 -403l-289 -403h-135z" />
<glyph unicode="&#xbf;" horiz-adv-x="1176" d="M142 160v45q0 162 123 258t347 96h10l7 233h121l8 -346h-113q-161 0 -249 -63t-88 -182v-39q0 -109 87.5 -171t247.5 -62q176 0 395 94v-130q-215 -96 -426 -96q-221 0 -345.5 99.5t-124.5 263.5zM548 1074q0 61 40 100.5t101 39.5t100.5 -39.5t39.5 -100.5 q0 -63 -39.5 -102t-101 -39t-101 39t-39.5 102z" />
<glyph unicode="&#xc0;" horiz-adv-x="1255" d="M58 0l475 1386h187l478 -1386h-172l-147 428h-525l-145 -428h-151zM381 1779h132l178 -287h-118zM395 552h442l-196 577q-14 44 -23 97h-4q-10 -60 -22 -97z" />
<glyph unicode="&#xc1;" horiz-adv-x="1255" d="M58 0l475 1386h187l478 -1386h-172l-147 428h-525l-145 -428h-151zM395 552h442l-196 577q-14 44 -23 97h-4q-10 -60 -22 -97zM563 1492l177 287h133l-192 -287h-118z" />
<glyph unicode="&#xc2;" horiz-adv-x="1255" d="M58 0l475 1386h187l478 -1386h-172l-147 428h-525l-145 -428h-151zM325 1492l252 287h100l252 -287h-120l-180 198h-5l-180 -198h-119zM395 552h442l-196 577q-14 44 -23 97h-4q-10 -60 -22 -97z" />
<glyph unicode="&#xc3;" horiz-adv-x="1255" d="M58 0l475 1386h187l478 -1386h-172l-147 428h-525l-145 -428h-151zM320 1531v105l13 14q81 91 159 91q33 0 60 -9t62 -32l61 -39q31 -21 49.5 -29t41.5 -8q34 0 65.5 19.5t80.5 73.5l21 20v-105l-13 -14q-82 -92 -158 -92q-33 0 -60 9t-63 33l-60 39q-31 21 -50 29t-41 8 q-35 0 -66 -19.5t-81 -73.5zM395 552h442l-196 577q-14 44 -23 97h-4q-10 -60 -22 -97z" />
<glyph unicode="&#xc4;" horiz-adv-x="1255" d="M58 0l475 1386h187l478 -1386h-172l-147 428h-525l-145 -428h-151zM358 1638q0 49 31.5 79.5t78.5 30.5t78 -30.5t31 -79.5q0 -47 -31.5 -77t-78 -30t-78 30t-31.5 77zM395 552h442l-196 577q-14 44 -23 97h-4q-10 -60 -22 -97zM679 1638q0 50 30 80t77 30t78.5 -30.5 t31.5 -79.5q0 -47 -31.5 -77t-78.5 -30t-77 30t-30 77z" />
<glyph unicode="&#xc5;" horiz-adv-x="1255" d="M58 0l475 1386h187l478 -1386h-172l-147 428h-525l-145 -428h-151zM395 552h442l-196 577q-14 44 -23 97h-4q-10 -60 -22 -97zM440 1663v13q0 79 52.5 132t134.5 53t134 -53t52 -132v-13q0 -79 -52 -132.5t-133.5 -53.5t-134.5 53.5t-53 132.5zM511 1665q0 -55 31 -88.5 t85 -33.5t85.5 33.5t31.5 88.5v9q0 55 -31.5 88.5t-85.5 33.5t-85 -33.5t-31 -88.5v-9z" />
<glyph unicode="&#xc6;" horiz-adv-x="1983" d="M58 0l834 1386h906v-133h-675v-481h620v-131h-620v-509h675v-132h-841v428h-483l-261 -428h-155zM548 552h409v697h-2q-23 -64 -65 -134z" />
<glyph unicode="&#xc7;" horiz-adv-x="1190" d="M140 581v224q0 288 142 443t403 155q170 0 363 -96v-134q-198 93 -349 93q-387 0 -387 -437v-272q0 -437 387 -437q151 0 349 93v-134q-180 -89 -339 -95l59 -65q33 -38 47 -67t14 -59v-8q0 -56 -43 -89t-117 -33q-67 0 -129 17v91q58 -13 101 -13q73 0 73 52v4 q0 31 -39 83l-73 91q-223 25 -342.5 177t-119.5 416z" />
<glyph unicode="&#xc8;" horiz-adv-x="1186" d="M180 0v1386h840v-133h-675v-481h621v-131h-621v-509h675v-132h-840zM351 1779h133l178 -287h-118z" />
<glyph unicode="&#xc9;" horiz-adv-x="1186" d="M180 0v1386h840v-133h-675v-481h621v-131h-621v-509h675v-132h-840zM533 1492l179 287h132l-193 -287h-118z" />
<glyph unicode="&#xca;" horiz-adv-x="1186" d="M180 0v1386h840v-133h-675v-481h621v-131h-621v-509h675v-132h-840zM296 1492l252 287h99l253 -287h-120l-180 198h-4l-180 -198h-120z" />
<glyph unicode="&#xcb;" horiz-adv-x="1186" d="M180 0v1386h840v-133h-675v-481h621v-131h-621v-509h675v-132h-840zM329 1638q0 49 31 79.5t78 30.5t78.5 -30.5t31.5 -79.5q0 -47 -31.5 -77t-78 -30t-78 30t-31.5 77zM649 1638q0 50 31 80t78 30t78 -30.5t31 -79.5q0 -47 -31.5 -77t-78 -30t-77.5 30t-31 77z" />
<glyph unicode="&#xcc;" horiz-adv-x="898" d="M126 0v118h243v1150h-243v118h648v-118h-243v-1150h243v-118h-648zM203 1779h132l178 -287h-118z" />
<glyph unicode="&#xcd;" horiz-adv-x="898" d="M126 0v118h243v1150h-243v118h648v-118h-243v-1150h243v-118h-648zM385 1492l178 287h132l-192 -287h-118z" />
<glyph unicode="&#xce;" horiz-adv-x="898" d="M126 0v118h243v1150h-243v118h648v-118h-243v-1150h243v-118h-648zM146 1492l253 287h100l251 -287h-119l-181 198h-4l-179 -198h-121z" />
<glyph unicode="&#xcf;" horiz-adv-x="898" d="M126 0v118h243v1150h-243v118h648v-118h-243v-1150h243v-118h-648zM180 1638q0 49 31.5 79.5t78.5 30.5t78 -30.5t31 -79.5q0 -47 -31 -77t-78 -30t-78.5 30t-31.5 77zM501 1638q0 50 30 80t77 30t78.5 -30.5t31.5 -79.5q0 -47 -31.5 -77t-78.5 -30t-77 30t-30 77z" />
<glyph unicode="&#xd0;" horiz-adv-x="1329" d="M49 658v104h131v624h434q281 0 428.5 -147.5t147.5 -433.5v-224q0 -286 -147.5 -433.5t-428.5 -147.5h-434v658h-131zM345 132h288q192 0 288.5 104t96.5 325v264q0 221 -96.5 324.5t-288.5 103.5h-288v-491h330v-104h-330v-526z" />
<glyph unicode="&#xd1;" horiz-adv-x="1327" d="M180 0v1386h165l600 -1043q37 -64 56 -105h2v1148h147v-1386h-163l-604 1038q-44 80 -56 106h-2v-1144h-145zM358 1531v105l13 14q81 91 158 91q33 0 60 -9t62 -32l61 -39q31 -21 49.5 -29t41.5 -8q35 0 66 19.5t80 73.5l22 20v-105l-14 -14q-81 -92 -158 -92 q-33 0 -60 9t-62 33l-61 39q-31 21 -49.5 29t-41.5 8q-34 0 -65.5 -19.5t-80.5 -73.5z" />
<glyph unicode="&#xd2;" horiz-adv-x="1340" d="M140 581v224q0 287 139.5 442.5t391 155.5t390.5 -155.5t139 -442.5v-224q0 -287 -139 -442t-390.5 -155t-391 155t-139.5 442zM312 557q0 -218 95.5 -328.5t263 -110.5t262.5 110.5t95 328.5v272q0 218 -95 328.5t-262.5 110.5t-263 -110.5t-95.5 -328.5v-272zM424 1779 h133l177 -287h-118z" />
<glyph unicode="&#xd3;" horiz-adv-x="1340" d="M140 581v224q0 287 139.5 442.5t391 155.5t390.5 -155.5t139 -442.5v-224q0 -287 -139 -442t-390.5 -155t-391 155t-139.5 442zM312 557q0 -218 95.5 -328.5t263 -110.5t262.5 110.5t95 328.5v272q0 218 -95 328.5t-262.5 110.5t-263 -110.5t-95.5 -328.5v-272zM606 1492 l178 287h132l-192 -287h-118z" />
<glyph unicode="&#xd4;" horiz-adv-x="1340" d="M140 581v224q0 287 139.5 442.5t391 155.5t390.5 -155.5t139 -442.5v-224q0 -287 -139 -442t-390.5 -155t-391 155t-139.5 442zM312 557q0 -218 95.5 -328.5t263 -110.5t262.5 110.5t95 328.5v272q0 218 -95 328.5t-262.5 110.5t-263 -110.5t-95.5 -328.5v-272zM369 1492 l251 287h100l253 -287h-121l-179 198h-4l-181 -198h-119z" />
<glyph unicode="&#xd5;" horiz-adv-x="1340" d="M140 581v224q0 287 139.5 442.5t391 155.5t390.5 -155.5t139 -442.5v-224q0 -287 -139 -442t-390.5 -155t-391 155t-139.5 442zM312 557q0 -218 95.5 -328.5t263 -110.5t262.5 110.5t95 328.5v272q0 218 -95 328.5t-262.5 110.5t-263 -110.5t-95.5 -328.5v-272zM364 1531 v105l13 14q81 91 158 91q33 0 60 -9t63 -32l60 -39q31 -21 49.5 -29t41.5 -8q35 0 66 19.5t80 73.5l22 20v-105l-13 -14q-82 -92 -159 -92q-33 0 -60 9t-62 33l-61 39q-31 21 -49.5 29t-41.5 8q-34 0 -65.5 -19.5t-80.5 -73.5z" />
<glyph unicode="&#xd6;" horiz-adv-x="1340" d="M140 581v224q0 287 139.5 442.5t391 155.5t390.5 -155.5t139 -442.5v-224q0 -287 -139 -442t-390.5 -155t-391 155t-139.5 442zM312 557q0 -218 95.5 -328.5t263 -110.5t262.5 110.5t95 328.5v272q0 218 -95 328.5t-262.5 110.5t-263 -110.5t-95.5 -328.5v-272zM401 1638 q0 49 31.5 79.5t78.5 30.5t78 -30.5t31 -79.5q0 -47 -31 -77t-78 -30t-78.5 30t-31.5 77zM722 1638q0 50 30 80t77 30t78.5 -30.5t31.5 -79.5q0 -47 -31.5 -77t-78.5 -30q-46 0 -76.5 30t-30.5 77z" />
<glyph unicode="&#xd7;" horiz-adv-x="1107" d="M134 351l344 344l-344 341l79 77l341 -341l342 341l79 -77l-342 -341l342 -344l-79 -76l-342 341l-341 -341z" />
<glyph unicode="&#xd8;" horiz-adv-x="1340" d="M136 0l119 170q-115 151 -115 411v224q0 287 139.5 442.5t391.5 155.5q223 0 359 -124l75 107h99l-118 -170q114 -151 114 -411v-224q0 -287 -139 -442t-390 -155q-225 0 -361 123l-75 -107h-99zM312 557q0 -149 44 -243l583 836q-91 118 -268 118q-168 0 -263.5 -110.5 t-95.5 -328.5v-272zM401 235q92 -117 270 -117q167 0 262 110.5t95 328.5v272q0 148 -43 243z" />
<glyph unicode="&#xd9;" horiz-adv-x="1275" d="M158 476v910h164v-928q0 -172 80.5 -255t240.5 -83q162 0 242.5 83t80.5 255v928h155v-910q0 -244 -124.5 -368t-357 -124t-357 124t-124.5 368zM391 1779h132l178 -287h-117z" />
<glyph unicode="&#xda;" horiz-adv-x="1275" d="M158 476v910h164v-928q0 -172 80.5 -255t240.5 -83q162 0 242.5 83t80.5 255v928h155v-910q0 -244 -124.5 -368t-357 -124t-357 124t-124.5 368zM573 1492l177 287h133l-192 -287h-118z" />
<glyph unicode="&#xdb;" horiz-adv-x="1275" d="M158 476v910h164v-928q0 -172 80.5 -255t240.5 -83q162 0 242.5 83t80.5 255v928h155v-910q0 -244 -124.5 -368t-357 -124t-357 124t-124.5 368zM335 1492l253 287h99l252 -287h-120l-180 198h-4l-179 -198h-121z" />
<glyph unicode="&#xdc;" horiz-adv-x="1275" d="M158 476v910h164v-928q0 -172 80.5 -255t240.5 -83q162 0 242.5 83t80.5 255v928h155v-910q0 -244 -124.5 -368t-357 -124t-357 124t-124.5 368zM369 1638q0 49 31 79.5t78 30.5t78.5 -30.5t31.5 -79.5q0 -47 -31.5 -77t-78.5 -30t-78 30t-31 77zM689 1638q0 50 30 80 t77 30t78.5 -30.5t31.5 -79.5q0 -47 -31.5 -77t-78.5 -30t-77 30t-30 77z" />
<glyph unicode="&#xdd;" horiz-adv-x="1279" d="M95 1386h178l339 -681q29 -66 37 -91h2q8 25 38 91l341 681h156l-462 -922v-464h-165v460zM575 1492l177 287h134l-193 -287h-118z" />
<glyph unicode="&#xde;" horiz-adv-x="1222" d="M180 0v1386h163v-259h315q224 0 341.5 -92.5t117.5 -270.5v-81q0 -180 -118 -274.5t-341 -94.5h-315v-314h-163zM343 440h308q298 0 298 245v73q0 243 -298 243h-308v-561z" />
<glyph unicode="&#xdf;" horiz-adv-x="1333" d="M170 0v1146q0 197 130.5 307t372.5 110q229 0 347.5 -84t118.5 -224v-10q0 -75 -36.5 -133.5t-121.5 -102.5l-199 -105q-41 -22 -57 -39.5t-16 -39.5v-4q0 -27 19.5 -48t74.5 -53l225 -132q215 -126 215 -288v-23q0 -130 -97 -211.5t-260 -81.5q-155 0 -323 78v130 q182 -78 312 -78q102 0 158.5 40.5t56.5 116.5v11q0 54 -34 98.5t-123 97.5l-213 126q-85 51 -119 95.5t-34 101.5v8q0 116 126 182l197 103q59 31 81 64.5t22 82.5v6q0 95 -77 142.5t-237 47.5q-181 0 -270 -75.5t-89 -232.5v-1129h-150z" />
<glyph unicode="&#xe0;" horiz-adv-x="1079" d="M105 279v33q0 69 28.5 126t87 102.5t157 73t228.5 31.5l160 6v93q0 114 -58.5 160.5t-180.5 46.5q-157 0 -337 -95v131q92 48 185 71.5t171 23.5q376 0 376 -340v-413q0 -185 42 -329h-147q-24 85 -35 164l-75 -54q-89 -65 -163 -94.5t-157 -29.5q-121 0 -201.5 81 t-80.5 212zM257 292q0 -84 44 -131t121 -47q63 0 122.5 23.5t134.5 73.5l87 58v268l-154 -6q-355 -11 -355 -217v-22zM292 1479h132l190 -308h-115z" />
<glyph unicode="&#xe1;" horiz-adv-x="1079" d="M105 279v33q0 69 28.5 126t87 102.5t157 73t228.5 31.5l160 6v93q0 114 -58.5 160.5t-180.5 46.5q-157 0 -337 -95v131q92 48 185 71.5t171 23.5q376 0 376 -340v-413q0 -185 42 -329h-147q-24 85 -35 164l-75 -54q-89 -65 -163 -94.5t-157 -29.5q-121 0 -201.5 81 t-80.5 212zM257 292q0 -84 44 -131t121 -47q63 0 122.5 23.5t134.5 73.5l87 58v268l-154 -6q-355 -11 -355 -217v-22zM482 1171l191 308h132l-205 -308h-118z" />
<glyph unicode="&#xe2;" horiz-adv-x="1079" d="M105 279v33q0 69 28.5 126t87 102.5t157 73t228.5 31.5l160 6v93q0 114 -58.5 160.5t-180.5 46.5q-157 0 -337 -95v131q92 48 185 71.5t171 23.5q376 0 376 -340v-413q0 -185 42 -329h-147q-24 85 -35 164l-75 -54q-89 -65 -163 -94.5t-157 -29.5q-121 0 -201.5 81 t-80.5 212zM248 1171l246 308h110l246 -308h-120l-180 221h-2l-179 -221h-121zM257 292q0 -84 44 -131t121 -47q63 0 122.5 23.5t134.5 73.5l87 58v268l-154 -6q-355 -11 -355 -217v-22z" />
<glyph unicode="&#xe3;" horiz-adv-x="1079" d="M105 279v33q0 69 28.5 126t87 102.5t157 73t228.5 31.5l160 6v93q0 114 -58.5 160.5t-180.5 46.5q-157 0 -337 -95v131q92 48 185 71.5t171 23.5q376 0 376 -340v-413q0 -185 42 -329h-147q-24 85 -35 164l-75 -54q-89 -65 -163 -94.5t-157 -29.5q-121 0 -201.5 81 t-80.5 212zM244 1218v106l13 14q37 43 79 67t80 24q33 0 59.5 -9t61.5 -32l61 -40q31 -21 49.5 -29t41.5 -8q34 0 65.5 20t80.5 74l21 20v-105l-12 -15q-37 -42 -79 -66.5t-80 -24.5q-33 0 -60 9t-62 32l-60 40q-31 21 -49.5 29t-41.5 8q-35 0 -66.5 -19.5t-80.5 -73.5z M257 292q0 -84 44 -131t121 -47q63 0 122.5 23.5t134.5 73.5l87 58v268l-154 -6q-355 -11 -355 -217v-22z" />
<glyph unicode="&#xe4;" horiz-adv-x="1079" d="M105 279v33q0 69 28.5 126t87 102.5t157 73t228.5 31.5l160 6v93q0 114 -58.5 160.5t-180.5 46.5q-157 0 -337 -95v131q92 48 185 71.5t171 23.5q376 0 376 -340v-413q0 -185 42 -329h-147q-24 85 -35 164l-75 -54q-89 -65 -163 -94.5t-157 -29.5q-121 0 -201.5 81 t-80.5 212zM257 292q0 -84 44 -131t121 -47q63 0 122.5 23.5t134.5 73.5l87 58v268l-154 -6q-355 -11 -355 -217v-22zM282 1326q0 48 30.5 77.5t78.5 29.5q47 0 77.5 -30t30.5 -77t-31 -78.5t-77 -31.5q-48 0 -78.5 31t-30.5 79zM600 1326q0 47 31 77t78 30t77.5 -30 t30.5 -77t-31 -78.5t-77 -31.5t-77.5 31.5t-31.5 78.5z" />
<glyph unicode="&#xe5;" horiz-adv-x="1079" d="M105 279v33q0 69 28.5 126t87 102.5t157 73t228.5 31.5l160 6v93q0 114 -58.5 160.5t-180.5 46.5q-157 0 -337 -95v131q92 48 185 71.5t171 23.5q376 0 376 -340v-413q0 -185 42 -329h-147q-24 85 -35 164l-75 -54q-89 -65 -163 -94.5t-157 -29.5q-121 0 -201.5 81 t-80.5 212zM257 292q0 -84 44 -131t121 -47q63 0 122.5 23.5t134.5 73.5l87 58v268l-154 -6q-355 -11 -355 -217v-22zM354 1352v14q0 84 55 139.5t141 55.5t141 -55.5t55 -139.5v-14q0 -83 -55.5 -139.5t-140.5 -56.5q-86 0 -141 56.5t-55 139.5zM422 1354q0 -58 35.5 -95 t92.5 -37t92 37t35 95v10q0 58 -35 95t-92 37t-92.5 -37t-35.5 -95v-10z" />
<glyph unicode="&#xe6;" horiz-adv-x="1715" d="M105 279v33q0 136 123.5 217.5t377.5 90.5l160 7v117q0 114 -58.5 160.5t-180.5 46.5q-157 0 -337 -95v131q92 48 185 71.5t171 23.5q133 0 211.5 -51.5t105.5 -159.5q46 101 134 156t207 55q88 0 159 -26.5t123.5 -78.5t81.5 -135.5t29 -192.5v-146h-675v-59 q0 -330 290 -330q159 0 363 91v-130q-190 -91 -377 -91q-124 0 -218.5 53t-150.5 149l-74 -62q-87 -73 -172 -105.5t-184 -32.5q-131 0 -212.5 80t-81.5 213zM257 292q0 -84 44 -131t121 -47q63 0 122.5 23.5t134.5 73.5l109 73q-22 81 -22 169v56l-154 -6 q-189 -9 -272 -54.5t-83 -134.5v-22zM922 622h530v29q0 85 -17.5 144t-52 93.5t-80.5 49.5t-108 15q-125 0 -198.5 -83t-73.5 -248z" />
<glyph unicode="&#xe7;" horiz-adv-x="1027" d="M130 464v138q0 224 122 352t336 128q75 0 159.5 -24t156.5 -67v-130q-158 90 -302 90q-310 0 -310 -337v-164q0 -172 78.5 -254t231.5 -82q144 0 302 91v-130q-67 -39 -143.5 -62.5t-146.5 -28.5l59 -65q33 -38 47 -67t14 -59v-8q0 -56 -43.5 -89t-117.5 -33 q-67 0 -129 17v91q58 -13 102 -13q72 0 72 52v4q0 31 -39 83l-74 93q-177 23 -276 148t-99 326z" />
<glyph unicode="&#xe8;" horiz-adv-x="1085" d="M130 453v149q0 222 117.5 351t313.5 129q189 0 297 -108.5t108 -324.5v-146h-674v-59q0 -330 289 -330q159 0 362 91v-130q-189 -91 -376 -91q-207 0 -322 123t-115 346zM292 622h529v29q0 85 -17.5 144t-52 93.5t-80.5 49.5t-108 15q-125 0 -198 -83t-73 -248zM292 1479 h132l190 -308h-115z" />
<glyph unicode="&#xe9;" horiz-adv-x="1085" d="M130 453v149q0 222 117.5 351t313.5 129q189 0 297 -108.5t108 -324.5v-146h-674v-59q0 -330 289 -330q159 0 362 91v-130q-189 -91 -376 -91q-207 0 -322 123t-115 346zM292 622h529v29q0 85 -17.5 144t-52 93.5t-80.5 49.5t-108 15q-125 0 -198 -83t-73 -248zM482 1171 l191 308h132l-205 -308h-118z" />
<glyph unicode="&#xea;" horiz-adv-x="1085" d="M130 453v149q0 222 117.5 351t313.5 129q189 0 297 -108.5t108 -324.5v-146h-674v-59q0 -330 289 -330q159 0 362 91v-130q-189 -91 -376 -91q-207 0 -322 123t-115 346zM246 1171l246 308h110l246 -308h-120l-180 221h-2l-180 -221h-120zM292 622h529v29q0 85 -17.5 144 t-52 93.5t-80.5 49.5t-108 15q-125 0 -198 -83t-73 -248z" />
<glyph unicode="&#xeb;" horiz-adv-x="1085" d="M130 453v149q0 222 117.5 351t313.5 129q189 0 297 -108.5t108 -324.5v-146h-674v-59q0 -330 289 -330q159 0 362 91v-130q-189 -91 -376 -91q-207 0 -322 123t-115 346zM279 1326q0 48 31 77.5t79 29.5q47 0 77.5 -30t30.5 -77t-31 -78.5t-77 -31.5q-48 0 -79 31t-31 79 zM292 622h529v29q0 85 -17.5 144t-52 93.5t-80.5 49.5t-108 15q-125 0 -198 -83t-73 -248zM598 1326q0 47 31 77t78 30t77.5 -30t30.5 -77t-31 -78.5t-77 -31.5t-77.5 31.5t-31.5 78.5z" />
<glyph unicode="&#xec;" horiz-adv-x="632" d="M62 941v125h354v-1066h-159v941h-195zM79 1479h132l190 -308h-115z" />
<glyph unicode="&#xed;" horiz-adv-x="632" d="M62 941v125h354v-1066h-159v941h-195zM271 1171l191 308h132l-205 -308h-118z" />
<glyph unicode="&#xee;" horiz-adv-x="632" d="M35 1171l247 308h109l246 -308h-120l-180 221h-2l-179 -221h-121zM62 941v125h354v-1066h-159v941h-195z" />
<glyph unicode="&#xef;" horiz-adv-x="632" d="M62 941v125h354v-1066h-159v941h-195zM69 1326q0 48 30.5 77.5t78.5 29.5q46 0 77 -30t31 -77t-31 -78.5t-77 -31.5q-48 0 -78.5 31t-30.5 79zM387 1326q0 47 31.5 77t78.5 30q46 0 76.5 -30t30.5 -77q0 -48 -30.5 -79t-76.5 -31q-47 0 -78.5 31.5t-31.5 78.5z" />
<glyph unicode="&#xf0;" horiz-adv-x="1143" d="M130 464v138q0 224 107.5 352t287.5 128q132 0 271 -81q-47 130 -130 242l-23 32l-314 -102v108l250 78l-143 192h176l110 -146l249 78v-105l-183 -58l39 -54q187 -247 187 -589v-213q0 -223 -119 -351.5t-322.5 -128.5t-323 128.5t-119.5 351.5zM292 450 q0 -171 73 -254.5t208 -83.5q133 0 207 83.5t74 254.5v214q0 92 -21 213q-142 76 -256 76q-140 0 -212.5 -82.5t-72.5 -260.5v-160z" />
<glyph unicode="&#xf1;" horiz-adv-x="1155" d="M128 1066h147q25 -90 37 -191l50 43q104 89 177 126.5t154 37.5q143 0 223.5 -88.5t80.5 -233.5v-760h-158v732q0 213 -188 213q-55 0 -115.5 -31t-142.5 -99l-66 -53v-762h-157v736q0 174 -42 330zM279 1218v106l13 14q81 91 158 91q33 0 60 -9t63 -32l60 -40 q31 -21 50 -29t41 -8q35 0 66 20t81 74l21 20v-105l-13 -15q-81 -91 -159 -91q-33 0 -60 9t-62 32l-61 40q-31 21 -49.5 29t-41.5 8q-34 0 -65.5 -19.5t-80.5 -73.5z" />
<glyph unicode="&#xf2;" horiz-adv-x="1143" d="M130 464v138q0 223 119.5 351.5t323.5 128.5t323.5 -128.5t119.5 -351.5v-138q0 -223 -119.5 -351.5t-323.5 -128.5t-323.5 128.5t-119.5 351.5zM292 450q0 -171 73.5 -254.5t207 -83.5t207.5 83.5t74 254.5v164q0 171 -74 255t-207.5 84t-207 -83.5t-73.5 -255.5v-164z M314 1479h132l191 -308h-116z" />
<glyph unicode="&#xf3;" horiz-adv-x="1143" d="M130 464v138q0 223 119.5 351.5t323.5 128.5t323.5 -128.5t119.5 -351.5v-138q0 -223 -119.5 -351.5t-323.5 -128.5t-323.5 128.5t-119.5 351.5zM292 450q0 -171 73.5 -254.5t207 -83.5t207.5 83.5t74 254.5v164q0 171 -74 255t-207.5 84t-207 -83.5t-73.5 -255.5v-164z M507 1171l190 308h132l-205 -308h-117z" />
<glyph unicode="&#xf4;" horiz-adv-x="1143" d="M130 464v138q0 223 119.5 351.5t323.5 128.5t323.5 -128.5t119.5 -351.5v-138q0 -223 -119.5 -351.5t-323.5 -128.5t-323.5 128.5t-119.5 351.5zM271 1171l246 308h110l246 -308h-121l-179 221h-2l-180 -221h-120zM292 450q0 -171 73.5 -254.5t207 -83.5t207.5 83.5 t74 254.5v164q0 171 -74 255t-207.5 84t-207 -83.5t-73.5 -255.5v-164z" />
<glyph unicode="&#xf5;" horiz-adv-x="1143" d="M130 464v138q0 223 119.5 351.5t323.5 128.5t323.5 -128.5t119.5 -351.5v-138q0 -223 -119.5 -351.5t-323.5 -128.5t-323.5 128.5t-119.5 351.5zM267 1218v106l12 14q38 43 79.5 67t79.5 24q33 0 60 -9t63 -32l59 -40q31 -21 50 -29t42 -8q34 0 65.5 20t80.5 74l21 20 v-105l-12 -15q-38 -42 -80 -66.5t-80 -24.5q-33 0 -59.5 9t-61.5 32l-61 40q-31 21 -49.5 29t-41.5 8q-34 0 -65.5 -19.5t-80.5 -73.5zM292 450q0 -171 73.5 -254.5t207 -83.5t207.5 83.5t74 254.5v164q0 171 -74 255t-207.5 84t-207 -83.5t-73.5 -255.5v-164z" />
<glyph unicode="&#xf6;" horiz-adv-x="1143" d="M130 464v138q0 223 119.5 351.5t323.5 128.5t323.5 -128.5t119.5 -351.5v-138q0 -223 -119.5 -351.5t-323.5 -128.5t-323.5 128.5t-119.5 351.5zM292 450q0 -171 73.5 -254.5t207 -83.5t207.5 83.5t74 254.5v164q0 171 -74 255t-207.5 84t-207 -83.5t-73.5 -255.5v-164z M304 1326q0 48 31 77.5t79 29.5q47 0 77 -30t30 -77q0 -48 -30.5 -79t-76.5 -31q-48 0 -79 31t-31 79zM622 1326q0 47 31.5 77t78.5 30t77 -30t30 -77q0 -48 -30 -79t-77 -31q-46 0 -78 31.5t-32 78.5z" />
<glyph unicode="&#xf7;" horiz-adv-x="1107" d="M89 637v113h929v-113h-929zM420 329q0 59 37.5 97t96.5 38q60 0 98.5 -38t38.5 -97q0 -60 -38.5 -97t-98.5 -37q-59 0 -96.5 37t-37.5 97zM420 1059q0 60 37.5 97.5t96.5 37.5q60 0 98.5 -38t38.5 -97t-39 -98t-98 -39q-58 0 -96 39t-38 98z" />
<glyph unicode="&#xf8;" horiz-adv-x="1143" d="M126 0l103 136q-99 126 -99 328v138q0 223 119.5 351.5t323.5 128.5q177 0 294 -99l62 83h91l-104 -137q100 -127 100 -327v-138q0 -223 -119.5 -351.5t-323.5 -128.5q-178 0 -294 99l-62 -83h-91zM292 450q0 -106 33 -187l457 606q-73 84 -209 84q-134 0 -207.5 -83.5 t-73.5 -255.5v-164zM364 197q73 -85 209 -85q133 0 207 83.5t74 254.5v164q0 107 -33 189z" />
<glyph unicode="&#xf9;" horiz-adv-x="1155" d="M160 306v760h156v-733q0 -213 189 -213q56 0 116.5 31.5t142.5 98.5l65 54v762h158v-737q0 -173 41 -329h-147q-24 84 -37 190l-50 -44q-104 -88 -177 -125t-153 -37q-144 0 -224 88.5t-80 233.5zM314 1479h132l191 -308h-116z" />
<glyph unicode="&#xfa;" horiz-adv-x="1155" d="M160 306v760h156v-733q0 -213 189 -213q56 0 116.5 31.5t142.5 98.5l65 54v762h158v-737q0 -173 41 -329h-147q-24 84 -37 190l-50 -44q-104 -88 -177 -125t-153 -37q-144 0 -224 88.5t-80 233.5zM505 1171l190 308h132l-205 -308h-117z" />
<glyph unicode="&#xfb;" horiz-adv-x="1155" d="M160 306v760h156v-733q0 -213 189 -213q56 0 116.5 31.5t142.5 98.5l65 54v762h158v-737q0 -173 41 -329h-147q-24 84 -37 190l-50 -44q-104 -88 -177 -125t-153 -37q-144 0 -224 88.5t-80 233.5zM271 1171l246 308h110l246 -308h-121l-179 221h-2l-180 -221h-120z" />
<glyph unicode="&#xfc;" horiz-adv-x="1155" d="M160 306v760h156v-733q0 -213 189 -213q56 0 116.5 31.5t142.5 98.5l65 54v762h158v-737q0 -173 41 -329h-147q-24 84 -37 190l-50 -44q-104 -88 -177 -125t-153 -37q-144 0 -224 88.5t-80 233.5zM304 1326q0 48 31 77.5t79 29.5q47 0 77 -30t30 -77q0 -48 -30.5 -79 t-76.5 -31q-48 0 -79 31t-31 79zM622 1326q0 47 31.5 77t78.5 30t77 -30t30 -77q0 -48 -30 -79t-77 -31q-46 0 -78 31.5t-32 78.5z" />
<glyph unicode="&#xfd;" horiz-adv-x="1056" d="M79 1066h165l263 -780q20 -60 33 -120h2q11 57 31 122l256 778h150l-385 -1147q-51 -155 -132 -219t-199 -64q-81 0 -166 25v128q86 -24 145 -24q69 0 110.5 28.5t79.5 113.5l34 70zM462 1171l189 308h133l-205 -308h-117z" />
<glyph unicode="&#xfe;" horiz-adv-x="1164" d="M170 -351v1902h157v-661l50 41q92 79 164 115t154 36q156 0 246.5 -115t90.5 -338v-173q0 -119 -31.5 -209.5t-90.5 -148t-140 -86t-182 -28.5q-130 0 -261 63v-398h-157zM327 172q119 -60 242 -60q154 0 228 77t74 257v185q0 169 -54 241.5t-168 72.5q-104 0 -246 -120 l-76 -63v-590z" />
<glyph unicode="&#xff;" horiz-adv-x="1056" d="M79 1066h165l263 -780q20 -60 33 -120h2q11 57 31 122l256 778h150l-385 -1147q-51 -155 -132 -219t-199 -64q-81 0 -166 25v128q86 -24 145 -24q69 0 110.5 28.5t79.5 113.5l34 70zM259 1326q0 48 31 77.5t79 29.5q46 0 76.5 -30t30.5 -77q0 -48 -30.5 -79t-76.5 -31 q-48 0 -79 31t-31 79zM577 1326q0 47 31.5 77t78.5 30q46 0 76.5 -30t30.5 -77q0 -48 -30.5 -79t-76.5 -31q-47 0 -78.5 31.5t-31.5 78.5z" />
<glyph unicode="&#x100;" horiz-adv-x="1255" d="M58 0l475 1386h187l478 -1386h-172l-147 428h-525l-145 -428h-151zM343 1583v109h567v-109h-567zM395 552h442l-196 577q-14 44 -23 97h-4q-10 -60 -22 -97z" />
<glyph unicode="&#x101;" horiz-adv-x="1079" d="M105 279v33q0 69 28.5 126t87 102.5t157 73t228.5 31.5l160 6v93q0 114 -58.5 160.5t-180.5 46.5q-157 0 -337 -95v131q92 48 185 71.5t171 23.5q376 0 376 -340v-413q0 -185 42 -329h-147q-24 85 -35 164l-75 -54q-89 -65 -163 -94.5t-157 -29.5q-121 0 -201.5 81 t-80.5 212zM257 292q0 -84 44 -131t121 -47q63 0 122.5 23.5t134.5 73.5l87 58v268l-154 -6q-355 -11 -355 -217v-22zM267 1270v110h564v-110h-564z" />
<glyph unicode="&#x102;" horiz-adv-x="1255" d="M58 0l475 1386h187l478 -1386h-172l-147 428h-525l-145 -428h-151zM339 1769h107l7 -30q27 -130 174.5 -130t173.5 130l6 30h107l-6 -42q-17 -106 -90.5 -158.5t-190.5 -52.5t-191 53t-91 158zM395 552h442l-196 577q-14 44 -23 97h-4q-10 -60 -22 -97z" />
<glyph unicode="&#x103;" horiz-adv-x="1079" d="M105 279v33q0 69 28.5 126t87 102.5t157 73t228.5 31.5l160 6v93q0 114 -58.5 160.5t-180.5 46.5q-157 0 -337 -95v131q92 48 185 71.5t171 23.5q376 0 376 -340v-413q0 -185 42 -329h-147q-24 85 -35 164l-75 -54q-89 -65 -163 -94.5t-157 -29.5q-121 0 -201.5 81 t-80.5 212zM257 292q0 -84 44 -131t121 -47q63 0 122.5 23.5t134.5 73.5l87 58v268l-154 -6q-355 -11 -355 -217v-22zM263 1458h108l4 -29q10 -73 55.5 -108.5t120 -35.5t120 35.5t55.5 108.5l4 29h107l-6 -41q-17 -113 -90 -169t-190.5 -56t-191 56t-90.5 169z" />
<glyph unicode="&#x104;" horiz-adv-x="1255" d="M58 0l475 1386h187l478 -1386l-112 -103q-32 -30 -43 -48.5t-11 -38.5v-5q0 -47 69 -47q43 0 97 13v-91q-65 -17 -124 -17q-74 0 -116 32t-42 88v8q0 62 75 126l97 83h-62l-147 428h-525l-145 -428h-151zM395 552h442l-196 577q-14 44 -23 97h-4q-10 -60 -22 -97z" />
<glyph unicode="&#x105;" horiz-adv-x="1079" d="M105 279v33q0 69 28.5 126t87 102.5t157 73t228.5 31.5l160 6v93q0 114 -58.5 160.5t-180.5 46.5q-157 0 -337 -95v131q92 48 185 71.5t171 23.5q376 0 376 -340v-413q0 -185 42 -329l-112 -103q-31 -30 -42 -48.5t-11 -38.5v-5q0 -47 68 -47q42 0 97 13v-91 q-65 -17 -125 -17q-74 0 -115 32t-41 88v8q0 62 75 126l96 83h-37q-24 85 -35 164l-75 -54q-89 -65 -163 -94.5t-157 -29.5q-121 0 -201.5 81t-80.5 212zM257 292q0 -84 44 -131t121 -47q63 0 122.5 23.5t134.5 73.5l87 58v268l-154 -6q-355 -11 -355 -217v-22z" />
<glyph unicode="&#x106;" horiz-adv-x="1190" d="M140 581v224q0 288 142 443t403 155q170 0 363 -96v-134q-198 93 -349 93q-387 0 -387 -437v-272q0 -437 387 -437q151 0 349 93v-134q-191 -95 -363 -95q-261 0 -403 154.5t-142 442.5zM592 1492l178 287h132l-193 -287h-117z" />
<glyph unicode="&#x107;" horiz-adv-x="1027" d="M130 464v138q0 224 122 352t336 128q75 0 159.5 -24t156.5 -67v-130q-158 90 -302 90q-310 0 -310 -337v-164q0 -172 78.5 -254t231.5 -82q144 0 302 91v-130q-72 -44 -156.5 -67.5t-159.5 -23.5q-214 0 -336 128t-122 352zM494 1171l191 308h132l-205 -308h-118z" />
<glyph unicode="&#x10a;" horiz-adv-x="1190" d="M140 581v224q0 288 142 443t403 155q170 0 363 -96v-134q-198 93 -349 93q-387 0 -387 -437v-272q0 -437 387 -437q151 0 349 93v-134q-191 -95 -363 -95q-261 0 -403 154.5t-142 442.5zM519 1642q0 61 38.5 99t98 38t98 -38t38.5 -99t-38.5 -98.5t-98 -37.5t-98 37.5 t-38.5 98.5z" />
<glyph unicode="&#x10b;" horiz-adv-x="1027" d="M130 464v138q0 224 122 352t336 128q75 0 159.5 -24t156.5 -67v-130q-158 90 -302 90q-310 0 -310 -337v-164q0 -172 78.5 -254t231.5 -82q144 0 302 91v-130q-72 -44 -156.5 -67.5t-159.5 -23.5q-214 0 -336 128t-122 352zM426 1326q0 60 38.5 98t98 38t98 -38t38.5 -98 q0 -61 -38.5 -98.5t-98 -37.5t-98 37.5t-38.5 98.5z" />
<glyph unicode="&#x10c;" horiz-adv-x="1190" d="M140 581v224q0 288 142 443t403 155q170 0 363 -96v-134q-198 93 -349 93q-387 0 -387 -437v-272q0 -437 387 -437q151 0 349 93v-134q-191 -95 -363 -95q-261 0 -403 154.5t-142 442.5zM354 1779h120l179 -200h5l179 200h120l-252 -287h-99z" />
<glyph unicode="&#x10d;" horiz-adv-x="1027" d="M130 464v138q0 224 122 352t336 128q75 0 159.5 -24t156.5 -67v-130q-158 90 -302 90q-310 0 -310 -337v-164q0 -172 78.5 -254t231.5 -82q144 0 302 91v-130q-72 -44 -156.5 -67.5t-159.5 -23.5q-214 0 -336 128t-122 352zM261 1479h120l180 -222h2l179 222h121 l-247 -308h-109z" />
<glyph unicode="&#x10e;" horiz-adv-x="1329" d="M180 0v1386h434q281 0 428.5 -147.5t147.5 -433.5v-224q0 -286 -147.5 -433.5t-428.5 -147.5h-434zM329 1779h119l181 -200h4l180 200h120l-252 -287h-100zM345 132h288q192 0 288.5 104t96.5 325v264q0 221 -96.5 324.5t-288.5 103.5h-288v-1121z" />
<glyph unicode="&#x10f;" horiz-adv-x="1161" d="M130 436v174q0 236 120.5 354t339.5 118q120 0 245 -66v535h158v-1222q0 -185 41 -329h-146q-25 90 -38 190l-66 -58q-90 -78 -162.5 -113t-155.5 -35q-156 0 -246 114.5t-90 337.5zM292 434q0 -168 53.5 -241t165.5 -73q57 0 116 30t133 90l75 64v594q-111 55 -227 55 q-165 0 -240.5 -77t-75.5 -258v-184zM1107 1448q0 46 29.5 74.5t76 28.5t76 -28.5t29.5 -74.5q0 -28 -11 -57t-41 -86l-78 -145h-71l85 182q-42 3 -68.5 33t-26.5 73z" />
<glyph unicode="&#x110;" horiz-adv-x="1329" d="M49 658v104h131v624h434q281 0 428.5 -147.5t147.5 -433.5v-224q0 -286 -147.5 -433.5t-428.5 -147.5h-434v658h-131zM345 132h288q192 0 288.5 104t96.5 325v264q0 221 -96.5 324.5t-288.5 103.5h-288v-491h330v-104h-330v-526z" />
<glyph unicode="&#x111;" horiz-adv-x="1161" d="M130 436v174q0 236 120.5 354t339.5 118q120 0 245 -66v231h-304v97h304v207h158v-207h176v-97h-176v-918q0 -185 41 -329h-146q-25 90 -38 190l-66 -58q-90 -78 -162.5 -113t-155.5 -35q-156 0 -246 114.5t-90 337.5zM292 434q0 -168 53.5 -241t165.5 -73q57 0 116 30 t133 90l75 64v594q-111 55 -227 55q-165 0 -240.5 -77t-75.5 -258v-184z" />
<glyph unicode="&#x112;" horiz-adv-x="1186" d="M180 0v1386h840v-133h-675v-481h621v-131h-621v-509h675v-132h-840zM314 1583v109h567v-109h-567z" />
<glyph unicode="&#x113;" horiz-adv-x="1085" d="M130 453v149q0 222 117.5 351t313.5 129q189 0 297 -108.5t108 -324.5v-146h-674v-59q0 -330 289 -330q159 0 362 91v-130q-189 -91 -376 -91q-207 0 -322 123t-115 346zM265 1270v110h564v-110h-564zM292 622h529v29q0 85 -17.5 144t-52 93.5t-80.5 49.5t-108 15 q-125 0 -198 -83t-73 -248z" />
<glyph unicode="&#x114;" horiz-adv-x="1186" d="M180 0v1386h840v-133h-675v-481h621v-131h-621v-509h675v-132h-840zM310 1769h108l6 -30q26 -130 174 -130t174 130l6 30h108l-7 -42q-17 -106 -90.5 -158.5t-190.5 -52.5t-191 53t-91 158z" />
<glyph unicode="&#x115;" horiz-adv-x="1085" d="M130 453v149q0 222 117.5 351t313.5 129q189 0 297 -108.5t108 -324.5v-146h-674v-59q0 -330 289 -330q159 0 362 91v-130q-189 -91 -376 -91q-207 0 -322 123t-115 346zM261 1458h108l4 -29q10 -73 55.5 -108.5t120 -35.5t120 35.5t55.5 108.5l4 29h107l-6 -41 q-17 -113 -90 -169t-190.5 -56t-191 56t-90.5 169zM292 622h529v29q0 85 -17.5 144t-52 93.5t-80.5 49.5t-108 15q-125 0 -198 -83t-73 -248z" />
<glyph unicode="&#x116;" horiz-adv-x="1186" d="M180 0v1386h840v-133h-675v-481h621v-131h-621v-509h675v-132h-840zM462 1642q0 61 38 99t97.5 38t98 -38t38.5 -99t-38 -98.5t-98 -37.5t-98 37.5t-38 98.5z" />
<glyph unicode="&#x117;" horiz-adv-x="1085" d="M130 453v149q0 222 117.5 351t313.5 129q189 0 297 -108.5t108 -324.5v-146h-674v-59q0 -330 289 -330q159 0 362 91v-130q-189 -91 -376 -91q-207 0 -322 123t-115 346zM292 622h529v29q0 85 -17.5 144t-52 93.5t-80.5 49.5t-108 15q-125 0 -198 -83t-73 -248zM412 1326 q0 60 38.5 98t98 38t98 -38t38.5 -98q0 -61 -38.5 -98.5t-98 -37.5t-98 37.5t-38.5 98.5z" />
<glyph unicode="&#x118;" horiz-adv-x="1186" d="M180 0v1386h840v-133h-675v-481h621v-131h-621v-509h675v-132l-112 -103q-31 -30 -42.5 -48.5t-11.5 -38.5v-5q0 -47 68 -47q44 0 98 13v-91q-64 -17 -124 -17q-74 0 -116 32t-42 88v8q0 62 75 126l97 83h-730z" />
<glyph unicode="&#x119;" horiz-adv-x="1085" d="M130 453v149q0 222 117.5 351t313.5 129q189 0 297 -108.5t108 -324.5v-146h-674v-59q0 -330 289 -330q159 0 362 91v-130q-130 -64 -272 -83l-102 -95q-32 -30 -43 -48.5t-11 -38.5v-5q0 -47 69 -47q43 0 97 13v-91q-65 -17 -124 -17q-75 0 -116.5 32t-41.5 88v8 q0 62 75 126l78 67q-200 4 -311 127.5t-111 341.5zM292 622h529v29q0 85 -17.5 144t-52 93.5t-80.5 49.5t-108 15q-125 0 -198 -83t-73 -248z" />
<glyph unicode="&#x11a;" horiz-adv-x="1186" d="M180 0v1386h840v-133h-675v-481h621v-131h-621v-509h675v-132h-840zM296 1779h120l180 -200h4l180 200h120l-253 -287h-99z" />
<glyph unicode="&#x11b;" horiz-adv-x="1085" d="M130 453v149q0 222 117.5 351t313.5 129q189 0 297 -108.5t108 -324.5v-146h-674v-59q0 -330 289 -330q159 0 362 91v-130q-189 -91 -376 -91q-207 0 -322 123t-115 346zM246 1479h120l180 -222h2l180 222h120l-246 -308h-110zM292 622h529v29q0 85 -17.5 144t-52 93.5 t-80.5 49.5t-108 15q-125 0 -198 -83t-73 -248z" />
<glyph unicode="&#x11e;" horiz-adv-x="1296" d="M140 581v224q0 291 147 444.5t431 153.5q92 0 179.5 -23t192.5 -71v-134q-117 51 -198.5 71t-169.5 20q-205 0 -307.5 -107.5t-102.5 -329.5v-272q0 -230 97 -336.5t290 -106.5q75 0 155.5 15.5t138.5 40.5v420h-338v130h482v-645q-89 -40 -213 -65.5t-235 -25.5 q-549 0 -549 597zM407 1769h108l6 -30q26 -130 174 -130t174 130l6 30h108l-6 -42q-17 -105 -91 -158t-191 -53t-190.5 52.5t-90.5 158.5z" />
<glyph unicode="&#x11f;" horiz-adv-x="1161" d="M130 478v124q0 241 127.5 360.5t373.5 119.5q182 0 362 -66v-987q0 -197 -110 -297.5t-324 -100.5q-166 0 -348 59v128q185 -62 341 -62q146 0 214.5 60.5t68.5 199.5v219l-45 -40q-97 -87 -169.5 -120.5t-154.5 -33.5q-156 0 -246 111t-90 326zM292 478 q0 -159 55 -229.5t168 -70.5q55 0 110.5 27.5t134.5 92.5l75 64v550q-60 23 -110.5 32t-116.5 9q-164 0 -240 -79.5t-76 -263.5v-132zM312 1458h108l4 -29q11 -73 56 -108.5t119.5 -35.5t120 35.5t56.5 108.5l4 29h108l-7 -41q-17 -113 -90.5 -169t-190.5 -56t-191 56 t-91 169z" />
<glyph unicode="&#x120;" horiz-adv-x="1296" d="M140 581v224q0 291 147 444.5t431 153.5q92 0 179.5 -23t192.5 -71v-134q-117 51 -198.5 71t-169.5 20q-205 0 -307.5 -107.5t-102.5 -329.5v-272q0 -230 97 -336.5t290 -106.5q75 0 155.5 15.5t138.5 40.5v420h-338v130h482v-645q-89 -40 -213 -65.5t-235 -25.5 q-549 0 -549 597zM559 1642q0 61 38 99t97.5 38t98 -38t38.5 -99t-38 -98.5t-98 -37.5t-98 37.5t-38 98.5z" />
<glyph unicode="&#x121;" horiz-adv-x="1161" d="M130 478v124q0 241 127.5 360.5t373.5 119.5q182 0 362 -66v-987q0 -197 -110 -297.5t-324 -100.5q-166 0 -348 59v128q185 -62 341 -62q146 0 214.5 60.5t68.5 199.5v219l-45 -40q-97 -87 -169.5 -120.5t-154.5 -33.5q-156 0 -246 111t-90 326zM292 478 q0 -159 55 -229.5t168 -70.5q55 0 110.5 27.5t134.5 92.5l75 64v550q-60 23 -110.5 32t-116.5 9q-164 0 -240 -79.5t-76 -263.5v-132zM464 1326q0 60 38 98t97.5 38t98 -38t38.5 -98q0 -61 -38 -98.5t-98 -37.5t-98 37.5t-38 98.5z" />
<glyph unicode="&#x122;" horiz-adv-x="1296" d="M140 581v224q0 291 147 444.5t431 153.5q92 0 179.5 -23t192.5 -71v-134q-117 51 -198.5 71t-169.5 20q-205 0 -307.5 -107.5t-102.5 -329.5v-272q0 -230 97 -336.5t290 -106.5q75 0 155.5 15.5t138.5 40.5v420h-338v130h482v-645q-89 -40 -213 -65.5t-235 -25.5 q-549 0 -549 597zM590 -176q0 46 29 74.5t75.5 28.5t76.5 -28.5t30 -74.5q0 -29 -10.5 -56.5t-42.5 -85.5l-77 -146h-71l85 182q-42 3 -68.5 33t-26.5 73z" />
<glyph unicode="&#x123;" horiz-adv-x="1161" d="M130 478v124q0 241 127.5 360.5t373.5 119.5q182 0 362 -66v-987q0 -197 -110 -297.5t-324 -100.5q-166 0 -348 59v128q185 -62 341 -62q146 0 214.5 60.5t68.5 199.5v219l-45 -40q-97 -87 -169.5 -120.5t-154.5 -33.5q-156 0 -246 111t-90 326zM292 478 q0 -159 55 -229.5t168 -70.5q55 0 110.5 27.5t134.5 92.5l75 64v550q-60 23 -110.5 32t-116.5 9q-164 0 -240 -79.5t-76 -263.5v-132zM494 1251q0 30 10.5 58t41.5 83l66 120h71l-73 -158q42 -3 68.5 -32t26.5 -71q0 -46 -29.5 -75.5t-75.5 -29.5t-76 29.5t-30 75.5z" />
<glyph unicode="&#x126;" horiz-adv-x="1336" d="M45 1084v104h135v198h163v-198h650v198h163v-198h135v-104h-135v-1084h-163v637h-650v-637h-163v1084h-135zM343 782h650v302h-650v-302z" />
<glyph unicode="&#x127;" horiz-adv-x="1151" d="M-6 1247v97h176v207h157v-207h302v-97h-302v-357l35 28q104 89 177 126.5t154 37.5q143 0 223.5 -88.5t80.5 -233.5v-760h-158v732q0 213 -188 213q-55 0 -115.5 -31t-142.5 -99l-66 -53v-762h-157v1247h-176z" />
<glyph unicode="&#x128;" horiz-adv-x="898" d="M126 0v118h243v1150h-243v118h648v-118h-243v-1150h243v-118h-648zM142 1531v105l14 14q81 91 158 91q33 0 60 -9t62 -32l61 -39q31 -21 49.5 -29t41.5 -8q34 0 65.5 19.5t80.5 73.5l21 20v-105l-13 -14q-82 -92 -158 -92q-33 0 -60 9t-62 33l-61 39q-31 21 -49.5 29 t-41.5 8q-35 0 -66 -19.5t-80 -73.5z" />
<glyph unicode="&#x129;" horiz-adv-x="632" d="M31 1218v106l12 14q38 43 80 67t80 24q33 0 60 -9t62 -32l60 -40q31 -21 49.5 -29t41.5 -8q34 0 65.5 20t80.5 74l21 20v-105l-12 -15q-38 -42 -79.5 -66.5t-79.5 -24.5q-33 0 -60 9t-63 32l-59 40q-31 21 -49.5 29t-41.5 8q-35 0 -66.5 -19.5t-80.5 -73.5zM62 941v125 h354v-1066h-159v941h-195z" />
<glyph unicode="&#x12a;" horiz-adv-x="898" d="M126 0v118h243v1150h-243v118h648v-118h-243v-1150h243v-118h-648zM166 1583v109h566v-109h-566z" />
<glyph unicode="&#x12b;" horiz-adv-x="632" d="M54 1270v110h564v-110h-564zM62 941v125h354v-1066h-159v941h-195z" />
<glyph unicode="&#x12c;" horiz-adv-x="898" d="M126 0v118h243v1150h-243v118h648v-118h-243v-1150h243v-118h-648zM162 1769h107l6 -30q26 -130 173.5 -130t173.5 130l7 30h107l-6 -42q-17 -105 -91 -158t-190.5 -53t-190 52.5t-90.5 158.5z" />
<glyph unicode="&#x12d;" horiz-adv-x="632" d="M49 1458h109l4 -29q10 -73 55.5 -108.5t120 -35.5t120 35.5t55.5 108.5l4 29h107l-6 -41q-17 -113 -90 -169t-190.5 -56t-191.5 56t-90 169zM62 941v125h354v-1066h-159v941h-195z" />
<glyph unicode="&#x12e;" horiz-adv-x="898" d="M126 0v118h243v1150h-243v118h648v-118h-243v-1150h243v-118l-112 -103q-32 -30 -43 -48.5t-11 -38.5v-5q0 -47 69 -47q42 0 97 13v-91q-65 -17 -125 -17q-74 0 -115.5 32t-41.5 88v8q0 62 75 126l97 83h-538z" />
<glyph unicode="&#x12f;" horiz-adv-x="632" d="M62 941v125h354v-1066l-112 -103q-31 -30 -42.5 -48.5t-11.5 -38.5v-5q0 -47 68 -47q44 0 98 13v-91q-64 -17 -124 -17q-74 0 -116 32t-42 88v8q0 62 75 126l97 83h-49v941h-195zM211 1354q0 56 34 90.5t90 34.5q55 0 90 -34.5t35 -90.5q0 -54 -35 -88.5t-90 -34.5 t-89.5 34.5t-34.5 88.5z" />
<glyph unicode="&#x130;" horiz-adv-x="898" d="M126 0v118h243v1150h-243v118h648v-118h-243v-1150h243v-118h-648zM312 1642q0 61 38.5 99t98 38t98.5 -38.5t39 -98.5q0 -61 -39 -98.5t-98.5 -37.5t-98 37.5t-38.5 98.5z" />
<glyph unicode="&#x131;" horiz-adv-x="632" d="M62 941v125h354v-1066h-159v941h-195z" />
<glyph unicode="&#x132;" horiz-adv-x="1952" d="M126 0v118h243v1150h-243v118h648v-118h-243v-1150h243v-118h-648zM991 93v136q196 -109 357 -109q294 0 294 316v819h-416v131h570v-930q0 -235 -111 -353.5t-324 -118.5q-193 0 -370 109z" />
<glyph unicode="&#x133;" horiz-adv-x="1263" d="M62 941v125h354v-1066h-159v941h-195zM211 1354q0 56 34 90.5t90 34.5q55 0 90 -34.5t35 -90.5q0 -54 -35 -88.5t-90 -34.5t-89.5 34.5t-34.5 88.5zM542 -211q93 -27 159 -27q93 0 141 51t48 167v961h-195v125h353v-1089q0 -167 -83 -256.5t-235 -89.5q-67 0 -188 30v128 zM844 1354q0 57 34 91t90 34q54 0 89 -34.5t35 -90.5q0 -54 -35 -88.5t-89 -34.5q-56 0 -90 34.5t-34 88.5z" />
<glyph unicode="&#x136;" horiz-adv-x="1265" d="M180 0v1386h163v-757h2q14 22 32 46l576 711h172l-463 -579l515 -807h-190l-435 689l-209 -257v-432h-163zM523 -176q0 46 30 74.5t76.5 28.5t75.5 -28.5t29 -74.5q0 -30 -10 -57.5t-41 -84.5l-79 -146h-71l85 182q-41 3 -68 33t-27 73z" />
<glyph unicode="&#x137;" horiz-adv-x="1109" d="M170 0v1551h157v-1018h2q11 21 52 67l430 466h162l-363 -402l424 -664h-184l-349 552l-174 -183v-369h-157zM458 -176q0 46 29 74.5t75.5 28.5t76.5 -28.5t30 -74.5q0 -29 -10.5 -56.5t-42.5 -85.5l-79 -146h-69l84 182q-41 3 -67.5 33t-26.5 73z" />
<glyph unicode="&#x139;" horiz-adv-x="1151" d="M180 0v1386h165v-1256h664v-130h-829zM201 1492l178 287h132l-193 -287h-117z" />
<glyph unicode="&#x13a;" horiz-adv-x="590" d="M20 1427v124h353v-1551h-158v1427h-195zM229 1705l191 308h132l-205 -308h-118z" />
<glyph unicode="&#x13b;" horiz-adv-x="1151" d="M180 0v1386h165v-1256h664v-130h-829zM490 -176q0 46 29.5 74.5t76 28.5t76 -28.5t29.5 -74.5q0 -30 -10.5 -57.5t-41.5 -84.5l-78 -146h-70l85 182q-42 3 -69 33t-27 73z" />
<glyph unicode="&#x13c;" horiz-adv-x="590" d="M20 1427v124h353v-1551h-158v1427h-195zM190 -176q0 46 29.5 74.5t76 28.5t76 -28.5t29.5 -74.5q0 -30 -10.5 -57.5t-41.5 -84.5l-78 -146h-70l85 182q-42 3 -69 33t-27 73z" />
<glyph unicode="&#x13d;" horiz-adv-x="1151" d="M180 0v1386h165v-1256h664v-130h-829zM594 1299q0 46 29.5 75t75.5 29t76 -29t30 -75q0 -30 -10.5 -57t-42.5 -86l-77 -145h-71l85 183q-42 3 -68.5 32.5t-26.5 72.5z" />
<glyph unicode="&#x13e;" horiz-adv-x="590" d="M20 1427v124h353v-1551h-158v1427h-195zM486 1448q0 46 29.5 74.5t76 28.5t76 -28.5t29.5 -74.5q0 -29 -11 -58.5t-41 -84.5l-78 -145h-70l84 182q-42 3 -68.5 33t-26.5 73z" />
<glyph unicode="&#x13f;" horiz-adv-x="1151" d="M180 0v1386h165v-1256h664v-130h-829zM590 782q0 60 38.5 98t98 38t98 -38t38.5 -98q0 -62 -38.5 -99.5t-98.5 -37.5t-98 37.5t-38 99.5z" />
<glyph unicode="&#x140;" horiz-adv-x="803" d="M20 1427v124h353v-1551h-158v1427h-195zM486 776q0 60 38.5 98t98 38t98.5 -38t39 -98q0 -62 -39 -99.5t-99 -37.5t-98 37.5t-38 99.5z" />
<glyph unicode="&#x141;" horiz-adv-x="1151" d="M49 561v110l131 59v656h165v-581l338 152v-111l-338 -153v-563h664v-130h-829v618z" />
<glyph unicode="&#x142;" horiz-adv-x="590" d="M20 643v107l195 89v588h-195v124h353v-641l196 89v-107l-196 -89v-803h-158v732z" />
<glyph unicode="&#x143;" horiz-adv-x="1327" d="M180 0v1386h165l600 -1043q37 -64 56 -105h2v1148h147v-1386h-163l-604 1038q-44 80 -56 106h-2v-1144h-145zM600 1492l178 287h132l-192 -287h-118z" />
<glyph unicode="&#x144;" horiz-adv-x="1155" d="M128 1066h147q25 -90 37 -191l50 43q104 89 177 126.5t154 37.5q143 0 223.5 -88.5t80.5 -233.5v-760h-158v732q0 213 -188 213q-55 0 -115.5 -31t-142.5 -99l-66 -53v-762h-157v736q0 174 -42 330zM519 1171l190 308h133l-205 -308h-118z" />
<glyph unicode="&#x145;" horiz-adv-x="1327" d="M180 0v1386h165l600 -1043q37 -64 56 -105h2v1148h147v-1386h-163l-604 1038q-44 80 -56 106h-2v-1144h-145zM559 -176q0 46 29 74.5t75.5 28.5t76.5 -28.5t30 -74.5q0 -30 -10.5 -57.5t-41.5 -84.5l-79 -146h-70l84 182q-41 3 -67.5 33t-26.5 73z" />
<glyph unicode="&#x146;" horiz-adv-x="1155" d="M128 1066h147q25 -90 37 -191l50 43q104 89 177 126.5t154 37.5q143 0 223.5 -88.5t80.5 -233.5v-760h-158v732q0 213 -188 213q-55 0 -115.5 -31t-142.5 -99l-66 -53v-762h-157v736q0 174 -42 330zM480 -176q0 46 29.5 74.5t76 28.5t76 -28.5t29.5 -74.5 q0 -30 -10.5 -57.5t-41.5 -84.5l-78 -146h-71l85 182q-42 3 -68.5 33t-26.5 73z" />
<glyph unicode="&#x147;" horiz-adv-x="1327" d="M180 0v1386h165l600 -1043q37 -64 56 -105h2v1148h147v-1386h-163l-604 1038q-44 80 -56 106h-2v-1144h-145zM362 1779h120l180 -200h4l180 200h120l-252 -287h-100z" />
<glyph unicode="&#x148;" horiz-adv-x="1155" d="M128 1066h147q25 -90 37 -191l50 43q104 89 177 126.5t154 37.5q143 0 223.5 -88.5t80.5 -233.5v-760h-158v732q0 213 -188 213q-55 0 -115.5 -31t-142.5 -99l-66 -53v-762h-157v736q0 174 -42 330zM284 1479h119l181 -222h2l180 222h120l-247 -308h-110z" />
<glyph unicode="&#x14a;" horiz-adv-x="1327" d="M180 0v1386h165l600 -1043q37 -64 56 -105h2v1148h147v-1438q0 -157 -78 -237t-224 -80q-64 0 -184 30v122q92 -27 155 -27q88 0 130 42.5t42 149.5v44l-608 1046q-44 80 -56 106h-2v-1144h-145z" />
<glyph unicode="&#x14b;" horiz-adv-x="1155" d="M128 1066h147q25 -90 37 -191l50 43q104 89 177 126.5t154 37.5q143 0 223.5 -88.5t80.5 -233.5v-812q0 -156 -73.5 -236.5t-205.5 -80.5q-76 0 -166 30v126q75 -25 131 -25q78 0 117 42t39 144v784q0 213 -188 213q-55 0 -115.5 -31t-142.5 -99l-66 -53v-762h-157v736 q0 174 -42 330z" />
<glyph unicode="&#x14c;" horiz-adv-x="1340" d="M140 581v224q0 287 139.5 442.5t391 155.5t390.5 -155.5t139 -442.5v-224q0 -287 -139 -442t-390.5 -155t-391 155t-139.5 442zM312 557q0 -218 95.5 -328.5t263 -110.5t262.5 110.5t95 328.5v272q0 218 -95 328.5t-262.5 110.5t-263 -110.5t-95.5 -328.5v-272zM387 1583 v109h566v-109h-566z" />
<glyph unicode="&#x14d;" horiz-adv-x="1143" d="M130 464v138q0 223 119.5 351.5t323.5 128.5t323.5 -128.5t119.5 -351.5v-138q0 -223 -119.5 -351.5t-323.5 -128.5t-323.5 128.5t-119.5 351.5zM290 1270v110h564v-110h-564zM292 450q0 -171 73.5 -254.5t207 -83.5t207.5 83.5t74 254.5v164q0 171 -74 255t-207.5 84 t-207 -83.5t-73.5 -255.5v-164z" />
<glyph unicode="&#x14e;" horiz-adv-x="1340" d="M140 581v224q0 287 139.5 442.5t391 155.5t390.5 -155.5t139 -442.5v-224q0 -287 -139 -442t-390.5 -155t-391 155t-139.5 442zM312 557q0 -218 95.5 -328.5t263 -110.5t262.5 110.5t95 328.5v272q0 218 -95 328.5t-262.5 110.5t-263 -110.5t-95.5 -328.5v-272zM383 1769 h107l7 -30q26 -130 173.5 -130t173.5 130l6 30h107l-6 -42q-17 -106 -90 -158.5t-190 -52.5t-191 53t-91 158z" />
<glyph unicode="&#x14f;" horiz-adv-x="1143" d="M130 464v138q0 223 119.5 351.5t323.5 128.5t323.5 -128.5t119.5 -351.5v-138q0 -223 -119.5 -351.5t-323.5 -128.5t-323.5 128.5t-119.5 351.5zM286 1458h107l4 -29q10 -73 55.5 -108.5t120 -35.5t120 35.5t55.5 108.5l4 29h109l-7 -41q-16 -113 -90 -169t-191.5 -56 t-190.5 56t-90 169zM292 450q0 -171 73.5 -254.5t207 -83.5t207.5 83.5t74 254.5v164q0 171 -74 255t-207.5 84t-207 -83.5t-73.5 -255.5v-164z" />
<glyph unicode="&#x150;" horiz-adv-x="1340" d="M140 581v224q0 287 139.5 442.5t391 155.5t390.5 -155.5t139 -442.5v-224q0 -287 -139 -442t-390.5 -155t-391 155t-139.5 442zM312 557q0 -218 95.5 -328.5t263 -110.5t262.5 110.5t95 328.5v272q0 218 -95 328.5t-262.5 110.5t-263 -110.5t-95.5 -328.5v-272zM482 1492 l178 287h120l-180 -287h-118zM720 1492l188 287h122l-195 -287h-115z" />
<glyph unicode="&#x151;" horiz-adv-x="1143" d="M130 464v138q0 223 119.5 351.5t323.5 128.5t323.5 -128.5t119.5 -351.5v-138q0 -223 -119.5 -351.5t-323.5 -128.5t-323.5 128.5t-119.5 351.5zM292 450q0 -171 73.5 -254.5t207 -83.5t207.5 83.5t74 254.5v164q0 171 -74 255t-207.5 84t-207 -83.5t-73.5 -255.5v-164z M381 1171l190 308h120l-194 -308h-116zM616 1171l203 308h120l-205 -308h-118z" />
<glyph unicode="&#x152;" horiz-adv-x="1993" d="M140 581v224q0 286 147 433.5t429 147.5h1108v-137h-674v-477h621v-131h-621v-509h674v-132h-1108q-282 0 -429 147.5t-147 433.5zM312 561q0 -221 96.5 -325t288.5 -104h288v1121h-288q-192 0 -288.5 -103.5t-96.5 -324.5v-264z" />
<glyph unicode="&#x153;" horiz-adv-x="1806" d="M130 464v138q0 222 117.5 351t313.5 129q134 0 230 -61t144 -175q47 114 140 175t222 61q88 0 159 -26.5t123 -78.5t80.5 -135.5t28.5 -192.5v-146h-674v-59q0 -330 291 -330q159 0 363 91v-130q-190 -91 -379 -91q-128 0 -219.5 59t-138.5 170q-48 -110 -143 -169.5 t-227 -59.5q-196 0 -313.5 129t-117.5 351zM292 450q0 -171 73.5 -254.5t207 -83.5t207.5 83.5t74 254.5v164q0 171 -74 255t-207.5 84t-207 -83.5t-73.5 -255.5v-164zM1014 622h529v29q0 85 -17.5 144t-52 93.5t-80.5 49.5t-108 15q-125 0 -198 -83t-73 -248z" />
<glyph unicode="&#x154;" horiz-adv-x="1289" d="M180 0v1386h503q212 0 327 -90t115 -252v-61q0 -120 -77 -203t-217 -114q68 -50 148 -220l209 -446h-177l-196 438q-35 77 -70 124t-79 71h-323v-633h-163zM343 758h328q133 0 206.5 57t73.5 166v55q0 109 -73.5 166t-206.5 57h-328v-501zM563 1492l177 287h133 l-192 -287h-118z" />
<glyph unicode="&#x155;" horiz-adv-x="862" d="M128 1066h147q25 -94 37 -193l63 64q68 72 127.5 106.5t124.5 34.5q60 0 125 -26v-138q-67 21 -130 21q-56 0 -106 -28t-115 -90l-74 -71v-746h-157v736q0 174 -42 330zM393 1171l191 308h132l-205 -308h-118z" />
<glyph unicode="&#x156;" horiz-adv-x="1289" d="M180 0v1386h503q212 0 327 -90t115 -252v-61q0 -120 -77 -203t-217 -114q68 -50 148 -220l209 -446h-177l-196 438q-35 77 -70 124t-79 71h-323v-633h-163zM343 758h328q133 0 206.5 57t73.5 166v55q0 109 -73.5 166t-206.5 57h-328v-501zM521 -176q0 46 30 74.5 t76.5 28.5t75.5 -28.5t29 -74.5q0 -30 -10 -57.5t-41 -84.5l-79 -146h-71l85 182q-41 3 -68 33t-27 73z" />
<glyph unicode="&#x157;" horiz-adv-x="862" d="M128 1066h147q25 -94 37 -193l63 64q68 72 127.5 106.5t124.5 34.5q60 0 125 -26v-138q-67 21 -130 21q-56 0 -106 -28t-115 -90l-74 -71v-746h-157v736q0 174 -42 330zM146 -176q0 46 30 74.5t76.5 28.5t76 -28.5t29.5 -74.5q0 -30 -10.5 -57.5t-41.5 -84.5l-79 -146 h-69l84 182q-41 3 -68.5 33t-27.5 73z" />
<glyph unicode="&#x158;" horiz-adv-x="1289" d="M180 0v1386h503q212 0 327 -90t115 -252v-61q0 -120 -77 -203t-217 -114q68 -50 148 -220l209 -446h-177l-196 438q-35 77 -70 124t-79 71h-323v-633h-163zM325 1779h119l180 -200h5l180 200h120l-252 -287h-100zM343 758h328q133 0 206.5 57t73.5 166v55 q0 109 -73.5 166t-206.5 57h-328v-501z" />
<glyph unicode="&#x159;" horiz-adv-x="862" d="M128 1066h147q25 -94 37 -193l63 64q68 72 127.5 106.5t124.5 34.5q60 0 125 -26v-138q-67 21 -130 21q-56 0 -106 -28t-115 -90l-74 -71v-746h-157v736q0 174 -42 330zM160 1479h119l181 -222h2l179 222h121l-247 -308h-110z" />
<glyph unicode="&#x15a;" horiz-adv-x="1159" d="M122 93v134q226 -107 426 -107q163 0 255.5 57.5t92.5 153.5v40q0 82 -52.5 136t-181.5 91l-218 64q-167 47 -242.5 129t-75.5 216v35q0 75 32.5 140.5t92 114.5t151 77.5t202.5 28.5q197 0 391 -96v-134q-112 50 -201.5 71.5t-177.5 21.5q-163 0 -252 -59t-89 -155v-22 q0 -79 50.5 -128.5t183.5 -88.5l217 -65q168 -46 244 -134t76 -217v-62q0 -103 -62 -183t-171.5 -124t-247.5 -44q-118 0 -236 28t-207 81zM519 1492l178 287h132l-192 -287h-118z" />
<glyph unicode="&#x15b;" horiz-adv-x="973" d="M97 75v130q195 -91 375 -91q122 0 190 43t68 118v21q0 55 -37.5 92t-123.5 58l-218 55q-124 29 -186 94t-62 160v29q0 61 27 114.5t77 94.5t127 65t171 24q163 0 334 -85v-128q-101 46 -176.5 65t-151.5 19q-124 0 -190 -43.5t-66 -115.5v-10q0 -55 35.5 -89t123.5 -56 l219 -53q126 -28 188 -95.5t62 -168.5v-38q0 -132 -112 -216t-297 -84q-197 0 -377 91zM422 1171l190 308h132l-204 -308h-118z" />
<glyph unicode="&#x15e;" horiz-adv-x="1159" d="M122 93v134q226 -107 426 -107q163 0 255.5 57.5t92.5 153.5v40q0 82 -52.5 136t-181.5 91l-218 64q-167 47 -242.5 129t-75.5 216v35q0 75 32.5 140.5t92 114.5t151 77.5t202.5 28.5q197 0 391 -96v-134q-112 50 -201.5 71.5t-177.5 21.5q-163 0 -252 -59t-89 -155v-22 q0 -79 50.5 -128.5t183.5 -88.5l217 -65q168 -46 244 -134t76 -217v-62q0 -142 -113.5 -237t-299.5 -112l60 -67q34 -38 48 -67t14 -59v-8q0 -56 -43.5 -89t-117.5 -33q-67 0 -128 17v91q57 -13 101 -13q72 0 72 52v4q0 31 -39 83l-71 87q-109 5 -217 33t-190 76z" />
<glyph unicode="&#x15f;" horiz-adv-x="973" d="M97 75v130q195 -91 375 -91q122 0 190 43t68 118v21q0 55 -37.5 92t-123.5 58l-218 55q-124 29 -186 94t-62 160v29q0 61 27 114.5t77 94.5t127 65t171 24q163 0 334 -85v-128q-101 46 -176.5 65t-151.5 19q-124 0 -190 -43.5t-66 -115.5v-10q0 -55 35.5 -89t123.5 -56 l219 -53q126 -28 188 -95.5t62 -168.5v-38q0 -121 -93.5 -202t-252.5 -96l61 -67q34 -38 48 -67t14 -59v-8q0 -56 -43.5 -89t-117.5 -33q-67 0 -128 17v91q57 -13 101 -13q72 0 72 52v4q0 31 -39 83l-71 87q-175 9 -337 91z" />
<glyph unicode="&#x160;" horiz-adv-x="1159" d="M122 93v134q226 -107 426 -107q163 0 255.5 57.5t92.5 153.5v40q0 82 -52.5 136t-181.5 91l-218 64q-167 47 -242.5 129t-75.5 216v35q0 75 32.5 140.5t92 114.5t151 77.5t202.5 28.5q197 0 391 -96v-134q-112 50 -201.5 71.5t-177.5 21.5q-163 0 -252 -59t-89 -155v-22 q0 -79 50.5 -128.5t183.5 -88.5l217 -65q168 -46 244 -134t76 -217v-62q0 -103 -62 -183t-171.5 -124t-247.5 -44q-118 0 -236 28t-207 81zM282 1779h119l180 -200h5l180 200h120l-253 -287h-100z" />
<glyph unicode="&#x161;" horiz-adv-x="973" d="M97 75v130q195 -91 375 -91q122 0 190 43t68 118v21q0 55 -37.5 92t-123.5 58l-218 55q-124 29 -186 94t-62 160v29q0 61 27 114.5t77 94.5t127 65t171 24q163 0 334 -85v-128q-101 46 -176.5 65t-151.5 19q-124 0 -190 -43.5t-66 -115.5v-10q0 -55 35.5 -89t123.5 -56 l219 -53q126 -28 188 -95.5t62 -168.5v-38q0 -132 -112 -216t-297 -84q-197 0 -377 91zM186 1479h120l180 -222h2l181 222h119l-246 -308h-110z" />
<glyph unicode="&#x164;" horiz-adv-x="1216" d="M91 1255v131h1034v-131h-434v-1255h-166v1255h-434zM306 1779h120l180 -200h4l180 200h120l-252 -287h-99z" />
<glyph unicode="&#x165;" horiz-adv-x="949" d="M75 941v125h188v320h157v-320h411v-125h-411v-657q0 -87 39.5 -121.5t132.5 -34.5q109 0 239 64v-130q-64 -33 -140 -52.5t-143 -19.5q-147 0 -216 67.5t-69 215.5v668h-188zM584 1500q0 46 29 74.5t75.5 28.5t76 -28.5t29.5 -74.5q0 -29 -11 -58.5t-41 -85.5l-78 -144 h-70l85 182q-42 3 -68.5 33t-26.5 73z" />
<glyph unicode="&#x166;" horiz-adv-x="1216" d="M91 1255v131h1034v-131h-434v-489h302v-104h-302v-662h-166v662h-302v104h302v489h-434z" />
<glyph unicode="&#x167;" horiz-adv-x="949" d="M75 627v97h188v217h-188v125h188v320h157v-320h411v-125h-411v-217h411v-97h-411v-343q0 -87 39.5 -121.5t132.5 -34.5q109 0 239 64v-130q-64 -33 -140 -52.5t-143 -19.5q-147 0 -216 67.5t-69 215.5v354h-188z" />
<glyph unicode="&#x168;" horiz-adv-x="1275" d="M158 476v910h164v-928q0 -172 80.5 -255t240.5 -83q162 0 242.5 83t80.5 255v928h155v-910q0 -244 -124.5 -368t-357 -124t-357 124t-124.5 368zM331 1531v105l12 14q38 43 80 67t80 24q33 0 59.5 -9t61.5 -32l61 -39q31 -21 49.5 -29t41.5 -8q34 0 65.5 19.5t80.5 73.5 l21 20v-105l-12 -14q-38 -43 -80 -67.5t-79 -24.5q-33 0 -60 9t-63 33l-59 39q-31 21 -49.5 29t-41.5 8q-35 0 -66.5 -19.5t-81.5 -73.5z" />
<glyph unicode="&#x169;" horiz-adv-x="1155" d="M160 306v760h156v-733q0 -213 189 -213q56 0 116.5 31.5t142.5 98.5l65 54v762h158v-737q0 -173 41 -329h-147q-24 84 -37 190l-50 -44q-104 -88 -177 -125t-153 -37q-144 0 -224 88.5t-80 233.5zM267 1218v106l12 14q38 43 79.5 67t79.5 24q33 0 60 -9t63 -32l59 -40 q31 -21 50 -29t42 -8q34 0 65.5 20t80.5 74l21 20v-105l-12 -15q-38 -42 -80 -66.5t-80 -24.5q-33 0 -59.5 9t-61.5 32l-61 40q-31 21 -49.5 29t-41.5 8q-34 0 -65.5 -19.5t-80.5 -73.5z" />
<glyph unicode="&#x16a;" horiz-adv-x="1275" d="M158 476v910h164v-928q0 -172 80.5 -255t240.5 -83q162 0 242.5 83t80.5 255v928h155v-910q0 -244 -124.5 -368t-357 -124t-357 124t-124.5 368zM354 1583v109h566v-109h-566z" />
<glyph unicode="&#x16b;" horiz-adv-x="1155" d="M160 306v760h156v-733q0 -213 189 -213q56 0 116.5 31.5t142.5 98.5l65 54v762h158v-737q0 -173 41 -329h-147q-24 84 -37 190l-50 -44q-104 -88 -177 -125t-153 -37q-144 0 -224 88.5t-80 233.5zM290 1270v110h564v-110h-564z" />
<glyph unicode="&#x16c;" horiz-adv-x="1275" d="M158 476v910h164v-928q0 -172 80.5 -255t240.5 -83q162 0 242.5 83t80.5 255v928h155v-910q0 -244 -124.5 -368t-357 -124t-357 124t-124.5 368zM349 1769h109l6 -30q26 -130 173.5 -130t173.5 130l6 30h107l-6 -42q-17 -106 -90.5 -158.5t-190.5 -52.5t-191 53t-90 158z " />
<glyph unicode="&#x16d;" horiz-adv-x="1155" d="M160 306v760h156v-733q0 -213 189 -213q56 0 116.5 31.5t142.5 98.5l65 54v762h158v-737q0 -173 41 -329h-147q-24 84 -37 190l-50 -44q-104 -88 -177 -125t-153 -37q-144 0 -224 88.5t-80 233.5zM286 1458h107l4 -29q10 -73 55.5 -108.5t120 -35.5t120 35.5t55.5 108.5 l4 29h109l-7 -41q-16 -113 -90 -169t-191.5 -56t-190.5 56t-90 169z" />
<glyph unicode="&#x16e;" horiz-adv-x="1275" d="M158 476v910h164v-928q0 -172 80.5 -255t240.5 -83q162 0 242.5 83t80.5 255v928h155v-910q0 -244 -124.5 -368t-357 -124t-357 124t-124.5 368zM450 1663v13q0 79 53 132t134.5 53t133.5 -53t52 -132v-13q0 -79 -52 -132.5t-133.5 -53.5t-134.5 53.5t-53 132.5z M521 1665q0 -55 31 -88.5t85 -33.5t86 34t32 88v9q0 55 -32 88.5t-86 33.5t-85 -33.5t-31 -88.5v-9z" />
<glyph unicode="&#x16f;" horiz-adv-x="1155" d="M160 306v760h156v-733q0 -213 189 -213q56 0 116.5 31.5t142.5 98.5l65 54v762h158v-737q0 -173 41 -329h-147q-24 84 -37 190l-50 -44q-104 -88 -177 -125t-153 -37q-144 0 -224 88.5t-80 233.5zM377 1352v14q0 84 54.5 139.5t141.5 55.5q85 0 141 -55.5t56 -139.5v-14 q0 -83 -56 -139.5t-141 -56.5q-86 0 -141 56.5t-55 139.5zM444 1354q0 -58 36 -95t93 -37t91.5 37t34.5 95v10q0 58 -34.5 95t-91.5 37t-93 -37t-36 -95v-10z" />
<glyph unicode="&#x170;" horiz-adv-x="1275" d="M158 476v910h164v-928q0 -172 80.5 -255t240.5 -83q162 0 242.5 83t80.5 255v928h155v-910q0 -244 -124.5 -368t-357 -124t-357 124t-124.5 368zM448 1492l179 287h119l-179 -287h-119zM687 1492l188 287h122l-194 -287h-116z" />
<glyph unicode="&#x171;" horiz-adv-x="1155" d="M160 306v760h156v-733q0 -213 189 -213q56 0 116.5 31.5t142.5 98.5l65 54v762h158v-737q0 -173 41 -329h-147q-24 84 -37 190l-50 -44q-104 -88 -177 -125t-153 -37q-144 0 -224 88.5t-80 233.5zM379 1171l190 308h120l-195 -308h-115zM614 1171l203 308h120l-205 -308 h-118z" />
<glyph unicode="&#x172;" horiz-adv-x="1275" d="M158 476v910h164v-928q0 -172 80.5 -255t240.5 -83q162 0 242.5 83t80.5 255v928h155v-910q0 -213 -95.5 -335t-275.5 -149l-103 -95q-31 -30 -42 -48.5t-11 -38.5v-5q0 -47 68 -47q43 0 98 13v-91q-65 -17 -125 -17q-74 0 -115.5 32t-41.5 88v8q0 62 74 126l79 67 q-229 3 -351 127t-122 365z" />
<glyph unicode="&#x173;" horiz-adv-x="1155" d="M160 306v760h156v-733q0 -213 189 -213q56 0 116.5 31.5t142.5 98.5l65 54v762h158v-737q0 -173 41 -329l-112 -103q-31 -30 -42 -48.5t-11 -38.5v-5q0 -47 68 -47q43 0 97 13v-91q-64 -17 -124 -17q-74 0 -116 32t-42 88v8q0 62 75 126l97 83h-37q-24 84 -37 190 l-50 -44q-104 -88 -177 -125t-153 -37q-144 0 -224 88.5t-80 233.5z" />
<glyph unicode="&#x174;" horiz-adv-x="1739" d="M89 1386h159l218 -1055q10 -56 16 -134h4q7 62 25 134l273 1055h171l274 -1055q17 -65 24 -134h4q5 69 18 134l217 1055h158l-289 -1386h-194l-277 1111q-11 39 -19 91h-2q-10 -61 -19 -91l-277 -1111h-194zM569 1492l252 287h99l253 -287h-121l-179 198h-4l-180 -198 h-120z" />
<glyph unicode="&#x175;" horiz-adv-x="1569" d="M95 1066h153l198 -780q16 -70 22 -108h2q8 60 22 106l224 782h138l224 -782q4 -14 23 -106h2q2 28 20 108l197 780h155l-279 -1066h-172l-215 774q-15 63 -23 109h-2q-10 -60 -22 -109l-216 -774h-171zM484 1171l246 308h109l247 -308h-120l-180 221h-2l-180 -221h-120z " />
<glyph unicode="&#x176;" horiz-adv-x="1279" d="M95 1386h178l339 -681q29 -66 37 -91h2q8 25 38 91l341 681h156l-462 -922v-464h-165v460zM337 1492l253 287h99l252 -287h-120l-180 198h-4l-179 -198h-121z" />
<glyph unicode="&#x177;" horiz-adv-x="1056" d="M79 1066h165l263 -780q20 -60 33 -120h2q11 57 31 122l256 778h150l-385 -1147q-51 -155 -132 -219t-199 -64q-81 0 -166 25v128q86 -24 145 -24q69 0 110.5 28.5t79.5 113.5l34 70zM225 1171l247 308h109l246 -308h-120l-180 221h-2l-180 -221h-120z" />
<glyph unicode="&#x178;" horiz-adv-x="1279" d="M95 1386h178l339 -681q29 -66 37 -91h2q8 25 38 91l341 681h156l-462 -922v-464h-165v460zM371 1638q0 49 31 79.5t78 30.5t78.5 -30.5t31.5 -79.5q0 -47 -31.5 -77t-78.5 -30t-78 30t-31 77zM691 1638q0 50 30.5 80t77.5 30t78 -30.5t31 -79.5q0 -47 -31 -77t-78 -30 t-77.5 30t-30.5 77z" />
<glyph unicode="&#x179;" horiz-adv-x="1166" d="M134 0v124l671 1074q11 18 39 55v2h-700v131h886v-125l-666 -1066q-1 -1 -17 -26.5t-25 -36.5v-2h708v-130h-896zM519 1492l178 287h132l-192 -287h-118z" />
<glyph unicode="&#x17a;" horiz-adv-x="1004" d="M124 0v112l525 765q24 35 48 62v2h-561v125h743v-113l-525 -765q-7 -9 -46 -62v-2h573v-124h-757zM436 1171l191 308h133l-206 -308h-118z" />
<glyph unicode="&#x17b;" horiz-adv-x="1166" d="M134 0v124l671 1074q11 18 39 55v2h-700v131h886v-125l-666 -1066q-1 -1 -17 -26.5t-25 -36.5v-2h708v-130h-896zM446 1642q0 60 39 98.5t98.5 38.5t98 -38t38.5 -99t-38 -98.5t-98 -37.5t-99 37.5t-39 98.5z" />
<glyph unicode="&#x17c;" horiz-adv-x="1004" d="M124 0v112l525 765q24 35 48 62v2h-561v125h743v-113l-525 -765q-7 -9 -46 -62v-2h573v-124h-757zM366 1326q0 60 38.5 98t98 38t98 -38t38.5 -98q0 -61 -38 -98.5t-98 -37.5t-98.5 37.5t-38.5 98.5z" />
<glyph unicode="&#x17d;" horiz-adv-x="1166" d="M134 0v124l671 1074q11 18 39 55v2h-700v131h886v-125l-666 -1066q-1 -1 -17 -26.5t-25 -36.5v-2h708v-130h-896zM282 1779h119l180 -200h5l180 200h120l-253 -287h-100z" />
<glyph unicode="&#x17e;" horiz-adv-x="1004" d="M124 0v112l525 765q24 35 48 62v2h-561v125h743v-113l-525 -765q-7 -9 -46 -62v-2h573v-124h-757zM201 1479h119l181 -222h2l180 222h120l-246 -308h-111z" />
<glyph unicode="&#x192;" horiz-adv-x="1123" d="M41 16l28 120q60 -29 115 -29q57 0 91 28t47 94l118 557h-185l24 120h187l37 180q34 163 127 240t256 77q99 0 196 -39l-25 -123q-81 38 -165 38q-101 0 -154.5 -41.5t-75.5 -147.5l-40 -184h365l-25 -120h-364l-116 -548q-30 -143 -96 -198.5t-187 -55.5q-73 0 -158 32z " />
<glyph unicode="&#x1fc;" horiz-adv-x="1983" d="M58 0l834 1386h906v-133h-675v-481h620v-131h-620v-509h675v-132h-841v428h-483l-261 -428h-155zM548 552h409v697h-2q-23 -64 -65 -134zM981 1492l177 287h133l-193 -287h-117z" />
<glyph unicode="&#x1fd;" horiz-adv-x="1715" d="M105 279v33q0 136 123.5 217.5t377.5 90.5l160 7v117q0 114 -58.5 160.5t-180.5 46.5q-157 0 -337 -95v131q92 48 185 71.5t171 23.5q133 0 211.5 -51.5t105.5 -159.5q46 101 134 156t207 55q88 0 159 -26.5t123.5 -78.5t81.5 -135.5t29 -192.5v-146h-675v-59 q0 -330 290 -330q159 0 363 91v-130q-190 -91 -377 -91q-124 0 -218.5 53t-150.5 149l-74 -62q-87 -73 -172 -105.5t-184 -32.5q-131 0 -212.5 80t-81.5 213zM257 292q0 -84 44 -131t121 -47q63 0 122.5 23.5t134.5 73.5l109 73q-22 81 -22 169v56l-154 -6 q-189 -9 -272 -54.5t-83 -134.5v-22zM778 1171l190 308h133l-205 -308h-118zM922 622h530v29q0 85 -17.5 144t-52 93.5t-80.5 49.5t-108 15q-125 0 -198.5 -83t-73.5 -248z" />
<glyph unicode="&#x218;" horiz-adv-x="1159" d="M122 93v134q226 -107 426 -107q163 0 255.5 57.5t92.5 153.5v40q0 82 -52.5 136t-181.5 91l-218 64q-167 47 -242.5 129t-75.5 216v35q0 75 32.5 140.5t92 114.5t151 77.5t202.5 28.5q197 0 391 -96v-134q-112 50 -201.5 71.5t-177.5 21.5q-163 0 -252 -59t-89 -155v-22 q0 -79 50.5 -128.5t183.5 -88.5l217 -65q168 -46 244 -134t76 -217v-62q0 -103 -62 -183t-171.5 -124t-247.5 -44q-118 0 -236 28t-207 81zM478 -176q0 46 29.5 74.5t76 28.5t76 -28.5t29.5 -74.5q0 -30 -10.5 -57.5t-41.5 -84.5l-78 -146h-71l85 182q-42 3 -68.5 33 t-26.5 73z" />
<glyph unicode="&#x219;" horiz-adv-x="973" d="M97 75v130q195 -91 375 -91q122 0 190 43t68 118v21q0 55 -37.5 92t-123.5 58l-218 55q-124 29 -186 94t-62 160v29q0 61 27 114.5t77 94.5t127 65t171 24q163 0 334 -85v-128q-101 46 -176.5 65t-151.5 19q-124 0 -190 -43.5t-66 -115.5v-10q0 -55 35.5 -89t123.5 -56 l219 -53q126 -28 188 -95.5t62 -168.5v-38q0 -132 -112 -216t-297 -84q-197 0 -377 91zM383 -176q0 46 29 74.5t75.5 28.5t76.5 -28.5t30 -74.5q0 -30 -10.5 -57.5t-41.5 -84.5l-78 -146h-71l85 182q-42 3 -68.5 33t-26.5 73z" />
<glyph unicode="&#x21a;" horiz-adv-x="1216" d="M91 1255v131h1034v-131h-434v-1255h-166v1255h-434zM503 -176q0 46 29.5 74.5t76 28.5t76 -28.5t29.5 -74.5q0 -29 -10.5 -56.5t-41.5 -85.5l-78 -146h-71l85 182q-42 3 -68.5 33t-26.5 73z" />
<glyph unicode="&#x21b;" horiz-adv-x="949" d="M75 941v125h188v320h157v-320h411v-125h-411v-657q0 -87 39.5 -121.5t132.5 -34.5q109 0 239 64v-130q-64 -33 -140 -52.5t-143 -19.5q-147 0 -216 67.5t-69 215.5v668h-188zM424 -176q0 46 29.5 74.5t76 28.5t76 -28.5t29.5 -74.5q0 -30 -10 -57.5t-41 -84.5l-79 -146 h-71l85 182q-41 3 -68 33t-27 73z" />
<glyph unicode="&#x237;" horiz-adv-x="632" d="M-91 -211q93 -27 160 -27q92 0 140 51t48 167v961h-195v125h354v-1089q0 -167 -83.5 -256.5t-235.5 -89.5q-67 0 -188 30v128z" />
<glyph unicode="&#x2c6;" horiz-adv-x="1143" d="M271 1171l246 308h110l246 -308h-121l-179 221h-2l-180 -221h-120z" />
<glyph unicode="&#x2c7;" horiz-adv-x="1143" d="M271 1479h120l180 -222h2l179 222h121l-246 -308h-110z" />
<glyph unicode="&#x2d8;" horiz-adv-x="1143" d="M286 1458h107l4 -29q10 -73 55.5 -108.5t120 -35.5t120 35.5t55.5 108.5l4 29h109l-7 -41q-16 -113 -90 -169t-191.5 -56t-190.5 56t-90 169z" />
<glyph unicode="&#x2d9;" horiz-adv-x="1143" d="M436 1326q0 60 38.5 98t98 38t98 -38t38.5 -98q0 -61 -38.5 -98.5t-98 -37.5t-98 37.5t-38.5 98.5z" />
<glyph unicode="&#x2da;" horiz-adv-x="1143" d="M377 1352v14q0 84 54.5 139.5t141.5 55.5q85 0 141 -55.5t56 -139.5v-14q0 -83 -56 -139.5t-141 -56.5q-86 0 -141 56.5t-55 139.5zM444 1354q0 -58 36 -95t93 -37t91.5 37t34.5 95v10q0 58 -34.5 95t-91.5 37t-93 -37t-36 -95v-10z" />
<glyph unicode="&#x2db;" horiz-adv-x="1143" d="M373 -209q0 63 73 126l123 103l84 -20l-111 -103q-31 -30 -42.5 -48.5t-11.5 -38.5v-5q0 -47 69 -47q42 0 96 13v-91q-64 -17 -124 -17q-74 0 -115 32t-41 88v8z" />
<glyph unicode="&#x2dc;" horiz-adv-x="1143" d="M267 1218v106l12 14q38 43 79.5 67t79.5 24q33 0 60 -9t63 -32l59 -40q31 -21 50 -29t42 -8q34 0 65.5 20t80.5 74l21 20v-105l-12 -15q-38 -42 -80 -66.5t-80 -24.5q-33 0 -59.5 9t-61.5 32l-61 40q-31 21 -49.5 29t-41.5 8q-34 0 -65.5 -19.5t-80.5 -73.5z" />
<glyph unicode="&#x2dd;" horiz-adv-x="1143" d="M395 1171l191 308h119l-194 -308h-116zM631 1171l202 308h120l-205 -308h-117z" />
<glyph unicode="&#x1e80;" horiz-adv-x="1739" d="M89 1386h159l218 -1055q10 -56 16 -134h4q7 62 25 134l273 1055h171l274 -1055q17 -65 24 -134h4q5 69 18 134l217 1055h158l-289 -1386h-194l-277 1111q-11 39 -19 91h-2q-10 -61 -19 -91l-277 -1111h-194zM622 1779h133l178 -287h-118z" />
<glyph unicode="&#x1e81;" horiz-adv-x="1569" d="M95 1066h153l198 -780q16 -70 22 -108h2q8 60 22 106l224 782h138l224 -782q4 -14 23 -106h2q2 28 20 108l197 780h155l-279 -1066h-172l-215 774q-15 63 -23 109h-2q-10 -60 -22 -109l-216 -774h-171zM527 1479h133l190 -308h-116z" />
<glyph unicode="&#x1e82;" horiz-adv-x="1739" d="M89 1386h159l218 -1055q10 -56 16 -134h4q7 62 25 134l273 1055h171l274 -1055q17 -65 24 -134h4q5 69 18 134l217 1055h158l-289 -1386h-194l-277 1111q-11 39 -19 91h-2q-10 -61 -19 -91l-277 -1111h-194zM807 1492l178 287h132l-193 -287h-117z" />
<glyph unicode="&#x1e83;" horiz-adv-x="1569" d="M95 1066h153l198 -780q16 -70 22 -108h2q8 60 22 106l224 782h138l224 -782q4 -14 23 -106h2q2 28 20 108l197 780h155l-279 -1066h-172l-215 774q-15 63 -23 109h-2q-10 -60 -22 -109l-216 -774h-171zM720 1171l190 308h132l-205 -308h-117z" />
<glyph unicode="&#x1e84;" horiz-adv-x="1739" d="M89 1386h159l218 -1055q10 -56 16 -134h4q7 62 25 134l273 1055h171l274 -1055q17 -65 24 -134h4q5 69 18 134l217 1055h158l-289 -1386h-194l-277 1111q-11 39 -19 91h-2q-10 -61 -19 -91l-277 -1111h-194zM602 1638q0 49 31.5 79.5t78.5 30.5t78 -30.5t31 -79.5 q0 -47 -31 -77t-78 -30t-78.5 30t-31.5 77zM922 1638q0 50 30.5 80t77.5 30t78 -30.5t31 -79.5q0 -47 -31 -77t-77.5 -30t-77.5 30t-31 77z" />
<glyph unicode="&#x1e85;" horiz-adv-x="1569" d="M95 1066h153l198 -780q16 -70 22 -108h2q8 60 22 106l224 782h138l224 -782q4 -14 23 -106h2q2 28 20 108l197 780h155l-279 -1066h-172l-215 774q-15 63 -23 109h-2q-10 -60 -22 -109l-216 -774h-171zM517 1326q0 48 31 77.5t79 29.5q47 0 77 -30t30 -77 q0 -48 -30.5 -79t-76.5 -31q-48 0 -79 31t-31 79zM835 1326q0 47 31.5 77t78.5 30t77 -30t30 -77q0 -48 -30 -79t-77 -31q-46 0 -78 31.5t-32 78.5z" />
<glyph unicode="&#x1ebc;" horiz-adv-x="1186" d="M180 0v1386h840v-133h-675v-481h621v-131h-621v-509h675v-132h-840zM292 1531v105l12 14q38 43 80 67t80 24q32 0 59.5 -9t62.5 -32l59 -39q31 -21 50 -29t41 -8q35 0 66 19.5t81 73.5l21 20v-105l-12 -14q-38 -43 -80 -67.5t-80 -24.5q-33 0 -60 9t-62 33l-60 39 q-30 21 -49 29t-41 8q-35 0 -67 -19.5t-81 -73.5z" />
<glyph unicode="&#x1ebd;" horiz-adv-x="1085" d="M130 453v149q0 222 117.5 351t313.5 129q189 0 297 -108.5t108 -324.5v-146h-674v-59q0 -330 289 -330q159 0 362 91v-130q-189 -91 -376 -91q-207 0 -322 123t-115 346zM242 1218v106l13 14q37 43 79 67t80 24q33 0 59.5 -9t61.5 -32l61 -40q31 -21 49.5 -29t41.5 -8 q34 0 65.5 20t80.5 74l21 20v-105l-12 -15q-37 -42 -79 -66.5t-80 -24.5q-33 0 -60 9t-62 32l-60 40q-31 21 -49.5 29t-41.5 8q-35 0 -66.5 -19.5t-80.5 -73.5zM292 622h529v29q0 85 -17.5 144t-52 93.5t-80.5 49.5t-108 15q-125 0 -198 -83t-73 -248z" />
<glyph unicode="&#x1ef2;" horiz-adv-x="1279" d="M95 1386h178l339 -681q29 -66 37 -91h2q8 25 38 91l341 681h156l-462 -922v-464h-165v460zM393 1779h132l178 -287h-117z" />
<glyph unicode="&#x1ef3;" horiz-adv-x="1056" d="M79 1066h165l263 -780q20 -60 33 -120h2q11 57 31 122l256 778h150l-385 -1147q-51 -155 -132 -219t-199 -64q-81 0 -166 25v128q86 -24 145 -24q69 0 110.5 28.5t79.5 113.5l34 70zM269 1479h132l191 -308h-116z" />
<glyph unicode="&#x1ef8;" horiz-adv-x="1279" d="M95 1386h178l339 -681q29 -66 37 -91h2q8 25 38 91l341 681h156l-462 -922v-464h-165v460zM333 1531v105l12 14q38 43 80 67t80 24q33 0 60 -9t62 -32l60 -39q31 -21 49.5 -29t41.5 -8q34 0 65.5 19.5t80.5 73.5l21 20v-105l-12 -14q-38 -43 -80 -67.5t-79 -24.5 q-33 0 -60 9t-63 33l-59 39q-31 21 -49.5 29t-41.5 8q-35 0 -66.5 -19.5t-80.5 -73.5z" />
<glyph unicode="&#x1ef9;" horiz-adv-x="1056" d="M79 1066h165l263 -780q20 -60 33 -120h2q11 57 31 122l256 778h150l-385 -1147q-51 -155 -132 -219t-199 -64q-81 0 -166 25v128q86 -24 145 -24q69 0 110.5 28.5t79.5 113.5l34 70zM221 1218v106l12 14q38 43 80 67t80 24q33 0 60 -9t62 -32l60 -40q31 -21 49.5 -29 t41.5 -8q34 0 66 20t81 74l20 20v-105l-12 -15q-38 -42 -79.5 -66.5t-79.5 -24.5q-33 0 -59.5 9t-62.5 32l-60 40q-31 21 -50 29t-41 8q-35 0 -66 -19.5t-81 -73.5z" />
<glyph unicode="&#x2000;" horiz-adv-x="1006" />
<glyph unicode="&#x2001;" horiz-adv-x="2013" />
<glyph unicode="&#x2002;" horiz-adv-x="1006" />
<glyph unicode="&#x2003;" horiz-adv-x="2013" />
<glyph unicode="&#x2004;" horiz-adv-x="671" />
<glyph unicode="&#x2005;" horiz-adv-x="503" />
<glyph unicode="&#x2006;" horiz-adv-x="335" />
<glyph unicode="&#x2007;" horiz-adv-x="335" />
<glyph unicode="&#x2008;" horiz-adv-x="251" />
<glyph unicode="&#x2009;" horiz-adv-x="247" />
<glyph unicode="&#x200a;" horiz-adv-x="111" />
<glyph unicode="&#x2010;" horiz-adv-x="872" d="M91 662v137h693v-137h-693z" />
<glyph unicode="&#x2011;" horiz-adv-x="872" d="M91 662v137h693v-137h-693z" />
<glyph unicode="&#x2012;" horiz-adv-x="872" d="M91 662v137h693v-137h-693z" />
<glyph unicode="&#x2013;" horiz-adv-x="1147" d="M91 662v137h966v-137h-966z" />
<glyph unicode="&#x2014;" horiz-adv-x="1546" d="M91 662v137h1365v-137h-1365z" />
<glyph unicode="&#x2018;" horiz-adv-x="472" d="M103 1103q0 38 13 75.5t50 100.5l122 211h89l-127 -253q54 -4 87.5 -41t33.5 -93q0 -59 -37.5 -97t-95.5 -38q-59 0 -97 38t-38 97z" />
<glyph unicode="&#x2019;" horiz-adv-x="472" d="M99 985l124 252q-53 5 -86.5 42t-33.5 93q0 60 38 97t97 37q58 0 95.5 -37.5t37.5 -96.5q0 -37 -13.5 -76t-49.5 -100l-122 -211h-87z" />
<glyph unicode="&#x201a;" horiz-adv-x="472" d="M99 -267l124 255q-53 4 -86.5 40.5t-33.5 91.5q0 60 38 97.5t97 37.5q58 0 95.5 -38t37.5 -97q0 -36 -13.5 -74t-49.5 -102l-122 -211h-87z" />
<glyph unicode="&#x201c;" horiz-adv-x="819" d="M103 1103q0 38 13 75.5t50 100.5l122 211h89l-127 -253q54 -4 87.5 -41t33.5 -93q0 -59 -37.5 -97t-95.5 -38q-59 0 -97 38t-38 97zM448 1103q0 38 13.5 75.5t49.5 100.5l122 211h87l-124 -253q53 -4 86.5 -41t33.5 -93q0 -59 -38 -97t-97 -38q-58 0 -95.5 38t-37.5 97z " />
<glyph unicode="&#x201d;" horiz-adv-x="819" d="M99 985l124 252q-53 5 -86.5 42t-33.5 93q0 60 38 97t97 37q58 0 95.5 -37.5t37.5 -96.5q0 -37 -13.5 -76t-49.5 -100l-122 -211h-87zM442 985l127 252q-54 5 -87.5 42t-33.5 93q0 60 37.5 97t95.5 37q59 0 97 -37.5t38 -96.5q0 -37 -13.5 -76t-49.5 -100l-124 -211h-87z " />
<glyph unicode="&#x201e;" horiz-adv-x="819" d="M99 -267l124 255q-53 4 -86.5 40.5t-33.5 91.5q0 60 38 97.5t97 37.5q58 0 95.5 -38t37.5 -97q0 -36 -13.5 -74t-49.5 -102l-122 -211h-87zM442 -267l127 255q-54 4 -87.5 40.5t-33.5 91.5q0 60 37.5 97.5t95.5 37.5q59 0 97 -38t38 -97q0 -38 -13 -75.5t-50 -100.5 l-124 -211h-87z" />
<glyph unicode="&#x2020;" horiz-adv-x="696" d="M75 1231v123l209 -16v213h130v-213l208 16v-123l-208 16v-405l-27 -329h-77l-26 329v405z" />
<glyph unicode="&#x2021;" horiz-adv-x="696" d="M75 709v124l209 -16v87l20 128l-20 128v87l-209 -16v123l209 -16v213h130v-213l208 16v-123l-208 16v-87l-21 -128l21 -128v-87l208 16v-124l-208 17v-213h-130v213z" />
<glyph unicode="&#x2022;" horiz-adv-x="916" d="M154 778q0 134 85.5 219t218.5 85t219.5 -85t86.5 -219q0 -136 -86 -221t-220 -85q-133 0 -218.5 85t-85.5 221z" />
<glyph unicode="&#x2026;" horiz-adv-x="1441" d="M118 124q0 60 38.5 98.5t98.5 38.5t99 -38t39 -99t-38.5 -98.5t-99.5 -37.5q-60 0 -98.5 37.5t-38.5 98.5zM584 124q0 60 38.5 98.5t97.5 38.5q61 0 99.5 -38t38.5 -99t-38.5 -98.5t-99.5 -37.5q-60 0 -98 37.5t-38 98.5zM1048 124q0 60 39 98.5t99 38.5q61 0 99.5 -38 t38.5 -99t-38.5 -98.5t-99.5 -37.5q-60 0 -99 37.5t-39 98.5z" />
<glyph unicode="&#x202f;" horiz-adv-x="402" />
<glyph unicode="&#x2030;" horiz-adv-x="2206" d="M116 1003v77q0 153 81.5 238t218.5 85t218.5 -85t81.5 -238v-77q0 -153 -81.5 -237.5t-218.5 -84.5t-218.5 84.5t-81.5 237.5zM240 989q0 -112 47 -163.5t129 -51.5t129 51.5t47 163.5v105q0 111 -47 163t-129 52t-129 -52t-47 -163v-105zM263 0l870 1386h106l-870 -1386 h-106zM786 306v77q0 153 81.5 237.5t218.5 84.5t218.5 -84.5t81.5 -237.5v-77q0 -153 -81.5 -237.5t-218.5 -84.5t-218.5 84.5t-81.5 237.5zM910 292q0 -112 47 -163.5t129 -51.5t128.5 51.5t46.5 163.5v105q0 111 -46.5 163t-128.5 52t-129 -52t-47 -163v-105zM1492 306v77 q0 153 81.5 237.5t218.5 84.5t218.5 -84.5t81.5 -237.5v-77q0 -153 -81.5 -237.5t-218.5 -84.5t-218.5 84.5t-81.5 237.5zM1615 292q0 -111 47.5 -163t129.5 -52t128.5 51.5t46.5 163.5v105q0 111 -46.5 163t-128.5 52t-129.5 -52t-47.5 -163v-105z" />
<glyph unicode="&#x2039;" horiz-adv-x="596" d="M77 693l289 403h135l-272 -403l272 -403h-135z" />
<glyph unicode="&#x203a;" horiz-adv-x="596" d="M97 290l272 403l-272 403h134l290 -403l-290 -403h-134z" />
<glyph unicode="&#x2044;" horiz-adv-x="199" d="M-387 0l871 1386h106l-872 -1386h-105z" />
<glyph unicode="&#x205f;" horiz-adv-x="503" />
<glyph unicode="&#x20a9;" horiz-adv-x="1544" d="M71 673v101h1404v-101h-194l-104 -673h-174l-130 673h-200l-131 -673h-173l-104 673h-194zM71 918v100h144l-57 368h152l48 -368h271l76 368h137l74 -368h272l47 368h153l-58 -368h145v-100h-1404zM410 673l43 -375q14 -124 15 -132h2q10 77 22 132l77 375h-159z M734 1018h79l-27 168q-8 49 -10 71h-4q-3 -22 -10 -71zM977 673l75 -375q15 -67 24 -132h2q0 8 14 132l43 375h-158z" />
<glyph unicode="&#x20ac;" horiz-adv-x="1159" d="M25 519v99h794v-99h-482q5 -205 95.5 -305t258.5 -100q139 0 329 97v-136q-187 -93 -341 -93q-236 0 -367.5 137.5t-141.5 399.5h-145zM25 766v99h145q10 261 142 399.5t367 138.5q156 0 341 -96v-134q-184 97 -329 97q-168 0 -258.5 -100.5t-95.5 -304.5h482v-99h-794z " />
<glyph unicode="&#x2120;" horiz-adv-x="1509" d="M120 873v80q52 -25 114.5 -38t112.5 -13q71 0 109 23t38 60v12q0 35 -24.5 59t-90.5 47l-87 28q-92 31 -131 72.5t-39 103.5v17q0 78 65 126t186 48q101 0 194 -46v-84q-100 45 -194 45q-78 0 -116 -22t-38 -59v-8q0 -30 24 -50t92 -45l85 -31q94 -34 134 -75.5 t40 -104.5v-29q0 -75 -68 -122.5t-172 -47.5q-62 0 -127.5 13.5t-106.5 40.5zM695 827l39 663h108l145 -296q23 -54 27 -67h2q11 35 24 67l146 296h107l39 -663h-95l-27 539h-2q-3 -15 -31 -85l-127 -272h-71l-127 272q-23 59 -31 85h-2l-27 -539h-97z" />
<glyph unicode="&#x2122;" horiz-adv-x="1443" d="M91 1403v87h486v-87h-194v-576h-99v576h-193zM653 827l40 663h108l144 -296q8 -18 28 -67h2q3 12 12 35t12 32l145 296h107l40 -663h-95l-27 539h-2q-8 -26 -32 -85l-126 -272h-72l-126 272q-32 79 -33 85h-2l-28 -539h-95z" />
<glyph unicode="&#x2190;" horiz-adv-x="1488" d="M52 707l696 507v-434h689v-145h-689v-434z" />
<glyph unicode="&#x2191;" horiz-adv-x="1488" d="M238 689l506 697l507 -697h-434v-689h-144v689h-435z" />
<glyph unicode="&#x2192;" horiz-adv-x="1488" d="M52 635v145h688v434l697 -507l-697 -506v434h-688z" />
<glyph unicode="&#x2193;" horiz-adv-x="1488" d="M238 697h435v689h144v-689h434l-507 -697z" />
<glyph unicode="&#x2196;" horiz-adv-x="1488" d="M227 1210l853 -134l-308 -308l487 -489l-101 -99l-485 486l-309 -308z" />
<glyph unicode="&#x2197;" horiz-adv-x="1488" d="M229 279l489 489l-308 308l851 134l-136 -852l-308 308l-486 -486z" />
<glyph unicode="&#x2198;" horiz-adv-x="1488" d="M229 1109l102 101l486 -488l308 308l136 -850l-851 134l308 308z" />
<glyph unicode="&#x2199;" horiz-adv-x="1488" d="M227 180l137 850l309 -308l485 488l101 -101l-487 -487l308 -308z" />
<glyph unicode="&#x2212;" horiz-adv-x="1107" d="M112 637v113h883v-113h-883z" />
<glyph unicode="&#x2248;" horiz-adv-x="1107" d="M112 373v121l22 23q119 124 237 124q44 0 80 -11t76 -40l93 -69q36 -27 62 -36t62 -9q53 0 105.5 29t114.5 97l31 35v-124l-20 -23q-119 -124 -237 -124q-44 0 -80.5 12t-76.5 42l-93 68q-36 26 -62 34.5t-62 8.5q-53 0 -105.5 -29t-114.5 -97zM112 750v125l22 23 q119 124 237 124q44 0 80 -12t76 -42l93 -68q36 -27 61.5 -35.5t62.5 -8.5q54 0 106 28.5t114 96.5l31 35v-124l-20 -23q-119 -125 -237 -125q-44 0 -80.5 12.5t-76.5 42.5l-93 68q-36 26 -61.5 34.5t-62.5 8.5q-54 0 -106 -28.5t-114 -95.5z" />
<glyph unicode="&#x2260;" horiz-adv-x="1107" d="M112 456v111h354l101 256h-455v112h498l150 372h77l-146 -372h304v-112h-350l-101 -256h451v-111h-494l-150 -375h-80l149 375h-308z" />
<glyph unicode="&#x2264;" horiz-adv-x="1107" d="M87 87v112h910v-112h-910zM87 760v107l910 386v-134l-662 -273q-68 -25 -93 -31v-4q25 -6 93 -31l662 -273v-134z" />
<glyph unicode="&#x2265;" horiz-adv-x="1107" d="M112 87v112h910v-112h-910zM112 373v134l662 273q68 25 93 31v4q-25 6 -93 31l-662 273v134l910 -386v-107z" />
<glyph unicode="&#x24c5;" horiz-adv-x="1633" d="M156 620v146q0 145 39.5 261.5t118 200.5t201.5 129.5t284 45.5q162 0 285.5 -45.5t202 -129.5t118 -200.5t39.5 -261.5v-146q0 -146 -39.5 -262t-118 -200t-202 -129t-285.5 -45q-161 0 -284 45t-201.5 129t-118 200t-39.5 262zM252 612q0 -253 138.5 -395t408.5 -142 q136 0 240 37.5t171 107.5t100.5 169t33.5 223v162q0 124 -33.5 222.5t-100.5 169t-171 108t-240 37.5q-270 0 -408.5 -142t-138.5 -395v-162zM546 312v762h285q133 0 203.5 -59t70.5 -167v-35q0 -109 -70.5 -168t-203.5 -59h-158v-274h-127zM673 681h154q80 0 116 33.5 t36 106.5v14q0 74 -36 108t-116 34h-154v-296z" />
<glyph unicode="&#x25fc;" horiz-adv-x="1064" d="M0 0v1066h1066v-1066h-1066z" />
<glyph unicode="&#xfb01;" horiz-adv-x="1494" d="M75 941v125h188v171q0 168 78 247t245 79q94 0 202 -39v-124q-97 37 -176 37q-105 0 -148.5 -42.5t-43.5 -159.5v-169h368v-125h-368v-941h-157v941h-188zM924 941v125h355v-1066h-160v941h-195zM1074 1354q0 56 34 90.5t90 34.5q55 0 89.5 -34.5t34.5 -90.5 q0 -54 -34.5 -88.5t-89.5 -34.5q-56 0 -90 34.5t-34 88.5z" />
<glyph unicode="&#xfb02;" horiz-adv-x="1453" d="M75 941v125h188v171q0 168 78 247t245 79q94 0 202 -39v-124q-97 37 -176 37q-105 0 -148.5 -42.5t-43.5 -159.5v-169h368v-125h-368v-941h-157v941h-188zM883 1427v124h352v-1551h-157v1427h-195z" />
<glyph horiz-adv-x="1143" d="M468 -176q0 46 29 74.5t75.5 28.5t76.5 -28.5t30 -74.5q0 -30 -10.5 -57.5t-41.5 -84.5l-79 -146h-70l85 182q-42 3 -68.5 33t-26.5 73z" />
<glyph horiz-adv-x="1143" d="M468 1251q0 30 10 58.5t41 82.5l67 120h69l-71 -158q41 -3 68 -32t27 -71q0 -46 -30 -75.5t-76.5 -29.5t-75.5 29.5t-29 75.5z" />
<glyph horiz-adv-x="795" d="M162 666v54q0 217 83.5 421.5t224.5 366.5h165q-147 -166 -226.5 -368t-79.5 -410v-75q0 -208 79.5 -410t226.5 -367h-165q-141 162 -224.5 366t-83.5 422z" />
<glyph horiz-adv-x="795" d="M164 -122q147 165 226.5 367t79.5 410v75q0 208 -79.5 410t-226.5 368h165q141 -162 224.5 -366.5t83.5 -421.5v-54q0 -218 -83.5 -422t-224.5 -366h-165z" />
<glyph horiz-adv-x="795" d="M201 -122v1630h430v-126h-269v-1378h269v-126h-430z" />
<glyph horiz-adv-x="795" d="M168 4h268v1378h-268v126h430v-1630h-430v126z" />
<glyph horiz-adv-x="795" d="M103 641v137h172q85 0 85 59v7q0 54 -40 113l-55 89q-68 112 -68 199v6q0 127 80.5 192t239.5 65h105v-126h-85q-94 0 -135.5 -31t-41.5 -106v-4q0 -74 45 -151l55 -91q51 -89 51 -157v-5q0 -44 -27.5 -78t-80.5 -47v-3q53 -13 80.5 -48t27.5 -80v-4q0 -71 -49 -163 l-69 -128q-33 -60 -33 -138v-4q0 -77 41 -108.5t136 -31.5h85v-126h-105q-160 0 -240 64.5t-80 189.5v8q0 98 53 189l72 127q38 64 38 119v6q0 60 -85 60h-172z" />
<glyph horiz-adv-x="795" d="M176 4h85q95 0 136 31.5t41 108.5v4q0 78 -33 138l-68 128q-49 92 -49 163v4q0 45 27 80t80 48v3q-53 13 -80 46.5t-27 78.5v5q0 68 51 157l54 91q45 77 45 151v4q0 75 -41.5 106t-135.5 31h-85v126h106q159 0 239.5 -65t80.5 -192v-6q0 -86 -69 -199l-55 -89 q-40 -59 -40 -113v-7q0 -59 85 -59h172v-137h-172q-85 0 -85 -60v-6q0 -55 38 -119l72 -127q54 -91 54 -189v-8q0 -125 -80 -189.5t-240 -64.5h-106v126z" />
<glyph horiz-adv-x="1143" d="M468 1460q0 46 29 74.5t75.5 28.5t76.5 -28.5t30 -74.5q0 -28 -10.5 -57t-41.5 -85l-79 -145h-70l85 181q-42 3 -68.5 33t-26.5 73z" />
<glyph horiz-adv-x="1143" d="M513 1705l190 308h132l-204 -308h-118z" />
<glyph horiz-adv-x="831" d="M116 308v77q0 153 81.5 237.5t218.5 84.5t218.5 -84.5t81.5 -237.5v-77q0 -153 -81.5 -237.5t-218.5 -84.5t-218.5 84.5t-81.5 237.5zM240 294q0 -112 47 -163.5t129 -51.5t129 51.5t47 163.5v105q0 111 -47 163t-129 52t-129 -52t-47 -163v-105z" />
<glyph horiz-adv-x="584" d="M79 0v91h161v488h-2q-6 -5 -23.5 -16t-19.5 -13l-116 -70v104l173 107h108v-600h155v-91h-436z" />
<glyph horiz-adv-x="622" d="M37 0v89l277 254q49 46 69 82t20 76v6q0 107 -144 107q-96 0 -212 -64v95q115 62 237 62q116 0 180.5 -52.5t64.5 -139.5v-12q0 -63 -31 -116t-103 -112l-155 -129q-66 -51 -68 -53v-2h357v-91h-492z" />
<glyph horiz-adv-x="663" d="M56 33v93q55 -25 116 -39t105 -14q78 0 122.5 31t44.5 91v16q0 107 -134 107q-36 0 -99 -16l-31 -8l-26 64l229 207q21 21 41 33v2h-368v91h505v-81l-255 -227q31 16 71 16q84 0 138 -50t54 -134v-23q0 -94 -74.5 -153t-196.5 -59q-126 0 -242 53z" />
<glyph horiz-adv-x="700" d="M33 142v81l387 468h115v-460h96v-89h-96v-142h-121v142h-381zM144 231h270v326h-2q-9 -13 -31 -40l-203 -246q-20 -25 -34 -38v-2z" />
<glyph horiz-adv-x="709" d="M103 33v95q111 -55 215 -55q79 0 126.5 35.5t47.5 102.5v24q0 66 -37.5 100t-107.5 34t-150 -67l-23 -18l-67 12l11 395h470v-91h-381l-6 -217q92 77 186 77q99 0 164 -59.5t65 -160.5v-27q0 -107 -77 -170t-201.5 -63t-234.5 53z" />
<glyph horiz-adv-x="775" d="M116 273v124q0 153 81 231.5t229 78.5q105 0 211 -45v-97q-104 49 -207 49q-94 0 -142 -47.5t-48 -154.5v-65l27 24q97 85 191 85q108 0 169.5 -55.5t61.5 -160.5v-21q0 -105 -80.5 -172t-201.5 -67q-129 0 -210 77.5t-81 215.5zM240 257q2 -97 45 -140.5t122 -43.5 q67 0 112.5 37t45.5 105v23q0 67 -33 95.5t-102 28.5t-146 -68z" />
<glyph horiz-adv-x="620" d="M41 600v91h524v-77l-269 -614h-130l268 600h-393z" />
<glyph horiz-adv-x="736" d="M71 178v8q0 61 37.5 106t108.5 59l38 9v2l-38 13q-61 20 -93.5 58t-32.5 88v8q0 77 70.5 127.5t207 50.5t206.5 -50.5t70 -127.5v-12q0 -50 -32.5 -87.5t-97.5 -54.5l-33 -9v-2l43 -15q139 -47 139 -165v-6q0 -90 -78.5 -144t-216.5 -54q-139 0 -218.5 54t-79.5 144z M195 178q0 -53 43.5 -83.5t130.5 -30.5q84 0 127.5 30.5t43.5 83.5v12q0 42 -25 68.5t-85 45.5l-66 21l-64 -21q-105 -33 -105 -112v-14zM213 515q0 -34 19 -55t64 -36l75 -25l69 21q42 12 61.5 34t19.5 57v18q0 44 -38 68.5t-114 24.5q-77 0 -116.5 -25t-39.5 -68v-14z" />
<glyph horiz-adv-x="775" d="M87 458v18q0 102 79.5 166.5t199.5 64.5q130 0 212 -77.5t82 -215.5v-124q0 -154 -82.5 -232t-238.5 -78q-117 0 -221 47v95q105 -49 217 -49q103 0 150.5 47t47.5 155v68l-24 -21q-103 -87 -191 -87q-108 0 -169.5 58t-61.5 165zM211 460q0 -69 32.5 -100t101.5 -31 t149 70l39 35q-1 95 -43 137.5t-121 42.5q-68 0 -113 -34.5t-45 -99.5v-20z" />
<glyph horiz-adv-x="831" d="M116 1003v77q0 153 81.5 238t218.5 85t218.5 -85t81.5 -238v-77q0 -153 -81.5 -237.5t-218.5 -84.5t-218.5 84.5t-81.5 237.5zM240 989q0 -112 47 -163.5t129 -51.5t129 51.5t47 163.5v105q0 111 -47 163t-129 52t-129 -52t-47 -163v-105z" />
<glyph horiz-adv-x="584" d="M79 695v91h161v489h-2q-2 -2 -43 -30l-116 -70v104l173 107h108v-600h155v-91h-436z" />
<glyph horiz-adv-x="622" d="M37 695v89l277 254q49 45 69 81.5t20 76.5v6q0 107 -144 107q-96 0 -212 -64v95q117 63 237 63q116 0 180.5 -53t64.5 -140v-12q0 -63 -31 -115.5t-103 -111.5l-155 -129q-6 -4 -31.5 -25t-36.5 -29v-2h357v-91h-492z" />
<glyph horiz-adv-x="663" d="M56 728v93q55 -25 116 -39t105 -14q78 0 122.5 31t44.5 91v16q0 55 -35 81.5t-99 26.5q-32 0 -99 -17l-31 -8l-26 63l229 207q21 22 41 34v2h-368v91h505v-81l-255 -227q31 16 71 16q84 0 138 -50t54 -134v-22q0 -94 -74.5 -153.5t-196.5 -59.5q-126 0 -242 53z" />
<glyph horiz-adv-x="700" d="M33 837v81l387 468h115v-459h96v-90h-96v-142h-121v142h-381zM144 927h270v324h-2q-9 -12 -31 -39l-203 -246q-15 -19 -34 -37v-2z" />
<glyph horiz-adv-x="709" d="M103 728v95q111 -55 215 -55q79 0 126.5 35.5t47.5 102.5v25q0 66 -37.5 99.5t-107.5 33.5t-150 -67l-23 -18l-67 12l11 395h470v-91h-381l-6 -217q92 76 186 76q99 0 164 -59t65 -160v-27q0 -107 -77 -170t-201.5 -63t-234.5 53z" />
<glyph horiz-adv-x="775" d="M116 968v124q0 153 81 232t229 79q102 0 211 -47v-97q-104 50 -207 50q-94 0 -142 -47.5t-48 -154.5v-65l27 24q97 84 191 84q108 0 169.5 -55t61.5 -160v-21q0 -106 -80.5 -172.5t-201.5 -66.5q-129 0 -210 77.5t-81 215.5zM240 951q2 -97 45 -140t122 -43 q67 0 112.5 37t45.5 105v23q0 67 -33 95.5t-102 28.5q-67 0 -146 -68z" />
<glyph horiz-adv-x="620" d="M41 1295v91h524v-77l-269 -614h-130l268 600h-393z" />
<glyph horiz-adv-x="736" d="M71 873v8q0 61 37.5 106t108.5 59l38 8v3l-38 13q-61 20 -93.5 58t-32.5 88v8q0 77 70.5 128t207 51t206.5 -51t70 -128v-12q0 -50 -32.5 -88t-97.5 -54l-33 -8v-3l43 -15q139 -47 139 -165v-6q0 -90 -78.5 -144t-216.5 -54q-139 0 -218.5 54t-79.5 144zM195 873 q0 -53 43.5 -83t130.5 -30q85 0 128 30t43 83v13q0 42 -25 68t-85 45l-66 21l-64 -21q-105 -33 -105 -111v-15zM213 1210q0 -34 19 -55t64 -36l75 -25l69 21q42 12 61.5 34t19.5 57v18q0 44 -38 69t-114 25q-77 0 -116.5 -25.5t-39.5 -68.5v-14z" />
<glyph horiz-adv-x="775" d="M87 1152v19q0 102 79.5 167t199.5 65q130 0 212 -78t82 -216v-124q0 -154 -82.5 -232t-238.5 -78q-117 0 -221 47v95q105 -49 217 -49q103 0 150.5 47t47.5 156v67l-24 -20q-103 -87 -191 -87q-108 0 -169.5 57.5t-61.5 163.5zM211 1154q0 -68 32.5 -99t101.5 -31t149 70 l39 35q-1 95 -43 137.5t-121 42.5q-68 0 -113 -34.5t-45 -99.5v-21z" />
<glyph horiz-adv-x="831" d="M116 184v77q0 152 81.5 237.5t218.5 85.5t218.5 -85.5t81.5 -237.5v-77q0 -153 -81.5 -237.5t-218.5 -84.5t-218.5 84.5t-81.5 237.5zM240 170q0 -112 47 -163.5t129 -51.5t129 51.5t47 163.5v105q0 111 -47 163t-129 52t-129 -52t-47 -163v-105z" />
<glyph horiz-adv-x="584" d="M79 -33h161v489h-2q-2 -3 -43 -30l-116 -70v104l173 107h108v-600h155v-91h-436v91z" />
<glyph horiz-adv-x="622" d="M37 -35l277 254q49 45 69 81.5t20 76.5v6q0 107 -144 107q-96 0 -212 -64v95q117 63 237 63q116 0 180.5 -53t64.5 -140v-12q0 -63 -31 -115.5t-103 -111.5l-155 -129q-6 -4 -31.5 -25t-36.5 -29v-2h357v-91h-492v89z" />
<glyph horiz-adv-x="663" d="M56 2q55 -25 116 -39.5t105 -14.5q78 0 122.5 31.5t44.5 91.5v16q0 54 -35 81t-99 27q-32 0 -99 -17l-31 -8l-26 63l229 207q21 22 41 34v2h-368v91h505v-81l-255 -227q31 16 71 16q84 0 138 -50t54 -134v-22q0 -94 -74.5 -153.5t-196.5 -59.5q-126 0 -242 53v93z" />
<glyph horiz-adv-x="700" d="M33 18v81l387 468h115v-460h96v-89h-96v-142h-121v142h-381zM144 107h270v325h-2q-9 -13 -31 -39l-203 -247q-15 -18 -34 -36v-3z" />
<glyph horiz-adv-x="709" d="M103 4q111 -56 215 -56q79 0 126.5 36t47.5 103v25q0 66 -37.5 99t-107.5 33t-150 -66l-23 -18l-67 12l11 395h470v-91h-381l-6 -217q92 76 186 76q99 0 164 -59t65 -160v-27q0 -107 -77 -170t-201.5 -63t-234.5 53v95z" />
<glyph horiz-adv-x="775" d="M116 148v125q0 153 81 232t229 79q102 0 211 -47v-97q-104 50 -207 50q-94 0 -142 -47.5t-48 -154.5v-65l27 23q97 85 191 85q108 0 169.5 -55t61.5 -160v-21q0 -106 -80.5 -172.5t-201.5 -66.5q-129 0 -210 77.5t-81 214.5zM240 132q2 -97 45 -140.5t122 -43.5 q67 0 112.5 37.5t45.5 105.5v23q0 67 -33 95.5t-102 28.5q-67 0 -146 -68z" />
<glyph horiz-adv-x="620" d="M41 476v91h524v-77l-269 -614h-130l268 600h-393z" />
<glyph horiz-adv-x="736" d="M71 54v8q0 61 37.5 106t108.5 59l38 8v3l-38 12q-61 21 -93.5 59t-32.5 88v8q0 77 70.5 128t207 51t206.5 -51t70 -128v-12q0 -50 -32.5 -88t-97.5 -55l-33 -8v-2l43 -15q139 -47 139 -165v-6q0 -91 -78.5 -144.5t-216.5 -53.5q-139 0 -218.5 54t-79.5 144zM195 54 q0 -54 43.5 -84t130.5 -30q85 0 128 30.5t43 83.5v13q0 42 -25 68t-85 45l-66 21l-64 -21q-105 -33 -105 -111v-15zM213 391q0 -34 19 -55t64 -36l75 -25l69 21q42 12 61.5 33.5t19.5 57.5v18q0 43 -38 68.5t-114 25.5q-77 0 -116.5 -25.5t-39.5 -68.5v-14z" />
<glyph horiz-adv-x="775" d="M87 333v18q0 103 79.5 168t199.5 65q130 0 212 -78t82 -216v-124q0 -154 -82.5 -232t-238.5 -78q-117 0 -221 47v95q105 -50 217 -50q103 0 150.5 47.5t47.5 156.5v67l-24 -20q-103 -87 -191 -87q-108 0 -169.5 57t-61.5 164zM211 335q0 -68 32.5 -99t101.5 -31t149 70 l39 35q-1 94 -43 137t-121 43q-68 0 -113 -34.5t-45 -99.5v-21z" />
<glyph horiz-adv-x="831" d="M116 1127v77q0 153 81.5 237.5t218.5 84.5t218.5 -84.5t81.5 -237.5v-77q0 -153 -81.5 -237.5t-218.5 -84.5t-218.5 84.5t-81.5 237.5zM240 1113q0 -111 47 -163t129 -52t129 52t47 163v105q0 112 -47 163.5t-129 51.5t-129 -51.5t-47 -163.5v-105z" />
<glyph horiz-adv-x="584" d="M79 819v91h161v488h-2q-6 -5 -23.5 -16t-19.5 -12l-116 -71v104l173 107h108v-600h155v-91h-436z" />
<glyph horiz-adv-x="622" d="M37 819v89l277 255q49 45 69 81t20 76v6q0 107 -144 107q-96 0 -212 -63v94q115 62 237 62q116 0 180.5 -52.5t64.5 -139.5v-12q0 -63 -31 -116t-103 -112l-155 -128q-66 -52 -68 -54v-2h357v-91h-492z" />
<glyph horiz-adv-x="663" d="M56 852v93q55 -25 116 -39t105 -14q78 0 122.5 31t44.5 91v16q0 107 -134 107q-36 0 -99 -16l-31 -8l-26 64l229 207q21 21 41 33v2h-368v91h505v-81l-255 -227q31 16 71 16q84 0 138 -50t54 -134v-23q0 -94 -74.5 -153t-196.5 -59q-126 0 -242 53z" />
<glyph horiz-adv-x="700" d="M33 962v80l387 468h115v-460h96v-88h-96v-143h-121v143h-381zM144 1050h270v326h-2q-9 -13 -31 -40l-203 -246q-20 -24 -34 -38v-2z" />
<glyph horiz-adv-x="709" d="M103 852v95q111 -55 215 -55q79 0 126.5 36t47.5 102v24q0 66 -37.5 100t-107.5 34t-150 -67l-23 -18l-67 12l11 395h470v-91h-381l-6 -217q92 77 186 77q99 0 164 -59t65 -161v-27q0 -107 -77 -170t-201.5 -63t-234.5 53z" />
<glyph horiz-adv-x="775" d="M116 1092v124q0 153 81 231.5t229 78.5q105 0 211 -45v-97q-104 49 -207 49q-94 0 -142 -47.5t-48 -154.5v-64l27 23q97 85 191 85q108 0 169.5 -55t61.5 -161v-21q0 -105 -80.5 -172t-201.5 -67q-129 0 -210 77.5t-81 215.5zM240 1076q2 -97 45 -140.5t122 -43.5 q67 0 112.5 37t45.5 105v23q0 67 -33 95.5t-102 28.5t-146 -68z" />
<glyph horiz-adv-x="620" d="M41 1419v91h524v-77l-269 -614h-130l268 600h-393z" />
<glyph horiz-adv-x="736" d="M71 997v8q0 61 37.5 106t108.5 60l38 8v2l-38 13q-61 20 -93.5 58t-32.5 88v8q0 77 70.5 127.5t207 50.5t206.5 -50.5t70 -127.5v-12q0 -49 -32.5 -87t-97.5 -55l-33 -8v-3l43 -14q139 -48 139 -166v-6q0 -90 -78.5 -144t-216.5 -54q-139 0 -218.5 54t-79.5 144zM195 997 q0 -53 43.5 -83.5t130.5 -30.5q84 0 127.5 30.5t43.5 83.5v12q0 42 -25 68.5t-85 45.5l-66 21l-64 -21q-105 -33 -105 -112v-14zM213 1334q0 -34 19 -55t64 -36l75 -25l69 21q42 12 61.5 34t19.5 57v18q0 44 -38 68.5t-114 24.5q-77 0 -116.5 -25t-39.5 -68v-14z" />
<glyph horiz-adv-x="775" d="M87 1277v18q0 102 79.5 166.5t199.5 64.5q130 0 212 -77.5t82 -215.5v-124q0 -154 -82.5 -232t-238.5 -78q-117 0 -221 47v95q105 -49 217 -49q103 0 150.5 47t47.5 155v69l-24 -22q-103 -87 -191 -87q-108 0 -169.5 58t-61.5 165zM211 1279q0 -69 32.5 -100t101.5 -31 t149 70l39 35q-1 95 -43 137.5t-121 42.5q-68 0 -113 -34.5t-45 -99.5v-20z" />
<glyph horiz-adv-x="632" d="M62 941v125h354v-1066h-159v941h-195zM211 1354q0 56 34 90.5t90 34.5q55 0 90 -34.5t35 -90.5q0 -54 -35 -88.5t-90 -34.5t-89.5 34.5t-34.5 88.5z" />
<glyph horiz-adv-x="632" d="M-91 -211q93 -27 160 -27q92 0 140 51t48 167v961h-195v125h354v-1089q0 -167 -83.5 -256.5t-235.5 -89.5q-67 0 -188 30v128zM211 1354q0 56 34 90.5t90 34.5q55 0 90 -34.5t35 -90.5q0 -54 -35 -88.5t-90 -34.5t-89.5 34.5t-34.5 88.5z" />
<glyph horiz-adv-x="857" d="M58 581l298 805h149l298 -805h-130l-83 232h-325l-85 -232h-122zM300 912h252l-94 267q-21 56 -30 104h-2q-9 -48 -29 -104z" />
<glyph horiz-adv-x="949" d="M136 935v103q0 168 91 265t249 97t248.5 -97t90.5 -265v-103q0 -168 -90.5 -265t-248.5 -97t-249 97t-91 265zM269 924q0 -127 51.5 -188t155 -61t155.5 61t52 188v124q0 128 -52 189.5t-155.5 61.5t-155 -61.5t-51.5 -189.5v-124z" />
<glyph horiz-adv-x="821" d="M162 666v54q0 219 89.5 423t242.5 365h166q-160 -165 -245.5 -367t-85.5 -411v-75q0 -208 85.5 -410t245.5 -367h-166q-153 160 -242.5 364.5t-89.5 423.5z" />
<glyph horiz-adv-x="821" d="M160 -122q159 165 244.5 367t85.5 410v75q0 209 -85.5 411t-244.5 367h165q153 -161 243 -365t90 -423v-54q0 -219 -90 -423.5t-243 -364.5h-165z" />
<glyph horiz-adv-x="821" d="M199 -122v1630h461v-126h-300v-1378h300v-126h-461z" />
<glyph horiz-adv-x="821" d="M162 4h298v1378h-298v126h458v-1630h-458v126z" />
<glyph horiz-adv-x="803" d="M93 641v137h182q85 0 85 59v7q0 54 -40 113l-55 89q-68 112 -68 199v6q0 127 80.5 192t239.5 65h126v-126h-106q-94 0 -135.5 -31t-41.5 -106v-4q0 -74 45 -151l55 -91q51 -89 51 -157v-5q0 -44 -27.5 -78t-80.5 -47v-3q53 -13 80.5 -48t27.5 -80v-4q0 -71 -49 -163 l-69 -128q-33 -60 -33 -138v-4q0 -77 41 -108.5t136 -31.5h106v-126h-126q-160 0 -240 64.5t-80 189.5v8q0 98 53 189l72 127q38 64 38 119v6q0 60 -85 60h-182z" />
<glyph horiz-adv-x="803" d="M162 4h105q95 0 136 31.5t41 108.5v4q0 80 -32 138l-69 128q-49 92 -49 163v4q0 45 27.5 80t79.5 48v3q-53 13 -80 46.5t-27 78.5v5q0 68 51 157l54 91q45 77 45 151v4q0 75 -41.5 106t-135.5 31h-105v126h126q159 0 239.5 -65t80.5 -192v-6q0 -87 -68 -199l-56 -89 q-40 -59 -40 -113v-7q0 -59 85 -59h183v-137h-183q-85 0 -85 -60v-6q0 -55 38 -119l72 -127q54 -91 54 -189v-8q0 -125 -80 -189.5t-240 -64.5h-126v126z" />
<glyph horiz-adv-x="803" d="M6 -103l654 1593h139l-655 -1593h-138z" />
<glyph horiz-adv-x="803" d="M6 1490h138l655 -1593h-139z" />
<glyph horiz-adv-x="797" d="M327 -103v1593h135v-1593h-135z" />
<glyph horiz-adv-x="797" d="M327 -103v651h135v-651h-135zM327 837v653h135v-653h-135z" />
<glyph horiz-adv-x="1683" d="M93 0q-37 140 4 333l95 443q65 298 276.5 462.5t549.5 164.5q356 0 501.5 -159t83.5 -450l-107 -504q-32 -147 -120 -226.5t-205 -79.5q-88 0 -144.5 50.5t-60.5 143.5l-35 -36q-88 -88 -152.5 -123t-133.5 -35q-118 0 -170.5 107.5t-10.5 299.5l45 211 q27 125 64.5 210.5t95.5 144t138.5 85t191.5 26.5q100 0 267 -63l-155 -732q-21 -97 1 -142.5t76 -45.5q62 0 116.5 55t75.5 152l118 545q48 223 -76 343.5t-415 120.5q-281 0 -464.5 -137.5t-232.5 -369.5l-103 -484q-40 -179 0 -310h-114zM610 381q-56 -267 89 -267 q45 0 94 29t131 112l47 45l132 627q-74 26 -141 26q-125 0 -194.5 -77t-107.5 -260z" />
<glyph horiz-adv-x="626" d="M174 1259.5q0 61.5 38.5 101t99.5 39.5q62 0 101.5 -39.5t39.5 -101.5t-39.5 -101t-101.5 -39q-61 0 -99.5 39.5t-38.5 101zM231 0v575l30 404h105l29 -404v-575h-164z" />
<glyph horiz-adv-x="1176" d="M142 345v46q0 161 123 257t347 96h10l7 235h121l8 -346h-113q-160 0 -248.5 -63.5t-88.5 -182.5v-40q0 -108 87 -169.5t248 -61.5q178 0 395 93v-130q-213 -95 -426 -95q-221 0 -345.5 99t-124.5 262zM548 1259q0 62 40 101.5t101 39.5t100.5 -39.5t39.5 -101.5 t-39.5 -101t-101 -39t-101 39t-39.5 101z" />
<glyph horiz-adv-x="1340" d="M610 1492l178 287h132l-192 -287h-118z" />
<glyph horiz-adv-x="1340" d="M420 1779h132l178 -287h-118z" />
<glyph horiz-adv-x="1340" d="M492 1492l179 287h119l-180 -287h-118zM730 1492l188 287h122l-194 -287h-116z" />
<glyph horiz-adv-x="1340" d="M369 1492l251 287h100l253 -287h-121l-179 198h-4l-181 -198h-119z" />
<glyph horiz-adv-x="1340" d="M369 1779h119l181 -200h4l179 200h121l-253 -287h-100z" />
<glyph horiz-adv-x="1340" d="M383 1769h107l7 -30q26 -130 173.5 -130t173.5 130l6 30h107l-6 -42q-17 -106 -90 -158.5t-190 -52.5t-191 53t-91 158z" />
<glyph horiz-adv-x="1340" d="M364 1531v105l13 14q81 91 158 91q33 0 60 -9t63 -32l60 -39q31 -21 49.5 -29t41.5 -8q35 0 66 19.5t80 73.5l22 20v-105l-13 -14q-82 -92 -159 -92q-33 0 -60 9t-62 33l-61 39q-31 21 -49.5 29t-41.5 8q-34 0 -65.5 -19.5t-80.5 -73.5z" />
<glyph horiz-adv-x="1340" d="M387 1583v109h566v-109h-566z" />
<glyph horiz-adv-x="1340" d="M401 1638q0 49 31.5 79.5t78.5 30.5t78 -30.5t31 -79.5q0 -47 -31 -77t-78 -30t-78.5 30t-31.5 77zM722 1638q0 50 30 80t77 30t78.5 -30.5t31.5 -79.5q0 -47 -31.5 -77t-78.5 -30q-46 0 -76.5 30t-30.5 77z" />
<glyph horiz-adv-x="1340" d="M533 1642q0 60 39 98.5t98.5 38.5t98 -38t38.5 -99t-38.5 -98.5t-98 -37.5t-98.5 37.5t-39 98.5z" />
<glyph horiz-adv-x="1340" d="M484 1663v13q0 79 52.5 132t134 53t133.5 -53t52 -132v-13q0 -79 -52 -132.5t-133.5 -53.5t-134 53.5t-52.5 132.5zM554 1665q0 -55 31.5 -88.5t85.5 -33.5t85.5 33.5t31.5 88.5v9q0 55 -31.5 88.5t-85.5 33.5t-85.5 -33.5t-31.5 -88.5v-9z" />
<glyph horiz-adv-x="568" />
<glyph d="M107 557v272q0 278 121.5 426t340 148t340 -148t121.5 -426v-272q0 -278 -121.5 -425.5t-340 -147.5t-340 147.5t-121.5 425.5zM275 529q0 -415 294 -415t294 415v327q0 417 -294 417t-294 -417v-327z" />
<glyph d="M174 0v126h323v1103h-3q-58 -45 -70 -52l-250 -155v153l345 211h141v-1260h308v-126h-794z" />
<glyph d="M128 0v122l490 553q95 107 132.5 184.5t37.5 147.5v33q0 106 -73 168t-202 62q-150 0 -367 -122v131q110 64 204.5 94t193.5 30q188 0 299.5 -96t111.5 -257v-45q0 -62 -18 -117t-71 -132t-150 -185l-333 -374q-26 -29 -75 -69v-2h647v-126h-827z" />
<glyph d="M124 89v130q202 -103 364 -103q144 0 230.5 74.5t86.5 206.5v43q0 121 -66.5 186t-188.5 65q-66 0 -132 -16l-60 -15l-50 84l414 458q31 36 60 55v2h-658v127h831v-122l-446 -478q69 19 120 19q159 0 252.5 -97t93.5 -258v-59q0 -184 -128 -295.5t-336 -111.5 q-101 0 -193.5 26t-193.5 79z" />
<glyph d="M73 322v116l645 948h151v-933h161v-131h-161v-322h-164v322h-632zM227 453h478v703h-2q-28 -49 -45 -74l-379 -561q-16 -24 -52 -65v-3z" />
<glyph d="M140 93v130q98 -52 193.5 -79.5t171.5 -27.5q161 0 247.5 81.5t86.5 240.5v65q0 136 -66.5 212.5t-176.5 76.5q-126 0 -276 -141l-65 -61l-109 6l24 790h769v-127h-635l-12 -507l26 26q85 74 162 109t163 35q162 0 263 -112.5t101 -298.5v-71q0 -218 -131 -337t-355 -119 q-189 0 -381 109z" />
<glyph d="M130 542v257q0 306 121.5 455t372.5 149q142 0 315 -96v-130q-175 98 -308 98q-173 0 -253 -105.5t-80 -340.5v-130l49 43q94 85 174 122.5t164 37.5q166 0 257.5 -108t91.5 -306v-64q0 -197 -120 -318.5t-320 -121.5q-224 0 -344 144t-120 414zM298 513q0 -201 75 -301 t217 -100q130 0 203.5 79t73.5 225v76q0 278 -226 278q-55 0 -115 -29t-141 -98l-87 -74v-56z" />
<glyph d="M132 1259v127h859v-118l-497 -1268h-178l505 1259h-689z" />
<glyph d="M97 356v23q0 105 59.5 188t172.5 122l89 31v4l-71 24q-104 37 -157.5 112t-53.5 178v24q0 72 28 133.5t81 108t136.5 73t189.5 26.5q104 0 187.5 -26.5t137 -73t81.5 -107.5t28 -132v-18q0 -101 -55 -175t-158 -109l-72 -26v-4l81 -27q120 -40 180.5 -126t60.5 -198v-21 q0 -83 -29 -151t-86.5 -118.5t-148.5 -78.5t-207.5 -28t-207.5 28t-149 78t-87.5 117.5t-29.5 148.5zM267 362q0 -121 75.5 -190t228.5 -69q147 0 225.5 70t78.5 189v21q0 83 -46.5 142t-149.5 95l-133 46l-112 -48q-167 -70 -167 -229v-27zM302 1044q0 -80 40 -133t128 -84 l120 -41l95 41q80 34 117 86t37 129v17q0 102 -71.5 163t-196.5 61q-127 0 -198 -60.5t-71 -163.5v-15z" />
<glyph d="M101 914v48q0 196 120.5 318.5t320.5 122.5q224 0 343.5 -144t119.5 -415v-256q0 -305 -128.5 -454.5t-386.5 -149.5q-82 0 -175 23t-181 72v130q91 -51 182 -74t168 -23q181 0 267 105.5t86 339.5v146l-49 -43q-94 -85 -174 -122t-164 -37q-166 0 -257.5 107.5 t-91.5 305.5zM269 910q0 -277 225 -277q56 0 115.5 29t140.5 98l87 73v40q0 201 -74.5 301.5t-216.5 100.5q-130 0 -203.5 -79t-73.5 -225v-61z" />
<glyph horiz-adv-x="795" d="M162 614v55q0 233 83 456t219 383h165q-142 -164 -221 -384t-79 -445v-75q0 -226 79 -445.5t221 -383.5h-165q-136 160 -219 382.5t-83 456.5z" />
<glyph horiz-adv-x="795" d="M170 -225q142 164 221 383.5t79 445.5v75q0 225 -79 445t-221 384h165q136 -160 219 -383t83 -456v-55q0 -234 -83 -456.5t-219 -382.5h-165z" />
<glyph horiz-adv-x="795" d="M201 -225v1733h430v-126h-269v-1481h269v-126h-430z" />
<glyph horiz-adv-x="795" d="M168 -99h268v1481h-268v126h430v-1733h-430v126z" />
<glyph horiz-adv-x="795" d="M103 604v134h172q45 0 65 14.5t20 48.5v6q0 48 -42 126l-51 99q-70 134 -70 211v8q0 127 80.5 192t239.5 65h105v-126h-76q-96 0 -141 -31.5t-45 -105.5v-6q0 -57 47 -157l49 -99q55 -113 55 -178v-4q0 -45 -27.5 -80t-80.5 -48v-2q53 -14 80.5 -48.5t27.5 -80.5v-5 q0 -55 -47 -166l-73 -172q-31 -71 -31 -152v-6q0 -76 45 -108t141 -32h76v-126h-105q-160 0 -240 64.5t-80 189.5v10q0 94 49 205l79 178q35 78 35 113v7q0 34 -20 48t-65 14h-172z" />
<glyph horiz-adv-x="795" d="M176 -99h76q97 0 141.5 32t44.5 108v6q0 81 -31 152l-72 172q-47 111 -47 166v5q0 46 27 81t80 48v2q-53 13 -80 48t-27 80v4q0 65 55 178l48 99q47 100 47 157v6q0 74 -45 105.5t-141 31.5h-76v126h106q159 0 239.5 -65t80.5 -192v-8q0 -75 -71 -211l-51 -99 q-42 -78 -42 -126v-6q0 -34 20 -48.5t65 -14.5h172v-134h-172q-45 0 -65 -14t-20 -48v-7q0 -33 36 -113l78 -178q50 -111 50 -205v-10q0 -125 -80 -189.5t-240 -64.5h-106v126z" />
<glyph d="M67 385l20 107h197l78 402h-198l20 107h199l75 385h107l-75 -385h276l73 385h108l-74 -385h195l-22 -107h-194l-78 -402h197l-22 -107h-197l-73 -385h-108l74 385h-274l-75 -385h-108l75 385h-196zM391 492h275l78 402h-274z" />
<glyph horiz-adv-x="1321" d="M101 995v97q0 145 68.5 228t194.5 83t194.5 -83t68.5 -228v-97q0 -145 -68.5 -227.5t-194.5 -82.5t-194.5 82t-68.5 228zM190 0l840 1386h101l-839 -1386h-102zM221 981q0 -105 35 -155t108 -50t108 50t35 155v126q0 105 -35 154.5t-108 49.5t-108 -49.5t-35 -154.5v-126 zM695 294v97q0 145 68.5 227.5t194 82.5t194 -82.5t68.5 -227.5v-97q0 -146 -68.5 -228t-194 -82t-194 82t-68.5 228zM815 279q0 -105 35 -154.5t108 -49.5t108 49.5t35 154.5v126q0 105 -35.5 155t-108 50t-107.5 -50t-35 -155v-126z" />
<glyph horiz-adv-x="1960" d="M101 995v97q0 145 68.5 228t194.5 83t194.5 -83t68.5 -228v-97q0 -145 -68.5 -227.5t-194.5 -82.5t-194.5 82t-68.5 228zM190 0l840 1386h101l-839 -1386h-102zM221 981q0 -105 35 -155t108 -50t108 50t35 155v126q0 105 -35 154.5t-108 49.5t-108 -49.5t-35 -154.5v-126 zM695 294v97q0 145 68.5 227.5t194 82.5t194 -82.5t68.5 -227.5v-97q0 -146 -68.5 -228t-194 -82t-194 82t-68.5 228zM815 279q0 -105 35 -154.5t108 -49.5t108 49.5t35 154.5v126q0 105 -35.5 155t-108 50t-107.5 -50t-35 -155v-126zM1334 294v97q0 145 68.5 227.5 t194.5 82.5t194 -82.5t68 -227.5v-97q0 -146 -68 -228t-194 -82t-194.5 82t-68.5 228zM1454 279q0 -105 35 -154.5t108 -49.5t107.5 49.5t34.5 154.5v126q0 105 -34.5 155t-107.5 50t-108 -50t-35 -155v-126z" />
<glyph horiz-adv-x="568" d="M148 124q0 61 38.5 99t99.5 38q59 0 97.5 -38.5t38.5 -98.5q0 -61 -38 -98.5t-98 -37.5q-61 0 -99.5 37.5t-38.5 98.5z" />
<glyph horiz-adv-x="568" d="M142 -279l129 267q-55 4 -89 41.5t-34 94.5q0 61 38.5 99t99.5 38q59 0 97.5 -38.5t38.5 -98.5q0 -37 -13 -74.5t-51 -105.5l-125 -223h-91z" />
<glyph horiz-adv-x="568" d="M148 124q0 61 38.5 99t99.5 38q59 0 97.5 -38.5t38.5 -98.5q0 -61 -38 -98.5t-98 -37.5q-61 0 -99.5 37.5t-38.5 98.5zM148 767.5q0 60.5 38.5 98.5t99.5 38q59 0 97.5 -38t38.5 -98.5t-38.5 -98.5t-97.5 -38q-61 0 -99.5 38t-38.5 98.5z" />
<glyph horiz-adv-x="568" d="M142 -279l129 267q-55 4 -89 41.5t-34 94.5q0 61 38.5 99t99.5 38q59 0 97.5 -38.5t38.5 -98.5q0 -37 -13 -74.5t-51 -105.5l-125 -223h-91zM148 767.5q0 60.5 38.5 98.5t99.5 38q59 0 97.5 -38t38.5 -98.5t-38.5 -98.5t-97.5 -38q-61 0 -99.5 38t-38.5 98.5z" />
<glyph d="M114 637v113h397v425h118v-425h395v-113h-395v-424h-118v424h-397z" />
<glyph d="M136 637v113h865v-113h-865z" />
<glyph d="M114 823v114h397v376h118v-376h395v-114h-395v-375h-118v375h-397zM120 164v111h898v-111h-898z" />
<glyph d="M114 637v113h910v-113h-910zM434 329q0 59 38 97t97 38t96.5 -38t37.5 -97q0 -60 -37.5 -97t-97 -37t-97 37t-37.5 97zM434 1059q0 60 38 97.5t97 37.5t96.5 -37.5t37.5 -97.5q0 -59 -38 -98t-96.5 -39t-96.5 39t-38 98z" />
<glyph d="M156 351l336 344l-336 341l75 77l338 -341l335 341l79 -77l-338 -341l338 -344l-79 -76l-335 341l-338 -341z" />
<glyph d="M136 456v111h865v-111h-865zM136 823v112h865v-112h-865z" />
<glyph d="M110 637v113l893 444v-135l-658 -323q-54 -24 -99 -41v-2q38 -10 99 -42l658 -322v-137z" />
<glyph d="M134 192v137l656 322q67 33 102 42v2q-12 4 -49 20t-53 21l-656 323v135l892 -444v-113z" />
<glyph d="M110 87v112h893v-112h-893zM110 760v107l893 386v-134l-645 -271q-31 -12 -91 -33v-4q33 -10 91 -33l645 -271v-134z" />
<glyph d="M132 373v134l646 271q57 23 91 33v4q-61 21 -91 33l-646 271v134l894 -386v-107zM134 87v112h892v-112h-892z" />
<glyph d="M136 373v121l24 23q115 124 235 124q43 0 77.5 -11t71.5 -40l87 -69q36 -28 59 -36.5t58 -8.5q54 0 107.5 29t115.5 97l30 35v-124l-22 -23q-119 -124 -237 -124q-44 0 -77 12t-71 42l-87 68q-35 26 -58.5 34.5t-59.5 8.5q-53 0 -106.5 -29t-114.5 -97zM136 750v125 l24 23q115 124 235 124q43 0 77.5 -12t71.5 -42l87 -68q35 -27 58 -35.5t59 -8.5q54 0 107.5 29t115.5 96l30 35v-124l-22 -23q-119 -125 -237 -125q-44 0 -77 12t-71 43l-87 68q-34 27 -57.5 35t-60.5 8q-54 0 -107 -28.5t-114 -95.5z" />
<glyph d="M136 456v111h342l101 256h-443v112h488l148 372h80l-147 -372h296v-112h-341l-101 -256h442v-111h-486l-149 -375h-80l148 375h-298z" />
<glyph d="M146 1011v27q0 136 95 233.5t262 122.5v199h128v-190q140 -6 322 -96v-132q-198 87 -322 93v-496l89 -32q150 -50 214.5 -133t64.5 -216v-46q0 -140 -100.5 -236.5t-267.5 -118.5v-197h-128v193q-173 9 -351 107v134q209 -98 351 -107v523l-79 28q-147 50 -212.5 129.5 t-65.5 210.5zM294 1028q0 -75 45.5 -124.5t161.5 -88.5h2v444q-101 -20 -155 -74.5t-54 -130.5v-26zM631 128q105 19 161 73.5t56 133.5v34q0 83 -44 135t-161 92l-12 4v-472z" />
<glyph d="M178 464v138q0 198 97 322.5t269 151.5v197h129v-193q145 -10 278 -89v-130q-149 84 -278 90v-837q129 6 278 91v-130q-133 -79 -278 -89v-193h-129v197q-172 27 -269 151.5t-97 322.5zM339 450q0 -272 205 -324v813q-205 -51 -205 -325v-164z" />
<glyph d="M136 0v116l324 455h-294v110h278l-28 22q-120 95 -178 180.5t-58 168.5v14q0 150 112 243.5t310 93.5q102 0 199 -30t208 -94v-131q-113 64 -203 93t-173 29q-138 0 -212 -60t-74 -166v-12q0 -62 48 -128t155 -164l66 -59h228v-110h-222l-330 -453h722v-118h-878z" />
<glyph d="M81 1386h176l283 -681q31 -74 35 -85h2q8 25 33 85l288 681h156l-345 -788h244v-101h-769v101h242zM184 252v99h769v-99h-302v-252h-163v252h-304z" />
<glyph d="M62 673v101h1014v-101h-133l-76 -673h-178l-73 673h-95l-73 -673h-177l-76 673h-133zM62 918v100h94l-51 368h124l46 -368h187l37 368h140l38 -368h186l45 368h124l-49 -368h93v-100h-1014zM316 673l42 -375q11 -110 13 -138h4q6 63 14 138l33 375h-106zM544 1018h50 l-15 136q-8 71 -8 123h-4q0 -52 -8 -123zM716 673l32 -375l6 -50t10 -88h4q2 44 12 138l41 375h-105z" />
<glyph d="M35 519v99h764v-99h-462q5 -206 93 -309t251 -103q66 0 140.5 23t175.5 75v-130q-97 -49 -175 -71t-153 -22q-231 0 -360 137.5t-139 399.5h-135zM35 766v99h135q10 261 139 399.5t360 138.5q75 0 153 -23t175 -73v-130q-100 52 -174.5 75t-141.5 23q-162 0 -250.5 -103 t-93.5 -307h462v-99h-764z" />
<glyph d="M47 16l28 120q60 -29 115 -29q57 0 91.5 28.5t47.5 93.5l117 557h-185l25 120h186l37 180q34 163 127 240t256 77q99 0 196 -39l-24 -123q-82 38 -166 38q-101 0 -154 -41t-75 -148l-40 -184h364l-25 -120h-364l-116 -548q-30 -143 -96 -198.5t-187 -55.5q-73 0 -158 32z " />
<glyph d="M156 -134q209 -97 369 -97q147 0 227.5 66t80.5 188v174l-677 253v129l827 -304v-250q0 -176 -124 -285t-326 -109q-179 0 -377 100v135zM156 778v231q0 176 124 285t326 109q178 0 377 -100v-134q-210 97 -369 97q-147 0 -228.5 -66.5t-81.5 -188.5v-155l679 -254v-126z " />
</font>
</defs>
</svg>
